<svg xmlns="http://www.w3.org/2000/svg" xmlns:xlink="http://www.w3.org/1999/xlink" width="749.202" height="118.469" viewBox="0 0 749.202 118.469">
  <defs>
    <filter id="Animals_and_Their_Food" x="138" y="36.469" width="458" height="74" filterUnits="userSpaceOnUse">
      <feOffset dy="3" input="SourceAlpha"/>
      <feGaussianBlur stdDeviation="3" result="blur"/>
      <feFlood flood-opacity="0.502"/>
      <feComposite operator="in" in2="blur"/>
      <feComposite in="SourceGraphic"/>
    </filter>
  </defs>
  <g id="Animals_and_Food" data-name="Animals and Food" transform="translate(0.42 -6.27)">
    <rect id="Rectangle_384" data-name="Rectangle 384" width="741" height="87" rx="43.5" transform="translate(-0.42 37.739)" fill="#d8d7d7"/>
    <path id="Path_763" data-name="Path 763" d="M33.129,0H685.991a33.129,33.129,0,0,1,0,66.258H33.129A33.129,33.129,0,0,1,33.129,0Z" transform="translate(10.601 48.056)" fill="#746d6d"/>
    <g id="Spaceship" transform="matrix(0.914, 0.407, -0.407, 0.914, 678.364, 0)">
      <path id="Path_636" data-name="Path 636" d="M0,0H81.944S62.481,18.061,42.7,18.061,0,0,0,0Z" transform="translate(3.434 42.119)" fill="#474747"/>
      <path id="Path_634" data-name="Path 634" d="M11.923,5.56C16.577,3.166,26.5,0,42.785,0s31.94,3.893,34.292,5.56S88.344,17.57,88.344,17.57a165.207,165.207,0,0,1-41.693,5.807C24.565,23.377,0,17.57,0,17.57S7.27,7.955,11.923,5.56Z" transform="translate(0 25.296)" fill="#747172"/>
      <path id="Path_635" data-name="Path 635" d="M29.16,0c14.5,0,28.876,11.754,28.876,31.515A126.151,126.151,0,0,1,29.16,35.422,129.732,129.732,0,0,1,.032,31.515C-.8,10.627,14.659,0,29.16,0Z" transform="translate(15.415)" fill="#fff" opacity="0.59"/>
      <path id="Path_637" data-name="Path 637" d="M0,0A12.836,12.836,0,0,0,2.664.352,8.929,8.929,0,0,0,5.044,0s.845,10.883-.415,15.375S0,17.969,0,17.969Z" transform="translate(24.552 49.933) rotate(22)" fill="#b4b4b4"/>
      <path id="Path_638" data-name="Path 638" d="M0,18.367a12.836,12.836,0,0,1,2.664-.352,8.929,8.929,0,0,1,2.38.352S5.889,7.484,4.628,2.992,0,.4,0,.4Z" transform="translate(72.358 66.962) rotate(158)" fill="#b4b4b4"/>
      <path id="Path_639" data-name="Path 639" d="M.744,18.547A12.836,12.836,0,0,1,3.407,18.2a8.929,8.929,0,0,1,2.38.352S6.633,7.664,5.372,3.172,1.6-.758.447,3.086.744,18.547.744,18.547Z" transform="translate(46.997 72.32) rotate(-179)" fill="#b4b4b4"/>
      <path id="Path_640" data-name="Path 640" d="M2.571,0S21.844,5.328,40.759,5.328,78.479.517,78.479.517l2.066,2.334s-20.872,5.6-39.786,5.6S0,2.811,0,2.811.528,2.2,1.174,1.5,2.571,0,2.571,0Z" transform="translate(3.763 35.47)" fill="#9f9f9f"/>
      <path id="Path_641" data-name="Path 641" d="M.889,0C2.978,0,5.745,6.856,5.745,14.864S2.978,29,.889,29s.16-6.186.16-14.2S-1.2,0,.889,0Z" transform="translate(54.712 5.181) rotate(-30)" fill="#fff" opacity="0.33"/>
      <ellipse id="Ellipse_129" data-name="Ellipse 129" cx="1.734" cy="1.576" rx="1.734" ry="1.576" transform="translate(49.177 2.794)" fill="#fff" opacity="0.31"/>
    </g>
    <g transform="matrix(1, 0, 0, 1, -0.42, 6.27)" filter="url(#Animals_and_Their_Food)">
      <text id="Animals_and_Their_Food-2" data-name="Animals and Their Food" transform="translate(367 86.47)" fill="#fff" stroke="#fff" stroke-width="2" font-size="39" font-family="SegoeUI-Bold, Segoe UI" font-weight="700"><tspan x="-217.099" y="0">Animals and Their Food</tspan></text>
    </g>
  </g>
</svg>
