<svg xmlns="http://www.w3.org/2000/svg" xmlns:xlink="http://www.w3.org/1999/xlink" width="1605" height="1553" viewBox="0 0 1605 1553">
  <defs>
    <linearGradient id="linear-gradient" x1="0.5" x2="0.5" y2="1" gradientUnits="objectBoundingBox">
      <stop offset="0" stop-color="#ffeab1"/>
      <stop offset="1" stop-color="#c1d6c2"/>
    </linearGradient>
    <linearGradient id="linear-gradient-4" x1="0.5" x2="0.5" y2="1" gradientUnits="objectBoundingBox">
      <stop offset="0" stop-color="#e79578"/>
      <stop offset="1" stop-color="#faca69"/>
    </linearGradient>
    <linearGradient id="linear-gradient-5" x1="0.5" x2="0.5" y2="1" gradientUnits="objectBoundingBox">
      <stop offset="0" stop-color="#ffd169"/>
      <stop offset="1" stop-color="#ffe9b8"/>
    </linearGradient>
  </defs>
  <g id="asset" transform="translate(725)">
    <path id="Rectangle_50" data-name="Rectangle 50" d="M0,0H168a0,0,0,0,1,0,0V36a15,15,0,0,1-15,15H15A15,15,0,0,1,0,36V0A0,0,0,0,1,0,0Z" transform="translate(215 1246)" fill="#4b4343"/>
    <path id="chair" d="M97.571,0c53.888,0,97.573,55.21,97.573,123.316,0,36.777.72,76.192-19.641,98.96-17.055,19.072-53.143,24.356-77.932,24.356-25.92,0-62.185-3.336-79.81-24.356C-.94,199.973,0,158.662,0,123.316,0,55.21,43.683,0,97.571,0Z" transform="translate(201 921.369)" fill="#636262"/>
    <g id="board" transform="translate(-21.452)">
      <rect id="Rectangle_43" data-name="Rectangle 43" width="1035" height="661" transform="translate(-133.548 240)" fill="#9d5733"/>
      <rect id="Rectangle_44" data-name="Rectangle 44" width="974" height="603" transform="translate(-102.548 269)" fill="#38464f"/>
      <path id="Path_14" data-name="Path 14" d="M0,0H761.51V602.613S569.455,371.033,379.078,220.38,0,0,0,0Z" transform="translate(109.452 269)" opacity="0.1"/>
      <g id="eraser" transform="translate(721.452 843)">
        <path id="Rectangle_49" data-name="Rectangle 49" d="M3,0H92a3,3,0,0,1,3,3V24a0,0,0,0,1,0,0H0a0,0,0,0,1,0,0V3A3,3,0,0,1,3,0Z" fill="#bb9b71"/>
        <rect id="Rectangle_48" data-name="Rectangle 48" width="95" height="12" transform="translate(0 17)" fill="#318c3c"/>
      </g>
      <rect id="chalk" width="72" height="10" transform="translate(581.452 862)" fill="#f1eded"/>
    </g>
    <g id="Plant" transform="translate(-17 216)">
      <g id="Group_3" data-name="Group 3" transform="translate(-167 51.065)">
        <path id="Path_9" data-name="Path 9" d="M36.066-16.144s36.066,54.18,36.066,96.606S36.066,184.994,36.066,184.994V-16.144Z" transform="translate(243 577.439)" fill="#3c741b"/>
        <path id="Path_10" data-name="Path 10" d="M0,0S41.246,54.372,41.764,96.9,6.917,198.068,6.917,198.068s-2.9-51.991-3.486-99.834S0,0,0,0Z" transform="translate(279.295 759.581) rotate(-178)" fill="#60ad33"/>
      </g>
      <g id="Group_4" data-name="Group 4" transform="translate(-486.885 348.337) rotate(-30)">
        <path id="Path_9-2" data-name="Path 9" d="M36.066-16.144S72.132,19.2,72.132,46.873s-36.066,68.186-36.066,68.186v-131.2Z" transform="translate(243 577.439)" fill="#3c741b"/>
        <path id="Path_10-2" data-name="Path 10" d="M31.566-15.693S72.132,19.2,72.132,46.873s-36.066,66.285-36.066,66.285S33.8,79.348,33.8,48.211,31.566-15.693,31.566-15.693Z" transform="translate(311.389 675.063) rotate(-178)" fill="#60ad33"/>
      </g>
      <g id="Group_5" data-name="Group 5" transform="translate(217.799 70.17) rotate(30)">
        <path id="Path_9-3" data-name="Path 9" d="M36.066-16.144s36.066,35.723,36.066,63.7-36.066,68.921-36.066,68.921V-16.144Z" transform="translate(242.912 577.439)" fill="#3c741b"/>
        <path id="Path_10-3" data-name="Path 10" d="M0,0S40.579,35.279,40.589,63.248,4.548,130.226,4.548,130.226,2.267,96.056,2.255,64.587,0,0,0,0Z" transform="translate(279.295 691.059) rotate(-178)" fill="#60ad33"/>
      </g>
      <path id="Path_7" data-name="Path 7" d="M0,0H122L109.26,84.852H12.854Z" transform="translate(49 805.148)" fill="#b36f42"/>
      <path id="Path_26" data-name="Path 26" d="M0,0H62.728V84.852H12.854Z" transform="translate(49 805.148)" opacity="0.37"/>
      <rect id="Rectangle_34" data-name="Rectangle 34" width="130" height="15" rx="7.5" transform="translate(45 806)" fill="#9b5632"/>
      <rect id="Rectangle_33" data-name="Rectangle 33" width="145" height="15" rx="7.5" transform="translate(37 798)" fill="#db9551"/>
    </g>
    <g id="pencilcase" transform="translate(-10 514)">
      <g id="pencils">
        <rect id="Rectangle_66" data-name="Rectangle 66" width="10" height="46" transform="translate(717 492)" fill="#1c76b3"/>
        <rect id="Rectangle_67" data-name="Rectangle 67" width="10" height="3" transform="translate(717 495)" fill="#f7fcff"/>
        <path id="Rectangle_68" data-name="Rectangle 68" d="M5,0H5a5,5,0,0,1,5,5V7a0,0,0,0,1,0,0H0A0,0,0,0,1,0,7V5A5,5,0,0,1,5,0Z" transform="translate(717 485)" fill="#f35c5c"/>
      </g>
      <g id="ruler" transform="matrix(0.966, -0.259, 0.259, 0.966, -109.805, 194.952)">
        <rect id="Rectangle_53" data-name="Rectangle 53" width="23" height="53" transform="translate(674 488)" fill="#4dcf7d"/>
        <rect id="Rectangle_54" data-name="Rectangle 54" width="9" height="53" transform="translate(674 488)" fill="#54996e"/>
        <rect id="Rectangle_55" data-name="Rectangle 55" width="1" height="5" transform="translate(697 491) rotate(90)" fill="#dfdfdf"/>
        <rect id="Rectangle_56" data-name="Rectangle 56" width="1" height="3" transform="translate(697 495) rotate(90)" fill="#dfdfdf"/>
        <rect id="Rectangle_57" data-name="Rectangle 57" width="1" height="5" transform="translate(697 499) rotate(90)" fill="#dfdfdf"/>
        <rect id="Rectangle_58" data-name="Rectangle 58" width="1" height="3" transform="translate(697 503) rotate(90)" fill="#dfdfdf"/>
        <rect id="Rectangle_59" data-name="Rectangle 59" width="1" height="5" transform="translate(697 507) rotate(90)" fill="#dfdfdf"/>
        <rect id="Rectangle_60" data-name="Rectangle 60" width="1" height="3" transform="translate(697 511) rotate(90)" fill="#dfdfdf"/>
        <rect id="Rectangle_61" data-name="Rectangle 61" width="1" height="5" transform="translate(697 515) rotate(90)" fill="#dfdfdf"/>
        <rect id="Rectangle_62" data-name="Rectangle 62" width="1" height="3" transform="translate(697 519) rotate(90)" fill="#dfdfdf"/>
      </g>
      <g id="pen" transform="matrix(0.998, 0.07, -0.07, 0.998, 53.663, -60.15)">
        <rect id="Rectangle_65" data-name="Rectangle 65" width="2" height="4" transform="translate(735.56 498.572) rotate(7)" fill="#4dcf7d"/>
        <path id="Path_34" data-name="Path 34" d="M0,0C1.6-8.485,3.669-11.26,6.669-11.26S11.193-6.916,12,0s0,46,0,46H0S-1.6,8.485,0,0Z" transform="matrix(0.966, 0.259, -0.259, 0.966, 723.941, 500.471)" fill="#293f47"/>
        <path id="Path_35" data-name="Path 35" d="M-.895.221S-.314-.843.452-.843,2.169.221,2.169.221s-.208,5.536,0,11.533S3.429,21.092,3,24.205s-1.911,3.113-2.548,0,.337-6.456,0-12.452A105.894,105.894,0,0,0-.895.221Z" transform="matrix(0.966, 0.259, -0.259, 0.966, 738.31, 497.074)" fill="#293f47"/>
      </g>
      <g id="pencil" transform="matrix(0.966, -0.259, 0.259, 0.966, -109.805, 194.952)">
        <rect id="Rectangle_64" data-name="Rectangle 64" width="12" height="46" transform="matrix(0.966, 0.259, -0.259, 0.966, 703.19, 508.369)" fill="#f6ed7d"/>
        <path id="Path_31" data-name="Path 31" d="M5.14-2.929H7.084l4.925,12.954h-12Z" transform="matrix(0.966, 0.259, -0.259, 0.966, 705.778, 498.71)" fill="#f6ad7d"/>
        <path id="Path_32" data-name="Path 32" d="M3.174-3.767h0l2.42,6.409H.666Z" transform="matrix(0.966, 0.259, -0.259, 0.966, 709.157, 497.69)" fill="#605d5b"/>
      </g>
      <path id="Path_25" data-name="Path 25" d="M0,0H80L71.161,72H9.866Z" transform="translate(668 520)" fill="#fe3d3d"/>
      <path id="Path_29" data-name="Path 29" d="M0,0H40.979V72H9.866Z" transform="translate(668 520)" opacity="0.28"/>
      <path id="Path_30" data-name="Path 30" d="M92.485,14.979h0Z" transform="translate(662.466 514.021)" fill="#d22b2b"/>
      <rect id="Rectangle_52" data-name="Rectangle 52" width="93" height="12" rx="6" transform="translate(662 520)" fill="#fc8f8f"/>
    </g>
    <ellipse id="shadow" cx="440.5" cy="85" rx="440.5" ry="85" transform="translate(-44 1383)" opacity="0.17"/>
    <g id="desk" transform="translate(-10 514)">
      <path id="Path_144" data-name="Path 144" d="M0,0H35l1.873,194.88L1.011,203.159Z" transform="translate(119.316 753.738) rotate(13)" fill="#9b5632"/>
      <path id="Path_18" data-name="Path 18" d="M0,0H35l-.455,201.848L0,192.952Z" transform="matrix(0.974, -0.225, 0.225, 0.974, 606.91, 761.611)" fill="#9b5632"/>
      <rect id="Rectangle_32" data-name="Rectangle 32" width="745" height="107" transform="translate(10 657)" fill="#b4703f"/>
      <rect id="Rectangle_149" data-name="Rectangle 149" width="801" height="40" rx="20" transform="translate(-16 627)" fill="#9b5632"/>
      <rect id="Rectangle_30" data-name="Rectangle 30" width="856" height="47" rx="23.5" transform="translate(-41 592)" fill="#db9551"/>
    </g>
    <g id="bookred" transform="translate(-10 216)">
      <rect id="Rectangle_35" data-name="Rectangle 35" width="179" height="31" rx="7" transform="translate(423 859)" fill="#e84646"/>
      <rect id="Rectangle_37" data-name="Rectangle 37" width="42" height="23" transform="translate(453 863)" fill="#ffdcdc"/>
      <rect id="Rectangle_36" data-name="Rectangle 36" width="7" height="23" transform="translate(440 863)" fill="#ffdcdc"/>
      <rect id="Rectangle_38" data-name="Rectangle 38" width="7" height="23" transform="translate(581 863)" fill="#ffdcdc"/>
    </g>
    <g id="bookblue" transform="translate(5 185)">
      <rect id="Rectangle_35-2" data-name="Rectangle 35" width="179" height="31" rx="7" transform="translate(423 859)" fill="#4873bb"/>
      <rect id="Rectangle_37-2" data-name="Rectangle 37" width="42" height="23" transform="translate(453 863)" fill="#e2dcff"/>
      <rect id="Rectangle_36-2" data-name="Rectangle 36" width="7" height="23" transform="translate(440 863)" fill="#e2dcff"/>
      <rect id="Rectangle_38-2" data-name="Rectangle 38" width="7" height="23" transform="translate(581 863)" fill="#e2dcff"/>
    </g>
    <g id="apple" transform="translate(-10 216)">
      <path id="Path_12" data-name="Path 12" d="M0,0A10.71,10.71,0,0,1,4.675-1.225,15.9,15.9,0,0,1,10,0,249.359,249.359,0,0,0,8.311,25.138,114.452,114.452,0,0,0,10,45H0A99.823,99.823,0,0,0,1.947,25.138,216.954,216.954,0,0,0,0,0Z" transform="translate(529 752)" fill="#9e4918"/>
      <path id="Path_11" data-name="Path 11" d="M32.573,14.965c2.465,0,6.682-2.381,9.211-2.2C56.1,13.774,65.146,21.072,65.146,37.187c0,16.88-11.918,30.871-27.7,33.435-1.45.236-3.145-2.446-4.873-2.446-1.817,0-3.6,2.667-5.559,2.331C11.786,67.9,0,53.974,0,37.187,0,21.875,8.184,14.141,21.864,12.763,24.585,12.489,29.335,14.965,32.573,14.965Z" transform="translate(501.854 756.872)" fill="#e65c5c"/>
      <g id="Group_6" data-name="Group 6" transform="translate(860.598 88.393) rotate(47)">
        <path id="Path_9-4" data-name="Path 9" d="M0,0S7.166,10.17,7.233,17.429s-6.18,17.9-6.18,17.9S.376,27.183.3,19.017,0,0,0,0Z" transform="matrix(0.999, 0.035, -0.035, 0.999, 279.318, 667.86)" fill="#3c741b"/>
        <path id="Path_10-4" data-name="Path 10" d="M0,0S6.863,9.828,6.935,17.554s-5.85,18.428-5.85,18.428S.619,26.539.538,17.846,0,0,0,0Z" transform="translate(279.185 703.621) rotate(-178)" fill="#60ad33"/>
      </g>
    </g>
    <g id="lights" transform="translate(-195)">
      <path id="Path_15" data-name="Path 15" d="M73.1,0c40.37,0,73.1,23.656,73.1,52.837S73.1,78.042,73.1,78.042,0,82.018,0,52.837,32.726,0,73.1,0Z" transform="translate(169.808 72.769)" fill="#c2997a"/>
      <path id="Path_16" data-name="Path 16" d="M11.073-3.839c14.207-2.895,35.378-4.43,56.8-4.49,19.454-.054,39.16,1.181,53.12,3.8,28.9,5.427,2.069,17.743,2.069,17.743a216.406,216.406,0,0,1-53.48,7.071,312.968,312.968,0,0,1-53.7-4.861S-16.407,1.76,11.073-3.839Z" transform="translate(175.937 127.098)" fill="#926e44"/>
      <path id="Path_27" data-name="Path 27" d="M26.816-2.732s-4.544-.2,6.586-.937c6.27-.416,14.364-.526,22.63-.8A267.078,267.078,0,0,1,94.39-2.732c2.942.357-4.558-.527-4.558-.527L125,56H-4.337Z" transform="translate(185 123)" opacity="0.42" fill="url(#linear-gradient)"/>
      <path id="Path_17" data-name="Path 17" d="M23.5,18.564c12.979,0,23.846.774,23.846.774s-9.718,14.145-22.7,14.145S.728,19.338.728,19.338l8.409-.5S14.713,18.564,23.5,18.564Z" transform="translate(219 100)" fill="#e9dd75"/>
      <rect id="Rectangle_45" data-name="Rectangle 45" width="5" height="98" transform="translate(240)" fill="#c2997a"/>
    </g>
    <g id="lights-2" data-name="lights" transform="translate(302)">
      <path id="Path_15-2" data-name="Path 15" d="M73.1,0c40.37,0,73.1,23.656,73.1,52.837S73.1,78.042,73.1,78.042,0,82.018,0,52.837,32.726,0,73.1,0Z" transform="translate(169.808 72.769)" fill="#c2997a"/>
      <path id="Path_16-2" data-name="Path 16" d="M11.073-3.839c14.207-2.895,35.378-4.43,56.8-4.49,19.454-.054,39.16,1.181,53.12,3.8,28.9,5.427,2.069,17.743,2.069,17.743a216.406,216.406,0,0,1-53.48,7.071,312.968,312.968,0,0,1-53.7-4.861S-16.407,1.76,11.073-3.839Z" transform="translate(175.937 127.098)" fill="#926e44"/>
      <path id="Path_28" data-name="Path 28" d="M26.816-2.732s-4.544-.2,6.586-.937c6.27-.416,14.364-.526,22.63-.8A267.078,267.078,0,0,1,94.39-2.732c2.942.357-4.558-.527-4.558-.527L125,56H-7.107Z" transform="translate(185 123)" opacity="0.42" fill="url(#linear-gradient)"/>
      <path id="Path_17-2" data-name="Path 17" d="M23.5,18.564c12.979,0,23.846.774,23.846.774s-9.718,14.145-22.7,14.145S.728,19.338.728,19.338l8.409-.5S14.713,18.564,23.5,18.564Z" transform="translate(219 100)" fill="#e9dd75"/>
      <rect id="Rectangle_45-2" data-name="Rectangle 45" width="5" height="98" transform="translate(240)" fill="#c2997a"/>
    </g>
    <g id="lights-3" data-name="lights" transform="translate(-708)">
      <path id="Path_15-3" data-name="Path 15" d="M73.1,0c40.37,0,73.1,23.656,73.1,52.837S73.1,78.042,73.1,78.042,0,82.018,0,52.837,32.726,0,73.1,0Z" transform="translate(169.808 72.769)" fill="#c2997a"/>
      <path id="Path_16-3" data-name="Path 16" d="M11.073-3.839c14.207-2.895,35.378-4.43,56.8-4.49,19.454-.054,39.16,1.181,53.12,3.8,28.9,5.427,2.069,17.743,2.069,17.743a216.406,216.406,0,0,1-53.48,7.071,312.968,312.968,0,0,1-53.7-4.861S-16.407,1.76,11.073-3.839Z" transform="translate(175.937 127.098)" fill="#926e44"/>
      <path id="Path_27-2" data-name="Path 27" d="M26.816-2.732s-4.544-.2,6.586-.937c6.27-.416,14.364-.526,22.63-.8A267.078,267.078,0,0,1,94.39-2.732c2.942.357-4.558-.527-4.558-.527L125,56H-4.357Z" transform="translate(185 123)" opacity="0.42" fill="url(#linear-gradient)"/>
      <path id="Path_17-3" data-name="Path 17" d="M23.5,18.564c12.979,0,23.846.774,23.846.774s-9.718,14.145-22.7,14.145S.728,19.338.728,19.338l8.409-.5S14.713,18.564,23.5,18.564Z" transform="translate(219 100)" fill="#e9dd75"/>
      <rect id="Rectangle_45-3" data-name="Rectangle 45" width="5" height="98" transform="translate(240)" fill="#c2997a"/>
    </g>
    <rect id="Rectangle_51" data-name="Rectangle 51" width="22" height="95" transform="translate(288 1297)" fill="#636262"/>
    <path id="Path_20" data-name="Path 20" d="M0,0,17.991-.892l-3.38,69.183L20.937,73.6l-8.851,6.544L4.073,73.419Z" transform="translate(288.53 1389.186) rotate(48)" fill="#636262"/>
    <circle id="Ellipse_2" data-name="Ellipse 2" cx="8.5" cy="8.5" r="8.5" transform="translate(232 1444)" fill="#333"/>
    <path id="Path_22" data-name="Path 22" d="M-.4,9.27h17.98L11.7,80H2.544Z" transform="translate(291.571 1379.064)" fill="#636262"/>
    <circle id="Ellipse_3" data-name="Ellipse 3" cx="8.5" cy="8.5" r="8.5" transform="translate(290 1451)" fill="#333"/>
    <path id="Path_21" data-name="Path 21" d="M0,0,15.967-.678,15.9,69.528,20.937,73.6l-8.874,6.043L5.074,74.076Z" transform="translate(292.331 1378.567) rotate(74)" fill="#636262"/>
    <circle id="Ellipse_4" data-name="Ellipse 4" cx="8.5" cy="8.5" r="8.5" transform="translate(212 1412)" fill="#333"/>
    <path id="Path_23" data-name="Path 23" d="M0,80.143l17.991.892-3.38-69.183,6.326-5.308L12.086,0,4.073,6.724Z" transform="translate(369.203 1439.813) rotate(132)" fill="#636262"/>
    <circle id="Ellipse_5" data-name="Ellipse 5" cx="8.5" cy="8.5" r="8.5" transform="translate(350 1442)" fill="#333"/>
    <path id="Path_24" data-name="Path 24" d="M0,79.643l15.967.678L15.9,10.115l5.037-4.071L12.063,0,5.074,5.567Z" transform="translate(385.754 1401.52) rotate(106)" fill="#636262"/>
    <circle id="Ellipse_6" data-name="Ellipse 6" cx="8.5" cy="8.5" r="8.5" transform="translate(372 1413)" fill="#333"/>
    <g id="window" transform="translate(-738 -150.194)">
      <rect id="Rectangle_158" data-name="Rectangle 158" width="500" height="31" transform="translate(28 1024.194)" fill="#fff"/>
      <path id="Path_148" data-name="Path 148" d="M0,0H442V630H0Z" transform="translate(57 394.194)" fill="#dde6e6"/>
      <path id="Path_152" data-name="Path 152" d="M0,0H372V144H0Z" transform="translate(89 430.194)" fill="#deb27c"/>
      <rect id="Rectangle_164" data-name="Rectangle 164" width="372" height="100" transform="translate(89 549.194)" fill="#e8edce"/>
      <rect id="Rectangle_165" data-name="Rectangle 165" width="349" height="87" transform="translate(100 549.194)" fill="url(#linear-gradient-4)"/>
      <rect id="Rectangle_170" data-name="Rectangle 170" width="372" height="10" transform="translate(89 453.194)" fill="#d2ac7b"/>
      <rect id="Rectangle_171" data-name="Rectangle 171" width="11" height="87" transform="translate(438 549.194)" fill="#fdfee9"/>
      <rect id="Rectangle_172" data-name="Rectangle 172" width="372" height="10" transform="translate(89 472.194)" fill="#d2ac7b"/>
      <rect id="Rectangle_173" data-name="Rectangle 173" width="372" height="10" transform="translate(89 491.194)" fill="#d2ac7b"/>
      <rect id="Rectangle_174" data-name="Rectangle 174" width="372" height="10" transform="translate(89 510.194)" fill="#d2ac7b"/>
      <rect id="Rectangle_175" data-name="Rectangle 175" width="372" height="10" transform="translate(89 529.194)" fill="#d2ac7b"/>
      <path id="Path_149" data-name="Path 149" d="M0,0H372V375H0Z" transform="translate(89 649.194)" fill="url(#linear-gradient-5)"/>
      <rect id="Rectangle_177" data-name="Rectangle 177" width="11" height="375" transform="translate(449 649.194)" fill="#fdfee9"/>
      <path id="Path_153" data-name="Path 153" d="M10.2,20.091,39.723-10.48,60.35,9.528,47.9,482.255,0,436Z" transform="matrix(0.695, 0.719, -0.719, 0.695, 402.853, 527.933)" fill="#fff" opacity="0.24"/>
      <path id="Path_150" data-name="Path 150" d="M-3.076,0H38.992V61.945H77.863v58.544h37.4V0h42.055V33.911H190.6v65.26h12.265V57.563h38.981V0H284.06V44.226h37.23V23.159h35.539V299.115l-359.707-.283Z" transform="translate(92 725.194)" opacity="0.45"/>
      <path id="Path_151" data-name="Path 151" d="M-3.076,0H38.992V61.945H77.863v58.544h37.4V0h42.055V33.911H190.6v65.26h12.265V57.563h38.981V0H284.06V44.226h37.23V23.159h35.539V299.115l-359.707-.283Z" transform="translate(92 725.194)" opacity="0.35"/>
      <path id="Path_154" data-name="Path 154" d="M11.927-36.333,35.044-14.009l-9.07,475.092L0,436Z" transform="matrix(0.695, 0.719, -0.719, 0.695, 403.854, 609.933)" fill="#fff" opacity="0.18"/>
      <path id="Path_155" data-name="Path 155" d="M21.695-52.136,89.167,13.021l.481,334.237L23.2,416.068Z" transform="matrix(0.695, 0.719, -0.719, 0.695, 395.854, 719.933)" fill="#fff" opacity="0.22"/>
      <path id="Path_156" data-name="Path 156" d="M18.105,193.687l42.653-44.168,45.147-46.751L94.994,405.856,10.21,323.981Z" transform="matrix(0.695, 0.719, -0.719, 0.695, 314.854, 401.933)" fill="#fff" opacity="0.24"/>
      <path id="Path_157" data-name="Path 157" d="M24.972,53.224l100.635,97.182-.134,52.351L23.665,308.182Z" transform="matrix(0.695, 0.719, -0.719, 0.695, 468.854, 792.933)" fill="#fff" opacity="0.15"/>
      <rect id="Rectangle_179" data-name="Rectangle 179" width="10" height="414" transform="translate(107 430.194)" fill="#8d7e76"/>
      <rect id="Rectangle_180" data-name="Rectangle 180" width="31" height="57" rx="15.5" transform="translate(97 829.194)" fill="#d97c4b"/>
    </g>
    <g id="cabinet" transform="translate(-725)">
      <ellipse id="Ellipse_43" data-name="Ellipse 43" cx="288.5" cy="68" rx="288.5" ry="68" transform="translate(0 1406)" opacity="0.16"/>
      <rect id="Rectangle_178" data-name="Rectangle 178" width="469" height="426" transform="translate(46 1015)" fill="#949090"/>
      <rect id="Rectangle_181" data-name="Rectangle 181" width="515" height="23" transform="translate(24 1015)" fill="#5f5d5d"/>
      <rect id="Rectangle_182" data-name="Rectangle 182" width="515" height="33" transform="translate(23 1408)" fill="#5f5d5d"/>
      <g id="bukasan" transform="translate(1 23)">
        <rect id="Rectangle_184" data-name="Rectangle 184" width="445" height="94" transform="translate(58 1129)" fill="#fff"/>
        <path id="Path_158" data-name="Path 158" d="M0,0H357.006V11.3H0Z" transform="translate(100.687 1182.699)" fill="#aaa"/>
        <g id="Rectangle_187" data-name="Rectangle 187" transform="translate(66 1138)" fill="none" stroke="#707070" stroke-width="5">
          <rect width="428" height="76" stroke="none"/>
          <rect x="2.5" y="2.5" width="423" height="71" fill="none"/>
        </g>
        <path id="Path_159" data-name="Path 159" d="M0,0H357.006V11.3H0Z" transform="translate(100.687 1182.699)" fill="#aaa"/>
        <path id="Path_160" data-name="Path 160" d="M0,0H357.006V11.3H0Z" transform="translate(100.687 1182.699)" fill="#aaa"/>
      </g>
      <g id="bukasan-2" data-name="bukasan" transform="translate(1 -81)">
        <rect id="Rectangle_184-2" data-name="Rectangle 184" width="445" height="94" transform="translate(58 1129)" fill="#fff"/>
        <g id="Rectangle_187-2" data-name="Rectangle 187" transform="translate(66 1138)" fill="none" stroke="#707070" stroke-width="5">
          <rect width="211" height="76" stroke="none"/>
          <rect x="2.5" y="2.5" width="206" height="71" fill="none"/>
        </g>
        <g id="Rectangle_188" data-name="Rectangle 188" transform="translate(284 1138)" fill="none" stroke="#707070" stroke-width="5">
          <rect width="211" height="76" stroke="none"/>
          <rect x="2.5" y="2.5" width="206" height="71" fill="none"/>
        </g>
        <rect id="Rectangle_191" data-name="Rectangle 191" width="33" height="12" transform="translate(155 1170)" fill="#aaa"/>
        <rect id="Rectangle_192" data-name="Rectangle 192" width="33" height="12" transform="translate(376 1170)" fill="#aaa"/>
      </g>
      <g id="bukasan-3" data-name="bukasan" transform="translate(1 127)">
        <rect id="Rectangle_184-3" data-name="Rectangle 184" width="223" height="146" transform="translate(58 1129)" fill="#fff"/>
        <g id="Rectangle_187-3" data-name="Rectangle 187" transform="translate(66 1138)" fill="none" stroke="#707070" stroke-width="5">
          <rect width="210" height="128" stroke="none"/>
          <rect x="2.5" y="2.5" width="205" height="123" fill="none"/>
        </g>
        <rect id="Rectangle_189" data-name="Rectangle 189" width="2" height="118" transform="translate(170 1143)" fill="#8f8989"/>
        <rect id="Rectangle_193" data-name="Rectangle 193" width="22" height="12" transform="translate(159.5 1191.5) rotate(90)" fill="#aaa"/>
        <rect id="Rectangle_194" data-name="Rectangle 194" width="22" height="12" transform="translate(194.5 1191.5) rotate(90)" fill="#aaa"/>
      </g>
      <g id="bukasan-4" data-name="bukasan" transform="translate(224 127)">
        <rect id="Rectangle_184-4" data-name="Rectangle 184" width="223" height="146" transform="translate(58 1129)" fill="#fff"/>
        <g id="Rectangle_187-4" data-name="Rectangle 187" transform="translate(64 1138)" fill="none" stroke="#707070" stroke-width="5">
          <rect width="208" height="128" stroke="none"/>
          <rect x="2.5" y="2.5" width="203" height="123" fill="none"/>
        </g>
        <rect id="Rectangle_190" data-name="Rectangle 190" width="2" height="118" transform="translate(170 1143)" fill="#8f8989"/>
        <rect id="Rectangle_195" data-name="Rectangle 195" width="22" height="12" transform="translate(160.5 1191.5) rotate(90)" fill="#aaa"/>
        <rect id="Rectangle_196" data-name="Rectangle 196" width="22" height="12" transform="translate(193.5 1191.5) rotate(90)" fill="#aaa"/>
      </g>
      <path id="Path_166" data-name="Path 166" d="M0,0H35L29.245,26H5.593Z" transform="translate(84 1429)" fill="#5f5d5d"/>
      <path id="Path_167" data-name="Path 167" d="M0,0H35L29.245,26H5.593Z" transform="translate(441 1428)" fill="#5f5d5d"/>
    </g>
    <g id="bookdiv" transform="translate(-734 -3)">
      <g id="bookblack" transform="translate(1005.335 446.763) rotate(90)">
        <rect id="Rectangle_35-3" data-name="Rectangle 35" width="145" height="13" rx="4" transform="translate(423.237 858.335)" fill="#6eed7a"/>
        <rect id="Rectangle_36-3" data-name="Rectangle 36" width="17" height="9" transform="translate(437.237 860.335)" fill="#ffdcdc"/>
        <rect id="Rectangle_38-3" data-name="Rectangle 38" width="8" height="13" transform="translate(549.237 858.335)" fill="#ffdcdc"/>
      </g>
      <g id="bookblack-2" data-name="bookblack" transform="translate(977.543 446.763) rotate(90)">
        <rect id="Rectangle_35-4" data-name="Rectangle 35" width="145" height="22" rx="4" transform="translate(423.237 858.543)" fill="#2fb0df"/>
        <rect id="Rectangle_36-4" data-name="Rectangle 36" width="17" height="16" transform="translate(437.237 861.543)" fill="#ffdcdc"/>
        <rect id="Rectangle_38-4" data-name="Rectangle 38" width="8" height="22" transform="translate(549.237 858.543)" fill="#ffdcdc"/>
      </g>
      <g id="bookblack-3" data-name="bookblack" transform="translate(991.335 445.763) rotate(90)">
        <rect id="Rectangle_35-5" data-name="Rectangle 35" width="145" height="13" rx="4" transform="translate(423.237 858.335)" fill="#39535d"/>
        <rect id="Rectangle_36-5" data-name="Rectangle 36" width="17" height="9" transform="translate(437.237 860.335)" fill="#ffdcdc"/>
        <rect id="Rectangle_38-5" data-name="Rectangle 38" width="8" height="13" transform="translate(549.237 858.335)" fill="#ffdcdc"/>
      </g>
      <path id="Path_161" data-name="Path 161" d="M0,0H56.429L83.584,105H0Z" transform="translate(93 911)" fill="#ec5151"/>
      <rect id="Rectangle_198" data-name="Rectangle 198" width="47" height="10" transform="translate(100.5 926.5)" fill="#d25353"/>
      <rect id="Rectangle_199" data-name="Rectangle 199" width="52" height="10" transform="translate(100.5 941.5)" fill="#d25353"/>
      <rect id="Rectangle_200" data-name="Rectangle 200" width="56" height="10" transform="translate(100.5 956.5)" fill="#d25353"/>
      <rect id="Rectangle_201" data-name="Rectangle 201" width="59" height="10" transform="translate(100.5 971.5)" fill="#d25353"/>
      <rect id="Rectangle_202" data-name="Rectangle 202" width="64" height="10" transform="translate(100.5 986.5)" fill="#d25353"/>
      <rect id="Rectangle_203" data-name="Rectangle 203" width="9" height="103" transform="translate(140.675 914.618) rotate(-14)" fill="#ec5151"/>
    </g>
    <g id="frame" transform="translate(-725)">
      <path id="Path_162" data-name="Path 162" d="M0,0,31.133.071,35,8H0Z" transform="translate(279.075 987.019) rotate(116)" fill="#ca8e6f"/>
      <path id="Path_163" data-name="Path 163" d="M3.688.437,35,0V8H0Z" transform="translate(305.885 1018.476) rotate(-116)" fill="#ca8e6f"/>
      <rect id="Rectangle_205" data-name="Rectangle 205" width="7" height="52" transform="translate(311 995) rotate(90)" fill="#ca8e6f"/>
      <rect id="Rectangle_204" data-name="Rectangle 204" width="108" height="74" transform="translate(231 915)" fill="#fff"/>
      <rect id="Rectangle_206" data-name="Rectangle 206" width="98" height="64" transform="translate(236 920)" fill="#6e6767"/>
    </g>
    <g id="drink" transform="translate(-725)">
      <path id="Path_164" data-name="Path 164" d="M-4.261,0H56.175l-10.4,73H7.287Z" transform="translate(400 942)" fill="#f0ab52"/>
      <path id="Path_165" data-name="Path 165" d="M3.567,0H57L53.408,25H7.555Z" transform="translate(396 967)" fill="#f37138"/>
      <g id="Ellipse_42" data-name="Ellipse 42" transform="translate(416 969)" fill="#fff" stroke="#6b6060" stroke-width="3">
        <circle cx="10" cy="10" r="10" stroke="none"/>
        <circle cx="10" cy="10" r="8.5" fill="none"/>
      </g>
      <rect id="Rectangle_207" data-name="Rectangle 207" width="65" height="12" transform="translate(393 942)" fill="#5f5d5d"/>
      <rect id="Rectangle_208" data-name="Rectangle 208" width="40" height="6" transform="translate(406 936)" fill="#5f5d5d"/>
    </g>
  </g>
</svg>
