<svg id="svg" version="1.1" xmlns="http://www.w3.org/2000/svg" xmlns:xlink="http://www.w3.org/1999/xlink" width="400" height="400" viewBox="0, 0, 400,400"><g id="svgg"><path id="path0" d="M19.400 32.078 C 18.740 32.311,17.792 32.873,17.293 33.327 C 15.112 35.312,15.246 27.838,14.946 163.450 C 14.793 232.411,14.526 288.922,14.352 289.030 C 13.428 289.601,17.003 294.473,18.866 295.183 C 19.599 295.463,20.920 296.017,21.800 296.415 C 26.672 298.619,29.957 299.910,30.165 299.702 C 30.294 299.573,30.400 299.648,30.400 299.870 C 30.400 300.092,31.152 300.499,32.071 300.774 C 32.990 301.049,34.383 301.618,35.165 302.037 C 35.948 302.457,36.736 302.800,36.916 302.800 C 37.213 302.800,42.379 304.895,45.400 306.241 C 48.612 307.671,52.370 309.200,52.673 309.200 C 52.859 309.200,53.639 309.534,54.406 309.941 C 55.173 310.349,56.520 310.915,57.400 311.199 C 58.280 311.483,59.090 311.841,59.200 311.994 C 59.310 312.147,60.210 312.559,61.200 312.909 C 63.387 313.684,67.761 315.445,69.400 316.212 C 70.060 316.521,72.310 317.437,74.400 318.247 C 76.490 319.057,78.470 319.950,78.800 320.231 C 79.130 320.513,79.580 320.761,79.800 320.783 C 80.864 320.889,83.085 321.639,83.800 322.133 C 84.692 322.750,87.634 323.809,88.100 323.682 C 88.265 323.637,88.400 323.744,88.400 323.921 C 88.400 324.098,89.345 324.582,90.500 324.997 C 91.655 325.412,93.050 325.987,93.600 326.273 C 94.150 326.560,94.745 326.796,94.922 326.798 C 95.232 326.800,100.469 328.940,103.800 330.426 C 109.100 332.789,111.958 333.909,112.165 333.702 C 112.294 333.573,112.400 333.648,112.400 333.870 C 112.400 334.092,113.480 334.600,114.800 335.000 C 116.120 335.400,117.200 335.859,117.200 336.020 C 117.200 336.181,117.692 336.437,118.294 336.588 C 119.266 336.832,124.097 338.770,127.400 340.241 C 130.071 341.430,134.260 343.128,135.200 343.403 C 135.750 343.563,136.534 343.988,136.942 344.347 C 137.350 344.706,137.710 344.926,137.742 344.836 C 137.823 344.606,140.956 345.655,141.200 345.994 C 141.310 346.147,142.210 346.559,143.200 346.909 C 144.190 347.260,146.163 348.031,147.584 348.623 C 149.006 349.215,150.626 349.690,151.184 349.677 C 152.296 349.652,154.327 350.198,156.200 351.024 C 159.134 352.318,165.116 354.800,165.301 354.800 C 165.413 354.800,165.488 345.305,165.468 333.700 C 165.448 322.095,165.458 311.070,165.491 309.200 C 165.523 307.330,165.516 302.740,165.475 299.000 C 165.434 295.260,165.490 286.890,165.600 280.400 C 165.709 273.910,165.761 258.610,165.714 246.400 C 165.667 234.190,165.698 206.020,165.783 183.800 C 165.869 161.580,165.952 131.710,165.969 117.422 L 166.000 91.443 167.319 92.722 C 168.045 93.425,168.741 94.000,168.866 94.000 C 168.992 94.000,168.285 93.190,167.295 92.200 C 166.305 91.210,165.413 90.400,165.312 90.400 C 165.212 90.400,163.031 89.515,160.465 88.434 C 157.899 87.353,154.000 85.742,151.800 84.854 C 149.600 83.967,144.470 81.863,140.400 80.180 C 136.330 78.497,131.920 76.704,130.600 76.196 C 129.280 75.687,124.870 73.883,120.800 72.186 C 116.730 70.488,112.320 68.686,111.000 68.181 C 109.680 67.675,107.250 66.691,105.600 65.994 C 100.519 63.848,89.130 59.174,86.600 58.198 C 85.280 57.688,80.870 55.883,76.800 54.186 C 72.730 52.488,68.320 50.686,67.000 50.181 C 65.680 49.675,63.250 48.690,61.600 47.991 C 59.950 47.293,56.170 45.738,53.200 44.536 C 50.230 43.334,46.810 41.932,45.600 41.420 C 44.390 40.908,41.060 39.544,38.200 38.389 C 35.340 37.234,30.750 35.346,28.000 34.194 C 22.255 31.786,21.060 31.492,19.400 32.078 M373.951 32.988 C 372.548 33.489,370.050 34.444,368.400 35.111 C 366.750 35.777,364.452 36.700,363.293 37.162 C 362.134 37.624,360.874 38.174,360.493 38.385 C 360.112 38.595,358.090 39.416,356.000 40.208 C 353.910 41.001,351.480 41.995,350.600 42.418 C 348.770 43.296,346.673 44.158,343.800 45.212 C 342.700 45.616,340.450 46.518,338.800 47.218 C 335.363 48.676,328.304 51.571,324.200 53.207 C 322.660 53.820,320.452 54.700,319.293 55.162 C 318.134 55.624,316.874 56.174,316.493 56.385 C 316.112 56.595,314.090 57.416,312.000 58.208 C 309.910 59.001,307.480 59.995,306.600 60.418 C 304.770 61.296,302.673 62.158,299.800 63.212 C 298.700 63.616,296.450 64.518,294.800 65.218 C 290.421 67.075,283.361 69.961,280.600 71.022 C 279.280 71.529,277.444 72.316,276.519 72.772 C 275.595 73.227,274.633 73.600,274.381 73.600 C 274.129 73.600,273.446 73.862,272.862 74.181 C 272.278 74.501,270.090 75.415,268.000 76.212 C 265.910 77.009,263.750 77.899,263.200 78.191 C 262.650 78.482,260.490 79.371,258.400 80.165 C 256.310 80.960,254.060 81.875,253.400 82.200 C 252.740 82.524,251.480 83.051,250.600 83.370 C 249.720 83.689,246.570 84.963,243.600 86.202 C 240.630 87.440,237.300 88.783,236.200 89.187 C 232.707 90.468,231.791 90.963,229.974 92.549 C 228.998 93.401,228.575 93.906,229.033 93.671 C 229.491 93.436,230.098 92.964,230.382 92.622 C 230.666 92.280,231.028 92.000,231.187 92.000 C 231.346 92.000,231.512 109.955,231.556 131.900 C 231.600 153.845,231.707 203.390,231.794 242.000 C 231.880 280.610,231.962 321.952,231.976 333.872 L 232.000 355.544 233.100 355.212 C 234.197 354.880,236.682 353.897,238.200 353.193 C 238.640 352.990,239.266 352.773,239.590 352.711 C 239.915 352.650,240.423 352.375,240.719 352.100 C 241.015 351.825,241.607 351.600,242.034 351.600 C 242.461 351.600,243.123 351.429,243.505 351.220 C 245.159 350.317,249.491 348.438,250.500 348.187 C 251.105 348.036,251.600 347.723,251.600 347.490 C 251.600 347.257,251.714 347.180,251.853 347.319 C 251.992 347.458,252.487 347.360,252.953 347.100 C 253.419 346.841,253.890 346.620,254.000 346.610 C 254.447 346.568,257.168 345.430,259.885 344.150 C 261.472 343.402,262.912 342.824,263.085 342.865 C 263.410 342.942,265.644 341.978,266.000 341.608 C 266.110 341.494,266.454 341.345,266.764 341.279 C 267.073 341.212,267.973 340.871,268.764 340.520 C 269.554 340.170,270.513 339.821,270.895 339.745 C 271.278 339.669,272.265 339.245,273.090 338.803 C 273.914 338.361,274.704 338.000,274.845 338.000 C 274.987 338.000,275.753 337.728,276.549 337.395 C 277.345 337.063,278.042 336.835,278.098 336.888 C 278.154 336.942,278.645 336.674,279.189 336.293 C 279.733 335.912,280.504 335.600,280.902 335.600 C 281.300 335.600,281.730 335.327,281.858 334.993 C 281.986 334.659,282.296 334.426,282.546 334.474 C 283.153 334.592,286.057 333.610,286.761 333.048 C 287.070 332.802,287.430 332.612,287.561 332.628 C 288.076 332.687,290.000 331.807,290.000 331.512 C 290.000 331.341,290.369 331.200,290.820 331.200 C 291.271 331.200,292.216 330.895,292.920 330.522 C 293.624 330.149,294.483 329.795,294.828 329.736 C 295.174 329.676,295.971 329.360,296.600 329.034 C 297.228 328.708,297.891 328.532,298.071 328.644 C 298.252 328.756,298.400 328.660,298.400 328.431 C 298.400 328.202,298.895 327.897,299.500 327.753 C 300.105 327.609,301.050 327.249,301.600 326.953 C 302.150 326.657,304.490 325.670,306.800 324.760 C 309.110 323.850,311.253 322.902,311.561 322.653 C 311.870 322.404,312.230 322.243,312.361 322.295 C 312.808 322.473,314.000 321.948,314.000 321.573 C 314.000 321.368,314.337 321.200,314.749 321.200 C 315.398 321.200,317.342 320.482,320.200 319.186 C 320.640 318.986,321.266 318.773,321.590 318.711 C 321.915 318.650,322.423 318.375,322.719 318.100 C 323.015 317.825,323.607 317.600,324.034 317.600 C 324.461 317.600,325.123 317.429,325.505 317.220 C 327.159 316.317,331.491 314.438,332.500 314.187 C 333.105 314.036,333.600 313.723,333.600 313.490 C 333.600 313.257,333.714 313.180,333.853 313.319 C 333.992 313.458,334.487 313.362,334.953 313.105 C 335.419 312.848,335.980 312.594,336.200 312.539 C 337.589 312.195,339.724 311.246,339.957 310.870 C 340.108 310.626,340.809 310.382,341.516 310.328 C 342.222 310.274,342.800 310.100,342.800 309.942 C 342.800 309.670,344.130 309.078,345.000 308.964 C 345.959 308.837,348.000 307.891,348.000 307.573 C 348.000 307.382,348.252 307.322,348.560 307.440 C 348.867 307.558,349.238 307.462,349.383 307.227 C 349.528 306.992,349.975 306.800,350.375 306.800 C 350.775 306.800,351.324 306.532,351.596 306.204 C 351.868 305.877,352.218 305.687,352.373 305.783 C 352.528 305.879,353.542 305.523,354.627 304.991 C 355.712 304.460,356.730 304.019,356.888 304.013 C 357.047 304.006,358.129 303.564,359.294 303.031 C 360.459 302.498,361.907 301.938,362.511 301.786 C 363.116 301.635,363.743 301.289,363.905 301.017 C 364.067 300.746,364.740 300.419,365.400 300.291 C 366.060 300.163,367.140 299.835,367.800 299.563 C 368.460 299.290,369.090 299.034,369.200 298.993 C 371.312 298.211,372.000 297.859,372.000 297.561 C 372.000 297.362,372.369 297.200,372.820 297.200 C 373.271 297.200,374.216 296.895,374.920 296.522 C 375.624 296.149,376.536 295.787,376.946 295.718 C 378.947 295.378,384.733 289.200,383.050 289.200 C 382.622 289.200,382.476 266.563,382.240 163.397 C 381.960 40.919,381.932 37.548,381.191 35.872 C 379.681 32.460,377.671 31.659,373.951 32.988 M368.978 90.300 C 368.669 129.314,368.940 126.240,365.723 127.164 C 364.665 127.468,363.600 127.871,363.356 128.060 C 363.113 128.249,361.872 128.762,360.600 129.200 C 359.328 129.638,358.087 130.144,357.844 130.326 C 357.600 130.507,356.590 130.901,355.600 131.200 C 354.610 131.499,353.620 131.872,353.400 132.029 C 353.180 132.185,352.190 132.595,351.200 132.940 C 349.217 133.630,344.875 135.356,343.000 136.199 C 341.823 136.728,340.607 137.198,335.800 138.981 C 334.480 139.471,332.950 140.071,332.400 140.315 C 331.850 140.559,329.690 141.415,327.600 142.217 C 325.510 143.019,323.260 143.923,322.600 144.225 C 321.940 144.527,319.690 145.429,317.600 146.229 C 315.510 147.029,313.260 147.915,312.600 148.197 C 311.940 148.480,310.950 148.842,310.400 149.003 C 309.850 149.164,308.680 149.616,307.800 150.009 C 306.920 150.401,304.490 151.380,302.400 152.184 C 300.310 152.988,298.060 153.884,297.400 154.176 C 296.740 154.467,295.480 154.934,294.600 155.213 C 293.720 155.493,292.640 155.936,292.200 156.197 C 291.760 156.459,290.590 156.915,289.600 157.209 C 288.610 157.503,287.600 157.893,287.356 158.074 C 287.113 158.256,285.872 158.762,284.600 159.200 C 283.328 159.638,282.087 160.144,281.844 160.326 C 281.600 160.507,280.590 160.901,279.600 161.200 C 278.610 161.499,277.620 161.872,277.400 162.029 C 277.180 162.185,276.190 162.595,275.200 162.940 C 273.217 163.630,268.875 165.356,267.000 166.199 C 265.823 166.728,264.607 167.198,259.800 168.981 C 258.480 169.471,256.950 170.073,256.400 170.318 C 254.364 171.227,250.124 172.800,249.710 172.800 C 248.930 172.800,248.797 103.166,249.575 102.319 C 250.202 101.636,254.982 99.498,257.600 98.730 C 258.370 98.504,259.950 97.887,261.112 97.359 C 262.273 96.832,263.448 96.400,263.723 96.400 C 263.997 96.400,264.577 96.156,265.011 95.857 C 265.445 95.558,266.520 95.086,267.400 94.807 C 268.280 94.529,269.950 93.873,271.112 93.350 C 272.273 92.828,273.394 92.400,273.601 92.400 C 273.809 92.400,274.748 92.057,275.689 91.637 C 276.630 91.218,278.660 90.383,280.200 89.782 C 281.740 89.181,283.990 88.275,285.200 87.768 C 286.410 87.261,289.200 86.188,291.400 85.383 C 293.600 84.578,295.580 83.782,295.800 83.613 C 296.020 83.444,297.190 82.988,298.400 82.600 C 299.610 82.212,300.780 81.761,301.000 81.599 C 301.220 81.437,302.120 81.078,303.000 80.801 C 303.880 80.523,305.050 80.054,305.600 79.757 C 306.150 79.460,307.590 78.873,308.800 78.451 C 312.095 77.302,314.461 76.403,315.800 75.789 C 317.066 75.209,320.320 73.917,323.000 72.928 C 323.880 72.604,325.140 72.095,325.800 71.796 C 326.460 71.498,327.896 70.960,328.990 70.601 C 330.085 70.242,331.165 69.817,331.390 69.658 C 331.616 69.498,332.520 69.127,333.400 68.835 C 334.280 68.542,335.950 67.875,337.112 67.351 C 338.273 66.828,339.394 66.400,339.601 66.400 C 339.809 66.400,340.748 66.057,341.689 65.637 C 342.630 65.218,344.660 64.383,346.200 63.782 C 347.740 63.181,349.990 62.275,351.200 61.768 C 352.410 61.261,355.200 60.188,357.400 59.383 C 359.600 58.578,361.580 57.782,361.800 57.613 C 362.020 57.444,363.190 56.990,364.400 56.604 C 365.610 56.218,366.771 55.744,366.980 55.551 C 367.189 55.358,367.787 55.200,368.308 55.200 L 369.256 55.200 368.978 90.300 M228.400 85.681 C 227.190 86.806,226.740 87.355,227.400 86.900 C 228.539 86.115,231.146 83.580,230.775 83.618 C 230.679 83.628,229.610 84.557,228.400 85.681 M225.800 95.227 C 225.140 95.650,224.805 95.997,225.056 95.998 C 225.306 95.999,225.936 95.646,226.456 95.213 C 227.645 94.223,227.359 94.229,225.800 95.227 M220.666 97.074 C 219.603 97.400,218.807 97.740,218.898 97.831 C 219.100 98.033,223.200 96.845,223.200 96.585 C 223.200 96.333,222.904 96.390,220.666 97.074 M175.800 97.139 C 177.037 97.668,179.110 98.077,178.400 97.651 C 178.070 97.454,177.170 97.180,176.400 97.044 C 175.456 96.877,175.260 96.908,175.800 97.139 M186.200 99.223 C 187.080 99.405,188.520 99.540,189.400 99.524 C 190.967 99.494,190.959 99.487,189.000 99.182 C 186.156 98.739,184.012 98.770,186.200 99.223 M208.400 99.200 C 206.763 99.454,206.727 99.483,208.000 99.510 C 208.770 99.527,210.210 99.397,211.200 99.220 C 213.597 98.794,211.128 98.776,208.400 99.200 M193.091 99.889 C 193.801 99.977,195.061 99.979,195.891 99.892 C 196.721 99.805,196.140 99.733,194.600 99.731 C 193.060 99.729,192.381 99.800,193.091 99.889 M201.491 99.889 C 202.201 99.977,203.461 99.979,204.291 99.892 C 205.121 99.805,204.540 99.733,203.000 99.731 C 201.460 99.729,200.781 99.800,201.491 99.889 M368.800 138.813 C 368.800 144.178,368.725 144.852,368.100 145.072 C 367.715 145.207,366.680 145.634,365.800 146.020 C 364.920 146.406,362.490 147.380,360.400 148.184 C 358.310 148.988,355.855 149.988,354.944 150.405 C 354.033 150.821,352.773 151.289,352.144 151.445 C 351.515 151.600,350.640 151.948,350.200 152.219 C 349.760 152.489,348.680 152.934,347.800 153.208 C 346.920 153.481,346.020 153.837,345.800 153.999 C 345.580 154.161,344.410 154.612,343.200 155.000 C 341.990 155.388,340.816 155.850,340.590 156.027 C 340.365 156.204,339.285 156.637,338.190 156.989 C 337.096 157.342,335.750 157.870,335.200 158.163 C 334.650 158.457,333.480 158.923,332.600 159.201 C 331.720 159.478,330.816 159.849,330.590 160.026 C 330.365 160.203,329.285 160.637,328.190 160.989 C 327.096 161.342,325.750 161.870,325.200 162.163 C 324.650 162.457,323.480 162.923,322.600 163.201 C 321.720 163.478,320.816 163.849,320.590 164.026 C 320.365 164.203,319.285 164.637,318.190 164.989 C 317.096 165.342,315.750 165.870,315.200 166.163 C 314.650 166.457,313.480 166.923,312.600 167.201 C 311.720 167.478,310.816 167.849,310.590 168.026 C 310.365 168.203,309.285 168.637,308.190 168.989 C 307.096 169.342,305.750 169.870,305.200 170.163 C 304.650 170.457,303.480 170.923,302.600 171.201 C 301.720 171.478,300.816 171.849,300.590 172.026 C 300.365 172.203,299.285 172.637,298.190 172.989 C 297.096 173.342,295.750 173.870,295.200 174.163 C 294.650 174.457,293.480 174.923,292.600 175.201 C 291.720 175.478,290.816 175.849,290.590 176.026 C 290.365 176.203,289.285 176.637,288.190 176.989 C 287.096 177.342,285.750 177.870,285.200 178.163 C 284.650 178.457,283.480 178.923,282.600 179.201 C 281.720 179.478,280.816 179.849,280.590 180.026 C 280.365 180.203,279.285 180.637,278.190 180.989 C 277.096 181.342,275.750 181.870,275.200 182.163 C 274.650 182.457,273.480 182.923,272.600 183.201 C 271.720 183.478,270.816 183.849,270.590 184.026 C 270.365 184.203,269.285 184.637,268.190 184.989 C 267.096 185.342,265.750 185.870,265.200 186.163 C 264.650 186.457,263.480 186.923,262.600 187.201 C 261.720 187.478,260.816 187.849,260.590 188.026 C 260.365 188.203,259.285 188.637,258.190 188.989 C 257.096 189.342,255.750 189.870,255.200 190.163 C 254.650 190.457,253.480 190.923,252.600 191.201 C 251.720 191.478,250.767 191.889,250.483 192.115 C 249.541 192.864,249.302 191.872,249.083 186.303 L 248.867 180.807 249.934 180.051 C 250.520 179.635,251.896 178.992,252.990 178.621 C 254.085 178.251,255.165 177.803,255.390 177.626 C 255.616 177.449,256.520 177.075,257.400 176.795 C 258.280 176.515,260.530 175.661,262.400 174.897 C 264.270 174.133,266.880 173.097,268.200 172.595 C 269.520 172.093,271.950 171.111,273.600 170.413 C 275.250 169.715,277.050 168.997,277.600 168.816 C 278.150 168.636,280.220 167.818,282.200 166.998 C 284.180 166.178,286.880 165.092,288.200 164.584 C 293.779 162.436,294.668 162.083,296.000 161.486 C 298.346 160.434,305.666 157.534,307.999 156.732 C 309.208 156.316,310.930 155.621,311.825 155.188 C 312.720 154.755,313.716 154.400,314.037 154.400 C 314.359 154.400,314.977 154.156,315.411 153.858 C 315.845 153.559,317.190 152.996,318.400 152.605 C 319.610 152.214,320.780 151.761,321.000 151.599 C 321.220 151.437,322.120 151.081,323.000 150.808 C 323.880 150.534,324.960 150.089,325.400 149.817 C 325.840 149.545,327.190 149.001,328.400 148.608 C 329.610 148.216,330.780 147.761,331.000 147.599 C 331.220 147.437,332.120 147.081,333.000 146.808 C 333.880 146.534,334.960 146.089,335.400 145.817 C 335.840 145.545,337.190 145.001,338.400 144.608 C 339.610 144.216,340.780 143.761,341.000 143.599 C 341.220 143.437,342.120 143.081,343.000 142.808 C 343.880 142.534,344.960 142.089,345.400 141.817 C 345.840 141.545,347.190 141.001,348.400 140.608 C 349.610 140.216,350.780 139.761,351.000 139.599 C 351.220 139.437,352.120 139.078,353.000 138.801 C 353.880 138.523,355.050 138.054,355.600 137.757 C 356.150 137.460,357.590 136.875,358.800 136.456 C 362.275 135.253,365.580 133.963,366.736 133.360 C 368.779 132.294,368.800 132.350,368.800 138.813 " stroke="none" fill="#864518" fill-rule="evenodd"></path><path id="path1" d="M28.600 13.597 L 28.317 16.794 27.259 16.535 C 26.676 16.393,26.140 16.124,26.067 15.938 C 25.521 14.555,24.882 15.942,24.629 19.060 C 24.291 23.235,24.154 23.057,29.200 24.995 C 31.290 25.798,34.080 26.876,35.400 27.391 C 36.720 27.906,39.960 29.167,42.600 30.193 C 45.240 31.219,49.380 32.831,51.800 33.775 C 54.220 34.719,58.180 36.253,60.600 37.185 C 69.208 40.500,73.473 42.150,79.000 44.304 C 82.080 45.505,86.130 47.083,88.000 47.812 C 89.870 48.541,93.110 49.791,95.200 50.590 C 98.814 51.971,102.528 53.411,114.800 58.191 C 121.286 60.717,127.259 63.028,132.400 65.000 C 134.490 65.802,138.207 67.255,140.660 68.229 C 143.113 69.203,145.234 70.000,145.372 70.000 C 145.511 70.000,147.554 70.784,149.912 71.742 C 152.271 72.700,155.640 74.038,157.400 74.714 C 162.444 76.652,170.915 79.931,176.800 82.224 C 183.430 84.806,184.000 84.979,184.000 84.407 C 184.000 82.377,179.010 77.624,174.578 75.433 C 172.835 74.571,171.169 73.626,170.876 73.333 C 170.583 73.040,170.099 72.800,169.800 72.800 C 169.501 72.800,169.019 72.575,168.729 72.300 C 168.438 72.025,167.165 71.456,165.900 71.035 C 164.635 70.614,163.600 70.128,163.600 69.955 C 163.600 69.782,162.610 69.329,161.400 68.947 C 160.190 68.566,159.200 68.112,159.200 67.938 C 159.200 67.764,158.210 67.335,157.000 66.983 C 155.790 66.631,154.800 66.209,154.800 66.045 C 154.800 65.880,153.810 65.434,152.600 65.053 C 151.390 64.671,150.400 64.221,150.400 64.053 C 150.400 63.884,149.378 63.424,148.128 63.030 C 146.879 62.636,145.643 62.100,145.381 61.838 C 145.120 61.577,144.117 61.107,143.153 60.794 C 142.189 60.480,141.185 60.017,140.922 59.763 C 140.659 59.509,139.624 59.059,138.622 58.763 C 137.620 58.467,136.800 58.114,136.800 57.978 C 136.800 57.841,135.810 57.393,134.600 56.982 C 133.390 56.571,132.400 56.113,132.400 55.964 C 132.400 55.816,131.322 55.358,130.003 54.947 C 128.685 54.536,127.605 54.083,127.603 53.940 C 127.602 53.797,126.700 53.357,125.600 52.961 C 124.500 52.566,123.600 52.117,123.600 51.964 C 123.600 51.812,123.145 51.573,122.589 51.433 C 121.599 51.185,119.473 50.273,114.532 47.978 C 113.175 47.347,111.600 46.715,111.032 46.572 C 110.464 46.430,110.000 46.190,110.000 46.039 C 110.000 45.889,109.010 45.429,107.800 45.018 C 106.590 44.607,105.600 44.136,105.600 43.972 C 105.600 43.808,104.610 43.363,103.400 42.982 C 102.190 42.602,101.200 42.168,101.200 42.018 C 101.200 41.869,100.210 41.434,99.000 41.053 C 97.790 40.671,96.800 40.212,96.800 40.032 C 96.800 39.851,95.975 39.473,94.967 39.191 C 93.960 38.909,92.925 38.480,92.667 38.239 C 92.410 37.998,91.165 37.456,89.900 37.035 C 88.635 36.614,87.600 36.128,87.600 35.955 C 87.600 35.782,86.610 35.329,85.400 34.947 C 84.190 34.566,83.200 34.112,83.200 33.938 C 83.200 33.764,82.210 33.335,81.000 32.983 C 79.790 32.631,78.800 32.209,78.800 32.045 C 78.800 31.880,77.810 31.434,76.600 31.053 C 75.390 30.671,74.400 30.221,74.400 30.053 C 74.400 29.884,73.378 29.424,72.128 29.030 C 70.879 28.636,69.643 28.100,69.381 27.838 C 69.120 27.577,68.117 27.107,67.153 26.794 C 66.189 26.480,65.185 26.017,64.922 25.763 C 64.659 25.509,63.624 25.059,62.622 24.763 C 61.620 24.467,60.800 24.114,60.800 23.978 C 60.800 23.841,59.810 23.393,58.600 22.982 C 57.390 22.571,56.400 22.113,56.400 21.964 C 56.400 21.816,55.322 21.358,54.003 20.947 C 52.685 20.536,51.605 20.083,51.603 19.940 C 51.602 19.797,50.700 19.357,49.600 18.961 C 48.500 18.566,47.600 18.117,47.600 17.964 C 47.600 17.812,47.145 17.573,46.589 17.433 C 45.613 17.188,43.659 16.352,38.600 14.016 C 37.280 13.406,35.750 12.769,35.200 12.600 C 34.650 12.431,34.110 12.172,34.000 12.026 C 33.713 11.643,30.294 10.400,29.528 10.400 C 29.012 10.400,28.827 11.040,28.600 13.597 M365.400 11.092 C 364.520 11.451,363.710 11.867,363.600 12.018 C 363.490 12.169,362.950 12.430,362.400 12.599 C 361.850 12.768,360.082 13.512,358.471 14.253 C 356.860 14.994,355.285 15.600,354.971 15.600 C 354.657 15.600,354.400 15.744,354.400 15.920 C 354.400 16.095,353.725 16.478,352.900 16.771 C 352.075 17.063,350.283 17.819,348.917 18.451 C 347.551 19.083,346.246 19.600,346.017 19.600 C 345.788 19.600,345.600 19.780,345.600 20.000 C 345.600 20.220,345.365 20.400,345.079 20.400 C 344.792 20.400,343.667 20.823,342.579 21.339 C 341.490 21.856,339.790 22.616,338.800 23.028 C 337.810 23.441,336.910 23.880,336.800 24.006 C 336.690 24.131,335.811 24.488,334.847 24.798 C 333.883 25.109,332.893 25.551,332.647 25.781 C 332.401 26.012,331.165 26.544,329.900 26.965 C 328.635 27.386,327.600 27.866,327.600 28.033 C 327.600 28.199,326.702 28.634,325.605 28.998 C 324.507 29.363,323.517 29.811,323.404 29.994 C 323.291 30.176,322.209 30.637,320.999 31.018 C 319.790 31.398,318.800 31.832,318.800 31.982 C 318.800 32.131,317.810 32.566,316.600 32.947 C 315.390 33.329,314.400 33.783,314.400 33.957 C 314.400 34.131,313.320 34.600,312.000 35.000 C 310.680 35.400,309.600 35.864,309.600 36.032 C 309.600 36.200,308.963 36.548,308.185 36.805 C 307.407 37.062,305.742 37.793,304.485 38.431 C 303.228 39.068,301.885 39.592,301.500 39.595 C 301.115 39.598,300.800 39.755,300.800 39.945 C 300.800 40.135,299.810 40.602,298.600 40.982 C 297.390 41.363,296.400 41.816,296.400 41.990 C 296.400 42.164,295.322 42.642,294.003 43.053 C 292.685 43.464,291.605 43.917,291.603 44.060 C 291.602 44.203,290.700 44.643,289.600 45.039 C 288.500 45.434,287.600 45.883,287.600 46.036 C 287.600 46.188,287.135 46.430,286.568 46.572 C 286.000 46.715,284.187 47.454,282.538 48.216 C 280.890 48.977,279.285 49.600,278.971 49.600 C 278.657 49.600,278.400 49.744,278.400 49.920 C 278.400 50.095,277.725 50.478,276.900 50.771 C 276.075 51.063,274.283 51.819,272.917 52.451 C 271.551 53.083,270.246 53.600,270.017 53.600 C 269.788 53.600,269.600 53.780,269.600 54.000 C 269.600 54.220,269.365 54.400,269.079 54.400 C 268.792 54.400,267.667 54.823,266.579 55.339 C 265.490 55.856,263.790 56.616,262.800 57.028 C 261.810 57.441,260.910 57.880,260.800 58.006 C 260.690 58.131,259.811 58.488,258.847 58.798 C 257.883 59.109,256.893 59.551,256.647 59.781 C 256.401 60.012,255.165 60.544,253.900 60.965 C 252.635 61.386,251.600 61.866,251.600 62.033 C 251.600 62.199,250.702 62.634,249.605 62.998 C 248.507 63.363,247.517 63.811,247.404 63.994 C 247.291 64.176,246.209 64.637,244.999 65.018 C 243.790 65.398,242.800 65.832,242.800 65.982 C 242.800 66.131,241.810 66.566,240.600 66.947 C 239.390 67.329,238.400 67.783,238.400 67.957 C 238.400 68.131,237.320 68.600,236.000 69.000 C 234.680 69.400,233.600 69.864,233.600 70.032 C 233.600 70.200,232.963 70.548,232.185 70.805 C 231.407 71.062,229.742 71.793,228.485 72.431 C 227.228 73.068,225.885 73.592,225.500 73.595 C 225.115 73.598,224.800 73.755,224.800 73.945 C 224.800 74.135,223.810 74.602,222.600 74.982 C 221.390 75.363,220.400 75.802,220.400 75.958 C 220.400 76.114,219.500 76.566,218.400 76.961 C 217.300 77.357,216.398 77.797,216.397 77.940 C 216.395 78.083,215.315 78.536,213.997 78.947 C 212.678 79.358,211.600 79.839,211.600 80.016 C 211.600 80.193,210.971 80.545,210.203 80.799 C 209.435 81.053,208.670 81.482,208.503 81.753 C 208.336 82.025,207.600 82.490,206.866 82.786 C 206.132 83.083,205.319 83.522,205.059 83.763 C 204.798 84.003,203.972 84.544,203.222 84.964 C 201.547 85.903,200.400 86.863,200.400 87.326 C 200.400 87.517,200.040 88.131,199.600 88.691 C 198.764 89.754,198.510 91.600,199.200 91.600 C 199.420 91.600,199.600 91.334,199.600 91.008 C 199.600 90.312,201.780 89.131,204.622 88.289 C 205.734 87.959,207.534 87.334,208.622 86.899 C 209.710 86.464,212.040 85.559,213.800 84.887 C 221.767 81.845,228.134 79.360,232.088 77.748 C 234.446 76.787,236.504 76.000,236.660 76.000 C 236.926 76.000,241.882 74.111,244.600 72.974 C 245.260 72.697,247.510 71.812,249.600 71.007 C 251.690 70.201,255.200 68.844,257.400 67.991 C 259.600 67.137,263.110 65.795,265.200 65.008 C 267.290 64.221,269.810 63.233,270.800 62.812 C 271.790 62.391,274.130 61.478,276.000 60.782 C 277.870 60.087,279.760 59.366,280.200 59.181 C 280.640 58.995,283.160 58.009,285.800 56.989 C 288.440 55.969,292.130 54.532,294.000 53.796 C 295.870 53.059,299.380 51.708,301.800 50.794 C 304.220 49.879,308.180 48.352,310.600 47.401 C 313.020 46.450,316.980 44.911,319.400 43.981 C 321.820 43.051,326.320 41.307,329.400 40.106 C 332.480 38.904,336.440 37.371,338.200 36.698 C 339.960 36.025,342.163 35.143,343.096 34.737 C 344.028 34.332,344.901 34.000,345.036 34.000 C 345.170 34.000,347.287 33.205,349.740 32.234 C 355.163 30.087,358.223 28.901,363.200 27.016 C 367.459 25.403,370.510 24.163,372.000 23.438 C 372.972 22.965,372.996 22.853,372.865 19.376 C 372.712 15.308,372.715 15.314,371.499 15.896 C 369.253 16.973,369.272 16.990,368.974 13.578 C 368.660 9.983,368.463 9.846,365.400 11.092 " stroke="none" fill="#a3b0b9" fill-rule="evenodd"></path><path id="path2" d="M14.800 23.900 C 14.800 24.065,15.745 24.149,16.900 24.086 C 20.682 23.880,21.055 23.721,17.900 23.660 C 16.195 23.627,14.800 23.735,14.800 23.900 M377.600 23.846 C 379.993 24.147,382.800 24.176,382.800 23.900 C 382.800 23.735,381.405 23.627,379.700 23.660 C 377.995 23.693,377.050 23.776,377.600 23.846 M12.369 25.569 C 11.726 26.212,11.201 27.067,11.201 27.469 C 11.203 27.996,11.417 27.849,11.967 26.947 C 12.388 26.257,13.147 25.402,13.655 25.047 C 14.163 24.691,14.344 24.400,14.058 24.400 C 13.772 24.400,13.012 24.926,12.369 25.569 M384.602 25.602 C 385.002 26.044,385.415 26.318,385.521 26.212 C 385.790 25.943,384.792 24.800,384.289 24.800 C 384.062 24.800,384.203 25.161,384.602 25.602 M386.052 28.667 C 386.483 30.972,387.009 31.605,386.661 29.400 C 386.522 28.520,386.407 27.575,386.404 27.300 C 386.402 27.025,386.243 26.800,386.052 26.800 C 385.854 26.800,385.854 27.607,386.052 28.667 M386.559 40.000 C 386.559 43.190,386.621 44.495,386.697 42.900 C 386.773 41.305,386.773 38.695,386.697 37.100 C 386.621 35.505,386.559 36.810,386.559 40.000 M10.909 38.000 C 10.909 38.990,10.987 39.395,11.082 38.900 C 11.178 38.405,11.178 37.595,11.082 37.100 C 10.987 36.605,10.909 37.010,10.909 38.000 M362.600 57.873 C 359.520 59.098,355.290 60.789,353.200 61.630 C 347.360 63.981,338.034 67.600,337.817 67.600 C 337.710 67.600,336.672 68.023,335.511 68.541 C 333.412 69.477,332.460 69.850,325.200 72.586 C 323.110 73.374,320.799 74.289,320.064 74.620 C 319.329 74.951,317.079 75.852,315.064 76.622 C 313.049 77.392,310.590 78.365,309.600 78.784 C 308.610 79.203,304.020 81.021,299.400 82.824 C 294.780 84.626,289.290 86.789,287.200 87.629 C 285.110 88.469,281.240 89.993,278.600 91.016 C 275.960 92.039,270.920 94.012,267.400 95.401 C 263.880 96.790,258.840 98.771,256.200 99.802 C 253.560 100.833,250.995 101.933,250.500 102.247 L 249.600 102.818 249.600 137.599 L 249.600 172.380 250.700 171.982 C 251.305 171.763,252.160 171.414,252.600 171.207 C 253.040 171.001,255.110 170.185,257.200 169.395 C 262.464 167.406,265.985 166.025,267.400 165.392 C 269.740 164.347,275.777 162.000,276.126 162.000 C 276.320 162.000,277.046 161.739,277.740 161.420 C 278.433 161.101,280.890 160.097,283.200 159.190 C 285.510 158.283,287.940 157.311,288.600 157.030 C 289.260 156.749,291.330 155.927,293.200 155.203 C 295.070 154.480,298.310 153.204,300.400 152.370 C 310.003 148.534,315.486 146.400,315.736 146.400 C 315.886 146.400,316.772 146.049,317.704 145.620 C 319.406 144.838,322.414 143.629,325.400 142.528 C 326.280 142.204,327.540 141.693,328.200 141.392 C 328.860 141.092,331.110 140.196,333.200 139.403 C 338.677 137.323,342.028 136.005,343.400 135.392 C 345.740 134.347,351.777 132.000,352.126 132.000 C 352.320 132.000,353.046 131.739,353.740 131.420 C 354.433 131.101,356.890 130.101,359.200 129.197 C 361.510 128.293,363.760 127.393,364.200 127.195 C 364.640 126.997,365.654 126.576,366.453 126.258 L 367.906 125.680 368.167 112.340 C 368.499 95.320,368.663 55.592,368.400 55.623 C 368.290 55.636,365.680 56.648,362.600 57.873 M386.520 58.400 C 386.520 59.610,386.595 60.105,386.687 59.500 C 386.778 58.895,386.778 57.905,386.687 57.300 C 386.595 56.695,386.520 57.190,386.520 58.400 M386.540 72.000 C 386.540 73.870,386.609 74.635,386.693 73.700 C 386.777 72.765,386.777 71.235,386.693 70.300 C 386.609 69.365,386.540 70.130,386.540 72.000 M364.800 134.657 C 362.930 135.417,360.590 136.380,359.600 136.796 C 357.194 137.807,318.640 153.134,308.800 156.991 C 298.633 160.976,295.090 162.423,294.600 162.790 C 294.380 162.955,293.671 163.217,293.024 163.372 C 292.377 163.527,289.947 164.438,287.624 165.398 C 282.501 167.513,275.986 170.133,272.200 171.600 C 270.660 172.197,267.600 173.408,265.400 174.292 C 263.200 175.176,258.970 176.841,256.000 177.991 C 248.992 180.705,249.600 179.901,249.600 186.457 L 249.600 192.016 251.100 191.259 C 251.925 190.843,253.050 190.370,253.600 190.207 C 254.150 190.044,255.140 189.670,255.800 189.375 C 256.460 189.081,258.890 188.101,261.200 187.197 C 263.510 186.293,265.760 185.390,266.200 185.190 C 266.640 184.989,268.890 184.089,271.200 183.190 C 273.510 182.290,275.760 181.390,276.200 181.190 C 276.640 180.989,278.890 180.089,281.200 179.190 C 283.510 178.290,285.760 177.390,286.200 177.190 C 286.640 176.989,288.890 176.089,291.200 175.190 C 293.510 174.290,295.760 173.390,296.200 173.190 C 296.640 172.989,298.890 172.089,301.200 171.190 C 303.510 170.290,305.760 169.390,306.200 169.190 C 306.640 168.989,308.890 168.089,311.200 167.190 C 313.510 166.290,315.760 165.390,316.200 165.190 C 316.640 164.989,318.890 164.089,321.200 163.190 C 323.510 162.290,325.760 161.390,326.200 161.190 C 326.640 160.989,328.890 160.086,331.200 159.183 C 333.510 158.280,335.940 157.311,336.600 157.030 C 337.260 156.749,339.330 155.927,341.200 155.203 C 343.070 154.479,346.310 153.200,348.400 152.361 C 355.103 149.671,360.526 147.514,363.400 146.395 C 364.940 145.796,366.695 145.107,367.300 144.863 L 368.400 144.420 368.400 138.810 C 368.400 135.724,368.355 133.217,368.300 133.238 C 368.245 133.259,366.670 133.897,364.800 134.657 M386.540 240.800 C 386.540 242.670,386.609 243.435,386.693 242.500 C 386.777 241.565,386.777 240.035,386.693 239.100 C 386.609 238.165,386.540 238.930,386.540 240.800 M386.520 254.400 C 386.520 255.610,386.595 256.105,386.687 255.500 C 386.778 254.895,386.778 253.905,386.687 253.300 C 386.595 252.695,386.520 253.190,386.520 254.400 M386.558 273.000 C 386.558 276.080,386.621 277.287,386.697 275.682 C 386.773 274.078,386.773 271.558,386.696 270.082 C 386.619 268.607,386.557 269.920,386.558 273.000 M10.914 275.000 C 10.917 276.100,10.995 276.503,11.087 275.895 C 11.179 275.286,11.177 274.386,11.082 273.895 C 10.987 273.403,10.911 273.900,10.914 275.000 M386.148 283.443 C 385.999 283.859,385.804 284.335,385.715 284.500 C 385.626 284.665,385.722 284.800,385.930 284.800 C 386.329 284.800,386.891 283.157,386.594 282.860 C 386.497 282.764,386.297 283.026,386.148 283.443 M11.428 284.800 C 11.572 285.350,11.850 285.971,12.045 286.180 C 12.616 286.791,12.441 285.914,11.769 284.800 L 11.167 283.800 11.428 284.800 M12.813 287.900 C 12.820 288.065,13.114 288.560,13.467 289.000 C 14.030 289.703,14.077 289.711,13.854 289.067 C 13.714 288.664,13.600 288.169,13.600 287.967 C 13.600 287.765,13.420 287.600,13.200 287.600 C 12.980 287.600,12.806 287.735,12.813 287.900 " stroke="none" fill="#542c0c" fill-rule="evenodd"></path><path id="path3" d="M166.085 104.953 C 166.132 112.239,166.228 116.265,166.298 113.900 C 166.369 111.535,166.524 109.600,166.642 109.600 C 166.759 109.600,168.198 110.415,169.838 111.410 C 177.775 116.229,182.961 117.293,198.600 117.312 C 214.499 117.332,219.239 116.361,227.735 111.341 C 229.091 110.540,230.380 109.879,230.600 109.872 C 231.032 109.859,231.421 93.882,231.006 93.210 C 230.877 93.000,229.823 93.435,228.665 94.176 C 226.318 95.677,222.008 97.591,220.912 97.618 C 220.520 97.627,219.480 97.898,218.600 98.219 C 214.355 99.770,196.797 100.525,186.969 99.580 C 178.710 98.785,170.623 96.065,167.354 92.982 L 166.000 91.706 166.085 104.953 M231.364 117.400 C 231.363 121.140,231.423 122.724,231.497 120.920 C 231.571 119.115,231.572 116.055,231.498 114.120 C 231.425 112.184,231.364 113.660,231.364 117.400 M231.364 137.000 C 231.363 140.740,231.423 142.324,231.497 140.520 C 231.571 138.715,231.572 135.655,231.498 133.720 C 231.425 131.784,231.364 133.260,231.364 137.000 M166.006 186.800 C 165.916 214.850,165.905 250.035,165.982 264.990 L 166.121 292.180 167.142 292.983 C 173.011 297.600,179.282 299.586,190.600 300.414 C 208.403 301.715,221.182 299.507,229.533 293.687 L 231.666 292.200 231.423 283.400 C 231.290 278.560,231.341 267.130,231.538 258.000 C 231.738 248.765,231.754 230.486,231.575 216.800 C 231.398 203.270,231.216 181.333,231.170 168.051 C 231.124 154.769,230.936 144.171,230.752 144.500 C 230.369 145.184,225.788 147.979,223.400 148.985 C 207.422 155.722,178.871 153.872,167.736 145.379 L 166.427 144.380 166.298 140.090 C 166.228 137.730,166.096 158.750,166.006 186.800 M165.886 309.128 C 165.933 311.478,165.978 313.535,165.986 313.700 C 165.993 313.865,166.260 314.000,166.577 314.000 C 166.895 314.000,167.413 314.368,167.728 314.818 C 171.794 320.623,192.640 324.319,209.578 322.238 C 219.315 321.041,225.327 318.788,230.000 314.581 C 231.673 313.076,231.786 312.850,231.600 311.381 C 231.490 310.511,231.494 308.675,231.609 307.300 C 231.724 305.925,231.775 304.800,231.722 304.800 C 231.670 304.800,230.739 305.588,229.655 306.551 C 218.680 316.298,178.888 316.523,168.200 306.899 C 165.609 304.566,165.791 304.391,165.886 309.128 M231.600 326.064 C 231.600 330.704,214.594 335.708,198.800 335.716 C 186.863 335.722,170.390 331.996,167.162 328.560 C 165.580 326.875,165.540 327.211,165.672 341.300 L 165.800 355.000 166.989 357.147 C 168.214 359.359,172.231 363.355,174.000 364.121 C 174.550 364.360,175.270 364.777,175.600 365.048 C 176.341 365.658,181.042 367.448,184.000 368.248 C 185.210 368.575,186.514 369.211,186.897 369.662 C 188.808 371.909,206.636 372.157,211.400 370.002 C 211.840 369.803,213.363 369.355,214.785 369.007 C 216.206 368.658,217.466 368.237,217.585 368.070 C 217.703 367.903,218.610 367.509,219.600 367.194 C 221.388 366.625,223.226 365.595,225.263 364.021 C 225.848 363.570,226.431 363.200,226.558 363.200 C 227.612 363.200,232.908 355.969,232.061 355.687 C 231.805 355.602,231.747 350.152,231.895 340.178 C 232.021 331.720,232.006 324.800,231.862 324.800 C 231.718 324.800,231.600 325.369,231.600 326.064 " stroke="none" fill="#e37c34" fill-rule="evenodd"></path><path id="path4" d="M166.193 118.258 C 166.031 123.021,166.020 130.806,166.170 135.558 L 166.441 144.200 167.645 145.249 C 177.357 153.717,207.402 155.730,223.400 148.985 C 226.091 147.851,230.406 145.137,230.856 144.295 C 231.373 143.329,231.452 110.487,230.938 109.987 C 230.752 109.806,229.520 110.303,228.200 111.091 C 219.467 116.304,214.571 117.333,198.600 117.312 C 182.961 117.293,177.775 116.229,169.838 111.410 C 168.198 110.415,166.773 109.600,166.672 109.600 C 166.571 109.600,166.356 113.496,166.193 118.258 M165.643 298.588 L 165.736 304.775 167.368 306.174 C 179.481 316.558,218.157 316.763,229.706 306.505 L 231.730 304.708 231.911 298.554 C 232.117 291.561,232.134 291.591,229.200 293.821 C 217.104 303.010,182.310 303.341,169.051 294.392 C 168.044 293.713,167.116 292.987,166.987 292.779 C 165.899 291.018,165.551 292.519,165.643 298.588 M165.632 320.119 L 165.600 327.238 166.700 328.245 C 177.032 337.698,219.862 337.808,230.391 328.408 L 231.754 327.191 231.928 320.195 C 232.114 312.685,232.047 312.467,230.175 314.434 C 220.595 324.495,184.530 325.929,170.166 316.820 C 169.140 316.169,168.043 315.268,167.728 314.818 C 167.413 314.368,166.910 314.000,166.611 314.000 C 166.311 314.000,165.976 313.775,165.865 313.500 C 165.754 313.225,165.649 316.204,165.632 320.119 " stroke="none" fill="#f3f22c" fill-rule="evenodd"></path><path id="path5" d="M21.067 21.867 C 19.871 23.062,21.243 24.298,25.600 25.949 C 27.470 26.657,29.360 27.403,29.800 27.606 C 30.240 27.808,32.490 28.711,34.800 29.610 C 37.110 30.510,39.360 31.410,39.800 31.610 C 40.240 31.811,42.490 32.711,44.800 33.610 C 47.110 34.510,49.360 35.410,49.800 35.610 C 50.240 35.811,52.490 36.711,54.800 37.610 C 57.110 38.510,59.360 39.410,59.800 39.610 C 60.240 39.811,62.490 40.711,64.800 41.610 C 67.110 42.510,69.360 43.410,69.800 43.610 C 70.240 43.811,72.490 44.711,74.800 45.610 C 77.110 46.510,79.360 47.407,79.800 47.603 C 80.240 47.800,82.220 48.607,84.200 49.396 C 86.180 50.186,88.340 51.089,89.000 51.403 C 89.660 51.717,91.910 52.627,94.000 53.425 C 96.090 54.223,98.340 55.123,99.000 55.425 C 99.660 55.727,101.910 56.627,104.000 57.425 C 106.090 58.223,108.340 59.123,109.000 59.425 C 109.660 59.727,111.910 60.627,114.000 61.425 C 116.090 62.223,118.340 63.123,119.000 63.425 C 119.660 63.727,121.910 64.627,124.000 65.425 C 126.090 66.223,128.340 67.123,129.000 67.425 C 129.660 67.727,131.910 68.627,134.000 69.425 C 136.090 70.223,138.340 71.123,139.000 71.425 C 139.660 71.727,141.910 72.627,144.000 73.425 C 146.090 74.223,148.340 75.123,149.000 75.425 C 149.660 75.727,151.910 76.631,154.000 77.434 C 156.090 78.238,158.520 79.209,159.400 79.593 C 160.280 79.977,161.866 80.605,162.925 80.988 C 164.576 81.586,167.672 83.802,169.000 85.338 C 171.835 88.615,184.300 91.537,196.400 91.760 C 199.199 91.811,199.383 91.123,197.594 87.298 C 195.535 82.895,187.595 76.400,184.270 76.400 C 183.989 76.400,183.546 76.186,183.285 75.925 C 183.024 75.664,182.413 75.390,181.926 75.316 C 181.440 75.242,179.683 74.843,178.021 74.430 C 170.662 72.599,169.429 72.937,174.480 75.400 C 179.003 77.606,184.000 82.334,184.000 84.407 C 184.000 84.979,183.430 84.806,176.800 82.224 C 170.915 79.931,162.444 76.652,157.400 74.714 C 155.640 74.038,152.271 72.700,149.912 71.742 C 147.554 70.784,145.511 70.000,145.372 70.000 C 145.234 70.000,143.113 69.203,140.660 68.229 C 138.207 67.255,134.490 65.802,132.400 65.000 C 127.259 63.028,121.286 60.717,114.800 58.191 C 102.528 53.411,98.814 51.971,95.200 50.590 C 93.110 49.791,89.870 48.541,88.000 47.812 C 86.130 47.083,82.080 45.505,79.000 44.304 C 73.192 42.041,67.866 39.980,60.500 37.146 C 58.135 36.236,54.220 34.719,51.800 33.775 C 49.380 32.831,45.240 31.219,42.600 30.193 C 39.960 29.167,36.720 27.906,35.400 27.391 C 34.080 26.876,31.372 25.826,29.383 25.057 C 25.504 23.557,23.082 22.383,22.867 21.900 C 22.701 21.528,21.429 21.505,21.067 21.867 M374.600 22.148 C 373.940 22.396,372.955 22.915,372.411 23.300 C 371.867 23.685,371.197 24.000,370.922 24.000 C 370.647 24.000,369.652 24.357,368.711 24.793 C 367.770 25.229,365.290 26.232,363.200 27.021 C 358.350 28.851,355.293 30.036,349.740 32.234 C 347.287 33.205,345.170 34.000,345.036 34.000 C 344.901 34.000,344.028 34.332,343.096 34.737 C 342.163 35.143,339.960 36.025,338.200 36.698 C 336.440 37.371,332.480 38.904,329.400 40.106 C 326.320 41.307,321.820 43.051,319.400 43.981 C 316.980 44.911,313.020 46.450,310.600 47.401 C 308.180 48.352,304.220 49.880,301.800 50.797 C 299.380 51.713,295.330 53.273,292.800 54.264 C 290.270 55.254,286.580 56.692,284.600 57.457 C 282.620 58.223,280.640 59.000,280.200 59.184 C 279.760 59.368,277.870 60.087,276.000 60.782 C 274.130 61.478,271.790 62.391,270.800 62.812 C 269.810 63.233,267.290 64.221,265.200 65.008 C 263.110 65.795,259.600 67.137,257.400 67.991 C 255.200 68.844,251.690 70.201,249.600 71.007 C 247.510 71.812,245.260 72.697,244.600 72.974 C 241.882 74.111,236.926 76.000,236.660 76.000 C 236.504 76.000,234.446 76.787,232.088 77.748 C 228.134 79.360,221.767 81.845,213.800 84.887 C 212.040 85.559,209.710 86.464,208.622 86.899 C 207.534 87.334,205.734 87.959,204.622 88.289 C 200.263 89.581,197.530 92.000,200.429 92.000 C 212.346 92.000,225.600 88.434,229.912 84.068 C 231.223 82.740,232.656 81.812,234.600 81.029 C 236.140 80.409,237.940 79.660,238.600 79.364 C 239.260 79.068,241.510 78.173,243.600 77.375 C 245.690 76.577,247.940 75.677,248.600 75.375 C 249.260 75.073,251.510 74.173,253.600 73.375 C 255.690 72.577,257.940 71.677,258.600 71.375 C 259.260 71.073,261.510 70.173,263.600 69.375 C 265.690 68.577,267.940 67.677,268.600 67.375 C 269.260 67.073,271.510 66.173,273.600 65.375 C 275.690 64.577,277.940 63.677,278.600 63.375 C 279.260 63.073,281.510 62.173,283.600 61.375 C 285.690 60.577,287.940 59.677,288.600 59.375 C 289.260 59.073,291.510 58.173,293.600 57.375 C 295.690 56.577,297.940 55.677,298.600 55.375 C 299.260 55.073,301.510 54.175,303.600 53.379 C 305.690 52.583,308.055 51.587,308.854 51.166 C 309.654 50.745,310.524 50.400,310.787 50.400 C 311.205 50.400,314.388 49.112,318.200 47.400 C 318.860 47.104,320.120 46.596,321.000 46.272 C 323.680 45.283,326.934 43.991,328.200 43.411 C 328.860 43.109,330.120 42.596,331.000 42.272 C 333.680 41.283,336.934 39.991,338.200 39.411 C 338.860 39.109,340.120 38.596,341.000 38.272 C 343.680 37.283,346.934 35.991,348.200 35.411 C 348.860 35.109,350.120 34.596,351.000 34.272 C 353.680 33.283,356.934 31.991,358.200 31.411 C 358.860 31.109,360.120 30.596,361.000 30.272 C 363.680 29.283,366.934 27.991,368.200 27.411 C 368.860 27.109,370.210 26.562,371.200 26.196 C 374.959 24.807,375.525 24.560,376.154 24.039 C 376.914 23.408,377.026 21.578,376.300 21.648 C 376.025 21.674,375.260 21.899,374.600 22.148 M151.428 349.905 C 150.888 350.445,151.187 383.600,151.731 383.600 C 152.024 383.600,154.227 382.970,156.628 382.200 C 159.029 381.430,161.175 380.799,161.397 380.798 C 161.619 380.796,162.287 380.541,162.883 380.230 C 163.479 379.919,165.009 379.444,166.283 379.175 C 167.557 378.905,168.991 378.445,169.470 378.153 C 170.384 377.594,171.956 379.082,175.427 383.792 C 176.720 385.547,176.953 385.837,180.081 389.600 C 181.269 391.030,182.771 392.920,183.417 393.800 C 184.678 395.518,185.952 396.800,186.399 396.800 C 187.207 396.800,187.501 370.338,186.700 369.700 C 186.425 369.481,184.670 368.814,182.800 368.217 C 174.943 365.709,168.749 361.433,166.470 356.944 C 165.952 355.925,165.201 355.129,164.514 354.873 C 162.424 354.095,159.404 352.887,155.528 351.281 C 153.399 350.399,151.554 349.780,151.428 349.905 " stroke="none" fill="#7c7c7c" fill-rule="evenodd"></path><path id="path6" d="M14.122 24.782 C 12.660 25.674,11.589 27.145,11.258 28.717 C 11.133 29.312,11.024 86.770,11.015 156.400 L 11.000 283.000 11.974 285.300 C 12.509 286.565,13.073 287.600,13.227 287.600 C 13.381 287.600,13.606 287.978,13.726 288.440 C 14.560 291.628,14.692 278.096,14.946 163.450 C 15.246 27.838,15.112 35.315,17.293 33.326 C 19.912 30.938,20.518 31.049,32.800 36.180 C 36.870 37.880,41.280 39.688,42.600 40.198 C 45.130 41.174,56.519 45.848,61.600 47.994 C 63.250 48.691,65.680 49.675,67.000 50.181 C 68.320 50.686,72.730 52.488,76.800 54.186 C 80.870 55.883,85.280 57.688,86.600 58.198 C 89.130 59.174,100.519 63.848,105.600 65.994 C 107.250 66.691,109.680 67.675,111.000 68.181 C 112.320 68.686,116.730 70.488,120.800 72.186 C 124.870 73.883,129.280 75.687,130.600 76.196 C 131.920 76.704,136.330 78.497,140.400 80.180 C 144.470 81.863,149.600 83.967,151.800 84.854 C 154.000 85.742,157.899 87.353,160.465 88.434 C 163.031 89.515,165.212 90.400,165.312 90.400 C 165.413 90.400,166.296 91.165,167.275 92.100 C 169.574 94.295,172.005 95.701,175.000 96.569 C 176.320 96.951,177.850 97.418,178.400 97.607 C 185.208 99.942,206.325 100.241,217.000 98.154 C 221.840 97.207,228.690 94.110,230.593 92.008 C 231.398 91.118,232.631 90.498,236.200 89.187 C 237.300 88.783,240.630 87.440,243.600 86.202 C 246.570 84.963,249.720 83.689,250.600 83.370 C 251.480 83.051,252.740 82.524,253.400 82.200 C 254.060 81.875,256.310 80.960,258.400 80.165 C 260.490 79.371,262.650 78.482,263.200 78.191 C 263.750 77.899,265.910 77.009,268.000 76.212 C 270.090 75.415,272.278 74.501,272.862 74.181 C 273.446 73.862,274.129 73.600,274.381 73.600 C 274.633 73.600,275.595 73.227,276.519 72.772 C 277.444 72.316,279.280 71.529,280.600 71.022 C 283.361 69.961,290.421 67.075,294.800 65.218 C 296.450 64.518,298.700 63.616,299.800 63.212 C 302.673 62.158,304.770 61.296,306.600 60.418 C 307.480 59.995,309.910 59.001,312.000 58.208 C 314.090 57.416,316.112 56.595,316.493 56.385 C 316.874 56.174,318.134 55.624,319.293 55.162 C 320.452 54.700,322.660 53.820,324.200 53.207 C 328.304 51.571,335.363 48.676,338.800 47.218 C 340.450 46.518,342.700 45.616,343.800 45.212 C 346.673 44.158,348.770 43.296,350.600 42.418 C 351.480 41.995,353.910 41.001,356.000 40.208 C 358.090 39.416,360.112 38.595,360.493 38.385 C 360.874 38.174,362.134 37.624,363.293 37.162 C 364.452 36.700,366.750 35.777,368.400 35.111 C 377.697 31.355,379.233 31.446,381.191 35.872 C 381.932 37.548,381.960 40.919,382.240 163.397 C 382.446 253.801,382.650 289.199,382.964 289.197 C 383.477 289.194,385.200 286.774,385.200 286.056 C 385.200 285.784,385.541 284.856,385.957 283.995 C 386.846 282.155,387.226 34.019,386.346 29.800 C 385.410 25.309,383.827 24.000,379.328 24.000 C 377.156 24.000,376.318 24.149,376.159 24.564 C 376.039 24.874,375.460 25.248,374.871 25.395 C 374.282 25.542,373.260 25.904,372.600 26.201 C 371.940 26.498,369.510 27.480,367.200 28.383 C 364.890 29.286,362.640 30.189,362.200 30.390 C 361.760 30.590,359.510 31.490,357.200 32.390 C 354.890 33.289,352.640 34.189,352.200 34.390 C 351.760 34.590,349.510 35.490,347.200 36.390 C 344.890 37.289,342.640 38.189,342.200 38.390 C 341.760 38.590,339.510 39.490,337.200 40.390 C 334.890 41.289,332.640 42.189,332.200 42.390 C 331.760 42.590,329.510 43.490,327.200 44.390 C 324.890 45.289,322.640 46.194,322.200 46.400 C 321.760 46.606,320.500 47.117,319.400 47.535 C 318.300 47.953,313.980 49.694,309.800 51.403 C 305.620 53.113,300.940 55.001,299.400 55.598 C 295.540 57.096,289.028 59.716,283.912 61.829 C 281.554 62.803,279.524 63.600,279.400 63.600 C 279.276 63.600,277.246 64.397,274.888 65.371 C 269.718 67.507,263.211 70.123,259.400 71.600 C 256.319 72.794,250.273 75.212,244.400 77.600 C 242.310 78.450,238.717 79.891,236.416 80.803 C 232.962 82.172,231.847 82.837,230.024 84.617 C 224.772 89.746,215.395 92.008,199.458 91.994 C 182.116 91.978,172.938 89.853,167.570 84.611 C 166.145 83.220,164.580 82.152,163.178 81.614 C 161.980 81.154,160.640 80.613,160.200 80.412 C 159.760 80.211,157.510 79.310,155.200 78.410 C 152.890 77.511,150.640 76.611,150.200 76.410 C 149.760 76.210,147.510 75.310,145.200 74.410 C 142.890 73.511,140.640 72.611,140.200 72.410 C 139.760 72.210,137.510 71.310,135.200 70.410 C 132.890 69.511,130.640 68.611,130.200 68.410 C 129.760 68.210,127.510 67.310,125.200 66.410 C 122.890 65.511,120.640 64.611,120.200 64.410 C 119.760 64.210,117.510 63.310,115.200 62.410 C 112.890 61.511,110.640 60.611,110.200 60.410 C 109.760 60.210,107.510 59.310,105.200 58.410 C 102.890 57.511,100.640 56.611,100.200 56.410 C 99.760 56.210,97.510 55.310,95.200 54.410 C 92.890 53.511,90.640 52.610,90.200 52.410 C 89.411 52.050,82.861 49.401,73.297 45.575 C 63.554 41.677,58.306 39.578,53.497 37.657 C 45.934 34.634,39.082 31.893,33.600 29.696 C 30.850 28.593,27.070 27.095,25.200 26.365 C 23.330 25.636,21.516 24.805,21.169 24.519 C 20.154 23.685,15.645 23.854,14.122 24.782 M366.980 55.551 C 366.771 55.744,365.610 56.218,364.400 56.604 C 363.190 56.990,362.020 57.444,361.800 57.613 C 361.580 57.782,359.600 58.578,357.400 59.383 C 355.200 60.188,352.410 61.261,351.200 61.768 C 349.990 62.275,347.740 63.181,346.200 63.782 C 344.660 64.383,342.630 65.218,341.689 65.637 C 340.748 66.057,339.809 66.400,339.601 66.400 C 339.394 66.400,338.273 66.828,337.112 67.351 C 335.950 67.875,334.280 68.542,333.400 68.835 C 332.520 69.127,331.616 69.498,331.390 69.658 C 331.165 69.817,330.085 70.242,328.990 70.601 C 327.896 70.960,326.460 71.498,325.800 71.796 C 325.140 72.095,323.880 72.604,323.000 72.928 C 320.320 73.917,317.066 75.209,315.800 75.789 C 314.461 76.403,312.095 77.302,308.800 78.451 C 307.590 78.873,306.150 79.460,305.600 79.757 C 305.050 80.054,303.880 80.523,303.000 80.801 C 302.120 81.078,301.220 81.437,301.000 81.599 C 300.780 81.761,299.610 82.212,298.400 82.600 C 297.190 82.988,296.020 83.444,295.800 83.613 C 295.580 83.782,293.600 84.578,291.400 85.383 C 289.200 86.188,286.410 87.261,285.200 87.768 C 283.990 88.275,281.740 89.181,280.200 89.782 C 278.660 90.383,276.630 91.218,275.689 91.637 C 274.748 92.057,273.809 92.400,273.601 92.400 C 273.394 92.400,272.273 92.828,271.112 93.350 C 269.950 93.873,268.280 94.529,267.400 94.807 C 266.520 95.086,265.445 95.558,265.011 95.857 C 264.577 96.156,263.997 96.400,263.723 96.400 C 263.448 96.400,262.273 96.832,261.112 97.359 C 259.950 97.887,258.370 98.504,257.600 98.730 C 254.982 99.498,250.202 101.636,249.575 102.319 C 248.797 103.166,248.930 172.800,249.710 172.800 C 250.124 172.800,254.364 171.227,256.400 170.318 C 256.950 170.073,258.480 169.471,259.800 168.981 C 264.607 167.198,265.823 166.728,267.000 166.199 C 268.907 165.342,273.238 163.622,275.200 162.944 C 277.192 162.255,278.481 161.323,276.800 161.786 C 275.685 162.093,269.262 164.556,267.400 165.391 C 265.993 166.021,262.500 167.393,257.200 169.395 C 255.110 170.185,253.040 171.001,252.600 171.207 C 252.160 171.414,251.305 171.763,250.700 171.982 L 249.600 172.380 249.600 137.599 L 249.600 102.818 250.500 102.247 C 250.995 101.933,253.560 100.833,256.200 99.802 C 258.840 98.771,263.880 96.790,267.400 95.401 C 270.920 94.012,275.960 92.039,278.600 91.016 C 281.240 89.993,285.110 88.469,287.200 87.629 C 289.290 86.789,294.780 84.626,299.400 82.824 C 304.020 81.021,308.610 79.203,309.600 78.784 C 310.590 78.365,313.049 77.392,315.064 76.622 C 317.079 75.852,319.329 74.951,320.064 74.620 C 320.799 74.289,323.110 73.374,325.200 72.586 C 332.460 69.850,333.412 69.477,335.511 68.541 C 336.672 68.023,337.710 67.600,337.817 67.600 C 338.034 67.600,347.349 63.985,353.200 61.630 C 361.313 58.365,368.509 55.579,368.554 55.687 C 368.603 55.807,368.135 118.330,368.050 122.920 C 367.996 125.880,368.139 125.711,364.643 126.950 C 364.226 127.098,363.988 127.321,364.113 127.446 C 364.444 127.777,367.288 126.749,368.055 126.022 C 368.648 125.459,368.736 122.065,368.983 90.300 L 369.256 55.200 368.308 55.200 C 367.787 55.200,367.189 55.358,366.980 55.551 M358.694 129.354 C 354.639 130.978,353.384 131.608,354.233 131.594 C 354.732 131.586,357.216 130.676,358.200 130.141 C 358.640 129.902,359.943 129.399,361.095 129.023 C 362.248 128.647,363.293 128.173,363.419 127.969 C 363.787 127.374,363.236 127.536,358.694 129.354 M352.400 131.866 C 351.172 132.282,344.557 134.872,343.400 135.391 C 342.034 136.003,338.714 137.309,333.200 139.403 C 331.110 140.196,328.860 141.092,328.200 141.392 C 327.540 141.693,326.280 142.204,325.400 142.528 C 322.414 143.629,319.406 144.838,317.704 145.620 C 316.772 146.049,315.886 146.400,315.736 146.400 C 315.486 146.400,310.003 148.534,300.400 152.370 C 295.941 154.151,290.680 156.203,289.045 156.800 C 288.409 157.033,287.987 157.320,288.107 157.440 C 288.344 157.677,291.927 156.547,292.590 156.026 C 292.816 155.849,293.720 155.480,294.600 155.205 C 295.480 154.930,296.740 154.467,297.400 154.176 C 298.060 153.884,300.310 152.988,302.400 152.184 C 304.490 151.380,306.920 150.401,307.800 150.009 C 308.680 149.616,309.850 149.164,310.400 149.003 C 310.950 148.842,311.940 148.480,312.600 148.197 C 313.260 147.915,315.510 147.029,317.600 146.229 C 319.690 145.429,321.940 144.527,322.600 144.225 C 323.260 143.923,325.510 143.019,327.600 142.217 C 329.690 141.415,331.850 140.559,332.400 140.315 C 332.950 140.071,334.480 139.471,335.800 138.981 C 340.607 137.198,341.823 136.728,343.000 136.199 C 344.907 135.342,349.238 133.622,351.200 132.944 C 352.190 132.602,353.171 132.159,353.380 131.961 C 353.796 131.566,353.401 131.527,352.400 131.866 M366.736 133.360 C 365.580 133.963,362.275 135.253,358.800 136.456 C 357.590 136.875,356.150 137.460,355.600 137.757 C 355.050 138.054,353.880 138.523,353.000 138.801 C 352.120 139.078,351.220 139.437,351.000 139.599 C 350.780 139.761,349.610 140.216,348.400 140.608 C 347.190 141.001,345.840 141.545,345.400 141.817 C 344.960 142.089,343.880 142.534,343.000 142.808 C 342.120 143.081,341.220 143.437,341.000 143.599 C 340.780 143.761,339.610 144.216,338.400 144.608 C 337.190 145.001,335.840 145.545,335.400 145.817 C 334.960 146.089,333.880 146.534,333.000 146.808 C 332.120 147.081,331.220 147.437,331.000 147.599 C 330.780 147.761,329.610 148.216,328.400 148.608 C 327.190 149.001,325.840 149.545,325.400 149.817 C 324.960 150.089,323.880 150.534,323.000 150.808 C 322.120 151.081,321.220 151.437,321.000 151.599 C 320.780 151.761,319.610 152.214,318.400 152.605 C 317.190 152.996,315.845 153.559,315.411 153.858 C 314.977 154.156,314.359 154.400,314.037 154.400 C 313.716 154.400,312.720 154.755,311.825 155.188 C 310.930 155.621,309.208 156.316,307.999 156.732 C 305.666 157.534,298.346 160.434,296.000 161.486 C 294.668 162.083,293.779 162.436,288.200 164.584 C 286.880 165.092,284.180 166.178,282.200 166.998 C 280.220 167.818,278.150 168.636,277.600 168.816 C 277.050 168.997,275.250 169.715,273.600 170.413 C 271.950 171.111,269.520 172.093,268.200 172.595 C 266.880 173.097,264.270 174.133,262.400 174.897 C 260.530 175.661,258.280 176.515,257.400 176.795 C 256.520 177.075,255.616 177.449,255.390 177.626 C 255.165 177.803,254.085 178.251,252.990 178.621 C 251.896 178.992,250.520 179.635,249.934 180.051 L 248.867 180.807 249.083 186.303 C 249.302 191.872,249.541 192.864,250.483 192.116 C 250.767 191.890,251.943 191.398,253.095 191.022 C 254.248 190.646,255.305 190.153,255.445 189.927 C 255.771 189.399,254.467 189.779,251.700 191.016 L 249.600 191.956 249.600 186.427 C 249.600 179.905,248.994 180.704,256.000 177.991 C 258.970 176.841,263.200 175.176,265.400 174.292 C 267.600 173.408,270.660 172.197,272.200 171.600 C 275.986 170.133,282.501 167.513,287.624 165.398 C 289.947 164.438,292.377 163.527,293.024 163.372 C 293.671 163.217,294.380 162.955,294.600 162.790 C 295.090 162.423,298.633 160.976,308.800 156.991 C 318.487 153.194,357.153 137.824,359.600 136.797 C 360.590 136.382,362.975 135.419,364.900 134.656 L 368.400 133.270 368.400 138.845 L 368.400 144.420 367.300 144.863 C 366.695 145.107,364.940 145.796,363.400 146.395 C 360.526 147.514,355.103 149.671,348.400 152.361 C 344.130 154.075,338.785 156.165,337.045 156.800 C 336.409 157.033,335.987 157.320,336.107 157.440 C 336.343 157.677,339.926 156.548,340.590 156.027 C 340.816 155.850,341.990 155.388,343.200 155.000 C 344.410 154.612,345.580 154.161,345.800 153.999 C 346.020 153.837,346.920 153.481,347.800 153.208 C 348.680 152.934,349.760 152.489,350.200 152.219 C 350.640 151.948,351.515 151.600,352.144 151.445 C 352.773 151.289,354.033 150.821,354.944 150.405 C 355.855 149.988,358.310 148.988,360.400 148.184 C 362.490 147.380,364.920 146.406,365.800 146.020 C 366.680 145.634,367.715 145.207,368.100 145.072 C 368.725 144.852,368.800 144.178,368.800 138.813 C 368.800 132.350,368.779 132.294,366.736 133.360 M282.694 159.354 C 278.639 160.978,277.384 161.608,278.233 161.594 C 278.732 161.586,281.216 160.676,282.200 160.141 C 282.640 159.902,283.943 159.399,285.095 159.023 C 286.248 158.647,287.293 158.173,287.419 157.969 C 287.787 157.374,287.236 157.536,282.694 159.354 M331.200 159.148 C 329.110 159.988,327.059 160.798,326.643 160.947 C 326.226 161.097,325.984 161.318,326.105 161.438 C 326.343 161.676,329.923 160.550,330.590 160.027 C 330.816 159.850,331.943 159.398,333.095 159.022 C 334.248 158.646,335.293 158.173,335.419 157.969 C 335.787 157.374,335.214 157.534,331.200 159.148 M321.200 163.148 C 319.110 163.988,317.059 164.798,316.643 164.947 C 316.226 165.097,315.984 165.318,316.105 165.438 C 316.343 165.676,319.923 164.550,320.590 164.027 C 320.816 163.850,321.943 163.398,323.095 163.022 C 324.248 162.646,325.293 162.173,325.419 161.969 C 325.787 161.374,325.214 161.534,321.200 163.148 M311.200 167.148 C 309.110 167.988,307.059 168.798,306.643 168.947 C 306.226 169.097,305.984 169.318,306.105 169.438 C 306.343 169.676,309.923 168.550,310.590 168.027 C 310.816 167.850,311.943 167.398,313.095 167.022 C 314.248 166.646,315.293 166.173,315.419 165.969 C 315.787 165.374,315.214 165.534,311.200 167.148 M301.200 171.148 C 299.110 171.988,297.059 172.798,296.643 172.947 C 296.226 173.097,295.984 173.318,296.105 173.438 C 296.343 173.676,299.923 172.550,300.590 172.027 C 300.816 171.850,301.943 171.398,303.095 171.022 C 304.248 170.646,305.293 170.173,305.419 169.969 C 305.787 169.374,305.214 169.534,301.200 171.148 M291.200 175.148 C 289.110 175.988,287.059 176.798,286.643 176.947 C 286.226 177.097,285.984 177.318,286.105 177.438 C 286.343 177.676,289.923 176.550,290.590 176.027 C 290.816 175.850,291.943 175.398,293.095 175.022 C 294.248 174.646,295.293 174.173,295.419 173.969 C 295.787 173.374,295.214 173.534,291.200 175.148 M281.200 179.148 C 279.110 179.988,277.059 180.798,276.643 180.947 C 276.226 181.097,275.984 181.318,276.105 181.438 C 276.343 181.676,279.923 180.550,280.590 180.027 C 280.816 179.850,281.943 179.398,283.095 179.022 C 284.248 178.646,285.293 178.173,285.419 177.969 C 285.787 177.374,285.214 177.534,281.200 179.148 M271.200 183.148 C 269.110 183.988,267.059 184.798,266.643 184.947 C 266.226 185.097,265.984 185.318,266.105 185.438 C 266.343 185.676,269.923 184.550,270.590 184.027 C 270.816 183.850,271.943 183.398,273.095 183.022 C 274.248 182.646,275.293 182.173,275.419 181.969 C 275.787 181.374,275.214 181.534,271.200 183.148 M261.200 187.148 C 259.110 187.988,257.059 188.798,256.643 188.947 C 256.226 189.097,255.984 189.318,256.105 189.438 C 256.343 189.676,259.923 188.550,260.590 188.027 C 260.816 187.850,261.943 187.398,263.095 187.022 C 264.248 186.646,265.293 186.173,265.419 185.969 C 265.787 185.374,265.214 185.534,261.200 187.148 M365.100 300.287 C 364.495 300.378,364.000 300.633,364.000 300.854 C 364.000 301.260,365.276 301.000,366.400 300.364 C 367.021 300.012,366.941 300.008,365.100 300.287 M360.500 302.412 C 359.161 302.951,359.411 303.224,360.800 302.740 C 361.460 302.510,362.000 302.249,362.000 302.161 C 362.000 301.924,361.513 302.005,360.500 302.412 M341.100 310.287 C 340.495 310.378,340.000 310.633,340.000 310.854 C 340.000 311.291,341.560 310.935,342.180 310.355 C 342.389 310.160,342.479 310.027,342.380 310.060 C 342.281 310.093,341.705 310.195,341.100 310.287 M317.800 320.214 C 316.795 320.698,316.763 320.753,317.600 320.551 C 318.150 320.419,318.771 320.150,318.980 319.955 C 319.498 319.471,319.214 319.533,317.800 320.214 M307.200 324.600 C 306.650 324.914,306.380 325.172,306.600 325.172 C 306.820 325.172,307.450 324.914,308.000 324.600 C 308.550 324.286,308.820 324.028,308.600 324.028 C 308.380 324.028,307.750 324.286,307.200 324.600 M302.500 326.412 C 301.161 326.951,301.411 327.224,302.800 326.740 C 303.460 326.510,304.000 326.249,304.000 326.161 C 304.000 325.924,303.513 326.005,302.500 326.412 M259.800 344.214 C 258.795 344.698,258.763 344.753,259.600 344.551 C 260.150 344.419,260.771 344.150,260.980 343.955 C 261.498 343.471,261.214 343.533,259.800 344.214 M235.800 354.214 C 234.795 354.698,234.763 354.753,235.600 354.551 C 236.150 354.419,236.771 354.150,236.980 353.955 C 237.498 353.471,237.214 353.533,235.800 354.214 " stroke="none" fill="#643414" fill-rule="evenodd"></path><path id="path7" d="M21.288 24.187 C 21.950 24.918,25.597 26.536,25.901 26.233 C 25.982 26.151,25.183 25.765,24.124 25.375 C 23.066 24.984,21.840 24.386,21.400 24.046 C 20.630 23.450,20.626 23.455,21.288 24.187 M376.000 24.200 C 375.726 24.530,375.209 24.806,374.851 24.814 C 374.493 24.822,373.750 25.099,373.200 25.431 L 372.200 26.033 373.200 25.763 C 375.043 25.265,375.829 24.888,376.365 24.242 C 376.658 23.889,376.808 23.600,376.698 23.600 C 376.588 23.600,376.274 23.870,376.000 24.200 M26.929 26.817 C 27.776 27.346,30.000 28.030,30.000 27.762 C 30.000 27.561,28.743 27.055,27.200 26.634 C 26.338 26.399,26.301 26.425,26.929 26.817 M368.900 27.034 C 368.185 27.346,367.600 27.690,367.600 27.798 C 367.600 27.976,370.776 26.851,371.167 26.535 C 371.595 26.188,370.062 26.526,368.900 27.034 M33.552 29.409 C 34.735 29.970,35.778 30.356,35.868 30.265 C 35.959 30.174,35.261 29.788,34.317 29.406 C 31.580 28.300,31.217 28.301,33.552 29.409 M363.800 29.207 C 362.908 29.645,362.642 29.884,363.200 29.747 C 364.369 29.459,366.386 28.435,365.800 28.427 C 365.580 28.423,364.680 28.775,363.800 29.207 M36.929 30.817 C 37.776 31.346,40.000 32.030,40.000 31.762 C 40.000 31.561,38.743 31.055,37.200 30.634 C 36.338 30.399,36.301 30.425,36.929 30.817 M358.900 31.034 C 358.185 31.346,357.600 31.690,357.600 31.798 C 357.600 31.976,360.776 30.851,361.167 30.535 C 361.595 30.188,360.062 30.526,358.900 31.034 M43.552 33.409 C 44.735 33.970,45.778 34.356,45.868 34.265 C 45.959 34.174,45.261 33.788,44.317 33.406 C 41.580 32.300,41.217 32.301,43.552 33.409 M353.800 33.207 C 352.908 33.645,352.642 33.884,353.200 33.747 C 354.369 33.459,356.386 32.435,355.800 32.427 C 355.580 32.423,354.680 32.775,353.800 33.207 M46.929 34.817 C 47.776 35.346,50.000 36.030,50.000 35.762 C 50.000 35.561,48.743 35.055,47.200 34.634 C 46.338 34.399,46.301 34.425,46.929 34.817 M348.900 35.034 C 348.185 35.346,347.600 35.690,347.600 35.798 C 347.600 35.976,350.776 34.851,351.167 34.535 C 351.595 34.188,350.062 34.526,348.900 35.034 M53.552 37.409 C 54.735 37.970,55.778 38.356,55.868 38.265 C 55.959 38.174,55.261 37.788,54.317 37.406 C 51.580 36.300,51.217 36.301,53.552 37.409 M343.800 37.207 C 342.908 37.645,342.642 37.884,343.200 37.747 C 344.369 37.459,346.386 36.435,345.800 36.427 C 345.580 36.423,344.680 36.775,343.800 37.207 M56.929 38.817 C 57.776 39.346,60.000 40.030,60.000 39.762 C 60.000 39.561,58.743 39.055,57.200 38.634 C 56.338 38.399,56.301 38.425,56.929 38.817 M338.900 39.034 C 338.185 39.346,337.600 39.690,337.600 39.798 C 337.600 39.976,340.776 38.851,341.167 38.535 C 341.595 38.188,340.062 38.526,338.900 39.034 M63.552 41.409 C 64.735 41.970,65.778 42.356,65.868 42.265 C 65.959 42.174,65.261 41.788,64.317 41.406 C 61.580 40.300,61.217 40.301,63.552 41.409 M333.800 41.207 C 332.908 41.645,332.642 41.884,333.200 41.747 C 334.369 41.459,336.386 40.435,335.800 40.427 C 335.580 40.423,334.680 40.775,333.800 41.207 M66.929 42.817 C 67.776 43.346,70.000 44.030,70.000 43.762 C 70.000 43.561,68.743 43.055,67.200 42.634 C 66.338 42.399,66.301 42.425,66.929 42.817 M328.900 43.034 C 328.185 43.346,327.600 43.690,327.600 43.798 C 327.600 43.976,330.776 42.851,331.167 42.535 C 331.595 42.188,330.062 42.526,328.900 43.034 M73.552 45.409 C 74.735 45.970,75.778 46.356,75.868 46.265 C 75.959 46.174,75.261 45.788,74.317 45.406 C 71.580 44.300,71.217 44.301,73.552 45.409 M323.800 45.207 C 322.908 45.645,322.642 45.884,323.200 45.747 C 324.369 45.459,326.386 44.435,325.800 44.427 C 325.580 44.423,324.680 44.775,323.800 45.207 M76.929 46.817 C 77.776 47.346,80.000 48.030,80.000 47.762 C 80.000 47.561,78.743 47.055,77.200 46.634 C 76.338 46.399,76.301 46.425,76.929 46.817 M318.900 47.034 C 318.185 47.346,317.600 47.690,317.600 47.798 C 317.600 47.976,320.776 46.851,321.167 46.535 C 321.595 46.188,320.062 46.526,318.900 47.034 M83.552 49.409 C 84.735 49.970,85.778 50.356,85.868 50.265 C 85.959 50.174,85.261 49.788,84.317 49.406 C 81.580 48.300,81.217 48.301,83.552 49.409 M314.000 49.200 C 313.230 49.622,312.780 49.966,313.000 49.966 C 313.220 49.966,314.030 49.622,314.800 49.200 C 315.570 48.778,316.020 48.434,315.800 48.434 C 315.580 48.434,314.770 48.778,314.000 49.200 M87.600 51.169 C 88.370 51.608,89.175 51.974,89.389 51.983 C 90.038 52.011,88.270 50.927,87.200 50.640 C 86.454 50.440,86.555 50.575,87.600 51.169 M309.100 51.029 C 307.871 51.696,307.622 52.118,308.700 51.709 C 310.156 51.156,311.377 50.405,310.800 50.418 C 310.470 50.426,309.705 50.701,309.100 51.029 M304.600 52.991 C 303.500 53.509,302.780 53.937,303.000 53.942 C 303.220 53.947,304.300 53.527,305.400 53.009 C 306.500 52.491,307.220 52.063,307.000 52.058 C 306.780 52.053,305.700 52.473,304.600 52.991 M92.758 53.237 C 93.725 53.666,94.588 53.945,94.675 53.858 C 94.848 53.686,91.765 52.382,91.292 52.428 C 91.131 52.444,91.791 52.808,92.758 53.237 M299.300 54.996 C 298.585 55.307,298.000 55.662,298.000 55.786 C 298.000 56.009,300.786 54.947,301.146 54.587 C 301.501 54.232,300.597 54.433,299.300 54.996 M98.000 55.400 C 99.315 56.152,99.964 56.160,98.976 55.413 C 98.549 55.090,97.930 54.826,97.600 54.827 C 97.252 54.828,97.420 55.068,98.000 55.400 M294.600 56.991 C 293.500 57.509,292.780 57.937,293.000 57.942 C 293.220 57.947,294.300 57.527,295.400 57.009 C 296.500 56.491,297.220 56.063,297.000 56.058 C 296.780 56.053,295.700 56.473,294.600 56.991 M102.758 57.237 C 103.725 57.666,104.588 57.945,104.675 57.858 C 104.848 57.686,101.765 56.382,101.292 56.428 C 101.131 56.444,101.791 56.808,102.758 57.237 M289.300 58.996 C 288.585 59.307,288.000 59.662,288.000 59.786 C 288.000 60.009,290.786 58.947,291.146 58.587 C 291.501 58.232,290.597 58.433,289.300 58.996 M108.000 59.400 C 109.315 60.152,109.964 60.160,108.976 59.413 C 108.549 59.090,107.930 58.826,107.600 58.827 C 107.252 58.828,107.420 59.068,108.000 59.400 M284.600 60.991 C 283.500 61.509,282.780 61.937,283.000 61.942 C 283.220 61.947,284.300 61.527,285.400 61.009 C 286.500 60.491,287.220 60.063,287.000 60.058 C 286.780 60.053,285.700 60.473,284.600 60.991 M112.758 61.237 C 113.725 61.666,114.588 61.945,114.675 61.858 C 114.848 61.686,111.765 60.382,111.292 60.428 C 111.131 60.444,111.791 60.808,112.758 61.237 M279.300 62.996 C 278.585 63.307,278.000 63.662,278.000 63.786 C 278.000 64.009,280.786 62.947,281.146 62.587 C 281.501 62.232,280.597 62.433,279.300 62.996 M118.000 63.400 C 119.315 64.152,119.964 64.160,118.976 63.413 C 118.549 63.090,117.930 62.826,117.600 62.827 C 117.252 62.828,117.420 63.068,118.000 63.400 M274.600 64.991 C 273.500 65.509,272.780 65.937,273.000 65.942 C 273.220 65.947,274.300 65.527,275.400 65.009 C 276.500 64.491,277.220 64.063,277.000 64.058 C 276.780 64.053,275.700 64.473,274.600 64.991 M122.758 65.237 C 123.725 65.666,124.588 65.945,124.675 65.858 C 124.848 65.686,121.765 64.382,121.292 64.428 C 121.131 64.444,121.791 64.808,122.758 65.237 M269.300 66.996 C 268.585 67.307,268.000 67.662,268.000 67.786 C 268.000 68.009,270.786 66.947,271.146 66.587 C 271.501 66.232,270.597 66.433,269.300 66.996 M128.000 67.400 C 129.315 68.152,129.964 68.160,128.976 67.413 C 128.549 67.090,127.930 66.826,127.600 66.827 C 127.252 66.828,127.420 67.068,128.000 67.400 M264.600 68.991 C 263.500 69.509,262.780 69.937,263.000 69.942 C 263.220 69.947,264.300 69.527,265.400 69.009 C 266.500 68.491,267.220 68.063,267.000 68.058 C 266.780 68.053,265.700 68.473,264.600 68.991 M132.758 69.237 C 133.725 69.666,134.588 69.945,134.675 69.858 C 134.848 69.686,131.765 68.382,131.292 68.428 C 131.131 68.444,131.791 68.808,132.758 69.237 M259.300 70.996 C 258.585 71.307,258.000 71.662,258.000 71.786 C 258.000 72.009,260.786 70.947,261.146 70.587 C 261.501 70.232,260.597 70.433,259.300 70.996 M138.000 71.400 C 139.315 72.152,139.964 72.160,138.976 71.413 C 138.549 71.090,137.930 70.826,137.600 70.827 C 137.252 70.828,137.420 71.068,138.000 71.400 M254.600 72.991 C 253.500 73.509,252.780 73.937,253.000 73.942 C 253.220 73.947,254.300 73.527,255.400 73.009 C 256.500 72.491,257.220 72.063,257.000 72.058 C 256.780 72.053,255.700 72.473,254.600 72.991 M142.758 73.237 C 143.725 73.666,144.588 73.945,144.675 73.858 C 144.848 73.686,141.765 72.382,141.292 72.428 C 141.131 72.444,141.791 72.808,142.758 73.237 M249.300 74.996 C 248.585 75.307,248.000 75.662,248.000 75.786 C 248.000 76.009,250.786 74.947,251.146 74.587 C 251.501 74.232,250.597 74.433,249.300 74.996 M148.000 75.400 C 149.315 76.152,149.964 76.160,148.976 75.413 C 148.549 75.090,147.930 74.826,147.600 74.827 C 147.252 74.828,147.420 75.068,148.000 75.400 M244.600 76.991 C 243.500 77.509,242.780 77.937,243.000 77.942 C 243.220 77.947,244.300 77.527,245.400 77.009 C 246.500 76.491,247.220 76.063,247.000 76.058 C 246.780 76.053,245.700 76.473,244.600 76.991 M152.758 77.237 C 153.725 77.666,154.588 77.945,154.675 77.858 C 154.848 77.686,151.765 76.382,151.292 76.428 C 151.131 76.444,151.791 76.808,152.758 77.237 M239.300 78.996 C 238.585 79.307,238.000 79.662,238.000 79.786 C 238.000 80.009,240.786 78.947,241.146 78.587 C 241.501 78.232,240.597 78.433,239.300 78.996 M158.000 79.400 C 159.315 80.152,159.964 80.160,158.976 79.413 C 158.549 79.090,157.930 78.826,157.600 78.827 C 157.252 78.828,157.420 79.068,158.000 79.400 M234.600 80.991 C 233.500 81.509,232.780 81.937,233.000 81.942 C 233.220 81.947,234.300 81.527,235.400 81.009 C 236.500 80.491,237.220 80.063,237.000 80.058 C 236.780 80.053,235.700 80.473,234.600 80.991 M162.758 81.237 C 163.725 81.666,164.588 81.945,164.675 81.858 C 164.848 81.686,161.765 80.382,161.292 80.428 C 161.131 80.444,161.791 80.808,162.758 81.237 M194.000 82.200 C 194.746 82.970,195.447 83.600,195.557 83.600 C 195.667 83.600,195.146 82.970,194.400 82.200 C 193.654 81.430,192.953 80.800,192.843 80.800 C 192.733 80.800,193.254 81.430,194.000 82.200 M165.688 82.792 C 165.960 83.228,166.452 83.688,166.782 83.814 C 167.112 83.941,166.949 83.584,166.421 83.022 C 165.269 81.797,165.017 81.717,165.688 82.792 M231.093 82.800 C 230.716 83.240,230.546 83.600,230.715 83.600 C 230.884 83.600,231.330 83.240,231.707 82.800 C 232.084 82.360,232.254 82.000,232.085 82.000 C 231.916 82.000,231.470 82.360,231.093 82.800 M168.000 84.702 C 168.000 84.922,168.270 85.326,168.600 85.600 C 168.935 85.878,169.200 85.921,169.200 85.698 C 169.200 85.478,168.930 85.074,168.600 84.800 C 168.265 84.522,168.000 84.479,168.000 84.702 M170.200 86.607 C 170.640 86.966,171.360 87.435,171.800 87.651 L 172.600 88.044 171.800 87.393 C 171.360 87.034,170.640 86.565,170.200 86.349 L 169.400 85.956 170.200 86.607 M225.400 87.431 C 224.520 87.957,223.980 88.389,224.200 88.392 C 224.681 88.398,227.200 86.898,227.200 86.606 C 227.200 86.344,227.283 86.307,225.400 87.431 M220.400 89.226 C 218.980 89.709,218.692 89.890,219.586 89.737 C 221.210 89.458,224.076 88.451,223.200 88.467 C 222.870 88.473,221.610 88.815,220.400 89.226 M175.600 89.128 C 175.930 89.327,176.830 89.602,177.600 89.738 C 178.471 89.893,178.773 89.855,178.400 89.639 C 177.569 89.158,174.819 88.656,175.600 89.128 M182.818 90.787 C 185.433 91.463,194.808 92.275,194.316 91.783 C 194.197 91.663,192.075 91.401,189.601 91.200 C 187.127 90.999,184.270 90.741,183.252 90.627 C 181.543 90.436,181.509 90.449,182.818 90.787 M206.800 91.425 L 203.000 91.938 206.800 91.725 C 208.890 91.608,211.320 91.371,212.200 91.200 L 213.800 90.888 212.200 90.900 C 211.320 90.906,208.890 91.143,206.800 91.425 M153.200 350.263 C 153.970 350.592,156.095 351.497,157.922 352.275 C 159.748 353.054,161.329 353.604,161.434 353.500 C 161.539 353.395,160.674 352.915,159.512 352.433 C 158.350 351.951,157.040 351.388,156.600 351.181 C 155.493 350.662,152.354 349.593,152.050 349.633 C 151.912 349.651,152.430 349.934,153.200 350.263 M163.837 354.565 C 165.269 355.243,166.024 355.892,166.380 356.751 C 166.658 357.423,167.123 358.170,167.412 358.410 C 167.701 358.650,167.461 357.952,166.878 356.859 C 166.067 355.338,165.489 354.764,164.409 354.410 C 161.852 353.571,161.780 353.591,163.837 354.565 M169.000 360.347 C 169.660 361.077,170.920 362.228,171.800 362.906 C 173.674 364.348,173.071 363.700,170.000 360.973 C 168.723 359.839,168.303 359.576,169.000 360.347 M179.958 367.237 C 180.925 367.666,181.788 367.945,181.875 367.858 C 182.048 367.686,178.965 366.382,178.492 366.428 C 178.331 366.444,178.991 366.808,179.958 367.237 M185.000 368.851 C 185.660 369.102,186.470 369.498,186.800 369.732 C 187.333 370.109,187.333 370.084,186.800 369.504 C 186.470 369.146,185.660 368.750,185.000 368.624 L 183.800 368.395 185.000 368.851 " stroke="none" fill="#766c63" fill-rule="evenodd"></path><path id="path8" d="M230.162 92.893 C 229.625 93.522,229.596 93.635,230.064 93.274 C 231.183 92.411,231.290 93.268,231.089 101.527 C 230.955 107.041,230.987 108.082,231.196 105.000 C 231.623 98.705,231.657 92.000,231.262 92.000 C 231.076 92.000,230.581 92.402,230.162 92.893 M227.700 94.396 C 226.985 94.832,226.400 95.275,226.400 95.381 C 226.400 95.486,227.030 95.201,227.800 94.747 C 228.570 94.293,229.200 93.849,229.200 93.760 C 229.200 93.505,229.074 93.558,227.700 94.396 M168.833 94.121 C 168.925 94.188,169.540 94.558,170.200 94.945 L 171.400 95.647 170.456 94.824 C 169.936 94.371,169.321 94.000,169.089 94.000 C 168.857 94.000,168.742 94.054,168.833 94.121 M223.200 96.600 C 222.650 96.914,222.380 97.172,222.600 97.172 C 222.820 97.172,223.450 96.914,224.000 96.600 C 224.550 96.286,224.820 96.028,224.600 96.028 C 224.380 96.028,223.750 96.286,223.200 96.600 M179.537 98.426 C 180.053 98.633,181.493 98.889,182.737 98.996 L 185.000 99.190 182.200 98.627 C 178.899 97.962,178.260 97.914,179.537 98.426 M215.200 98.648 L 212.600 99.180 214.953 98.980 C 216.247 98.870,217.597 98.610,217.953 98.402 C 218.732 97.947,218.532 97.965,215.200 98.648 M190.100 99.876 C 190.485 99.976,191.115 99.976,191.500 99.876 C 191.885 99.775,191.570 99.693,190.800 99.693 C 190.030 99.693,189.715 99.775,190.100 99.876 M206.100 99.876 C 206.485 99.976,207.115 99.976,207.500 99.876 C 207.885 99.775,207.570 99.693,206.800 99.693 C 206.030 99.693,205.715 99.775,206.100 99.876 M231.106 170.400 C 231.164 184.590,231.263 197.460,231.326 199.000 C 231.389 200.540,231.459 189.920,231.481 175.400 C 231.503 160.880,231.404 148.010,231.260 146.800 C 231.117 145.590,231.048 156.210,231.106 170.400 M165.720 156.400 C 165.720 157.610,165.795 158.105,165.887 157.500 C 165.978 156.895,165.978 155.905,165.887 155.300 C 165.795 154.695,165.720 155.190,165.720 156.400 M165.768 166.600 C 165.768 171.000,165.826 172.855,165.898 170.721 C 165.970 168.588,165.970 164.988,165.899 162.721 C 165.827 160.455,165.768 162.200,165.768 166.600 M165.783 220.600 C 165.783 230.060,165.836 233.873,165.900 229.073 C 165.964 224.273,165.963 216.533,165.899 211.873 C 165.836 207.213,165.783 211.140,165.783 220.600 M231.774 225.200 C 231.774 230.810,231.830 233.105,231.899 230.300 C 231.968 227.495,231.968 222.905,231.899 220.100 C 231.830 217.295,231.774 219.590,231.774 225.200 M165.331 244.200 C 165.333 245.740,165.405 246.321,165.492 245.491 C 165.579 244.661,165.577 243.401,165.489 242.691 C 165.400 241.981,165.329 242.660,165.331 244.200 M231.769 253.800 C 231.770 258.420,231.828 260.255,231.899 257.878 C 231.970 255.501,231.969 251.721,231.898 249.478 C 231.827 247.235,231.769 249.180,231.769 253.800 M165.771 260.000 C 165.771 264.950,165.828 266.975,165.899 264.500 C 165.969 262.025,165.969 257.975,165.899 255.500 C 165.828 253.025,165.771 255.050,165.771 260.000 M231.367 275.200 C 231.367 279.490,231.426 281.245,231.498 279.100 C 231.570 276.955,231.570 273.445,231.498 271.300 C 231.426 269.155,231.367 270.910,231.367 275.200 M165.578 283.900 C 165.566 286.045,165.468 291.490,165.360 296.000 C 165.252 300.510,165.307 304.870,165.482 305.688 C 165.669 306.563,165.843 301.574,165.904 293.588 C 165.960 286.115,165.915 280.000,165.804 280.000 C 165.692 280.000,165.590 281.755,165.578 283.900 M231.728 290.000 C 231.728 291.430,231.801 292.015,231.889 291.300 C 231.978 290.585,231.978 289.415,231.889 288.700 C 231.801 287.985,231.728 288.570,231.728 290.000 M231.701 307.400 C 231.705 308.280,231.787 308.593,231.883 308.095 C 231.979 307.598,231.975 306.878,231.875 306.495 C 231.775 306.113,231.696 306.520,231.701 307.400 M165.456 312.245 C 165.315 313.272,165.238 320.972,165.284 329.356 L 165.368 344.600 165.584 327.600 C 165.703 318.250,165.780 310.550,165.756 310.489 C 165.732 310.428,165.597 311.218,165.456 312.245 M231.748 351.600 C 231.748 353.910,231.814 354.855,231.895 353.700 C 231.976 352.545,231.976 350.655,231.895 349.500 C 231.814 348.345,231.748 349.290,231.748 351.600 " stroke="none" fill="#c0682c" fill-rule="evenodd"></path></g></svg>