<svg xmlns="http://www.w3.org/2000/svg" xmlns:xlink="http://www.w3.org/1999/xlink" width="948.043" height="177.459" viewBox="0 0 948.043 177.459">
  <defs>
    <filter id="Path_769" x="50.485" y="33.031" width="874.001" height="135" filterUnits="userSpaceOnUse">
      <feOffset dy="3" input="SourceAlpha"/>
      <feGaussianBlur stdDeviation="6" result="blur"/>
      <feFlood flood-opacity="0.502"/>
      <feComposite operator="in" in2="blur"/>
      <feComposite in="SourceGraphic"/>
    </filter>
    <filter id="Counting_Numbers" x="268.834" y="58.531" width="423" height="79" filterUnits="userSpaceOnUse">
      <feOffset dy="3" input="SourceAlpha"/>
      <feGaussianBlur stdDeviation="2.5" result="blur-2"/>
      <feFlood flood-opacity="0.502"/>
      <feComposite operator="in" in2="blur-2"/>
      <feComposite in="SourceGraphic"/>
    </filter>
  </defs>
  <g id="Counting_Numbers-2" data-name="Counting Numbers" transform="translate(-15.035 -5.965)">
    <g id="box" transform="translate(83.52 53.996)">
      <g transform="matrix(1, 0, 0, 1, -68.49, -48.03)" filter="url(#Path_769)">
        <path id="Path_769-2" data-name="Path 769" d="M49.5,0h739a49.5,49.5,0,1,1,0,99H49.5a49.5,49.5,0,1,1,0-99Z" transform="translate(68.49 48.03)" fill="#704915"/>
      </g>
      <path id="Path_763" data-name="Path 763" d="M37.5,0h739a37.5,37.5,0,0,1,0,75H37.5a37.5,37.5,0,1,1,0-75Z" transform="translate(12 12)" fill="#0a3400"/>
    </g>
    <g id="dahon" transform="translate(145.187 71.932) rotate(131)">
      <path id="Path_768" data-name="Path 768" d="M.1,72.142c-1.359,27.549,10.984,36.572,24.484,36.572S52.744,99.692,54.1,72.142,29.034,0,29.034,0,1.461,44.593.1,72.142Z" transform="matrix(-1, -0.017, 0.017, -1, 72.255, 109.643)" fill="#20bc14"/>
      <path id="Path_771" data-name="Path 771" d="M.391,0S-4.187,37.239,17.951,49.964s46.6,20.025,46.6,20.025S60.24,43.015,43.869,25.716.391,0,.391,0Z" transform="translate(52.823 1.502) rotate(49)" fill="#189a0e"/>
      <path id="Path_770" data-name="Path 770" d="M3.015,107.394l.563,1.041.664-1.041S2.519,76.123,2.519,50.377,14.328.233,14.328.233L12.695,0S-.167,24.631,0,50.377,3.015,107.394,3.015,107.394Z" transform="translate(39.639 0.713)" fill="#3ab543"/>
    </g>
    <g id="dahon-2" data-name="dahon" transform="translate(115.486 101.646) rotate(90)">
      <path id="Path_768-2" data-name="Path 768" d="M.043,30.263C-.527,41.819,4.651,45.6,10.314,45.6S22.125,41.819,22.7,30.263,12.18,0,12.18,0,.613,18.706.043,30.263Z" transform="matrix(-1, -0.017, 0.017, -1, 30.31, 45.994)" fill="#988c21"/>
      <path id="Path_771-2" data-name="Path 771" d="M.164,0S-1.756,15.622,7.531,20.96a105.076,105.076,0,0,0,19.547,8.4S25.27,18.044,18.4,10.788.164,0,.164,0Z" transform="translate(22.158 0.63) rotate(49)" fill="#7e7415"/>
      <path id="Path_770-2" data-name="Path 770" d="M1.265,45.05l.236.436.279-.436s-.723-13.118-.723-23.918S6.01.1,6.01.1L5.325,0S-.07,10.333,0,21.133,1.265,45.05,1.265,45.05Z" transform="translate(16.627 0.299)" fill="#b0a322"/>
    </g>
    <g id="dahon-3" data-name="dahon" transform="translate(176.447 105.461) rotate(164)">
      <path id="Path_768-3" data-name="Path 768" d="M.1,72.142c-1.359,27.549,10.984,36.572,24.484,36.572S52.744,99.691,54.1,72.142,29.034,0,29.034,0,1.462,44.593.1,72.142Z" transform="matrix(-1, -0.017, 0.017, -1, 72.255, 109.643)" fill="#20bc14"/>
      <path id="Path_771-3" data-name="Path 771" d="M.393,0S-4.186,37.239,17.953,49.964s46.6,20.025,46.6,20.025-4.309-26.975-20.68-44.274S.393,0,.393,0Z" transform="translate(52.823 1.502) rotate(49)" fill="#189a0e"/>
      <path id="Path_770-3" data-name="Path 770" d="M3.015,107.393l.563,1.041.664-1.041S2.519,76.123,2.519,50.377,14.328.233,14.328.233L12.695,0S-.167,24.631,0,50.377,3.015,107.393,3.015,107.393Z" transform="translate(39.639 0.713)" fill="#3ab543"/>
    </g>
    <g id="dahon-4" data-name="dahon" transform="translate(255.734 117.246) rotate(71)">
      <path id="Path_768-4" data-name="Path 768" d="M.043,30.263C-.527,41.819,4.651,45.6,10.314,45.6S22.125,41.819,22.7,30.263,12.18,0,12.18,0,.613,18.706.043,30.263Z" transform="matrix(-1, -0.017, 0.017, -1, 30.31, 45.994)" fill="#988c21"/>
      <path id="Path_771-4" data-name="Path 771" d="M.164,0S-1.756,15.622,7.531,20.96a105.076,105.076,0,0,0,19.547,8.4S25.27,18.044,18.4,10.788.164,0,.164,0Z" transform="translate(22.158 0.63) rotate(49)" fill="#7e7415"/>
      <path id="Path_770-4" data-name="Path 770" d="M1.265,45.05l.236.436.279-.436s-.723-13.118-.723-23.918S6.01.1,6.01.1L5.325,0S-.07,10.333,0,21.133,1.265,45.05,1.265,45.05Z" transform="translate(16.627 0.299)" fill="#b0a322"/>
    </g>
    <g id="dahon-5" data-name="dahon" transform="translate(275.679 116.387) rotate(39)">
      <path id="Path_768-5" data-name="Path 768" d="M.049,34.651C-.6,47.884,5.325,52.217,11.81,52.217s13.524-4.334,14.177-17.566S13.946,0,13.946,0,.7,21.419.049,34.651Z" transform="matrix(-1, -0.017, 0.017, -1, 34.704, 52.663)" fill="#20bc14"/>
      <path id="Path_771-5" data-name="Path 771" d="M.188,0s-2.2,17.887,8.435,24A120.3,120.3,0,0,0,31,33.617s-2.07-12.957-9.934-21.266S.188,0,.188,0Z" transform="translate(25.371 0.722) rotate(49)" fill="#189a0e"/>
      <path id="Path_770-5" data-name="Path 770" d="M1.448,51.583l.27.5.319-.5S1.21,36.563,1.21,24.2,6.882.112,6.882.112L6.1,0S-.08,11.831,0,24.2,1.448,51.583,1.448,51.583Z" transform="translate(19.038 0.342)" fill="#3ab543"/>
    </g>
    <g id="dahon-6" data-name="dahon" transform="translate(779.922 152.693) rotate(133)">
      <path id="Path_768-6" data-name="Path 768" d="M.043,15.342C-.527,3.785,4.651,0,10.314,0S22.126,3.785,22.7,15.342,12.179,45.6,12.179,45.6.613,26.9.043,15.342Z" transform="matrix(-1, 0.017, -0.017, -1, 31.106, 45.598)" fill="#988c21"/>
      <path id="Path_771-6" data-name="Path 771" d="M.164,29.36S-1.756,13.738,7.531,8.4A105.077,105.077,0,0,1,27.078,0S25.271,11.316,18.4,18.572.164,29.36.164,29.36Z" transform="translate(0 26.102) rotate(-49)" fill="#7e7415"/>
      <path id="Path_770-6" data-name="Path 770" d="M1.265.436,1.5,0,1.78.436s-.723,13.118-.723,23.918S6.01,45.389,6.01,45.389l-.685.1S-.07,35.154,0,24.354,1.265.436,1.265.436Z" transform="translate(16.628 0.208)" fill="#b0a322"/>
    </g>
    <g id="dahon-7" data-name="dahon" transform="translate(756.421 176.092) rotate(166)">
      <path id="Path_768-7" data-name="Path 768" d="M.043,15.342C-.527,3.785,4.651,0,10.314,0S22.126,3.785,22.7,15.342,12.179,45.6,12.179,45.6.613,26.9.043,15.342Z" transform="matrix(-1, 0.017, -0.017, -1, 31.106, 45.598)" fill="#988c21"/>
      <path id="Path_771-7" data-name="Path 771" d="M.164,29.36S-1.756,13.738,7.531,8.4A105.077,105.077,0,0,1,27.078,0S25.271,11.316,18.4,18.572.164,29.36.164,29.36Z" transform="translate(0 26.102) rotate(-49)" fill="#7e7415"/>
      <path id="Path_770-7" data-name="Path 770" d="M1.265.436,1.5,0,1.78.436s-.723,13.118-.723,23.918S6.01,45.389,6.01,45.389l-.685.1S-.07,35.154,0,24.354,1.265.436,1.265.436Z" transform="translate(16.628 0.208)" fill="#b0a322"/>
    </g>
    <g id="dahon-8" data-name="dahon" transform="translate(933.553 173.676) rotate(-155)">
      <path id="Path_768-8" data-name="Path 768" d="M.1,72.142c-1.359,27.549,10.984,36.572,24.484,36.572S52.744,99.691,54.1,72.142,29.034,0,29.034,0,1.462,44.593.1,72.142Z" transform="matrix(-1, -0.017, 0.017, -1, 72.255, 109.643)" fill="#20bc14"/>
      <path id="Path_771-8" data-name="Path 771" d="M.393,0S-4.186,37.239,17.953,49.964s46.6,20.025,46.6,20.025-4.309-26.975-20.68-44.274S.393,0,.393,0Z" transform="translate(52.823 1.502) rotate(49)" fill="#189a0e"/>
      <path id="Path_770-8" data-name="Path 770" d="M3.015,107.394l.562,1.041.664-1.041S2.519,76.123,2.519,50.377,14.328.233,14.328.233L12.7,0S-.167,24.631,0,50.377,3.015,107.394,3.015,107.394Z" transform="translate(39.639 0.713)" fill="#3ab543"/>
    </g>
    <g id="dahon-9" data-name="dahon" transform="matrix(-0.996, 0.087, -0.087, -0.996, 933.777, 133.345)">
      <path id="Path_768-9" data-name="Path 768" d="M.1,72.142c-1.359,27.549,10.984,36.572,24.484,36.572S52.744,99.691,54.1,72.142,29.034,0,29.034,0,1.462,44.593.1,72.142Z" transform="matrix(-1, -0.017, 0.017, -1, 72.255, 109.643)" fill="#988c21"/>
      <path id="Path_771-9" data-name="Path 771" d="M.393,0S-4.186,37.239,17.953,49.964s46.6,20.025,46.6,20.025-4.309-26.975-20.68-44.274S.393,0,.393,0Z" transform="translate(52.823 1.502) rotate(49)" fill="#7e7415"/>
      <path id="Path_770-9" data-name="Path 770" d="M3.015,107.393l.563,1.041.664-1.041S2.519,76.123,2.519,50.377,14.328.233,14.328.233L12.7,0S-.167,24.631,0,50.377,3.015,107.393,3.015,107.393Z" transform="translate(39.639 0.713)" fill="#ab9e20"/>
    </g>
    <g id="dahon-10" data-name="dahon" transform="translate(674.327 121.051) rotate(71)">
      <path id="Path_768-10" data-name="Path 768" d="M.049,34.651C-.6,47.884,5.325,52.218,11.81,52.218s13.524-4.334,14.177-17.566S13.946,0,13.946,0,.7,21.419.049,34.651Z" transform="matrix(-1, -0.017, 0.017, -1, 34.704, 52.664)" fill="#20bc14"/>
      <path id="Path_771-10" data-name="Path 771" d="M.188,0s-2.2,17.887,8.435,24A120.3,120.3,0,0,0,31,33.618s-2.07-12.957-9.934-21.266S.188,0,.188,0Z" transform="translate(25.371 0.722) rotate(49)" fill="#189a0e"/>
      <path id="Path_770-10" data-name="Path 770" d="M1.448,51.583l.27.5.319-.5S1.21,36.563,1.21,24.2,6.882.112,6.882.112L6.1,0S-.08,11.831,0,24.2,1.448,51.583,1.448,51.583Z" transform="translate(19.038 0.342)" fill="#3ab543"/>
    </g>
    <g transform="matrix(1, 0, 0, 1, 15.03, 5.97)" filter="url(#Counting_Numbers)">
      <text id="Counting_Numbers-3" data-name="Counting Numbers" transform="translate(480.33 114.03)" fill="#fff" stroke="#fff" stroke-width="2" font-size="45" font-family="SegoeUI-Bold, Segoe UI" font-weight="700"><tspan x="-201.028" y="0">Counting Numbers</tspan></text>
    </g>
  </g>
</svg>
