<svg xmlns="http://www.w3.org/2000/svg" width="187" height="179.119" viewBox="0 0 187 179.119">
  <g id="english_circ8" transform="translate(-941 -210)">
    <path id="Path_1165" data-name="Path 1165" d="M90.9,0c50.2,0,90.9,38.626,90.9,86.273s-40.7,86.273-90.9,86.273S0,133.92,0,86.273,40.7,0,90.9,0Z" transform="translate(941 216.573)" fill="#06727d"/>
    <path id="Path_1164" data-name="Path 1164" d="M90.9,0c50.2,0,90.9,38.626,90.9,86.273s-40.7,86.273-90.9,86.273S0,133.92,0,86.273,40.7,0,90.9,0Z" transform="translate(946.194 210)" fill="#24a3b0"/>
    <path id="Path_1163" data-name="Path 1163" d="M69.259,0c38.251,0,69.259,29.429,69.259,65.732s-31.008,65.732-69.259,65.732S0,102.034,0,65.732,31.008,0,69.259,0Z" transform="translate(967.838 230.541)" fill="#3bbfcd"/>
    <text id="_8" data-name="8" transform="translate(1035.588 323.964)" fill="#fff" font-size="84" font-family="Calibri-Bold, Calibri" font-weight="700"><tspan x="-21.287" y="0">8</tspan></text>
  </g>
</svg>
