<svg width="1366" height="768" viewBox="0 0 1366 768" fill="none" xmlns="http://www.w3.org/2000/svg">
<g clip-path="url(#clip0)">
<rect width="1366" height="768" fill="white"/>
<rect width="1366" height="768" fill="#B8F79C"/>
<path d="M443.624 26L0 91.4604V357.905L424.554 286.307L957.505 407L1366 331.823V26L957.505 136.976L443.624 26Z" fill="#A7E78A"/>
<path d="M443.624 528L0 593.46V859.905L424.554 788.307L957.505 909L1366 833.823V528L957.505 638.976L443.624 528Z" fill="#A7E78A"/>
<path d="M330.018 150.597C210.418 53.7973 17.1845 152.597 -64.4822 214.097C-103.649 244.931 -155.282 317.397 -48.4822 360.597C58.3178 403.797 161.351 378.597 199.518 360.597C292.851 330.931 449.618 247.397 330.018 150.597Z" fill="#1EFFF1" stroke="#CBB065" stroke-width="10"/>
<path d="M340.018 675.597C220.418 578.797 27.1845 677.597 -54.4822 739.097C-93.6488 769.931 -145.282 842.397 -38.4822 885.597C68.3178 928.797 171.351 903.597 209.518 885.597C302.851 855.931 459.618 772.397 340.018 675.597Z" fill="#1EFFF1" stroke="#CBB065" stroke-width="10"/>
<path d="M932.203 198.971C918.623 173.158 971.145 150.902 999.104 143C1068.17 143 1210.19 144.712 1225.77 151.56C1245.24 160.12 1239.75 191.069 1231.26 185.801C1222.77 180.533 1188.32 198.971 1160.37 221.359C1132.41 243.747 1057.52 225.968 1033.55 212.14C1009.59 198.312 949.178 231.236 932.203 198.971Z" fill="#6CA352" stroke="#967C40" stroke-width="7"/>
<path d="M1183 131H1111C1108.24 131 1106 133.239 1106 136V179C1106 181.761 1108.24 184 1111 184H1183C1185.76 184 1188 181.761 1188 179V136C1188 133.239 1185.76 131 1183 131Z" fill="#C4C4C4"/>
<path d="M1103 118V150C1103 151.105 1103.9 152 1105 152H1131.38C1131.99 152 1132.58 151.715 1132.96 151.227L1145.75 134.764C1146.54 133.745 1148.08 133.732 1148.89 134.737L1162.18 151.254C1162.56 151.726 1163.13 152 1163.74 152H1188C1189.1 152 1190 151.105 1190 150V118C1190 116.895 1189.1 116 1188 116H1105C1103.9 116 1103 116.895 1103 118Z" fill="#F7F05D" stroke="#CDC84F"/>
<rect x="1106" y="178" width="82" height="6" rx="2" fill="#999999"/>
<rect x="1115" y="155" width="13" height="12" fill="#199BE2"/>
<rect x="1170" y="155" width="12" height="12" fill="#199BE2"/>
<rect x="1138" y="161" width="18" height="23" fill="#FFF974"/>
<path d="M1059 131H987C984.239 131 982 133.239 982 136V179C982 181.761 984.239 184 987 184H1059C1061.76 184 1064 181.761 1064 179V136C1064 133.239 1061.76 131 1059 131Z" fill="#C4C4C4"/>
<path d="M979 118V150C979 151.105 979.895 152 981 152H1007.38C1007.99 152 1008.58 151.715 1008.96 151.227L1021.75 134.764C1022.54 133.745 1024.08 133.732 1024.89 134.737L1038.18 151.254C1038.56 151.726 1039.13 152 1039.74 152H1064C1065.1 152 1066 151.105 1066 150V118C1066 116.895 1065.1 116 1064 116H981C979.895 116 979 116.895 979 118Z" fill="#199BE2" stroke="#127DB7"/>
<rect x="982" y="178" width="82" height="6" rx="2" fill="#999999"/>
<rect x="991" y="155" width="13" height="12" fill="#199BE2"/>
<rect x="1046" y="155" width="12" height="12" fill="#199BE2"/>
<rect x="1014" y="161" width="18" height="23" fill="#0C76AF"/>
<path d="M1121 158H1049C1046.24 158 1044 160.239 1044 163V206C1044 208.761 1046.24 211 1049 211H1121C1123.76 211 1126 208.761 1126 206V163C1126 160.239 1123.76 158 1121 158Z" fill="#C4C4C4"/>
<path d="M1041 145V177C1041 178.105 1041.9 179 1043 179H1069.38C1069.99 179 1070.58 178.715 1070.96 178.227L1083.75 161.764C1084.54 160.745 1086.08 160.732 1086.89 161.737L1100.18 178.254C1100.56 178.726 1101.13 179 1101.74 179H1126C1127.1 179 1128 178.105 1128 177V145C1128 143.895 1127.1 143 1126 143H1043C1041.9 143 1041 143.895 1041 145Z" fill="#CD3905" stroke="#AF3105"/>
<rect x="1044" y="205" width="82" height="6" rx="2" fill="#999999"/>
<rect x="1053" y="182" width="13" height="12" fill="#199BE2"/>
<rect x="1108" y="182" width="12" height="12" fill="#199BE2"/>
<rect x="1076" y="188" width="18" height="23" fill="#DE490D"/>
<path d="M115.203 532.971C101.623 507.158 154.145 484.902 182.104 477C251.169 477 393.193 478.712 408.77 485.56C428.241 494.12 422.749 525.069 414.261 519.801C405.774 514.533 371.325 532.971 343.366 555.359C315.407 577.747 240.518 559.968 216.553 546.14C192.589 532.312 132.178 565.236 115.203 532.971Z" fill="#6CA352" stroke="#967C40" stroke-width="7"/>
<path d="M366 465H294C291.239 465 289 467.239 289 470V513C289 515.761 291.239 518 294 518H366C368.761 518 371 515.761 371 513V470C371 467.239 368.761 465 366 465Z" fill="#C4C4C4"/>
<path d="M286 452V484C286 485.105 286.895 486 288 486H314.377C314.995 486 315.577 485.715 315.956 485.227L328.749 468.764C329.541 467.745 331.077 467.732 331.886 468.737L345.179 485.254C345.558 485.726 346.131 486 346.737 486H371C372.105 486 373 485.105 373 484V452C373 450.895 372.105 450 371 450H288C286.895 450 286 450.895 286 452Z" fill="#F7F05D" stroke="#CDC84F"/>
<rect x="289" y="512" width="82" height="6" rx="2" fill="#999999"/>
<rect x="298" y="489" width="13" height="12" fill="#199BE2"/>
<rect x="353" y="489" width="12" height="12" fill="#199BE2"/>
<rect x="321" y="495" width="18" height="23" fill="#FFF974"/>
<path d="M242 465H170C167.239 465 165 467.239 165 470V513C165 515.761 167.239 518 170 518H242C244.761 518 247 515.761 247 513V470C247 467.239 244.761 465 242 465Z" fill="#C4C4C4"/>
<path d="M162 452V484C162 485.105 162.895 486 164 486H190.377C190.995 486 191.577 485.715 191.956 485.227L204.749 468.764C205.541 467.745 207.077 467.732 207.886 468.737L221.179 485.254C221.558 485.726 222.131 486 222.737 486H247C248.105 486 249 485.105 249 484V452C249 450.895 248.105 450 247 450H164C162.895 450 162 450.895 162 452Z" fill="#199BE2" stroke="#127DB7"/>
<rect x="165" y="512" width="82" height="6" rx="2" fill="#999999"/>
<rect x="174" y="489" width="13" height="12" fill="#199BE2"/>
<rect x="229" y="489" width="12" height="12" fill="#199BE2"/>
<rect x="197" y="495" width="18" height="23" fill="#0C76AF"/>
<path d="M304 492H232C229.239 492 227 494.239 227 497V540C227 542.761 229.239 545 232 545H304C306.761 545 309 542.761 309 540V497C309 494.239 306.761 492 304 492Z" fill="#C4C4C4"/>
<path d="M224 479V511C224 512.105 224.895 513 226 513H252.377C252.995 513 253.577 512.715 253.956 512.227L266.749 495.764C267.541 494.745 269.077 494.732 269.886 495.737L283.179 512.254C283.558 512.726 284.131 513 284.737 513H309C310.105 513 311 512.105 311 511V479C311 477.895 310.105 477 309 477H226C224.895 477 224 477.895 224 479Z" fill="#CD3905" stroke="#AF3105"/>
<rect x="227" y="539" width="82" height="6" rx="2" fill="#999999"/>
<rect x="236" y="516" width="13" height="12" fill="#199BE2"/>
<rect x="291" y="516" width="12" height="12" fill="#199BE2"/>
<rect x="259" y="522" width="18" height="23" fill="#DE490D"/>
<path d="M1124.2 700.971C1110.62 675.158 1163.15 652.902 1191.1 645C1260.17 645 1402.19 646.712 1417.77 653.56C1437.24 662.12 1431.75 693.069 1423.26 687.801C1414.77 682.533 1380.32 700.971 1352.37 723.359C1324.41 745.747 1249.52 727.968 1225.55 714.14C1201.59 700.312 1141.18 733.236 1124.2 700.971Z" fill="#6CA352" stroke="#967C40" stroke-width="7"/>
<path d="M1375 633H1303C1300.24 633 1298 635.239 1298 638V681C1298 683.761 1300.24 686 1303 686H1375C1377.76 686 1380 683.761 1380 681V638C1380 635.239 1377.76 633 1375 633Z" fill="#C4C4C4"/>
<path d="M1295 620V652C1295 653.105 1295.9 654 1297 654H1323.38C1323.99 654 1324.58 653.715 1324.96 653.227L1337.75 636.764C1338.54 635.745 1340.08 635.732 1340.89 636.737L1354.18 653.254C1354.56 653.726 1355.13 654 1355.74 654H1380C1381.1 654 1382 653.105 1382 652V620C1382 618.895 1381.1 618 1380 618H1297C1295.9 618 1295 618.895 1295 620Z" fill="#F7F05D" stroke="#CDC84F"/>
<rect x="1298" y="680" width="82" height="6" rx="2" fill="#999999"/>
<rect x="1307" y="657" width="13" height="12" fill="#199BE2"/>
<rect x="1362" y="657" width="12" height="12" fill="#199BE2"/>
<rect x="1330" y="663" width="18" height="23" fill="#FFF974"/>
<path d="M1251 633H1179C1176.24 633 1174 635.239 1174 638V681C1174 683.761 1176.24 686 1179 686H1251C1253.76 686 1256 683.761 1256 681V638C1256 635.239 1253.76 633 1251 633Z" fill="#C4C4C4"/>
<path d="M1171 620V652C1171 653.105 1171.9 654 1173 654H1199.38C1199.99 654 1200.58 653.715 1200.96 653.227L1213.75 636.764C1214.54 635.745 1216.08 635.732 1216.89 636.737L1230.18 653.254C1230.56 653.726 1231.13 654 1231.74 654H1256C1257.1 654 1258 653.105 1258 652V620C1258 618.895 1257.1 618 1256 618H1173C1171.9 618 1171 618.895 1171 620Z" fill="#199BE2" stroke="#127DB7"/>
<rect x="1174" y="680" width="82" height="6" rx="2" fill="#999999"/>
<rect x="1183" y="657" width="13" height="12" fill="#199BE2"/>
<rect x="1238" y="657" width="12" height="12" fill="#199BE2"/>
<rect x="1206" y="663" width="18" height="23" fill="#0C76AF"/>
<path d="M1313 660H1241C1238.24 660 1236 662.239 1236 665V708C1236 710.761 1238.24 713 1241 713H1313C1315.76 713 1318 710.761 1318 708V665C1318 662.239 1315.76 660 1313 660Z" fill="#C4C4C4"/>
<path d="M1233 647V679C1233 680.105 1233.9 681 1235 681H1261.38C1261.99 681 1262.58 680.715 1262.96 680.227L1275.75 663.764C1276.54 662.745 1278.08 662.732 1278.89 663.737L1292.18 680.254C1292.56 680.726 1293.13 681 1293.74 681H1318C1319.1 681 1320 680.105 1320 679V647C1320 645.895 1319.1 645 1318 645H1235C1233.9 645 1233 645.895 1233 647Z" fill="#CD3905" stroke="#AF3105"/>
<rect x="1236" y="707" width="82" height="6" rx="2" fill="#999999"/>
<rect x="1245" y="684" width="13" height="12" fill="#199BE2"/>
<rect x="1300" y="684" width="12" height="12" fill="#199BE2"/>
<rect x="1268" y="690" width="18" height="23" fill="#DE490D"/>
<ellipse cx="1052.89" cy="696.976" rx="37.1084" ry="10.2048" fill="#6CA352"/>
<path d="M1056.14 696.512H1045.93V662.883L1028.77 647.343L1034.34 638.994L1045.93 648.271V629.253H1056.14V659.867L1064.95 638.994L1071.45 645.488L1056.14 679.813V696.512Z" fill="#CBB065"/>
<circle cx="1029.7" cy="636.675" r="16.6988" fill="#64A23A"/>
<circle cx="1052.89" cy="617.193" r="23.1928" fill="#64A23A"/>
<circle cx="1073.3" cy="638.53" r="14.8434" fill="#64A23A"/>
<ellipse cx="1307.89" cy="162.976" rx="37.1084" ry="10.2048" fill="#6CA352"/>
<path d="M1311.14 162.512H1300.93V128.883L1283.77 113.343L1289.34 104.994L1300.93 114.271V95.253H1311.14V125.867L1319.95 104.994L1326.45 111.488L1311.14 145.813V162.512Z" fill="#CBB065"/>
<circle cx="1284.7" cy="102.675" r="16.6988" fill="#64A23A"/>
<circle cx="1307.89" cy="83.1928" r="23.1928" fill="#64A23A"/>
<circle cx="1328.3" cy="104.53" r="14.8434" fill="#64A23A"/>
<ellipse cx="979" cy="399" rx="40" ry="11" fill="#6CA352"/>
<path d="M982.5 398.5H971.5V362.25L953 345.5L959 336.5L971.5 346.5V326H982.5V359L992 336.5L999 343.5L982.5 380.5V398.5Z" fill="#CBB065"/>
<circle cx="954" cy="334" r="18" fill="#64A23A"/>
<circle cx="979" cy="313" r="25" fill="#64A23A"/>
<circle cx="1001" cy="336" r="16" fill="#64A23A"/>
<ellipse cx="12.3689" cy="648.975" rx="29.1803" ry="8.02459" fill="#6CA352"/>
<path d="M14.9221 648.611H6.89751V622.166L-6.59839 609.947L-2.22134 603.381L6.89751 610.676V595.721H14.9221V619.795L21.8524 603.381L26.959 608.488L14.9221 635.48V648.611Z" fill="#CBB065"/>
<circle cx="-5.86885" cy="601.557" r="13.1311" fill="#64A23A"/>
<circle cx="12.3689" cy="586.238" r="18.2377" fill="#64A23A"/>
<circle cx="28.418" cy="603.016" r="11.6721" fill="#64A23A"/>
<ellipse cx="125" cy="439" rx="40" ry="11" fill="#6CA352"/>
<path d="M128.5 438.5H117.5V402.25L99 385.5L105 376.5L117.5 386.5V366H128.5V399L138 376.5L145 383.5L128.5 420.5V438.5Z" fill="#CBB065"/>
<circle cx="100" cy="374" r="18" fill="#64A23A"/>
<circle cx="125" cy="353" r="25" fill="#64A23A"/>
<circle cx="147" cy="376" r="16" fill="#64A23A"/>
<ellipse cx="443" cy="568" rx="40" ry="11" fill="#6CA352"/>
<path d="M446.5 567.5H435.5V531.25L417 514.5L423 505.5L435.5 515.5V495H446.5V528L456 505.5L463 512.5L446.5 549.5V567.5Z" fill="#CBB065"/>
<circle cx="418" cy="503" r="18" fill="#64A23A"/>
<circle cx="443" cy="482" r="25" fill="#64A23A"/>
<circle cx="465" cy="505" r="16" fill="#64A23A"/>
<ellipse cx="366.747" cy="125.277" rx="33.253" ry="9.14458" fill="#6CA352"/>
<path d="M369.657 124.861H360.512V94.7259L345.133 80.8012L350.12 73.3193L360.512 81.6325V64.5904H369.657V92.0241L377.554 73.3193L383.374 79.1386L369.657 109.898V124.861Z" fill="#CBB065"/>
<circle cx="345.964" cy="71.241" r="14.9639" fill="#64A23A"/>
<circle cx="366.747" cy="53.7831" r="20.7831" fill="#64A23A"/>
<circle cx="385.036" cy="72.9036" r="13.3012" fill="#64A23A"/>
<path d="M1480.02 296.597C1360.42 199.797 1167.18 298.597 1085.52 360.097C1046.35 390.931 994.718 463.397 1101.52 506.597C1208.32 549.797 1311.35 524.597 1349.52 506.597C1442.85 476.931 1599.62 393.397 1480.02 296.597Z" fill="#1EFFF1" stroke="#CBB065" stroke-width="10"/>
<path d="M933.018 -151.403C813.418 -248.203 620.184 -149.403 538.518 -87.9027C499.351 -57.0694 447.718 15.3973 554.518 58.5973C661.318 101.797 764.351 76.5973 802.518 58.5973C895.851 28.9306 1052.62 -54.6027 933.018 -151.403Z" fill="#1EFFF1" stroke="#CBB065" stroke-width="10"/>
<path fill-rule="evenodd" clip-rule="evenodd" d="M1346.27 448.806L1368.46 449.304C1369.55 440.541 1372.14 430.384 1373.83 421.124C1375.52 411.863 1376.91 402.005 1378.21 392.446C1384.37 347.339 1389.25 271.363 1369.85 228.645C1368.06 224.562 1365.87 220.878 1364.58 217.094C1361.49 215.7 1354.43 215.8 1350.25 216.497C1343.58 220.081 1333.73 254.634 1331.45 265.787C1321 316.371 1326.87 371.436 1338.91 421.323C1341.2 430.285 1344.58 440.043 1346.27 448.806Z" fill="#F5F3DC"/>
<path fill-rule="evenodd" clip-rule="evenodd" d="M1368.56 449.304C1377.31 448.507 1387.76 450.399 1395.62 448.905H1384.18C1385.37 444.922 1388.85 438.848 1390.74 435.064C1406.16 403.897 1419.1 364.963 1422.28 329.913C1426.46 284.307 1413.92 245.174 1378.6 219.086C1375.42 217.293 1369.15 216.397 1364.58 216.995C1365.97 220.679 1368.06 224.463 1369.85 228.545C1389.15 271.263 1384.37 347.239 1378.21 392.347C1376.91 401.906 1375.42 411.764 1373.83 421.024C1372.14 430.384 1369.65 440.441 1368.56 449.304Z" fill="#EE664C"/>
<path fill-rule="evenodd" clip-rule="evenodd" d="M1323.59 222.073C1306.67 230.437 1289.36 248.46 1279.01 264.193C1241.41 321.15 1273.44 389.459 1310.35 436.757C1312.44 439.446 1318.71 446.416 1319.71 449.005L1320.1 448.905L1331.54 449.005L1319.31 421.821C1315.23 412.76 1311.94 402.902 1308.76 393.342C1292.25 344.351 1284.78 277.835 1320.3 236.213C1332.24 222.173 1334.33 223.467 1340.3 217.194C1335.52 217.492 1326.97 219.584 1323.59 222.073Z" fill="#F5F3DC"/>
<path fill-rule="evenodd" clip-rule="evenodd" d="M1340.3 217.194C1334.43 223.467 1332.34 222.173 1320.3 236.213C1284.78 277.736 1292.25 344.351 1308.76 393.342C1312.04 402.902 1315.33 412.76 1319.31 421.821L1331.54 449.005L1320.1 448.905C1323.49 449.901 1341.59 449.602 1346.27 448.806C1344.48 440.043 1341.1 430.285 1339.01 421.323C1326.97 371.436 1321.1 316.371 1331.54 265.787C1333.83 254.634 1343.68 220.081 1350.35 216.497L1340.3 217.194Z" fill="#EE664C"/>
<path fill-rule="evenodd" clip-rule="evenodd" d="M1289.26 235.416C1284.88 238.802 1280.21 241.49 1276.33 244.577C1261.3 256.227 1255.83 264.592 1245.88 278.93C1238.02 296.754 1231.16 308.006 1233.45 332.104C1236.33 363.37 1251.65 388.264 1271.25 410.171L1287.87 426.8C1293.84 432.276 1309.56 445.619 1315.83 448.905H1319.8C1318.71 446.416 1312.54 439.346 1310.45 436.658C1273.54 389.359 1241.51 321.051 1279.11 264.094C1289.46 248.361 1306.77 230.338 1323.68 221.973L1322.49 221.575C1318.01 220.878 1326.47 221.376 1321.2 221.376C1317.62 221.376 1301.2 229.143 1297.62 230.935C1295.33 232.13 1291.75 234.42 1289.26 235.416Z" fill="#EE664C"/>
<path fill-rule="evenodd" clip-rule="evenodd" d="M1310.05 445.918C1309.95 445.619 1310.05 445.321 1310.35 445.321C1310.65 445.221 1310.95 445.321 1310.95 445.619L1343.78 538.822C1343.88 539.121 1343.78 539.419 1343.48 539.519C1343.18 539.619 1342.89 539.519 1342.89 539.22L1310.05 445.918Z" fill="#663333"/>
<path fill-rule="evenodd" clip-rule="evenodd" d="M1340.5 445.918C1340.5 445.619 1340.7 445.321 1341 445.321C1341.29 445.221 1341.49 445.321 1341.59 445.619L1351.74 538.822C1351.74 539.121 1351.54 539.419 1351.24 539.519C1350.95 539.619 1350.75 539.519 1350.65 539.22L1340.5 445.918Z" fill="#663333"/>
<path fill-rule="evenodd" clip-rule="evenodd" d="M1311.65 445.52H1410.44C1412.13 445.52 1413.43 446.914 1413.43 448.507C1413.43 450.2 1412.03 451.494 1410.44 451.494H1311.65C1309.96 451.494 1308.66 450.1 1308.66 448.507C1308.66 446.914 1310.05 445.52 1311.65 445.52Z" fill="#663333"/>
<path fill-rule="evenodd" clip-rule="evenodd" d="M1385.77 540.614V565.707C1385.77 569.491 1382.68 572.677 1378.8 572.677H1343.28C1339.5 572.677 1336.32 569.591 1336.32 565.707V540.614H1385.77Z" fill="#663333"/>
<path fill-rule="evenodd" clip-rule="evenodd" d="M1385.77 540.614V548.779C1385.77 549.974 1382.68 551.07 1378.8 551.07H1343.28C1339.5 551.07 1336.32 550.074 1336.32 548.779V540.614H1385.77Z" fill="#402020"/>
<path fill-rule="evenodd" clip-rule="evenodd" d="M1331.64 538.424H1390.54C1391.74 538.424 1392.73 539.419 1392.73 540.614C1392.73 541.809 1391.74 542.805 1390.54 542.805H1331.64C1330.45 542.805 1329.46 541.809 1329.46 540.614C1329.46 539.419 1330.45 538.424 1331.64 538.424Z" fill="#763C3C"/>
<path fill-rule="evenodd" clip-rule="evenodd" d="M516.571 322.161L527.26 322.401C527.787 318.18 529.034 313.286 529.849 308.825C530.663 304.363 531.334 299.614 531.958 295.008C534.929 273.276 537.278 236.673 527.931 216.092C527.068 214.125 526.014 212.35 525.391 210.527C523.905 209.856 520.502 209.904 518.488 210.239C515.277 211.966 510.532 228.613 509.429 233.986C504.396 258.357 507.224 284.886 513.024 308.921C514.127 313.238 515.756 317.94 516.571 322.161Z" fill="#F5F3DC"/>
<path fill-rule="evenodd" clip-rule="evenodd" d="M527.308 322.401C531.526 322.018 536.559 322.929 540.346 322.209H534.834C535.409 320.291 537.086 317.364 537.997 315.541C545.427 300.525 551.658 281.768 553.192 264.881C555.205 242.909 549.166 224.056 532.149 211.487C530.615 210.623 527.596 210.191 525.391 210.479C526.062 212.254 527.068 214.077 527.931 216.044C537.23 236.625 534.929 273.229 531.958 294.961C531.334 299.566 530.615 304.315 529.849 308.777C529.034 313.286 527.835 318.132 527.308 322.401Z" fill="#EE664C"/>
<path fill-rule="evenodd" clip-rule="evenodd" d="M505.642 212.926C497.494 216.956 489.153 225.639 484.168 233.219C466.05 260.659 481.484 293.569 499.267 316.357C500.274 317.652 503.294 321.01 503.773 322.257L503.965 322.209L509.477 322.257L503.581 309.161C501.616 304.795 500.034 300.046 498.5 295.44C490.544 271.837 486.949 239.791 504.061 219.738C509.813 212.974 510.819 213.597 513.695 210.575C511.394 210.719 507.272 211.726 505.642 212.926Z" fill="#F5F3DC"/>
<path fill-rule="evenodd" clip-rule="evenodd" d="M513.695 210.575C510.867 213.597 509.861 212.974 504.061 219.738C486.949 239.743 490.544 271.837 498.5 295.44C500.082 300.046 501.664 304.795 503.581 309.161L509.477 322.257L503.965 322.209C505.594 322.689 514.318 322.545 516.571 322.162C515.708 317.94 514.079 313.238 513.072 308.921C507.272 284.886 504.444 258.357 509.477 233.986C510.579 228.613 515.325 211.966 518.536 210.239L513.695 210.575Z" fill="#EE664C"/>
<path fill-rule="evenodd" clip-rule="evenodd" d="M540.346 322.21L549.261 310.456C567.045 285.702 577.638 253.991 556.164 227.702C550.891 221.273 546.673 218.443 540.058 213.454C538.716 213.118 534.019 211.295 532.581 211.439L532.149 211.535C549.166 224.104 555.205 242.957 553.192 264.929C551.658 281.816 545.427 300.573 537.997 315.589C537.086 317.412 535.409 320.291 534.834 322.258L540.346 322.21Z" fill="#F5F3DC"/>
<path fill-rule="evenodd" clip-rule="evenodd" d="M489.106 219.354C486.996 220.985 484.744 222.281 482.874 223.768C475.636 229.381 473 233.411 468.207 240.319C464.42 248.906 461.113 254.327 462.215 265.937C463.605 281 470.987 292.994 480.43 303.548L488.434 311.559C491.31 314.198 498.884 320.626 501.904 322.209H503.821C503.294 321.01 500.322 317.604 499.315 316.309C481.532 293.521 466.098 260.612 484.216 233.171C489.201 225.591 497.542 216.908 505.69 212.878L505.115 212.686C502.958 212.35 507.032 212.59 504.492 212.59C502.766 212.59 494.857 216.332 493.132 217.195C492.029 217.771 490.304 218.875 489.106 219.354Z" fill="#EE664C"/>
<path fill-rule="evenodd" clip-rule="evenodd" d="M540.346 322.21C540.442 322.21 540.969 322.257 541.065 322.305C541.113 322.305 541.257 322.401 541.352 322.401C541.4 322.401 541.496 322.497 541.592 322.545L554.103 311.703C567.476 299.134 577.206 285.414 580.514 266.944C583.006 252.888 575.433 239.647 568.818 232.211C564.84 227.75 560.861 224.487 555.972 221.225C552.089 218.635 544.612 214.557 540.106 213.502C546.721 218.491 550.939 221.369 556.212 227.75C577.734 253.991 567.14 285.75 549.309 310.504L540.346 322.21Z" fill="#EE664C"/>
<path fill-rule="evenodd" clip-rule="evenodd" d="M499.123 320.77C499.075 320.626 499.123 320.482 499.267 320.482C499.41 320.434 499.554 320.482 499.554 320.626L515.372 365.53C515.42 365.674 515.372 365.817 515.228 365.865C515.084 365.913 514.941 365.865 514.941 365.721L499.123 320.77Z" fill="#663333"/>
<path fill-rule="evenodd" clip-rule="evenodd" d="M547.775 320.77C547.823 320.626 547.775 320.482 547.632 320.482C547.488 320.434 547.344 320.482 547.344 320.626L531.526 365.53C531.478 365.674 531.526 365.817 531.67 365.865C531.814 365.913 531.958 365.865 531.958 365.721L547.775 320.77Z" fill="#663333"/>
<path fill-rule="evenodd" clip-rule="evenodd" d="M531.526 320.77C531.526 320.626 531.43 320.482 531.287 320.482C531.143 320.434 531.047 320.482 530.999 320.626L526.158 365.482C526.158 365.626 526.254 365.769 526.397 365.817C526.541 365.865 526.637 365.817 526.685 365.674L531.526 320.77Z" fill="#663333"/>
<path fill-rule="evenodd" clip-rule="evenodd" d="M513.791 320.77C513.791 320.626 513.887 320.482 514.031 320.482C514.174 320.434 514.27 320.482 514.318 320.626L519.207 365.53C519.207 365.674 519.112 365.817 518.968 365.865C518.824 365.913 518.728 365.865 518.68 365.721L513.791 320.77Z" fill="#663333"/>
<path fill-rule="evenodd" clip-rule="evenodd" d="M499.89 320.579H547.488C548.303 320.579 548.926 321.251 548.926 322.019C548.926 322.834 548.255 323.458 547.488 323.458H499.89C499.076 323.458 498.452 322.786 498.452 322.019C498.452 321.251 499.124 320.579 499.89 320.579Z" fill="#663333"/>
<path fill-rule="evenodd" clip-rule="evenodd" d="M535.601 366.393V378.482C535.601 380.305 534.115 381.841 532.245 381.841H515.133C513.312 381.841 511.778 380.353 511.778 378.482V366.393H535.601Z" fill="#663333"/>
<path fill-rule="evenodd" clip-rule="evenodd" d="M535.601 366.393V370.327C535.601 370.903 534.115 371.43 532.245 371.43H515.133C513.312 371.43 511.778 370.951 511.778 370.327V366.393H535.601Z" fill="#402020"/>
<path fill-rule="evenodd" clip-rule="evenodd" d="M509.525 365.338H537.901C538.477 365.338 538.956 365.817 538.956 366.393C538.956 366.969 538.477 367.448 537.901 367.448H509.525C508.95 367.448 508.47 366.969 508.47 366.393C508.47 365.817 508.95 365.338 509.525 365.338Z" fill="#763C3C"/>
<path fill-rule="evenodd" clip-rule="evenodd" d="M846.533 535.642L858.389 535.908C858.974 531.225 860.357 525.797 861.261 520.848C862.164 515.899 862.909 510.631 863.6 505.523C866.897 481.417 869.502 440.814 859.134 417.985C858.177 415.803 857.007 413.834 856.316 411.812C854.668 411.067 850.893 411.12 848.659 411.493C845.097 413.409 839.833 431.874 838.61 437.834C833.028 464.867 836.165 494.294 842.598 520.955C843.821 525.744 845.629 530.959 846.533 535.642Z" fill="#F5F3DC"/>
<path fill-rule="evenodd" clip-rule="evenodd" d="M858.443 535.908C863.122 535.482 868.704 536.493 872.905 535.695H866.79C867.428 533.567 869.289 530.321 870.299 528.298C878.541 511.642 885.453 490.836 887.154 472.104C889.387 447.732 882.688 426.819 863.813 412.877C862.111 411.919 858.762 411.44 856.316 411.759C857.06 413.728 858.177 415.75 859.134 417.932C869.449 440.761 866.897 481.363 863.6 505.469C862.909 510.578 862.111 515.846 861.261 520.795C860.357 525.797 859.027 531.172 858.443 535.908Z" fill="#EE664C"/>
<path fill-rule="evenodd" clip-rule="evenodd" d="M834.41 414.473C825.371 418.943 816.12 428.575 810.59 436.983C790.492 467.421 807.613 503.926 827.339 529.203C828.455 530.64 831.805 534.365 832.336 535.748L832.549 535.695L838.664 535.748L832.124 521.221C829.944 516.378 828.189 511.11 826.488 506.002C817.662 479.82 813.674 444.273 832.655 422.029C839.036 414.526 840.152 415.218 843.343 411.865C840.79 412.025 836.218 413.143 834.41 414.473Z" fill="#F5F3DC"/>
<path fill-rule="evenodd" clip-rule="evenodd" d="M843.342 411.865C840.206 415.218 839.089 414.526 832.655 422.029C813.674 444.22 817.662 479.82 826.488 506.002C828.242 511.11 829.997 516.378 832.124 521.221L838.664 535.748L832.549 535.695C834.357 536.227 844.034 536.068 846.533 535.642C845.576 530.959 843.768 525.744 842.651 520.955C836.218 494.294 833.081 464.867 838.664 437.834C839.886 431.874 845.15 413.409 848.713 411.493L843.342 411.865Z" fill="#EE664C"/>
<path fill-rule="evenodd" clip-rule="evenodd" d="M872.905 535.695L882.794 522.658C902.52 495.199 914.27 460.024 890.451 430.863C884.602 423.732 879.923 420.593 872.586 415.058C871.097 414.686 865.886 412.664 864.291 412.823L863.813 412.93C882.688 426.872 889.387 447.785 887.154 472.157C885.453 490.889 878.541 511.696 870.299 528.352C869.289 530.374 867.428 533.567 866.79 535.748L872.905 535.695Z" fill="#F5F3DC"/>
<path fill-rule="evenodd" clip-rule="evenodd" d="M816.067 421.604C813.727 423.413 811.228 424.85 809.155 426.499C801.126 432.725 798.202 437.195 792.885 444.858C788.684 454.384 785.016 460.397 786.239 473.275C787.781 489.984 795.969 503.288 806.443 514.995L815.322 523.882C818.512 526.808 826.913 533.939 830.263 535.695H832.39C831.805 534.365 828.508 530.587 827.392 529.15C807.666 503.873 790.545 467.368 810.643 436.929C816.173 428.522 825.424 418.89 834.463 414.42L833.825 414.207C831.433 413.834 835.952 414.1 833.134 414.1C831.22 414.1 822.447 418.251 820.533 419.209C819.31 419.848 817.396 421.072 816.067 421.604Z" fill="#EE664C"/>
<path fill-rule="evenodd" clip-rule="evenodd" d="M872.905 535.695C873.011 535.695 873.596 535.748 873.702 535.802C873.755 535.802 873.915 535.908 874.021 535.908C874.074 535.908 874.181 536.014 874.287 536.068L888.164 524.041C902.999 510.099 913.792 494.88 917.461 474.392C920.225 458.8 911.825 444.113 904.487 435.865C900.074 430.916 895.661 427.298 890.238 423.679C885.931 420.805 877.637 416.282 872.639 415.112C879.976 420.646 884.655 423.839 890.504 430.916C914.377 460.024 902.626 495.252 882.847 522.711L872.905 535.695Z" fill="#EE664C"/>
<path fill-rule="evenodd" clip-rule="evenodd" d="M827.178 534.099C827.125 533.939 827.178 533.779 827.338 533.779C827.497 533.726 827.657 533.779 827.657 533.939L845.203 583.748C845.256 583.907 845.203 584.067 845.043 584.12C844.884 584.173 844.724 584.12 844.724 583.961L827.178 534.099Z" fill="#663333"/>
<path fill-rule="evenodd" clip-rule="evenodd" d="M881.146 534.099C881.199 533.939 881.146 533.779 880.986 533.779C880.827 533.726 880.667 533.779 880.667 533.939L863.122 583.748C863.068 583.907 863.122 584.067 863.281 584.12C863.441 584.173 863.6 584.12 863.6 583.961L881.146 534.099Z" fill="#663333"/>
<path fill-rule="evenodd" clip-rule="evenodd" d="M863.121 534.099C863.121 533.939 863.015 533.779 862.856 533.779C862.696 533.726 862.59 533.779 862.537 533.939L857.167 583.695C857.167 583.854 857.273 584.014 857.432 584.067C857.592 584.12 857.698 584.067 857.751 583.907L863.121 534.099Z" fill="#663333"/>
<path fill-rule="evenodd" clip-rule="evenodd" d="M843.449 534.099C843.449 533.939 843.555 533.779 843.715 533.779C843.874 533.726 843.981 533.779 844.034 533.939L849.457 583.748C849.457 583.907 849.351 584.067 849.191 584.12C849.032 584.173 848.925 584.12 848.872 583.961L843.449 534.099Z" fill="#663333"/>
<path fill-rule="evenodd" clip-rule="evenodd" d="M828.03 533.886H880.827C881.731 533.886 882.422 534.631 882.422 535.482C882.422 536.387 881.678 537.079 880.827 537.079H828.03C827.126 537.079 826.435 536.334 826.435 535.482C826.435 534.631 827.179 533.886 828.03 533.886Z" fill="#663333"/>
<path fill-rule="evenodd" clip-rule="evenodd" d="M867.641 584.706V598.116C867.641 600.138 865.993 601.841 863.919 601.841H844.938C842.917 601.841 841.216 600.191 841.216 598.116V584.706H867.641Z" fill="#663333"/>
<path fill-rule="evenodd" clip-rule="evenodd" d="M867.641 584.706V589.069C867.641 589.708 865.993 590.293 863.919 590.293H844.938C842.917 590.293 841.216 589.761 841.216 589.069V584.706H867.641Z" fill="#402020"/>
<path fill-rule="evenodd" clip-rule="evenodd" d="M838.717 583.535H870.193C870.831 583.535 871.363 584.067 871.363 584.706C871.363 585.344 870.831 585.876 870.193 585.876H838.717C838.079 585.876 837.547 585.344 837.547 584.706C837.547 584.067 838.079 583.535 838.717 583.535Z" fill="#763C3C"/>
<path fill-rule="evenodd" clip-rule="evenodd" d="M19.8539 -17.8262C18.7413 -12.2587 8.8139 2.98762 3.50787 30.825C-0.172124 50.0971 -1.54141 70.8252 -1.02793 91.6391C-0.514438 110.911 1.79625 132.325 5.47624 150.483L17.9711 203.16H39.6232C45.9562 163.759 52.4603 131.04 53.6585 89.2408C54.2575 69.4548 53.7441 47.0992 50.4064 28.0841C46.7264 6.84203 42.2762 -1.72333 35.3441 -18.7684C29.7813 -19.1967 24.4753 -19.111 19.8539 -17.8262Z" fill="#F5F3DC"/>
<path fill-rule="evenodd" clip-rule="evenodd" d="M39.7087 203.16L54.5142 204.102L76.8509 151.254C83.3551 133.181 88.6611 111.939 90.8007 90.6969C93.9672 59.3477 88.2332 26.371 69.063 2.645C62.8156 -5.14948 51.69 -14.4001 50.8342 -15.6849C46.5552 -17.2266 41.078 -18.5114 35.5152 -18.6827C42.4473 -1.63768 46.8975 6.92768 50.5775 28.1698C53.9152 47.0992 54.4286 69.5405 53.8296 89.3264C52.5459 131.04 46.0417 163.674 39.7087 203.16Z" fill="#47B8BE"/>
<path fill-rule="evenodd" clip-rule="evenodd" d="M-6.93313 -11.6591C-21.7387 -3.69335 -39.1117 14.5509 -47.6698 28.9407C-58.6242 47.2705 -64.3581 69.6261 -61.4484 96.0931C-58.8809 119.22 -49.467 139.005 -40.0531 156.308C-26.9591 180.462 -14.0364 192.111 -7.0187 203.931L3.93569 203.588C2.22406 196.736 -4.19452 185.687 -7.4466 177.807C-18.3154 151.854 -28.4996 117.935 -30.3824 89.1551C-31.9228 65.0865 -29.9545 43.5018 -21.2252 24.0584C-11.9824 3.33024 -3.33871 -4.80685 10.4399 -16.884C5.7329 -19.7106 -2.22616 -12.8583 -6.93313 -11.6591Z" fill="#F5F3DC"/>
<path fill-rule="evenodd" clip-rule="evenodd" d="M10.4399 -16.7984C-3.33869 -4.80685 -11.8968 3.41589 -21.2252 24.1441C-29.9544 43.5874 -31.9228 65.0865 -30.3823 89.2408C-28.5851 118.106 -18.3154 151.939 -7.44659 177.892C-4.1945 185.772 2.22408 196.822 3.9357 203.674L18.0566 203.16L5.56175 150.483C1.88176 132.325 -0.428936 110.911 -0.942423 91.6391C-1.45591 70.9109 -0.0866088 50.0971 3.59338 30.825C8.89942 2.98762 18.8268 -12.2587 19.9394 -17.8262C17.971 -19.7962 12.3227 -17.6549 10.4399 -16.7984Z" fill="#47B8BE"/>
<path fill-rule="evenodd" clip-rule="evenodd" d="M54.5142 204.017L65.4686 203.246C71.5449 193.053 83.4407 184.059 98.9309 155.28C120.326 115.622 130.938 71.1678 106.548 30.0541C93.5393 8.04115 84.2965 3.24455 67.5226 -10.5457C64.9552 -11.7448 54.771 -17.0553 50.7487 -15.6849C51.6901 -14.4001 62.73 -5.1495 68.9775 2.64498C88.1477 26.371 93.8816 59.3476 90.7151 90.6968C88.5756 111.939 83.2695 133.095 76.7654 151.254L54.5142 204.017Z" fill="#F5F3DC"/>
<path fill-rule="evenodd" clip-rule="evenodd" d="M65.4686 203.246C68.464 202.903 68.0361 202.218 67.1803 204.959L94.3951 180.804C123.835 150.997 145.658 123.845 145.487 75.7932C144.546 60.8894 138.213 53.4376 135.731 43.5874C132.222 40.3326 119.813 14.1226 87.2918 -2.40855C82.9272 -4.63554 69.6621 -12.3444 67.5226 -10.6313C84.2965 3.15894 93.4537 7.95554 106.548 29.9685C130.938 71.0822 120.326 115.536 98.9309 155.194C83.4407 184.059 71.5449 193.139 65.4686 203.246Z" fill="#47B8BE"/>
<path fill-rule="evenodd" clip-rule="evenodd" d="M-20.3694 196.907C-20.455 196.65 -20.3694 196.393 -20.1127 196.308C-19.8559 196.222 -19.5992 196.393 -19.5136 196.565L11.4668 284.445C11.5524 284.702 11.3812 284.959 11.2101 285.045C10.9533 285.13 10.6966 284.959 10.611 284.788L-20.3694 196.907Z" fill="#663333"/>
<path fill-rule="evenodd" clip-rule="evenodd" d="M74.8826 196.907C74.9682 196.65 74.8826 196.393 74.6259 196.308C74.3691 196.222 74.1124 196.393 74.0268 196.565L43.0464 284.445C42.9608 284.702 43.132 284.959 43.3031 285.045C43.5599 285.13 43.8166 284.959 43.9022 284.788L74.8826 196.907Z" fill="#663333"/>
<path fill-rule="evenodd" clip-rule="evenodd" d="M43.0464 196.907C43.0464 196.65 42.8752 196.393 42.6185 196.308C42.3617 196.222 42.105 196.393 42.105 196.565L32.5199 284.445C32.5199 284.702 32.6911 284.959 32.9478 285.045C33.2045 285.13 33.4613 284.959 33.4613 284.788L43.0464 196.907Z" fill="#663333"/>
<path fill-rule="evenodd" clip-rule="evenodd" d="M8.30035 196.907C8.30035 196.65 8.47152 196.393 8.72826 196.308C8.985 196.222 9.24175 196.393 9.24175 196.565L18.8269 284.445C18.8269 284.702 18.6557 284.959 18.3989 285.045C18.1422 285.13 17.8855 284.959 17.8855 284.788L8.30035 196.907Z" fill="#663333"/>
<path fill-rule="evenodd" clip-rule="evenodd" d="M-18.8289 196.565H74.2835C75.824 196.565 77.1077 197.85 77.1077 199.391C77.1077 200.933 75.824 202.218 74.2835 202.218H-18.8289C-20.3694 202.218 -21.6531 200.933 -21.6531 199.391C-21.6531 197.85 -20.3694 196.565 -18.8289 196.565Z" fill="#663333"/>
<path fill-rule="evenodd" clip-rule="evenodd" d="M51.0054 286.244V309.884C51.0054 313.482 48.0956 316.48 44.4156 316.48H10.9534C7.35894 316.48 4.36359 313.567 4.36359 309.884V286.244H51.0054Z" fill="#663333"/>
<path fill-rule="evenodd" clip-rule="evenodd" d="M51.0054 286.244V293.953C51.0054 295.152 48.0956 296.094 44.4156 296.094H10.9534C7.35894 296.094 4.36359 295.152 4.36359 293.953V286.244H51.0054Z" fill="#402020"/>
<path fill-rule="evenodd" clip-rule="evenodd" d="M-0.00106183 284.188H55.5411C56.6537 284.188 57.5951 285.13 57.5951 286.244C57.5951 287.357 56.6537 288.3 55.5411 288.3H-0.00106183C-1.11362 288.3 -2.05502 287.357 -2.05502 286.244C-2.1406 285.13 -1.1992 284.188 -0.00106183 284.188Z" fill="#763C3C"/>
<path fill-rule="evenodd" clip-rule="evenodd" d="M791.277 100.43C790.869 102.472 787.229 108.062 785.284 118.268C783.934 125.334 783.432 132.933 783.621 140.565C783.809 147.63 784.656 155.481 786.005 162.139L790.586 181.453H798.525C800.847 167.007 803.232 155.01 803.671 139.685C803.89 132.431 803.702 124.235 802.478 117.263C801.129 109.475 799.498 106.334 796.956 100.085C794.917 99.9279 792.971 99.9593 791.277 100.43Z" fill="#F5F3DC"/>
<path fill-rule="evenodd" clip-rule="evenodd" d="M798.556 181.453L803.985 181.798L812.174 162.422C814.559 155.796 816.504 148.007 817.289 140.219C818.45 128.725 816.347 116.635 809.319 107.936C807.028 105.078 802.949 101.687 802.635 101.215C801.066 100.65 799.058 100.179 797.019 100.116C799.56 106.366 801.192 109.506 802.541 117.294C803.765 124.235 803.953 132.462 803.734 139.717C803.263 155.01 800.878 166.975 798.556 181.453Z" fill="#47B8BE"/>
<path fill-rule="evenodd" clip-rule="evenodd" d="M781.456 102.691C776.027 105.612 769.658 112.301 766.52 117.577C762.504 124.297 760.401 132.494 761.468 142.198C762.409 150.677 765.861 157.931 769.313 164.275C774.113 173.131 778.851 177.401 781.424 181.735L785.441 181.61C784.813 179.097 782.46 175.046 781.267 172.157C777.282 162.642 773.548 150.206 772.858 139.654C772.293 130.829 773.015 122.916 776.216 115.787C779.604 108.187 782.773 105.204 787.825 100.776C786.099 99.7395 783.181 102.252 781.456 102.691Z" fill="#F5F3DC"/>
<path fill-rule="evenodd" clip-rule="evenodd" d="M787.825 100.807C782.773 105.204 779.636 108.219 776.216 115.818C773.015 122.947 772.293 130.829 772.858 139.685C773.517 150.268 777.282 162.673 781.267 172.188C782.46 175.078 784.813 179.129 785.441 181.641L790.618 181.453L786.037 162.139C784.687 155.482 783.84 147.631 783.652 140.565C783.464 132.965 783.966 125.334 785.315 118.268C787.26 108.062 790.9 102.472 791.308 100.43C790.586 99.7081 788.516 100.493 787.825 100.807Z" fill="#47B8BE"/>
<path fill-rule="evenodd" clip-rule="evenodd" d="M803.985 181.767L808.001 181.484C810.229 177.747 814.59 174.449 820.269 163.898C828.114 149.358 832.005 133.059 823.062 117.985C818.293 109.914 814.904 108.156 808.754 103.1C807.813 102.66 804.079 100.713 802.604 101.215C802.949 101.687 806.997 105.078 809.287 107.936C816.316 116.635 818.418 128.725 817.257 140.219C816.473 148.007 814.527 155.764 812.143 162.422L803.985 181.767Z" fill="#F5F3DC"/>
<path fill-rule="evenodd" clip-rule="evenodd" d="M780.389 181.798C780.734 181.515 779.573 181.139 781.424 181.767C778.851 177.433 774.113 173.162 769.313 164.306C765.861 157.962 762.409 150.677 761.468 142.229C760.401 132.494 762.504 124.329 766.52 117.608C769.689 112.332 776.027 105.643 781.456 102.723C781.393 102.629 781.707 101.372 778.632 102.817L769.877 107.276C748.541 121.471 744.462 144.553 761.907 165.154C767.022 171.183 773.988 178.124 780.389 181.798Z" fill="#47B8BE"/>
<path fill-rule="evenodd" clip-rule="evenodd" d="M808.001 181.484C809.099 181.358 808.942 181.107 808.628 182.112L818.606 173.256C829.4 162.328 837.402 152.373 837.339 134.755C836.994 129.291 834.672 126.558 833.762 122.947C832.475 121.754 827.926 112.144 816.002 106.083C814.402 105.267 809.538 102.44 808.754 103.068C814.904 108.124 818.261 109.883 823.062 117.954C832.005 133.028 828.114 149.326 820.269 163.866C814.59 174.449 810.229 177.778 808.001 181.484Z" fill="#47B8BE"/>
<path fill-rule="evenodd" clip-rule="evenodd" d="M776.529 179.16C776.498 179.066 776.529 178.972 776.623 178.94C776.718 178.909 776.812 178.972 776.843 179.034L788.202 211.255C788.233 211.349 788.17 211.443 788.108 211.475C788.013 211.506 787.919 211.443 787.888 211.381L776.529 179.16Z" fill="#663333"/>
<path fill-rule="evenodd" clip-rule="evenodd" d="M811.452 179.16C811.484 179.066 811.452 178.972 811.358 178.94C811.264 178.909 811.17 178.972 811.139 179.034L799.78 211.255C799.749 211.349 799.811 211.443 799.874 211.475C799.968 211.506 800.062 211.443 800.094 211.381L811.452 179.16Z" fill="#663333"/>
<path fill-rule="evenodd" clip-rule="evenodd" d="M799.78 179.16C799.78 179.066 799.717 178.972 799.623 178.94C799.529 178.909 799.435 178.972 799.435 179.034L795.921 211.255C795.921 211.349 795.983 211.443 796.077 211.475C796.172 211.506 796.266 211.443 796.266 211.381L799.78 179.16Z" fill="#663333"/>
<path fill-rule="evenodd" clip-rule="evenodd" d="M787.041 179.16C787.041 179.066 787.104 178.972 787.198 178.94C787.292 178.909 787.386 178.972 787.386 179.034L790.9 211.255C790.9 211.349 790.837 211.443 790.743 211.475C790.649 211.506 790.555 211.443 790.555 211.381L787.041 179.16Z" fill="#663333"/>
<path fill-rule="evenodd" clip-rule="evenodd" d="M777.094 179.035H811.233C811.798 179.035 812.268 179.506 812.268 180.071C812.268 180.636 811.798 181.107 811.233 181.107H777.094C776.529 181.107 776.059 180.636 776.059 180.071C776.059 179.506 776.529 179.035 777.094 179.035Z" fill="#663333"/>
<path fill-rule="evenodd" clip-rule="evenodd" d="M802.698 211.914V220.582C802.698 221.901 801.631 223 800.282 223H788.013C786.696 223 785.597 221.932 785.597 220.582V211.914H802.698Z" fill="#663333"/>
<path fill-rule="evenodd" clip-rule="evenodd" d="M802.698 211.914V214.741C802.698 215.18 801.631 215.526 800.282 215.526H788.013C786.696 215.526 785.597 215.18 785.597 214.741V211.914H802.698Z" fill="#402020"/>
<path fill-rule="evenodd" clip-rule="evenodd" d="M783.997 211.161H804.361C804.769 211.161 805.114 211.506 805.114 211.914C805.114 212.323 804.769 212.668 804.361 212.668H783.997C783.589 212.668 783.244 212.323 783.244 211.914C783.213 211.506 783.558 211.161 783.997 211.161Z" fill="#763C3C"/>
<path fill-rule="evenodd" clip-rule="evenodd" d="M576.634 602.947C575.736 607.439 567.726 619.74 563.445 642.201C560.476 657.75 559.371 674.474 559.786 691.267C560.2 706.817 562.064 724.094 565.034 738.745L575.115 781.246H592.584C597.694 749.457 602.942 723.057 603.909 689.332C604.392 673.368 603.978 655.331 601.285 639.989C598.316 622.85 594.725 615.939 589.132 602.187C584.644 601.841 580.363 601.91 576.634 602.947Z" fill="#F5F3DC"/>
<path fill-rule="evenodd" clip-rule="evenodd" d="M592.654 781.246L604.599 782.007L622.621 739.367C627.869 724.785 632.15 707.646 633.876 690.507C636.431 665.214 631.805 638.607 616.338 619.464C611.297 613.175 602.32 605.711 601.63 604.675C598.177 603.431 593.758 602.394 589.27 602.256C594.863 616.009 598.454 622.919 601.423 640.058C604.116 655.331 604.53 673.438 604.047 689.402C603.011 723.057 597.763 749.388 592.654 781.246Z" fill="#47B8BE"/>
<path fill-rule="evenodd" clip-rule="evenodd" d="M555.021 607.923C543.076 614.35 529.059 629.07 522.154 640.68C513.315 655.469 508.689 673.507 511.036 694.861C513.108 713.52 520.703 729.484 528.299 743.444C538.864 762.933 549.29 772.332 554.952 781.868L563.791 781.592C562.41 776.063 557.231 767.148 554.607 760.79C545.838 739.851 537.621 712.484 536.102 689.263C534.859 669.844 536.447 652.429 543.49 636.741C550.947 620.017 557.921 613.452 569.038 603.707C565.241 601.427 558.819 606.955 555.021 607.923Z" fill="#F5F3DC"/>
<path fill-rule="evenodd" clip-rule="evenodd" d="M569.038 603.776C557.921 613.452 551.016 620.086 543.49 636.81C536.447 652.498 534.859 669.844 536.102 689.332C537.552 712.622 545.838 739.92 554.607 760.86C557.231 767.217 562.41 776.132 563.791 781.661L575.184 781.246L565.103 738.745C562.133 724.094 560.269 706.817 559.855 691.267C559.44 674.543 560.545 657.75 563.514 642.201C567.796 619.74 575.805 607.439 576.703 602.947C575.115 601.358 570.558 603.085 569.038 603.776Z" fill="#47B8BE"/>
<path fill-rule="evenodd" clip-rule="evenodd" d="M604.599 781.938L613.438 781.316C618.34 773.092 627.938 765.835 640.436 742.615C657.699 710.618 666.261 674.751 646.581 641.579C636.086 623.818 628.629 619.948 615.095 608.821C613.023 607.854 604.806 603.569 601.561 604.675C602.32 605.711 611.228 613.175 616.269 619.464C631.736 638.607 636.362 665.214 633.807 690.507C632.081 707.646 627.8 724.716 622.552 739.367L604.599 781.938Z" fill="#F5F3DC"/>
<path fill-rule="evenodd" clip-rule="evenodd" d="M552.674 782.007C553.433 781.385 550.878 780.555 554.952 781.938C549.29 772.401 538.864 763.002 528.299 743.513C520.703 729.553 513.108 713.52 511.037 694.93C508.689 673.507 513.315 655.538 522.154 640.749C529.128 629.139 543.076 614.419 555.021 607.992C554.883 607.785 555.574 605.02 548.807 608.199L529.542 618.013C482.588 649.25 473.611 700.044 512.003 745.379C523.258 758.648 538.587 773.921 552.674 782.007Z" fill="#47B8BE"/>
<path fill-rule="evenodd" clip-rule="evenodd" d="M613.438 781.316C615.854 781.039 615.509 780.486 614.819 782.698L636.776 763.209C660.53 739.16 678.137 717.252 677.999 678.482C677.24 666.458 672.13 660.445 670.127 652.498C667.296 649.872 657.284 628.724 631.045 615.387C627.524 613.59 616.821 607.37 615.095 608.752C628.629 619.879 636.017 623.749 646.581 641.51C666.261 674.681 657.698 710.549 640.436 742.546C627.938 765.835 618.34 773.161 613.438 781.316Z" fill="#47B8BE"/>
<ellipse cx="804.921" cy="480.258" rx="25.0787" ry="20.764" fill="white"/>
<circle cx="780.112" cy="464.079" r="25.0787" fill="white"/>
<ellipse cx="759.079" cy="480.798" rx="25.0787" ry="20.2247" fill="white"/>
<ellipse cx="527.921" cy="721.258" rx="25.0787" ry="20.764" fill="white"/>
<circle cx="503.112" cy="705.079" r="25.0787" fill="white"/>
<ellipse cx="482.079" cy="721.798" rx="25.0787" ry="20.2247" fill="white"/>
<ellipse cx="602.752" cy="264.578" rx="24.6652" ry="20.4217" fill="white"/>
<circle cx="578.352" cy="248.665" r="24.6652" fill="white"/>
<ellipse cx="557.665" cy="265.109" rx="24.6652" ry="19.8913" fill="white"/>
<ellipse cx="847.11" cy="150.497" rx="14.8904" ry="12.3287" fill="white"/>
<circle cx="832.379" cy="140.89" r="14.8904" fill="white"/>
<ellipse cx="819.89" cy="150.817" rx="14.8904" ry="12.0084" fill="white"/>
<ellipse cx="1086.97" cy="74.6545" rx="18.0253" ry="14.9242" fill="white"/>
<circle cx="1069.14" cy="63.0253" r="18.0253" fill="white"/>
<ellipse cx="1054.03" cy="75.0421" rx="18.0253" ry="14.5365" fill="white"/>
<ellipse cx="376.975" cy="414.655" rx="18.0253" ry="14.9242" fill="white"/>
<circle cx="359.143" cy="403.025" r="18.0253" fill="white"/>
<ellipse cx="344.025" cy="415.042" rx="18.0253" ry="14.5365" fill="white"/>
<ellipse cx="1177.97" cy="594.654" rx="18.0253" ry="14.9242" fill="white"/>
<circle cx="1160.14" cy="583.025" r="18.0253" fill="white"/>
<ellipse cx="1145.03" cy="595.042" rx="18.0253" ry="14.5365" fill="white"/>
<ellipse cx="237.975" cy="428.655" rx="18.0253" ry="14.9242" fill="white"/>
<circle cx="220.143" cy="417.025" r="18.0253" fill="white"/>
<ellipse cx="205.025" cy="429.042" rx="18.0253" ry="14.5365" fill="white"/>
<ellipse cx="1212.88" cy="49.0927" rx="20.1152" ry="16.6545" fill="white"/>
<circle cx="1192.99" cy="36.1152" r="20.1152" fill="white"/>
<ellipse cx="1176.12" cy="49.5253" rx="20.1152" ry="16.2219" fill="white"/>
<ellipse cx="760.11" cy="121.497" rx="14.8904" ry="12.3287" fill="white"/>
<circle cx="745.379" cy="111.89" r="14.8904" fill="white"/>
<ellipse cx="732.89" cy="121.817" rx="14.8904" ry="12.0084" fill="white"/>
<ellipse cx="487.752" cy="313.578" rx="24.6652" ry="20.4217" fill="white"/>
<circle cx="463.352" cy="297.665" r="24.6652" fill="white"/>
<ellipse cx="442.665" cy="314.109" rx="24.6652" ry="19.8913" fill="white"/>
</g>
<defs>
<clipPath id="clip0">
<rect width="1366" height="768" fill="white"/>
</clipPath>
</defs>
</svg>
