<svg xmlns="http://www.w3.org/2000/svg" xmlns:xlink="http://www.w3.org/1999/xlink" width="930.504" height="202.889" viewBox="0 0 930.504 202.889">
  <defs>
    <clipPath id="clip-path">
      <path id="Path_753" data-name="Path 753" d="M19349.27,7018.454s-19.973-35-50.062-39.276-32.441,4.506-68.09,3.7-74.5-6.931-74.5-6.931l30.039-56.834s181.836,28.648,183.438,26.8Z" transform="translate(-19156.621 -6919.109)" fill="#65daf1"/>
    </clipPath>
    <clipPath id="clip-path-2">
      <path id="Path_756" data-name="Path 756" d="M19547.252,6919.669s-16.285-7.7-41.2-11.165c-11.611-1.615-27.521,5.907-38.852,5.619a28.757,28.757,0,0,1-19.623-8.316c.4.462,10.012-18.021,9.611-18.021h90.064Z" transform="translate(-19447.576 -6887.786)" fill="none" stroke="#707070" stroke-width="1"/>
    </clipPath>
    <clipPath id="clip-path-3">
      <path id="Path_753-2" data-name="Path 753" d="M19173.863,6983.438s16.539-22.665,41.445-25.432,26.855,2.916,56.363,2.393,61.676-4.487,61.676-4.487l-24.871-36.8s-150.527,18.552-151.855,17.354Z" transform="translate(-19156.621 -6919.108)" fill="none"/>
    </clipPath>
    <clipPath id="clip-path-4">
      <path id="Path_756-2" data-name="Path 756" d="M19447.574,6910a77.94,77.94,0,0,1,23.672-7.779c6.668-1.124,15.809,4.116,22.316,3.915a15.608,15.608,0,0,0,11.275-5.793c-.229.321-5.752-12.555-5.523-12.555h-51.74Z" transform="translate(-19447.574 -6887.786)" fill="none" stroke="#707070" stroke-width="1"/>
    </clipPath>
    <clipPath id="clip-path-5">
      <path id="Path_759" data-name="Path 759" d="M19320.768,7011.834c-7.76-2.408-10.355,10.851-14.506,11.065-6.2.317-6.715-9.455-11.152-11.065s-5.865,4.992-6.6,4.625-9.9-2.2-10.631-2.565,0-16.493,0-16.493h42.887Z" transform="translate(-19277.555 -6997.401)" fill="none" stroke="#707070" stroke-width="1"/>
    </clipPath>
    <clipPath id="clip-path-6">
      <path id="Path_762" data-name="Path 762" d="M19403.1,7002.525s-1.508,1.7-16.684,2.7-28.49-4.106-44.018,1.283-12.158,8.95-21.943,11.935-16.939.128-17.2,0,8.084-23.87,8.084-23.87l90.984-1.668Z" transform="translate(-19303.252 -6992.9)" fill="none"/>
    </clipPath>
    <filter id="LESSONS" x="313.566" y="68.077" width="300" height="108" filterUnits="userSpaceOnUse">
      <feOffset dy="3" input="SourceAlpha"/>
      <feGaussianBlur stdDeviation="3" result="blur"/>
      <feFlood flood-opacity="0.161"/>
      <feComposite operator="in" in2="blur"/>
      <feComposite in="SourceGraphic"/>
    </filter>
  </defs>
  <g id="Lessons-2" data-name="Lessons" transform="translate(43.188 32.828)">
    <g id="Block" transform="translate(-30.957 -32.828)">
      <g id="box" transform="translate(-12.23 64.35)">
        <path id="Path_1161" data-name="Path 1161" d="M58.623,0H858.315a58.623,58.623,0,0,1,0,117.246H58.623A58.623,58.623,0,0,1,58.623,0Z" fill="#0b8fa5"/>
        <rect id="Rectangle_385" data-name="Rectangle 385" width="890.309" height="89.51" rx="44.755" transform="translate(13.893 13.868)" fill="#13727e"/>
      </g>
      <g id="snow" transform="translate(701.454)">
        <path id="Path_751" data-name="Path 751" d="M169.345,14.786C152.254,7.5,127.8-11.708,102.335-13.326,81.893-14.624,68.125-.21,49.537,6.2,33,11.9,11.179,9.3,1.481,14.786-32.013,33.738,27.2,34.309,49.537,32.747c10.856-.759,60.866,16.47,93.357,11.784,24.779,1.983,6.807,70.7,17.622,67.924S212.833,33.333,169.345,14.786Z" transform="translate(8.556 37.511)" fill="#aaf0f9"/>
        <g id="Mask_Group_13" data-name="Mask Group 13" transform="translate(3.342)" clip-path="url(#clip-path)">
          <path id="Path_752" data-name="Path 752" d="M169.345,14.786C152.254,7.5,127.8-11.708,102.335-13.326,81.893-14.624,68.125-.21,49.537,6.2,33,11.9,11.179,9.3,1.481,14.786-32.013,33.738,27.2,34.309,49.537,32.747c10.856-.759,60.866,16.47,93.357,11.784,24.779,1.983,6.807,70.7,17.622,67.924S212.833,33.333,169.345,14.786Z" transform="translate(6.067 36.527)" fill="#fff"/>
        </g>
      </g>
      <g id="snow-2" data-name="snow" transform="translate(551.622 32.164)">
        <path id="Path_754" data-name="Path 754" d="M3.178,13.84c8.138,8.1,18.852,21.384,42.885,22.728,12.5.7,18.467-9.891,28.082-13.646,8.534-3.332,21.029.356,25.163-3.7C107.92,10.761,63.326,8.337,46.575,8.691S24.442-1.721,13.593-.433-4.961,5.736,3.178,13.84Z" transform="translate(103.76 38.122) rotate(172)" fill="#aaf0f9"/>
        <g id="Mask_Group_14" data-name="Mask Group 14" transform="translate(4.186 6.897)" clip-path="url(#clip-path-2)">
          <path id="Path_755" data-name="Path 755" d="M3.178,13.84c8.138,8.1,18.852,21.384,42.885,22.728,12.5.7,18.467-9.891,28.082-13.646,8.534-3.332,21.029.356,25.163-3.7C107.92,10.761,63.326,8.337,46.575,8.691S24.442-1.721,13.593-.433-4.961,5.736,3.178,13.84Z" transform="translate(99.573 31.225) rotate(172)" fill="#fff"/>
        </g>
      </g>
      <g id="snow-3" data-name="snow" transform="translate(0 26.307)">
        <path id="Path_751-2" data-name="Path 751" d="M7.635,4.849c14.149-4.72,34.389-17.156,55.474-18.2C80.031-14.2,91.429-4.862,106.817-.713,120.51,2.978,138.571,1.3,146.6,4.849c7.209,3.191,9.23,5.577,7.825,7.5-3.523,4.871-33.924,4.878-47.608,4.13-8.987-.491-50.388,10.664-77.285,7.631C9.019,25.393,23.9,69.887,14.943,68.091S-28.367,16.858,7.635,4.849Z" transform="translate(24.587 29.015)" fill="#aaf0f9"/>
        <g id="Mask_Group_13-2" data-name="Mask Group 13" transform="translate(0 0)" clip-path="url(#clip-path-3)">
          <path id="Path_752-2" data-name="Path 752" d="M7.541,4.849C21.69.129,41.931-12.307,63.015-13.354,79.938-14.2,91.335-4.862,106.723-.713c13.693,3.691,31.755,2.009,39.783,5.562,27.728,12.272-21.291,12.641-39.783,11.63-8.987-.491-50.388,10.664-77.285,7.631C8.925,25.393,23.8,69.887,14.85,68.091S-28.461,16.858,7.541,4.849Z" transform="translate(23.973 28.378)" fill="#fff"/>
        </g>
      </g>
      <g id="snow-4" data-name="snow" transform="translate(63.162 151.857)">
        <path id="Path_754-2" data-name="Path 754" d="M2.434,16.043C6.992,10.554,12.949,1.514,26.79.985c7.2-.275,10.82,7.178,16.43,9.947,4.979,2.457,12.125.107,14.578,3,5.11,6.017-20.573,6.949-30.242,6.422S14.963,27.205,8.682,26.129-2.125,21.533,2.434,16.043Z" transform="translate(2.872 0) rotate(8)" fill="#aaf0f9"/>
        <g id="Mask_Group_14-2" data-name="Mask Group 14" transform="translate(0.078 3.713)" clip-path="url(#clip-path-4)">
          <path id="Path_755-2" data-name="Path 755" d="M2.434,16.043C6.992,10.554,12.949,1.514,26.79.985c7.2-.275,10.82,7.178,16.43,9.947,4.979,2.457,12.125.107,14.578,3,5.11,6.017-20.573,6.949-30.242,6.422S14.963,27.205,8.682,26.129-2.125,21.533,2.434,16.043Z" transform="translate(2.795 -3.713) rotate(8)" fill="#fff"/>
        </g>
      </g>
    </g>
    <path id="Path_757" data-name="Path 757" d="M15.545,2.792C12.226-5.87,6.142-.964-.073-.964s-12.2-3.91-15.485,4.524S-2.993,13.632,1.678,33.15s9.837-18.282,9.837-18.282S18.864,11.455,15.545,2.792Z" transform="translate(738.501 131.314)" fill="#aaf0f9"/>
    <g id="Mask_Group_15" data-name="Mask Group 15" transform="translate(712.821 127.515)" clip-path="url(#clip-path-5)">
      <path id="Path_758" data-name="Path 758" d="M15.545,2.792C12.226-5.87,6.142-.964-.073-.964s-12.2-3.91-15.485,4.524S-2.993,13.632,1.678,33.15s9.837-18.282,9.837-18.282S18.864,11.455,15.545,2.792Z" transform="translate(24.899 3.799)" fill="#fff"/>
    </g>
    <path id="Path_760" data-name="Path 760" d="M89.933,2.937C84.52-2.674,86.12-5.955,65.426-5.955S18.669-9.441,4.3-1.471s-10.6,24.993,3.653,27.4c6.2,1.045,10.476-14.311,19.3-17.783,10.944-4.306,26.575,2.573,34.049,0C74.533,3.587,95.346,8.548,89.933,2.937Z" transform="translate(622.534 130.235)" fill="#aaf0f9"/>
    <g id="Mask_Group_16" data-name="Mask Group 16" transform="translate(613.472 122.439)" clip-path="url(#clip-path-6)">
      <path id="Path_761" data-name="Path 761" d="M89.933,2.937C84.52-2.674,86.12-5.955,65.426-5.955S18.669-9.441,4.3-1.471s-10.6,24.993,3.653,27.4c6.2,1.045,10.476-14.311,19.3-17.783,10.944-4.306,26.575,2.573,34.049,0C74.533,3.587,95.346,8.548,89.933,2.937Z" transform="translate(9.843 8.577)" fill="#fff"/>
    </g>
    <g transform="matrix(1, 0, 0, 1, -43.19, -32.83)" filter="url(#LESSONS)">
      <text id="LESSONS-3" data-name="LESSONS" transform="translate(463.57 146.08)" fill="#fff" stroke="#fff" stroke-width="2" font-size="65" font-family="SegoeUI-Bold, Segoe UI" font-weight="700"><tspan x="-138.887" y="0">LESSONS</tspan></text>
    </g>
  </g>
</svg>
