<svg id="svg" version="1.1" xmlns="http://www.w3.org/2000/svg" xmlns:xlink="http://www.w3.org/1999/xlink" width="400" height="400" viewBox="0, 0, 400,400"><g id="svgg"><path id="path0" d="M19.400 32.078 C 18.740 32.311,17.792 32.873,17.293 33.327 C 15.112 35.312,15.246 27.845,14.958 163.332 C 14.812 232.229,14.548 288.785,14.371 289.010 C 13.510 290.113,17.457 295.031,19.536 295.447 C 20.231 295.586,20.800 295.833,20.800 295.995 C 20.800 296.158,21.790 296.602,22.999 296.982 C 24.209 297.363,25.287 297.817,25.395 297.993 C 25.504 298.168,26.051 298.426,26.611 298.567 C 27.171 298.708,28.748 299.331,30.115 299.951 C 31.482 300.572,33.095 301.200,33.700 301.348 C 34.305 301.495,34.800 301.792,34.800 302.008 C 34.800 302.223,35.055 302.400,35.366 302.400 C 35.677 302.400,37.695 303.120,39.849 304.000 C 42.004 304.880,43.999 305.600,44.283 305.600 C 44.567 305.600,44.800 305.760,44.800 305.957 C 44.800 306.153,45.295 306.434,45.900 306.583 C 46.505 306.731,47.900 307.272,49.000 307.785 C 50.100 308.298,51.765 308.945,52.700 309.222 C 53.635 309.500,54.400 309.853,54.400 310.009 C 54.400 310.164,55.435 310.613,56.700 311.007 C 57.965 311.401,59.090 311.839,59.200 311.981 C 59.310 312.123,60.390 312.619,61.600 313.083 C 62.810 313.547,64.880 314.339,66.200 314.843 C 67.520 315.348,68.690 315.878,68.800 316.021 C 68.910 316.165,69.990 316.606,71.200 317.002 C 72.410 317.399,73.760 317.945,74.200 318.217 C 74.640 318.489,75.720 318.937,76.600 319.213 C 77.480 319.490,78.290 319.836,78.400 319.983 C 78.510 320.130,79.635 320.570,80.899 320.962 C 82.164 321.354,83.291 321.824,83.404 322.006 C 83.517 322.189,84.552 322.646,85.705 323.022 C 86.857 323.398,87.980 323.837,88.200 323.997 C 88.420 324.157,89.500 324.619,90.600 325.023 C 91.700 325.428,92.690 325.860,92.800 325.983 C 92.910 326.106,93.990 326.549,95.200 326.969 C 96.410 327.388,98.027 328.061,98.793 328.465 C 99.559 328.868,100.774 329.309,101.493 329.444 C 102.212 329.579,102.800 329.824,102.800 329.990 C 102.800 330.155,103.790 330.602,104.999 330.982 C 106.209 331.363,107.287 331.817,107.395 331.993 C 107.504 332.168,108.051 332.426,108.611 332.567 C 109.171 332.708,110.748 333.331,112.115 333.951 C 113.482 334.572,115.138 335.211,115.796 335.372 C 116.454 335.532,117.084 335.792,117.196 335.950 C 117.457 336.316,125.654 339.600,126.308 339.600 C 126.578 339.600,126.800 339.752,126.800 339.937 C 126.800 340.122,127.565 340.497,128.500 340.771 C 129.435 341.045,130.560 341.496,131.000 341.773 C 131.440 342.050,132.790 342.601,134.000 342.998 C 135.210 343.394,136.290 343.828,136.400 343.962 C 136.510 344.097,137.590 344.550,138.800 344.970 C 140.010 345.390,141.090 345.848,141.200 345.987 C 141.310 346.126,142.390 346.619,143.600 347.083 C 144.810 347.547,146.880 348.339,148.200 348.843 C 149.520 349.348,150.732 349.949,150.894 350.180 C 151.080 350.447,151.190 350.399,151.194 350.050 C 151.202 349.335,152.920 349.666,155.950 350.965 C 160.005 352.705,165.083 354.800,165.243 354.800 C 165.329 354.800,165.400 345.125,165.400 333.300 C 165.400 321.475,165.444 310.810,165.498 309.600 C 165.551 308.390,165.556 303.170,165.508 298.000 C 165.460 292.830,165.423 282.480,165.425 275.000 C 165.428 267.520,165.423 252.850,165.415 242.400 C 165.407 231.950,165.532 198.560,165.692 168.200 C 166.052 100.301,166.081 90.734,165.924 90.641 C 165.856 90.601,164.270 89.965,162.400 89.227 C 160.530 88.490,158.280 87.562,157.400 87.165 C 155.926 86.500,149.083 83.700,144.800 82.008 C 143.810 81.617,140.750 80.357,138.000 79.207 C 135.250 78.058,131.920 76.702,130.600 76.193 C 127.013 74.812,114.376 69.644,113.000 68.995 C 111.928 68.490,105.657 65.927,100.800 64.008 C 99.810 63.617,96.750 62.357,94.000 61.207 C 91.250 60.058,87.920 58.702,86.600 58.193 C 83.013 56.812,70.376 51.644,69.000 50.995 C 67.928 50.490,61.657 47.927,56.800 46.008 C 55.810 45.617,52.750 44.357,50.000 43.207 C 47.250 42.058,43.920 40.702,42.600 40.193 C 39.033 38.820,26.441 33.652,24.600 32.805 C 22.410 31.798,20.822 31.576,19.400 32.078 M374.993 32.613 C 374.109 32.879,372.566 33.469,371.565 33.925 C 370.564 34.381,369.037 35.016,368.172 35.336 C 364.436 36.720,362.133 37.651,361.200 38.156 C 360.650 38.453,359.480 38.923,358.600 39.201 C 357.720 39.478,356.816 39.849,356.590 40.026 C 356.365 40.203,355.285 40.646,354.190 41.010 C 353.096 41.373,351.300 42.083,350.200 42.588 C 347.005 44.052,345.470 44.691,344.400 45.001 C 343.850 45.160,342.262 45.810,340.872 46.445 C 339.482 47.080,338.191 47.600,338.005 47.600 C 337.818 47.600,337.155 47.868,336.532 48.195 C 335.910 48.522,334.022 49.320,332.338 49.967 C 330.654 50.615,328.482 51.507,327.510 51.950 C 326.539 52.392,325.037 53.016,324.172 53.336 C 320.436 54.720,318.133 55.651,317.200 56.156 C 316.650 56.453,315.480 56.923,314.600 57.201 C 313.720 57.478,312.816 57.849,312.590 58.026 C 312.365 58.203,311.285 58.646,310.190 59.010 C 309.096 59.373,307.300 60.083,306.200 60.588 C 303.005 62.052,301.470 62.691,300.400 63.001 C 299.850 63.160,298.262 63.810,296.872 64.445 C 295.482 65.080,294.097 65.600,293.796 65.600 C 293.494 65.600,293.145 65.766,293.019 65.969 C 292.894 66.172,291.625 66.726,290.200 67.200 C 288.775 67.674,287.506 68.228,287.381 68.431 C 287.255 68.634,286.898 68.800,286.586 68.800 C 286.275 68.800,284.841 69.340,283.400 70.000 C 281.959 70.660,280.649 71.200,280.490 71.199 C 280.163 71.198,274.736 73.430,273.200 74.197 C 272.650 74.472,271.480 74.923,270.600 75.201 C 269.720 75.478,268.816 75.849,268.590 76.026 C 268.365 76.203,267.285 76.646,266.190 77.010 C 265.096 77.373,263.300 78.083,262.200 78.588 C 259.028 80.042,257.474 80.689,256.400 81.005 C 255.850 81.166,254.283 81.816,252.917 82.449 C 251.551 83.082,250.260 83.600,250.049 83.600 C 249.838 83.600,249.155 83.868,248.532 84.195 C 247.910 84.522,246.022 85.320,244.338 85.967 C 242.654 86.615,240.482 87.507,239.510 87.950 C 238.539 88.392,236.947 89.050,235.972 89.412 C 232.033 90.873,231.555 91.086,231.087 91.592 C 230.796 91.906,230.780 92.017,231.049 91.867 C 231.378 91.683,231.508 99.129,231.537 119.908 C 231.558 135.469,231.667 184.920,231.778 229.800 C 231.889 274.680,231.984 321.314,231.990 333.431 L 232.000 355.461 233.200 355.285 C 233.860 355.188,234.400 354.978,234.400 354.818 C 234.400 354.658,235.152 354.301,236.071 354.026 C 236.990 353.751,238.152 353.257,238.653 352.928 C 239.155 352.600,239.753 352.447,239.982 352.589 C 240.212 352.731,240.400 352.567,240.400 352.224 C 240.400 351.881,240.535 351.621,240.700 351.647 C 241.898 351.836,243.200 351.518,243.200 351.035 C 243.200 350.721,243.511 350.521,243.900 350.583 C 244.878 350.741,246.078 350.050,245.749 349.518 C 245.599 349.275,245.655 349.186,245.872 349.321 C 246.347 349.614,249.238 348.785,249.013 348.420 C 248.926 348.280,249.421 348.123,250.112 348.070 C 250.803 348.018,251.486 347.785,251.629 347.553 C 251.772 347.321,252.049 347.129,252.245 347.126 C 252.440 347.123,252.565 346.989,252.523 346.829 C 252.480 346.668,252.840 346.568,253.323 346.606 C 253.805 346.644,254.560 346.451,255.000 346.177 C 255.440 345.903,256.370 345.560,257.067 345.415 C 257.763 345.270,258.426 344.909,258.539 344.614 C 258.660 344.299,259.245 344.111,259.948 344.159 C 260.609 344.205,261.060 344.098,260.951 343.920 C 260.700 343.515,262.738 342.714,263.236 343.022 C 263.439 343.148,263.714 342.969,263.846 342.625 C 263.978 342.281,264.432 342.000,264.855 342.000 C 265.279 342.000,265.735 341.715,265.868 341.366 C 266.064 340.856,266.177 340.837,266.450 341.266 C 266.709 341.675,266.789 341.637,266.794 341.103 C 266.798 340.604,267.056 340.447,267.700 340.552 C 268.728 340.719,270.121 340.119,269.823 339.638 C 269.714 339.461,270.083 339.403,270.643 339.510 C 271.298 339.635,272.073 339.401,272.815 338.853 C 273.449 338.384,274.335 338.000,274.784 338.000 C 275.233 338.000,275.600 337.809,275.600 337.576 C 275.600 337.343,275.758 337.251,275.952 337.370 C 276.145 337.490,277.145 337.141,278.173 336.594 C 279.201 336.047,280.281 335.600,280.572 335.600 C 280.864 335.600,281.331 335.324,281.611 334.987 C 281.891 334.649,282.318 334.445,282.560 334.533 C 282.802 334.620,283.360 334.500,283.800 334.265 C 284.240 334.030,284.839 333.799,285.131 333.750 C 286.349 333.547,286.839 333.185,286.549 332.703 C 286.337 332.351,286.449 332.364,286.918 332.745 C 287.493 333.211,287.626 333.197,287.838 332.645 C 287.974 332.290,288.432 332.000,288.855 332.000 C 289.279 332.000,289.716 331.762,289.828 331.472 C 289.956 331.138,290.468 331.007,291.215 331.117 C 292.002 331.232,292.400 331.119,292.400 330.779 C 292.400 330.497,292.518 330.385,292.663 330.530 C 292.996 330.862,294.055 330.013,293.808 329.612 C 293.707 329.449,294.075 329.402,294.626 329.507 C 295.243 329.625,295.924 329.430,296.399 329.001 C 296.823 328.617,297.447 328.409,297.785 328.539 C 298.166 328.685,298.400 328.552,298.400 328.187 C 298.400 327.801,298.811 327.600,299.600 327.600 C 300.389 327.600,300.800 327.399,300.800 327.013 C 300.800 326.653,301.034 326.515,301.405 326.657 C 301.738 326.785,302.249 326.691,302.542 326.448 C 302.834 326.206,303.191 326.124,303.334 326.268 C 303.478 326.411,303.911 326.244,304.298 325.895 C 304.684 325.547,305.494 325.139,306.097 324.988 C 306.716 324.834,307.082 324.532,306.935 324.296 C 306.781 324.046,306.870 323.996,307.156 324.173 C 307.419 324.336,307.852 324.291,308.118 324.073 C 308.383 323.855,309.050 323.610,309.600 323.529 C 310.150 323.448,310.564 323.186,310.519 322.948 C 310.474 322.708,310.884 322.563,311.434 322.624 C 312.033 322.689,312.784 322.387,313.315 321.866 C 313.891 321.302,314.584 321.044,315.300 321.127 C 315.905 321.196,316.400 321.090,316.400 320.890 C 316.400 320.690,317.152 320.301,318.071 320.026 C 318.990 319.751,320.152 319.257,320.653 318.928 C 321.155 318.600,321.753 318.447,321.982 318.589 C 322.212 318.731,322.400 318.567,322.400 318.224 C 322.400 317.881,322.535 317.621,322.700 317.647 C 323.898 317.836,325.200 317.518,325.200 317.035 C 325.200 316.721,325.511 316.521,325.900 316.583 C 326.878 316.741,328.078 316.050,327.749 315.518 C 327.599 315.275,327.655 315.186,327.872 315.321 C 328.347 315.614,331.238 314.785,331.013 314.420 C 330.926 314.280,331.421 314.123,332.112 314.070 C 332.803 314.018,333.486 313.785,333.629 313.553 C 333.772 313.321,334.049 313.102,334.245 313.066 C 334.440 313.030,334.565 312.896,334.523 312.769 C 334.480 312.641,334.840 312.575,335.323 312.621 C 335.805 312.668,336.599 312.457,337.086 312.153 C 337.573 311.849,338.226 311.600,338.537 311.600 C 338.848 311.600,339.316 311.342,339.578 311.027 C 339.839 310.712,340.356 310.467,340.727 310.483 C 341.781 310.530,342.559 310.248,343.030 309.650 C 343.268 309.348,343.958 309.100,344.563 309.100 C 345.168 309.100,345.762 308.842,345.883 308.527 C 346.004 308.212,346.345 308.047,346.641 308.160 C 346.936 308.274,347.453 307.974,347.789 307.494 C 348.125 307.015,348.400 306.842,348.400 307.111 C 348.400 307.380,348.580 307.600,348.800 307.600 C 349.020 307.600,349.200 307.346,349.200 307.035 C 349.200 306.721,349.511 306.521,349.900 306.583 C 350.770 306.723,352.092 306.073,351.823 305.638 C 351.714 305.461,352.049 305.397,352.567 305.496 C 353.580 305.689,355.342 304.953,355.039 304.463 C 354.938 304.300,355.421 304.123,356.112 304.070 C 356.803 304.018,357.466 303.845,357.584 303.687 C 357.703 303.529,358.160 303.337,358.600 303.260 C 359.040 303.183,359.760 302.920,360.200 302.675 C 360.640 302.430,361.154 302.275,361.343 302.329 C 361.532 302.384,362.309 301.954,363.070 301.374 C 363.830 300.794,364.561 300.428,364.694 300.561 C 364.827 300.694,365.324 300.549,365.797 300.238 C 366.271 299.928,367.095 299.608,367.629 299.528 C 368.206 299.441,368.550 299.154,368.477 298.823 C 368.377 298.364,368.465 298.356,368.973 298.777 C 369.485 299.202,369.634 299.176,369.847 298.622 C 369.988 298.255,370.352 298.049,370.655 298.166 C 370.959 298.282,371.407 298.057,371.652 297.665 C 371.962 297.169,372.447 297.004,373.249 297.122 C 373.959 297.226,374.400 297.111,374.400 296.822 C 374.400 296.564,374.560 296.451,374.755 296.572 C 375.155 296.820,376.108 295.841,375.783 295.516 C 375.667 295.400,376.008 295.389,376.541 295.491 C 377.613 295.696,379.341 294.952,379.016 294.425 C 378.902 294.241,379.113 294.115,379.485 294.145 C 380.213 294.204,382.912 290.505,382.558 289.932 C 382.445 289.750,382.588 289.597,382.876 289.594 C 383.236 289.590,383.261 289.496,382.956 289.294 C 382.633 289.080,382.432 254.749,382.222 163.434 L 381.932 37.869 381.003 35.768 C 379.724 32.877,377.685 31.806,374.993 32.613 M368.979 90.499 C 368.649 129.824,368.956 126.272,365.803 127.207 C 364.921 127.469,364.020 127.820,363.800 127.988 C 363.580 128.157,362.410 128.616,361.200 129.008 C 359.990 129.401,358.640 129.945,358.200 130.217 C 357.760 130.489,356.680 130.934,355.800 131.208 C 354.920 131.481,354.020 131.837,353.800 131.999 C 353.580 132.161,352.410 132.612,351.200 133.000 C 349.990 133.388,348.820 133.838,348.600 134.000 C 348.380 134.162,347.210 134.616,346.000 135.008 C 344.790 135.401,343.440 135.945,343.000 136.217 C 342.560 136.489,341.508 136.931,340.661 137.199 C 339.815 137.468,338.645 137.937,338.061 138.241 C 337.478 138.546,336.861 138.796,336.691 138.798 C 336.319 138.801,329.487 141.410,327.800 142.194 C 327.140 142.500,324.890 143.404,322.800 144.202 C 320.710 145.000,318.460 145.899,317.800 146.199 C 317.140 146.500,315.070 147.325,313.200 148.034 C 311.330 148.742,309.080 149.633,308.200 150.013 C 307.320 150.394,306.150 150.837,305.600 150.999 C 305.050 151.161,303.650 151.723,302.488 152.247 C 301.327 152.771,300.274 153.200,300.149 153.200 C 300.023 153.200,299.354 153.467,298.660 153.793 C 297.967 154.120,296.590 154.645,295.600 154.961 C 293.932 155.492,289.662 157.162,287.800 158.010 C 287.360 158.211,286.055 158.740,284.900 159.187 C 280.134 161.032,278.540 161.666,277.400 162.172 C 276.740 162.466,275.480 162.930,274.600 163.205 C 273.720 163.480,272.820 163.837,272.600 163.999 C 272.380 164.161,271.210 164.616,270.000 165.008 C 268.790 165.401,267.440 165.945,267.000 166.217 C 266.560 166.489,265.480 166.934,264.600 167.208 C 263.720 167.481,262.820 167.839,262.600 168.003 C 262.380 168.168,261.750 168.435,261.200 168.599 C 259.320 169.156,253.002 171.620,251.938 172.210 C 251.354 172.535,250.499 172.800,250.038 172.800 L 249.200 172.800 249.199 144.700 C 249.198 129.245,249.081 113.527,248.939 109.772 C 248.644 102.008,248.764 101.671,252.147 100.761 C 253.016 100.526,254.104 100.095,254.564 99.801 C 255.024 99.508,256.320 99.000,257.445 98.672 C 258.569 98.344,259.829 97.883,260.245 97.646 C 260.660 97.409,262.710 96.580,264.800 95.803 C 266.890 95.026,269.140 94.129,269.800 93.810 C 270.460 93.491,272.980 92.478,275.400 91.558 C 280.812 89.501,284.598 88.017,288.000 86.619 C 289.430 86.032,291.410 85.274,292.400 84.936 C 293.390 84.597,294.740 84.082,295.400 83.790 C 296.060 83.498,298.490 82.517,300.800 81.610 C 303.110 80.703,305.567 79.699,306.260 79.380 C 306.954 79.061,307.764 78.799,308.060 78.798 C 308.357 78.796,309.140 78.510,309.800 78.162 C 310.928 77.566,314.161 76.269,317.800 74.953 C 318.680 74.634,319.940 74.114,320.600 73.797 C 321.260 73.480,322.970 72.778,324.400 72.238 C 333.186 68.917,334.761 68.299,336.244 67.588 C 337.148 67.155,337.993 66.800,338.123 66.800 C 338.395 66.800,349.211 62.615,351.000 61.817 C 352.432 61.179,356.618 59.562,359.400 58.573 C 360.500 58.182,361.580 57.737,361.800 57.584 C 362.020 57.431,363.143 56.998,364.295 56.622 C 365.448 56.246,366.493 55.773,366.619 55.569 C 366.744 55.366,367.393 55.200,368.061 55.200 L 369.275 55.200 368.979 90.499 M208.600 99.200 C 207.239 99.444,207.179 99.492,208.200 99.520 C 208.860 99.539,210.120 99.405,211.000 99.223 C 213.093 98.790,211.002 98.770,208.600 99.200 M188.305 99.483 C 188.802 99.579,189.522 99.575,189.905 99.475 C 190.287 99.375,189.880 99.296,189.000 99.301 C 188.120 99.305,187.807 99.387,188.305 99.483 M193.907 99.890 C 194.626 99.979,195.706 99.977,196.307 99.886 C 196.908 99.795,196.320 99.722,195.000 99.724 C 193.680 99.726,193.188 99.801,193.907 99.890 M201.507 99.890 C 202.226 99.979,203.306 99.977,203.907 99.886 C 204.508 99.795,203.920 99.722,202.600 99.724 C 201.280 99.726,200.788 99.801,201.507 99.890 M368.800 138.805 L 368.800 144.811 366.700 145.756 C 365.545 146.275,363.880 146.926,363.000 147.202 C 362.120 147.478,361.220 147.836,361.000 147.996 C 360.780 148.156,359.700 148.614,358.600 149.013 C 357.500 149.411,356.420 149.863,356.200 150.016 C 355.980 150.169,354.810 150.608,353.600 150.991 C 351.691 151.595,348.335 152.987,346.395 153.979 C 346.063 154.149,344.732 154.595,343.439 154.971 C 342.146 155.347,340.708 155.892,340.244 156.183 C 339.780 156.473,338.680 156.934,337.800 157.208 C 336.920 157.481,336.020 157.837,335.800 157.999 C 335.580 158.161,334.410 158.616,333.200 159.008 C 331.990 159.401,330.640 159.945,330.200 160.217 C 329.760 160.489,328.680 160.934,327.800 161.208 C 326.920 161.481,326.020 161.837,325.800 161.999 C 325.580 162.161,324.410 162.616,323.200 163.008 C 321.990 163.401,320.640 163.945,320.200 164.217 C 319.760 164.489,318.680 164.934,317.800 165.208 C 316.920 165.481,316.020 165.837,315.800 165.999 C 315.580 166.161,314.410 166.616,313.200 167.008 C 311.990 167.401,310.640 167.946,310.200 168.220 C 309.760 168.493,308.950 168.845,308.400 169.003 C 307.850 169.160,306.860 169.530,306.200 169.825 C 305.081 170.325,303.601 170.914,298.600 172.851 C 297.500 173.277,296.240 173.794,295.800 174.000 C 295.360 174.206,294.055 174.740,292.900 175.187 C 291.745 175.634,289.855 176.366,288.700 176.813 C 287.545 177.260,286.240 177.794,285.800 178.000 C 285.360 178.206,284.100 178.723,283.000 179.149 C 281.900 179.575,280.010 180.307,278.800 180.775 C 277.590 181.242,276.240 181.794,275.800 182.000 C 275.360 182.206,274.010 182.758,272.800 183.225 C 271.590 183.693,269.700 184.425,268.600 184.851 C 267.500 185.277,266.240 185.794,265.800 186.000 C 265.360 186.206,264.055 186.740,262.900 187.187 C 258.101 189.044,256.539 189.667,255.400 190.175 C 254.740 190.470,253.750 190.841,253.200 191.000 C 252.650 191.159,251.609 191.563,250.886 191.897 C 249.204 192.675,249.347 193.102,249.076 186.478 C 248.805 179.844,248.691 180.081,252.883 178.504 C 254.267 177.984,256.300 177.219,257.400 176.806 C 258.500 176.392,260.750 175.521,262.400 174.870 C 264.050 174.220,267.290 172.942,269.600 172.032 C 271.910 171.122,274.401 170.107,275.136 169.778 C 275.871 169.448,278.121 168.546,280.136 167.772 C 282.151 166.999,284.790 165.947,286.000 165.435 C 287.210 164.922,289.280 164.096,290.600 163.599 C 291.920 163.102,294.170 162.198,295.600 161.590 C 297.030 160.981,299.460 160.002,301.000 159.413 C 302.540 158.825,304.545 158.004,305.456 157.590 C 306.367 157.176,307.627 156.718,308.256 156.571 C 308.885 156.425,309.760 156.084,310.200 155.814 C 310.640 155.544,311.990 155.001,313.200 154.608 C 314.410 154.216,315.580 153.761,315.800 153.599 C 316.020 153.437,316.920 153.078,317.800 152.801 C 318.680 152.523,319.850 152.062,320.400 151.774 C 320.950 151.487,322.300 150.939,323.400 150.557 C 324.500 150.175,325.580 149.737,325.800 149.583 C 326.020 149.430,326.920 149.078,327.800 148.801 C 328.680 148.523,329.850 148.062,330.400 147.774 C 330.950 147.487,332.300 146.939,333.400 146.557 C 334.500 146.175,335.580 145.737,335.800 145.583 C 336.020 145.430,336.920 145.078,337.800 144.801 C 338.680 144.523,339.850 144.062,340.400 143.774 C 340.950 143.487,342.300 142.939,343.400 142.557 C 344.500 142.175,345.580 141.737,345.800 141.583 C 346.020 141.430,346.920 141.078,347.800 140.801 C 348.680 140.523,349.850 140.062,350.400 139.774 C 350.950 139.487,352.300 138.932,353.400 138.542 C 354.500 138.151,355.850 137.600,356.400 137.318 C 356.950 137.036,357.670 136.803,358.000 136.800 C 358.330 136.797,359.140 136.507,359.800 136.155 C 360.460 135.802,361.923 135.191,363.051 134.795 C 364.179 134.400,365.619 133.797,366.251 133.454 C 368.765 132.092,368.800 132.165,368.800 138.805 " stroke="none" fill="#558618" fill-rule="evenodd"></path><path id="path1" d="M166.087 101.600 C 166.105 107.210,166.195 111.305,166.287 110.700 C 166.499 109.299,166.476 109.295,169.449 111.232 C 176.753 115.991,183.063 117.313,198.600 117.341 C 214.972 117.371,219.988 116.277,228.843 110.741 L 230.687 109.589 230.971 102.273 C 231.127 98.249,231.136 94.484,230.991 93.906 L 230.727 92.856 228.603 94.215 C 221.849 98.536,215.164 99.785,198.800 99.785 C 184.710 99.785,177.371 98.764,172.189 96.080 C 168.967 94.411,166.812 92.959,166.448 92.211 C 166.179 91.657,166.065 94.639,166.087 101.600 M165.931 195.466 C 165.859 223.810,165.862 257.170,165.938 269.600 L 166.076 292.200 168.097 293.776 C 175.208 299.320,189.329 301.724,207.148 300.423 C 218.230 299.614,224.628 297.569,230.482 292.964 L 231.528 292.142 231.464 278.371 C 231.429 270.797,231.483 258.120,231.584 250.200 C 231.791 234.023,231.294 154.203,230.952 148.531 L 230.730 144.862 228.465 146.250 C 212.518 156.018,178.397 155.095,166.779 144.581 C 166.091 143.959,166.058 145.981,165.931 195.466 M166.000 309.381 L 166.000 313.589 167.500 314.970 C 176.622 323.365,208.441 325.659,223.060 318.976 C 223.754 318.659,224.455 318.400,224.619 318.400 C 225.147 318.400,229.107 315.632,230.335 314.403 C 231.480 313.258,231.527 313.071,231.543 309.536 C 231.565 304.925,231.493 304.828,229.448 306.713 C 221.385 314.146,191.729 316.493,176.200 310.928 C 174.660 310.376,173.049 309.821,172.620 309.695 C 171.635 309.404,168.685 307.425,167.991 306.589 C 166.282 304.530,166.000 304.925,166.000 309.381 M229.971 328.624 C 224.763 332.976,205.602 336.730,194.300 335.613 C 180.750 334.274,170.260 331.534,167.245 328.546 C 165.550 326.866,165.527 327.049,165.670 341.100 C 165.829 356.836,166.358 358.734,171.558 362.232 C 172.351 362.765,173.720 363.684,174.600 364.274 C 176.395 365.478,181.036 367.358,184.488 368.281 C 186.012 368.688,186.854 369.139,187.010 369.632 C 187.150 370.072,187.764 370.463,188.523 370.596 C 189.225 370.719,190.700 370.989,191.800 371.197 C 196.031 371.997,208.529 371.240,211.400 370.010 C 211.840 369.821,213.090 369.460,214.177 369.208 C 215.265 368.956,216.920 368.401,217.855 367.975 C 218.791 367.549,219.791 367.196,220.078 367.192 C 220.365 367.187,221.750 366.422,223.156 365.492 C 224.562 364.561,225.992 363.620,226.334 363.400 C 228.766 361.834,233.059 356.020,232.035 355.678 C 231.756 355.585,231.704 350.960,231.876 341.370 C 232.015 333.577,232.027 327.200,231.902 327.200 C 231.778 327.200,230.908 327.841,229.971 328.624 " stroke="none" fill="#9ce434" fill-rule="evenodd"></path><path id="path2" d="M28.600 13.597 L 28.317 16.794 27.259 16.535 C 26.676 16.393,26.140 16.124,26.067 15.938 C 25.523 14.559,24.882 15.940,24.632 19.031 C 24.301 23.106,24.317 23.134,27.895 24.512 C 29.383 25.085,32.310 26.210,34.400 27.013 C 36.490 27.815,38.740 28.699,39.400 28.976 C 40.060 29.254,42.040 30.033,43.800 30.708 C 50.918 33.437,57.964 36.173,60.800 37.309 C 62.450 37.971,65.240 39.049,67.000 39.707 C 73.780 42.239,75.093 42.743,78.000 43.928 C 81.836 45.492,95.159 50.636,97.879 51.603 C 99.022 52.010,100.552 52.605,101.279 52.926 C 102.005 53.248,104.130 54.086,106.000 54.788 C 107.870 55.491,110.210 56.406,111.200 56.822 C 112.190 57.237,114.620 58.195,116.600 58.949 C 126.306 62.647,131.388 64.607,141.800 68.667 C 152.327 72.771,155.743 74.095,159.200 75.407 C 161.290 76.201,163.360 76.998,163.800 77.178 C 167.385 78.650,169.987 79.659,171.000 79.973 C 171.660 80.177,173.550 80.915,175.200 81.613 C 179.244 83.324,183.690 84.844,183.935 84.599 C 184.952 83.582,178.932 77.678,174.719 75.559 C 172.930 74.660,171.214 73.671,170.905 73.362 C 170.596 73.053,170.099 72.800,169.800 72.800 C 169.501 72.800,169.019 72.575,168.729 72.300 C 168.438 72.025,167.165 71.456,165.900 71.035 C 164.635 70.614,163.600 70.128,163.600 69.955 C 163.600 69.782,162.610 69.329,161.400 68.947 C 160.190 68.566,159.200 68.112,159.200 67.938 C 159.200 67.764,158.210 67.335,157.000 66.983 C 155.790 66.631,154.800 66.209,154.800 66.045 C 154.800 65.880,153.810 65.434,152.600 65.053 C 151.390 64.671,150.400 64.221,150.400 64.053 C 150.400 63.884,149.378 63.424,148.128 63.030 C 146.879 62.636,145.643 62.100,145.381 61.838 C 145.120 61.577,144.117 61.107,143.153 60.794 C 142.189 60.480,141.185 60.017,140.922 59.763 C 140.659 59.509,139.624 59.059,138.622 58.763 C 137.620 58.467,136.800 58.114,136.800 57.978 C 136.800 57.841,135.810 57.393,134.600 56.982 C 133.390 56.571,132.400 56.113,132.400 55.964 C 132.400 55.816,131.322 55.358,130.003 54.947 C 128.685 54.536,127.605 54.083,127.603 53.940 C 127.602 53.797,126.700 53.357,125.600 52.961 C 124.500 52.566,123.600 52.117,123.600 51.964 C 123.600 51.812,123.145 51.573,122.589 51.433 C 121.599 51.185,119.473 50.273,114.532 47.978 C 113.175 47.347,111.600 46.715,111.032 46.572 C 110.464 46.430,110.000 46.190,110.000 46.039 C 110.000 45.889,109.010 45.429,107.800 45.018 C 106.590 44.607,105.600 44.136,105.600 43.972 C 105.600 43.808,104.610 43.363,103.400 42.982 C 102.190 42.602,101.200 42.168,101.200 42.018 C 101.200 41.869,100.210 41.434,99.000 41.053 C 97.790 40.671,96.800 40.212,96.800 40.032 C 96.800 39.851,95.975 39.473,94.967 39.191 C 93.960 38.909,92.925 38.480,92.667 38.239 C 92.410 37.998,91.165 37.456,89.900 37.035 C 88.635 36.614,87.600 36.128,87.600 35.955 C 87.600 35.782,86.610 35.329,85.400 34.947 C 84.190 34.566,83.200 34.112,83.200 33.938 C 83.200 33.764,82.210 33.335,81.000 32.983 C 79.790 32.631,78.800 32.209,78.800 32.045 C 78.800 31.880,77.810 31.434,76.600 31.053 C 75.390 30.671,74.400 30.221,74.400 30.053 C 74.400 29.884,73.378 29.424,72.128 29.030 C 70.879 28.636,69.643 28.100,69.381 27.838 C 69.120 27.577,68.117 27.107,67.153 26.794 C 66.189 26.480,65.185 26.017,64.922 25.763 C 64.659 25.509,63.624 25.059,62.622 24.763 C 61.620 24.467,60.800 24.114,60.800 23.978 C 60.800 23.841,59.810 23.393,58.600 22.982 C 57.390 22.571,56.400 22.113,56.400 21.964 C 56.400 21.816,55.322 21.358,54.003 20.947 C 52.685 20.536,51.605 20.083,51.603 19.940 C 51.602 19.797,50.700 19.357,49.600 18.961 C 48.500 18.566,47.600 18.117,47.600 17.964 C 47.600 17.812,47.145 17.573,46.589 17.433 C 45.613 17.188,43.659 16.352,38.600 14.016 C 37.280 13.406,35.750 12.769,35.200 12.600 C 34.650 12.431,34.110 12.172,34.000 12.026 C 33.713 11.643,30.294 10.400,29.528 10.400 C 29.012 10.400,28.827 11.040,28.600 13.597 M365.400 11.092 C 364.520 11.451,363.710 11.867,363.600 12.018 C 363.490 12.169,362.950 12.430,362.400 12.599 C 361.850 12.768,360.082 13.512,358.471 14.253 C 356.860 14.994,355.285 15.600,354.971 15.600 C 354.657 15.600,354.400 15.744,354.400 15.920 C 354.400 16.095,353.725 16.478,352.900 16.771 C 352.075 17.063,350.283 17.819,348.917 18.451 C 347.551 19.083,346.246 19.600,346.017 19.600 C 345.788 19.600,345.600 19.780,345.600 20.000 C 345.600 20.220,345.365 20.400,345.079 20.400 C 344.792 20.400,343.667 20.823,342.579 21.339 C 341.490 21.856,339.790 22.616,338.800 23.028 C 337.810 23.441,336.910 23.880,336.800 24.006 C 336.690 24.131,335.811 24.488,334.847 24.798 C 333.883 25.109,332.893 25.551,332.647 25.781 C 332.401 26.012,331.165 26.544,329.900 26.965 C 328.635 27.386,327.600 27.866,327.600 28.033 C 327.600 28.199,326.702 28.634,325.605 28.998 C 324.507 29.363,323.517 29.811,323.404 29.994 C 323.291 30.176,322.209 30.637,320.999 31.018 C 319.790 31.398,318.800 31.832,318.800 31.982 C 318.800 32.131,317.810 32.566,316.600 32.947 C 315.390 33.329,314.400 33.783,314.400 33.957 C 314.400 34.131,313.320 34.600,312.000 35.000 C 310.680 35.400,309.600 35.864,309.600 36.032 C 309.600 36.200,308.963 36.548,308.185 36.805 C 307.407 37.062,305.742 37.793,304.485 38.431 C 303.228 39.068,301.885 39.592,301.500 39.595 C 301.115 39.598,300.800 39.755,300.800 39.945 C 300.800 40.135,299.810 40.602,298.600 40.982 C 297.390 41.363,296.400 41.816,296.400 41.990 C 296.400 42.164,295.322 42.642,294.003 43.053 C 292.685 43.464,291.605 43.917,291.603 44.060 C 291.602 44.203,290.700 44.643,289.600 45.039 C 288.500 45.434,287.600 45.883,287.600 46.036 C 287.600 46.188,287.135 46.430,286.568 46.572 C 286.000 46.715,284.187 47.454,282.538 48.216 C 280.890 48.977,279.285 49.600,278.971 49.600 C 278.657 49.600,278.400 49.744,278.400 49.920 C 278.400 50.095,277.725 50.478,276.900 50.771 C 276.075 51.063,274.283 51.819,272.917 52.451 C 271.551 53.083,270.246 53.600,270.017 53.600 C 269.788 53.600,269.600 53.780,269.600 54.000 C 269.600 54.220,269.365 54.400,269.079 54.400 C 268.792 54.400,267.667 54.823,266.579 55.339 C 265.490 55.856,263.790 56.616,262.800 57.028 C 261.810 57.441,260.910 57.880,260.800 58.006 C 260.690 58.131,259.811 58.488,258.847 58.798 C 257.883 59.109,256.893 59.551,256.647 59.781 C 256.401 60.012,255.165 60.544,253.900 60.965 C 252.635 61.386,251.600 61.866,251.600 62.033 C 251.600 62.199,250.702 62.634,249.605 62.998 C 248.507 63.363,247.517 63.811,247.404 63.994 C 247.291 64.176,246.209 64.637,244.999 65.018 C 243.790 65.398,242.800 65.832,242.800 65.982 C 242.800 66.131,241.810 66.566,240.600 66.947 C 239.390 67.329,238.400 67.783,238.400 67.957 C 238.400 68.131,237.320 68.600,236.000 69.000 C 234.680 69.400,233.600 69.864,233.600 70.032 C 233.600 70.200,232.963 70.548,232.185 70.805 C 231.407 71.062,229.742 71.793,228.485 72.431 C 227.228 73.068,225.885 73.592,225.500 73.595 C 225.115 73.598,224.800 73.755,224.800 73.945 C 224.800 74.135,223.810 74.602,222.600 74.982 C 221.390 75.363,220.400 75.802,220.400 75.958 C 220.400 76.114,219.500 76.566,218.400 76.961 C 217.300 77.357,216.398 77.797,216.397 77.940 C 216.395 78.083,215.315 78.536,213.997 78.947 C 212.678 79.358,211.600 79.839,211.600 80.016 C 211.600 80.193,210.971 80.545,210.203 80.799 C 209.435 81.053,208.670 81.482,208.503 81.753 C 208.336 82.025,207.600 82.490,206.866 82.786 C 206.132 83.083,205.319 83.522,205.059 83.763 C 204.798 84.003,203.972 84.544,203.222 84.964 C 201.547 85.903,200.400 86.863,200.400 87.326 C 200.400 87.517,200.040 88.131,199.600 88.691 C 198.780 89.734,198.506 91.600,199.173 91.600 C 199.378 91.600,199.653 91.262,199.785 90.849 C 199.991 90.199,203.428 88.400,204.462 88.400 C 204.785 88.400,208.227 87.116,214.600 84.619 C 220.014 82.497,230.105 78.593,240.200 74.714 C 241.960 74.038,245.329 72.700,247.688 71.742 C 250.046 70.784,252.077 70.000,252.201 70.000 C 252.326 70.000,254.446 69.205,256.914 68.234 C 259.381 67.263,263.110 65.810,265.200 65.005 C 270.259 63.058,278.383 59.911,283.800 57.800 C 289.413 55.613,300.228 51.424,303.600 50.131 C 305.030 49.582,308.180 48.356,310.600 47.405 C 313.020 46.454,317.430 44.741,320.400 43.598 C 327.735 40.774,334.393 38.199,338.000 36.791 C 340.692 35.740,349.414 32.351,360.600 28.010 C 362.800 27.156,366.310 25.800,368.400 24.997 C 373.447 23.056,373.309 23.235,372.971 19.060 C 372.707 15.813,372.177 14.743,371.430 15.952 C 370.344 17.709,369.240 16.627,368.971 13.540 C 368.661 9.987,368.458 9.848,365.400 11.092 " stroke="none" fill="#aea3b9" fill-rule="evenodd"></path><path id="path3" d="M14.800 23.920 C 14.800 24.096,15.475 24.172,16.300 24.091 C 18.622 23.861,18.791 23.666,16.700 23.632 C 15.655 23.614,14.800 23.744,14.800 23.920 M379.200 23.823 C 380.715 24.153,382.800 24.209,382.800 23.920 C 382.800 23.744,381.855 23.621,380.700 23.646 C 379.545 23.672,378.870 23.752,379.200 23.823 M12.892 25.021 C 11.827 25.766,10.968 27.200,11.586 27.200 C 11.814 27.200,12.000 27.007,12.000 26.771 C 12.000 26.258,12.707 25.517,13.800 24.886 C 14.240 24.632,14.415 24.419,14.189 24.412 C 13.963 24.405,13.379 24.679,12.892 25.021 M386.244 29.000 C 386.573 30.471,386.802 30.790,386.794 29.767 C 386.791 29.345,386.605 28.730,386.382 28.400 C 386.085 27.962,386.048 28.124,386.244 29.000 M362.600 57.874 C 345.509 64.717,338.182 67.600,337.879 67.600 C 337.738 67.600,336.672 68.026,335.511 68.548 C 334.350 69.069,332.230 69.943,330.800 70.491 C 325.245 72.620,321.350 74.141,320.200 74.630 C 319.540 74.911,317.110 75.883,314.800 76.790 C 312.490 77.697,310.033 78.701,309.340 79.020 C 308.646 79.339,307.931 79.600,307.750 79.600 C 307.463 79.600,300.584 82.288,287.200 87.631 C 285.110 88.465,280.790 90.166,277.600 91.410 C 274.410 92.654,269.640 94.541,267.000 95.603 C 264.360 96.664,260.490 98.185,258.400 98.981 C 256.310 99.778,254.240 100.595,253.800 100.797 C 253.360 100.999,252.322 101.434,251.494 101.764 C 249.437 102.584,249.582 99.655,249.697 137.878 L 249.800 172.357 254.800 170.381 C 257.550 169.294,261.240 167.851,263.000 167.173 C 264.760 166.496,266.740 165.697,267.400 165.399 C 269.569 164.418,275.765 162.000,276.108 162.000 C 276.293 162.000,277.199 161.665,278.122 161.255 C 279.045 160.845,283.580 159.022,288.200 157.204 C 292.820 155.386,298.310 153.213,300.400 152.375 C 302.490 151.537,306.810 149.839,310.000 148.601 C 317.105 145.843,320.334 144.565,323.200 143.378 C 325.163 142.565,332.308 139.758,339.600 136.935 C 341.030 136.381,342.740 135.687,343.400 135.392 C 345.522 134.445,351.763 132.000,352.060 132.000 C 352.218 132.000,352.765 131.826,353.274 131.614 C 353.783 131.402,357.260 129.992,361.000 128.481 L 367.800 125.734 368.086 116.629 C 368.428 105.757,368.686 55.593,368.400 55.616 C 368.290 55.624,365.680 56.641,362.600 57.874 M364.600 134.792 C 362.620 135.632,360.521 136.525,359.936 136.777 C 359.351 137.029,358.361 137.387,357.736 137.573 C 357.111 137.759,347.150 141.694,335.600 146.318 C 324.050 150.942,311.540 155.924,307.800 157.388 C 297.699 161.344,295.041 162.443,294.620 162.841 C 294.411 163.038,293.988 163.200,293.680 163.200 C 293.372 163.200,291.293 163.946,289.060 164.858 C 286.827 165.769,283.740 167.003,282.200 167.600 C 279.278 168.732,273.670 170.973,267.200 173.594 C 265.110 174.441,260.790 176.142,257.600 177.374 C 248.841 180.756,249.819 179.649,249.689 186.329 L 249.578 192.028 251.089 191.265 C 251.920 190.846,253.050 190.368,253.600 190.204 C 254.150 190.039,255.320 189.589,256.200 189.203 C 257.080 188.818,277.330 180.717,301.200 171.203 C 325.070 161.688,346.310 153.213,348.400 152.370 C 353.926 150.139,360.191 147.644,363.400 146.395 C 364.940 145.796,366.695 145.107,367.300 144.863 L 368.400 144.420 368.400 138.810 C 368.400 135.724,368.355 133.215,368.300 133.233 C 368.245 133.251,366.580 133.953,364.600 134.792 M386.032 283.539 C 385.508 284.520,385.490 284.800,385.953 284.800 C 386.317 284.800,386.887 283.154,386.617 282.883 C 386.533 282.800,386.270 283.095,386.032 283.539 M11.428 284.800 C 11.572 285.350,11.850 285.971,12.045 286.180 C 12.616 286.791,12.441 285.914,11.769 284.800 L 11.167 283.800 11.428 284.800 " stroke="none" fill="#34540c" fill-rule="evenodd"></path><path id="path4" d="M166.312 110.820 C 165.796 114.336,166.234 144.006,166.811 144.582 C 177.001 154.773,212.108 155.985,227.700 146.685 C 231.509 144.413,231.274 145.711,231.274 126.914 C 231.274 109.110,231.278 109.137,229.185 110.538 C 221.010 116.012,214.902 117.371,198.600 117.341 C 183.063 117.313,176.753 115.991,169.449 111.232 C 166.452 109.279,166.536 109.290,166.312 110.820 M165.642 298.572 L 165.735 304.744 167.562 306.272 C 169.913 308.239,171.634 309.404,172.617 309.694 C 173.048 309.821,174.660 310.376,176.200 310.928 C 191.972 316.580,221.065 314.181,229.695 306.516 L 231.707 304.729 231.900 298.564 C 232.090 292.498,231.745 290.947,230.613 292.779 C 230.484 292.987,229.556 293.713,228.549 294.392 C 215.341 303.306,179.379 302.982,168.232 293.848 C 165.530 291.634,165.538 291.620,165.642 298.572 M165.600 320.302 L 165.600 327.465 166.600 328.000 C 167.150 328.294,167.600 328.682,167.600 328.861 C 167.600 330.792,181.768 334.375,194.300 335.613 C 201.695 336.344,213.812 334.813,223.200 331.963 C 227.056 330.793,228.018 330.299,230.416 328.260 L 231.756 327.120 231.929 320.119 C 232.115 312.628,231.885 312.009,229.921 314.726 C 229.385 315.467,225.152 318.400,224.619 318.400 C 224.455 318.400,223.754 318.659,223.060 318.976 C 208.232 325.755,176.310 323.330,167.282 314.740 L 165.600 313.140 165.600 320.302 " stroke="none" fill="#2ff32c" fill-rule="evenodd"></path><path id="path5" d="M20.800 22.791 C 20.800 24.143,21.617 24.823,24.407 25.793 C 25.393 26.136,27.910 27.120,30.000 27.981 C 34.815 29.963,41.385 32.599,45.000 34.000 C 48.081 35.194,54.127 37.612,60.000 40.000 C 65.873 42.388,71.919 44.806,75.000 46.000 C 80.723 48.218,86.236 50.442,87.400 51.002 C 88.060 51.320,105.896 58.494,127.035 66.943 C 162.216 81.004,165.608 82.440,167.101 83.903 C 173.134 89.816,181.033 91.773,198.800 91.753 C 217.041 91.733,224.337 89.844,230.880 83.447 C 231.694 82.651,232.499 82.000,232.669 82.000 C 232.839 82.000,235.143 81.119,237.789 80.041 C 240.435 78.964,244.895 77.164,247.700 76.041 C 250.505 74.919,255.095 73.081,257.900 71.959 C 260.705 70.836,265.160 69.054,267.800 68.000 C 270.440 66.946,274.940 65.146,277.800 64.000 C 284.422 61.348,291.421 58.550,297.900 55.966 C 300.705 54.847,304.890 53.146,307.200 52.186 C 309.510 51.226,312.120 50.182,313.000 49.866 C 313.880 49.550,316.670 48.447,319.200 47.416 C 330.950 42.624,338.332 39.654,342.600 38.000 C 345.681 36.806,351.727 34.388,357.600 32.000 C 364.382 29.242,369.738 27.108,372.719 25.976 C 376.292 24.618,376.800 24.217,376.800 22.751 C 376.800 21.239,374.851 21.380,372.800 23.040 C 372.470 23.307,370.490 24.186,368.400 24.992 C 366.310 25.798,362.800 27.156,360.600 28.010 C 349.414 32.351,340.692 35.740,338.000 36.791 C 334.393 38.199,327.735 40.774,320.400 43.598 C 317.430 44.741,313.020 46.454,310.600 47.405 C 308.180 48.356,305.030 49.582,303.600 50.131 C 300.228 51.424,289.413 55.613,283.800 57.800 C 278.383 59.911,270.259 63.058,265.200 65.005 C 263.110 65.810,259.381 67.263,256.914 68.234 C 254.446 69.205,252.326 70.000,252.201 70.000 C 252.077 70.000,250.046 70.784,247.688 71.742 C 245.329 72.700,241.960 74.038,240.200 74.714 C 230.105 78.593,220.014 82.497,214.600 84.619 C 208.227 87.116,204.785 88.400,204.462 88.400 C 203.428 88.400,199.991 90.199,199.785 90.849 C 199.438 91.941,198.800 91.769,198.800 90.583 C 198.800 89.361,196.547 84.400,195.992 84.400 C 195.776 84.400,195.600 84.168,195.600 83.884 C 195.600 83.411,193.828 81.676,191.519 79.888 C 190.342 78.976,185.200 76.400,184.556 76.400 C 184.287 76.400,184.007 76.225,183.933 76.012 C 183.860 75.798,183.440 75.560,183.000 75.483 C 180.548 75.052,177.320 74.290,176.784 74.015 C 175.817 73.518,171.200 73.076,171.200 73.481 C 171.200 73.678,172.667 74.551,174.459 75.420 C 178.700 77.476,184.977 83.556,183.935 84.599 C 183.690 84.844,179.244 83.324,175.200 81.613 C 173.550 80.915,171.660 80.177,171.000 79.973 C 169.987 79.659,167.385 78.650,163.800 77.178 C 163.360 76.998,161.290 76.201,159.200 75.407 C 155.743 74.095,152.327 72.771,141.800 68.667 C 131.388 64.607,126.306 62.647,116.600 58.949 C 114.620 58.195,112.190 57.237,111.200 56.822 C 110.210 56.406,107.870 55.491,106.000 54.788 C 104.130 54.086,102.005 53.248,101.279 52.926 C 100.552 52.605,99.022 52.010,97.879 51.603 C 95.159 50.636,81.836 45.492,78.000 43.928 C 75.093 42.743,73.780 42.239,67.000 39.707 C 65.240 39.049,62.450 37.971,60.800 37.309 C 57.964 36.173,50.918 33.437,43.800 30.708 C 42.040 30.033,40.060 29.257,39.400 28.982 C 37.925 28.368,34.218 26.922,29.210 25.009 C 27.126 24.213,25.146 23.345,24.810 23.081 C 22.444 21.217,20.800 21.098,20.800 22.791 M151.200 366.600 C 151.200 380.404,151.299 383.600,151.727 383.600 C 152.352 383.600,156.257 382.512,157.400 382.019 C 157.840 381.829,159.100 381.452,160.200 381.181 C 161.300 380.910,162.740 380.456,163.400 380.172 C 164.060 379.889,165.894 379.312,167.476 378.891 L 170.351 378.126 171.398 379.163 C 172.316 380.073,174.972 383.355,177.714 386.968 C 178.201 387.610,179.005 388.563,179.500 389.086 C 179.995 389.609,180.400 390.129,180.400 390.241 C 180.400 390.354,181.480 391.729,182.800 393.297 C 184.120 394.865,185.200 396.295,185.200 396.474 C 185.200 396.653,185.540 396.800,185.957 396.800 C 186.846 396.800,187.362 387.551,187.128 375.804 L 187.000 369.409 184.800 368.672 C 174.586 365.253,168.887 361.445,166.589 356.505 C 166.155 355.572,165.639 354.807,165.443 354.805 C 165.247 354.802,163.627 354.189,161.843 353.443 C 155.104 350.624,152.436 349.600,151.828 349.600 C 151.267 349.600,151.200 351.421,151.200 366.600 " stroke="none" fill="#7b7b7a" fill-rule="evenodd"></path><path id="path6" d="M16.800 24.014 C 14.375 24.314,12.000 25.662,12.000 26.738 C 12.000 26.955,11.775 27.208,11.500 27.300 C 11.102 27.433,10.980 53.410,10.903 155.058 L 10.805 282.650 12.348 286.132 C 13.475 288.677,13.998 289.478,14.291 289.107 C 14.555 288.773,14.782 245.976,14.958 163.332 C 15.246 27.844,15.112 35.306,17.293 33.332 C 19.322 31.495,22.203 31.384,25.200 33.028 C 26.165 33.557,37.677 38.298,42.600 40.193 C 43.920 40.702,47.250 42.058,50.000 43.207 C 52.750 44.357,55.810 45.617,56.800 46.008 C 61.657 47.927,67.928 50.490,69.000 50.995 C 70.376 51.644,83.013 56.812,86.600 58.193 C 87.920 58.702,91.250 60.058,94.000 61.207 C 96.750 62.357,99.810 63.617,100.800 64.008 C 105.657 65.927,111.928 68.490,113.000 68.995 C 114.376 69.644,127.013 74.812,130.600 76.193 C 131.920 76.702,135.250 78.058,138.000 79.207 C 140.750 80.357,143.810 81.617,144.800 82.008 C 149.083 83.700,155.926 86.500,157.400 87.165 C 158.280 87.562,160.501 88.491,162.334 89.230 C 164.486 90.097,166.272 91.147,167.367 92.187 C 169.775 94.474,171.680 95.528,175.799 96.852 C 187.220 100.523,209.984 100.568,221.357 96.941 C 224.980 95.785,228.212 94.092,230.312 92.248 C 231.083 91.571,232.272 90.805,232.956 90.544 C 233.640 90.283,234.998 89.773,235.972 89.412 C 236.947 89.050,238.539 88.392,239.510 87.950 C 240.482 87.507,242.654 86.615,244.338 85.967 C 246.022 85.320,247.910 84.522,248.532 84.195 C 249.155 83.868,249.838 83.600,250.049 83.600 C 250.260 83.600,251.551 83.082,252.917 82.449 C 254.283 81.816,255.850 81.166,256.400 81.005 C 257.474 80.689,259.028 80.042,262.200 78.588 C 263.300 78.083,265.096 77.373,266.190 77.010 C 267.285 76.646,268.365 76.203,268.590 76.026 C 268.816 75.849,269.720 75.478,270.600 75.201 C 271.480 74.923,272.650 74.472,273.200 74.197 C 274.736 73.430,280.163 71.198,280.490 71.199 C 280.649 71.200,281.959 70.660,283.400 70.000 C 284.841 69.340,286.275 68.800,286.586 68.800 C 286.898 68.800,287.255 68.634,287.381 68.431 C 287.506 68.228,288.775 67.674,290.200 67.200 C 291.625 66.726,292.894 66.172,293.019 65.969 C 293.145 65.766,293.494 65.600,293.796 65.600 C 294.097 65.600,295.482 65.080,296.872 64.445 C 298.262 63.810,299.850 63.160,300.400 63.001 C 301.470 62.691,303.005 62.052,306.200 60.588 C 307.300 60.083,309.096 59.373,310.190 59.010 C 311.285 58.646,312.365 58.203,312.590 58.026 C 312.816 57.849,313.720 57.478,314.600 57.201 C 315.480 56.923,316.650 56.453,317.200 56.156 C 318.133 55.651,320.436 54.720,324.172 53.336 C 325.037 53.016,326.539 52.392,327.510 51.950 C 328.482 51.507,330.654 50.615,332.338 49.967 C 334.022 49.320,335.910 48.522,336.532 48.195 C 337.155 47.868,337.818 47.600,338.005 47.600 C 338.191 47.600,339.482 47.080,340.872 46.445 C 342.262 45.810,343.850 45.160,344.400 45.001 C 345.470 44.691,347.005 44.052,350.200 42.588 C 351.300 42.083,353.096 41.373,354.190 41.010 C 355.285 40.646,356.365 40.203,356.590 40.026 C 356.816 39.849,357.720 39.478,358.600 39.201 C 359.480 38.923,360.650 38.453,361.200 38.156 C 362.133 37.651,364.436 36.720,368.172 35.336 C 369.037 35.016,370.549 34.388,371.531 33.940 C 376.941 31.476,379.301 31.921,380.983 35.723 L 381.932 37.870 382.227 163.535 C 382.439 254.398,382.643 289.202,382.960 289.206 C 383.202 289.209,383.130 289.387,382.800 289.600 C 382.470 289.813,382.356 289.991,382.546 289.994 C 382.736 289.997,382.570 290.495,382.176 291.100 C 381.622 291.951,381.602 292.084,382.087 291.687 C 382.432 291.404,382.946 290.594,383.230 289.887 C 383.514 289.179,384.073 288.171,384.473 287.646 C 384.873 287.121,385.200 286.394,385.200 286.031 C 385.200 285.667,385.554 284.674,385.988 283.824 C 386.735 282.359,387.079 31.749,386.339 28.600 C 385.439 24.771,378.820 22.127,376.080 24.501 C 375.706 24.826,374.320 25.460,373.000 25.910 C 371.680 26.361,368.530 27.569,366.000 28.595 C 363.470 29.621,359.690 31.154,357.600 32.003 C 351.474 34.489,345.606 36.835,342.600 38.000 C 338.441 39.612,332.887 41.845,319.200 47.410 C 316.670 48.439,313.880 49.548,313.000 49.876 C 312.120 50.203,310.860 50.722,310.200 51.030 C 309.540 51.338,291.707 58.503,270.570 66.953 C 239.798 79.256,231.867 82.572,230.770 83.600 C 223.926 90.010,217.002 91.779,198.800 91.768 C 182.043 91.759,173.148 89.782,168.027 84.928 C 167.242 84.184,166.240 83.245,165.800 82.840 C 165.360 82.436,147.630 75.157,126.400 66.666 C 105.170 58.175,86.450 50.664,84.800 49.973 C 83.150 49.283,80.720 48.307,79.400 47.805 C 78.080 47.303,75.380 46.222,73.400 45.402 C 71.420 44.582,69.350 43.764,68.800 43.584 C 68.250 43.403,66.450 42.685,64.800 41.987 C 63.150 41.289,60.720 40.307,59.400 39.805 C 58.080 39.303,55.380 38.222,53.400 37.402 C 51.420 36.582,49.350 35.764,48.800 35.584 C 48.250 35.403,46.450 34.685,44.800 33.987 C 43.150 33.289,40.720 32.308,39.400 31.807 C 36.565 30.731,29.514 27.910,26.400 26.605 C 25.190 26.098,23.750 25.553,23.200 25.394 C 22.650 25.235,21.930 24.879,21.600 24.601 C 20.825 23.950,19.061 23.735,16.800 24.014 M366.619 55.569 C 366.493 55.773,365.448 56.246,364.295 56.622 C 363.143 56.998,362.020 57.431,361.800 57.584 C 361.580 57.737,360.500 58.182,359.400 58.573 C 356.618 59.562,352.432 61.179,351.000 61.817 C 349.211 62.615,338.395 66.800,338.123 66.800 C 337.993 66.800,337.148 67.155,336.244 67.588 C 334.761 68.299,333.186 68.917,324.400 72.238 C 322.970 72.778,321.260 73.480,320.600 73.797 C 319.940 74.114,318.680 74.634,317.800 74.953 C 314.161 76.269,310.928 77.566,309.800 78.162 C 309.140 78.510,308.357 78.796,308.060 78.798 C 307.764 78.799,306.954 79.061,306.260 79.380 C 305.567 79.699,303.110 80.703,300.800 81.610 C 298.490 82.517,296.060 83.498,295.400 83.790 C 294.740 84.082,293.390 84.597,292.400 84.936 C 291.410 85.274,289.430 86.032,288.000 86.619 C 284.598 88.017,280.812 89.501,275.400 91.558 C 272.980 92.478,270.460 93.491,269.800 93.810 C 269.140 94.129,266.890 95.026,264.800 95.803 C 262.710 96.580,260.660 97.409,260.245 97.646 C 259.829 97.883,258.569 98.344,257.445 98.672 C 256.320 99.000,255.024 99.508,254.564 99.801 C 254.104 100.095,253.016 100.526,252.147 100.761 C 248.764 101.671,248.644 102.008,248.939 109.772 C 249.081 113.527,249.198 129.245,249.199 144.700 L 249.200 172.800 250.038 172.800 C 250.499 172.800,251.354 172.535,251.938 172.210 C 253.002 171.620,259.320 169.156,261.200 168.599 C 261.750 168.435,262.380 168.168,262.600 168.003 C 262.820 167.839,263.720 167.481,264.600 167.208 C 265.480 166.934,266.560 166.489,267.000 166.217 C 267.440 165.945,268.790 165.401,270.000 165.008 C 271.210 164.616,272.380 164.161,272.600 163.999 C 272.820 163.837,273.720 163.480,274.600 163.205 C 275.480 162.930,276.740 162.466,277.400 162.172 C 278.540 161.666,280.134 161.032,284.900 159.187 C 286.055 158.740,287.360 158.211,287.800 158.010 C 289.662 157.162,293.932 155.492,295.600 154.961 C 296.590 154.645,297.967 154.120,298.660 153.793 C 299.354 153.467,300.023 153.200,300.149 153.200 C 300.274 153.200,301.327 152.771,302.488 152.247 C 303.650 151.723,305.050 151.161,305.600 150.999 C 306.150 150.837,307.320 150.394,308.200 150.013 C 309.080 149.633,311.330 148.742,313.200 148.034 C 315.070 147.325,317.140 146.500,317.800 146.199 C 318.460 145.899,320.710 145.000,322.800 144.202 C 324.890 143.404,327.140 142.500,327.800 142.194 C 329.487 141.410,336.319 138.801,336.691 138.798 C 336.861 138.796,337.478 138.546,338.061 138.241 C 338.645 137.937,339.815 137.468,340.661 137.199 C 341.508 136.931,342.560 136.489,343.000 136.217 C 343.440 135.945,344.790 135.401,346.000 135.008 C 347.210 134.616,348.380 134.162,348.600 134.000 C 348.820 133.838,349.990 133.388,351.200 133.000 C 352.410 132.612,353.580 132.161,353.800 131.999 C 354.020 131.837,354.920 131.481,355.800 131.208 C 356.680 130.934,357.760 130.489,358.200 130.217 C 358.640 129.945,359.990 129.401,361.200 129.008 C 362.410 128.616,363.580 128.157,363.800 127.988 C 364.020 127.820,364.921 127.469,365.803 127.207 C 368.956 126.272,368.649 129.824,368.979 90.499 L 369.275 55.200 368.061 55.200 C 367.393 55.200,366.744 55.366,366.619 55.569 M368.486 81.561 C 368.424 95.840,368.244 111.621,368.086 116.629 L 367.800 125.734 361.000 128.481 C 357.260 129.992,353.783 131.402,353.274 131.614 C 352.765 131.826,352.218 132.000,352.060 132.000 C 351.763 132.000,345.522 134.445,343.400 135.392 C 342.740 135.687,341.030 136.381,339.600 136.935 C 332.308 139.758,325.163 142.565,323.200 143.378 C 320.334 144.565,317.105 145.843,310.000 148.601 C 306.810 149.839,302.490 151.537,300.400 152.375 C 298.310 153.213,292.820 155.386,288.200 157.204 C 283.580 159.022,279.045 160.845,278.122 161.255 C 277.199 161.665,276.293 162.000,276.108 162.000 C 275.765 162.000,269.569 164.418,267.400 165.399 C 266.740 165.697,264.760 166.496,263.000 167.173 C 261.240 167.851,257.550 169.294,254.800 170.381 L 249.800 172.357 249.697 137.878 C 249.582 99.655,249.437 102.584,251.494 101.764 C 252.322 101.434,253.360 100.999,253.800 100.797 C 254.240 100.595,256.310 99.778,258.400 98.981 C 260.490 98.185,264.360 96.664,267.000 95.603 C 269.640 94.541,274.410 92.654,277.600 91.410 C 280.790 90.166,285.110 88.465,287.200 87.631 C 300.584 82.288,307.463 79.600,307.750 79.600 C 307.931 79.600,308.646 79.339,309.340 79.020 C 310.033 78.701,312.490 77.697,314.800 76.790 C 317.110 75.883,319.540 74.911,320.200 74.630 C 321.350 74.141,325.245 72.620,330.800 70.491 C 332.230 69.943,334.350 69.069,335.511 68.548 C 336.672 68.026,337.738 67.600,337.879 67.600 C 338.182 67.600,345.509 64.717,362.600 57.874 C 365.680 56.641,368.290 55.624,368.400 55.616 C 368.510 55.607,368.549 67.283,368.486 81.561 M366.251 133.454 C 365.619 133.797,364.179 134.400,363.051 134.795 C 361.923 135.191,360.460 135.802,359.800 136.155 C 359.140 136.507,358.330 136.797,358.000 136.800 C 357.670 136.803,356.950 137.036,356.400 137.318 C 355.850 137.600,354.500 138.151,353.400 138.542 C 352.300 138.932,350.950 139.487,350.400 139.774 C 349.850 140.062,348.680 140.523,347.800 140.801 C 346.920 141.078,346.020 141.430,345.800 141.583 C 345.580 141.737,344.500 142.175,343.400 142.557 C 342.300 142.939,340.950 143.487,340.400 143.774 C 339.850 144.062,338.680 144.523,337.800 144.801 C 336.920 145.078,336.020 145.430,335.800 145.583 C 335.580 145.737,334.500 146.175,333.400 146.557 C 332.300 146.939,330.950 147.487,330.400 147.774 C 329.850 148.062,328.680 148.523,327.800 148.801 C 326.920 149.078,326.020 149.430,325.800 149.583 C 325.580 149.737,324.500 150.175,323.400 150.557 C 322.300 150.939,320.950 151.487,320.400 151.774 C 319.850 152.062,318.680 152.523,317.800 152.801 C 316.920 153.078,316.020 153.437,315.800 153.599 C 315.580 153.761,314.410 154.216,313.200 154.608 C 311.990 155.001,310.640 155.544,310.200 155.814 C 309.760 156.084,308.885 156.425,308.256 156.571 C 307.627 156.718,306.367 157.176,305.456 157.590 C 304.545 158.004,302.540 158.825,301.000 159.413 C 299.460 160.002,297.030 160.981,295.600 161.590 C 294.170 162.198,291.920 163.102,290.600 163.599 C 289.280 164.096,287.210 164.922,286.000 165.435 C 284.790 165.947,282.151 166.999,280.136 167.772 C 278.121 168.546,275.871 169.448,275.136 169.778 C 274.401 170.107,271.910 171.122,269.600 172.032 C 267.290 172.942,264.050 174.220,262.400 174.870 C 260.750 175.521,258.500 176.392,257.400 176.806 C 256.300 177.219,254.267 177.984,252.883 178.504 C 248.691 180.081,248.805 179.844,249.076 186.478 C 249.347 193.102,249.204 192.675,250.886 191.897 C 251.609 191.563,252.650 191.159,253.200 191.000 C 253.750 190.841,254.740 190.470,255.400 190.175 C 256.539 189.667,258.101 189.044,262.900 187.187 C 264.055 186.740,265.360 186.206,265.800 186.000 C 266.240 185.794,267.500 185.277,268.600 184.851 C 269.700 184.425,271.590 183.693,272.800 183.225 C 274.010 182.758,275.360 182.206,275.800 182.000 C 276.240 181.794,277.590 181.242,278.800 180.775 C 280.010 180.307,281.900 179.575,283.000 179.149 C 284.100 178.723,285.360 178.206,285.800 178.000 C 286.240 177.794,287.545 177.260,288.700 176.813 C 289.855 176.366,291.745 175.634,292.900 175.187 C 294.055 174.740,295.360 174.206,295.800 174.000 C 296.240 173.794,297.500 173.277,298.600 172.851 C 303.601 170.914,305.081 170.325,306.200 169.825 C 306.860 169.530,307.850 169.160,308.400 169.003 C 308.950 168.845,309.760 168.493,310.200 168.220 C 310.640 167.946,311.990 167.401,313.200 167.008 C 314.410 166.616,315.580 166.161,315.800 165.999 C 316.020 165.837,316.920 165.481,317.800 165.208 C 318.680 164.934,319.760 164.489,320.200 164.217 C 320.640 163.945,321.990 163.401,323.200 163.008 C 324.410 162.616,325.580 162.161,325.800 161.999 C 326.020 161.837,326.920 161.481,327.800 161.208 C 328.680 160.934,329.760 160.489,330.200 160.217 C 330.640 159.945,331.990 159.401,333.200 159.008 C 334.410 158.616,335.580 158.161,335.800 157.999 C 336.020 157.837,336.920 157.481,337.800 157.208 C 338.680 156.934,339.780 156.473,340.244 156.183 C 340.708 155.892,342.146 155.347,343.439 154.971 C 344.732 154.595,346.063 154.149,346.395 153.979 C 348.335 152.987,351.691 151.595,353.600 150.991 C 354.810 150.608,355.980 150.169,356.200 150.016 C 356.420 149.863,357.500 149.411,358.600 149.013 C 359.700 148.614,360.780 148.156,361.000 147.996 C 361.220 147.836,362.120 147.478,363.000 147.202 C 363.880 146.926,365.545 146.275,366.700 145.756 L 368.800 144.811 368.800 138.805 C 368.800 132.165,368.765 132.092,366.251 133.454 M368.400 138.810 L 368.400 144.420 367.300 144.863 C 366.695 145.107,364.940 145.796,363.400 146.395 C 360.191 147.644,353.926 150.139,348.400 152.370 C 346.310 153.213,325.070 161.688,301.200 171.203 C 277.330 180.717,257.080 188.818,256.200 189.203 C 255.320 189.589,254.150 190.039,253.600 190.204 C 253.050 190.368,251.920 190.846,251.089 191.265 L 249.578 192.028 249.689 186.329 C 249.819 179.649,248.841 180.756,257.600 177.374 C 260.790 176.142,265.110 174.441,267.200 173.594 C 273.670 170.973,279.278 168.732,282.200 167.600 C 283.740 167.003,286.827 165.769,289.060 164.858 C 291.293 163.946,293.372 163.200,293.680 163.200 C 293.988 163.200,294.411 163.038,294.620 162.841 C 295.041 162.443,297.699 161.344,307.800 157.388 C 311.540 155.924,324.050 150.942,335.600 146.318 C 347.150 141.694,357.111 137.759,357.736 137.573 C 358.361 137.387,359.351 137.029,359.936 136.777 C 361.582 136.069,368.188 133.269,368.300 133.233 C 368.355 133.215,368.400 135.724,368.400 138.810 M380.385 293.818 C 380.103 294.158,379.661 294.355,379.403 294.256 C 379.144 294.157,378.933 294.319,378.933 294.617 C 378.933 294.997,379.131 295.051,379.600 294.800 C 380.295 294.428,381.445 293.200,381.098 293.200 C 380.988 293.200,380.667 293.478,380.385 293.818 M375.709 295.442 C 375.865 295.598,375.770 295.997,375.497 296.329 C 375.064 296.854,375.115 296.869,375.900 296.451 C 376.981 295.875,377.004 295.764,376.112 295.422 C 375.734 295.276,375.552 295.286,375.709 295.442 M371.668 297.640 C 371.117 298.522,371.492 298.609,372.512 297.835 C 373.064 297.416,373.102 297.248,372.683 297.087 C 372.386 296.973,371.929 297.222,371.668 297.640 M365.824 300.213 C 365.396 300.536,365.227 300.800,365.447 300.800 C 365.667 300.800,366.196 300.536,366.624 300.213 C 367.051 299.890,367.220 299.625,367.000 299.625 C 366.780 299.625,366.251 299.890,365.824 300.213 M363.626 300.969 C 363.239 301.435,363.302 301.498,363.977 301.322 C 364.430 301.204,364.800 300.948,364.800 300.753 C 364.800 300.214,364.154 300.332,363.626 300.969 M354.933 304.658 C 354.933 304.983,355.154 305.044,355.567 304.832 C 355.915 304.654,356.470 304.405,356.800 304.278 C 357.130 304.152,356.845 304.074,356.167 304.104 C 355.479 304.135,354.933 304.380,354.933 304.658 M351.788 305.580 C 351.914 305.784,351.698 306.136,351.308 306.363 C 350.919 306.590,350.791 306.781,351.024 306.788 C 351.991 306.816,352.969 305.751,352.235 305.469 C 351.860 305.325,351.660 305.374,351.788 305.580 M347.681 307.618 C 347.372 308.113,347.346 308.400,347.609 308.400 C 347.838 308.400,348.132 308.122,348.262 307.783 C 348.622 306.845,348.233 306.734,347.681 307.618 M339.626 310.969 C 339.239 311.435,339.302 311.498,339.977 311.322 C 340.430 311.204,340.800 310.948,340.800 310.753 C 340.800 310.214,340.154 310.332,339.626 310.969 M337.024 312.213 C 336.596 312.536,336.427 312.800,336.647 312.800 C 336.867 312.800,337.396 312.536,337.824 312.213 C 338.251 311.890,338.420 311.625,338.200 311.625 C 337.980 311.625,337.451 311.890,337.024 312.213 M331.051 314.483 C 331.159 314.657,330.922 314.814,330.524 314.832 C 330.126 314.849,329.994 314.943,330.230 315.042 C 330.467 315.140,331.277 314.949,332.030 314.618 L 333.400 314.016 332.128 314.091 C 331.428 314.132,330.944 314.309,331.051 314.483 M327.847 315.675 C 327.940 315.827,327.698 316.136,327.308 316.363 C 326.919 316.590,326.780 316.780,327.000 316.785 C 327.220 316.790,327.918 316.454,328.550 316.037 L 329.700 315.278 328.688 315.339 C 328.132 315.373,327.753 315.524,327.847 315.675 M317.700 320.099 C 316.985 320.328,316.400 320.666,316.400 320.849 C 316.400 321.190,318.291 320.511,318.980 319.924 C 319.421 319.548,319.413 319.549,317.700 320.099 M313.286 321.859 C 312.190 322.987,312.575 323.075,314.128 322.051 C 314.876 321.558,315.078 321.242,314.728 321.113 C 314.438 321.006,313.789 321.342,313.286 321.859 M308.183 324.027 C 308.038 324.262,307.658 324.354,307.339 324.232 C 307.015 324.107,306.866 324.184,307.003 324.405 C 307.137 324.622,306.922 324.814,306.524 324.832 C 306.126 324.849,306.013 324.950,306.273 325.056 C 306.730 325.242,309.200 324.174,309.200 323.790 C 309.200 323.427,308.445 323.603,308.183 324.027 M298.400 328.000 C 298.400 328.501,298.824 328.501,299.600 328.000 C 300.085 327.686,300.028 327.611,299.300 327.606 C 298.805 327.603,298.400 327.780,298.400 328.000 M293.709 329.442 C 293.865 329.598,293.770 329.997,293.497 330.329 C 293.064 330.854,293.115 330.869,293.900 330.451 C 294.981 329.875,295.004 329.764,294.112 329.422 C 293.734 329.276,293.552 329.286,293.709 329.442 M289.846 331.425 C 289.724 331.741,289.259 332.000,288.813 332.000 C 288.366 332.000,288.000 332.192,288.000 332.427 C 288.000 332.915,289.410 332.562,290.518 331.796 C 291.113 331.384,291.136 331.261,290.651 331.075 C 290.329 330.952,289.967 331.109,289.846 331.425 M281.626 334.969 C 281.239 335.435,281.302 335.498,281.977 335.322 C 282.430 335.204,282.800 334.948,282.800 334.753 C 282.800 334.214,282.154 334.332,281.626 334.969 M278.976 336.187 C 278.549 336.510,278.391 336.780,278.624 336.787 C 278.856 336.794,279.396 336.536,279.824 336.213 C 280.251 335.890,280.409 335.620,280.176 335.613 C 279.944 335.606,279.404 335.864,278.976 336.187 M273.149 338.665 C 272.658 339.260,272.685 339.287,273.400 338.920 C 273.840 338.693,274.470 338.408,274.800 338.286 C 275.212 338.133,275.133 338.053,274.549 338.032 C 274.081 338.014,273.451 338.299,273.149 338.665 M269.788 339.580 C 269.914 339.784,269.698 340.136,269.308 340.363 C 268.919 340.590,268.791 340.781,269.024 340.788 C 269.991 340.816,270.969 339.751,270.235 339.469 C 269.860 339.325,269.660 339.374,269.788 339.580 M266.800 341.039 C 266.800 341.504,266.968 341.538,267.600 341.200 C 268.040 340.965,268.400 340.726,268.400 340.671 C 268.400 340.616,268.040 340.543,267.600 340.510 C 267.135 340.475,266.800 340.696,266.800 341.039 M265.886 341.320 C 265.742 341.694,265.259 342.000,264.813 342.000 C 264.366 342.000,264.000 342.192,264.000 342.427 C 264.000 342.684,264.359 342.745,264.900 342.582 C 266.091 342.222,266.528 341.783,266.318 341.155 C 266.199 340.796,266.068 340.845,265.886 341.320 M261.428 343.416 C 260.784 343.752,259.893 344.082,259.449 344.150 C 259.006 344.218,258.572 344.485,258.485 344.744 C 258.369 345.094,258.622 345.085,259.464 344.711 C 261.862 343.646,263.384 342.831,263.000 342.818 C 262.780 342.811,262.073 343.080,261.428 343.416 M254.976 346.187 C 254.549 346.510,254.391 346.780,254.624 346.787 C 254.856 346.794,255.396 346.536,255.824 346.213 C 256.251 345.890,256.409 345.620,256.176 345.613 C 255.944 345.606,255.404 345.864,254.976 346.187 M249.051 348.483 C 249.159 348.657,248.922 348.814,248.524 348.832 C 248.126 348.849,247.994 348.943,248.230 349.042 C 248.467 349.140,249.277 348.949,250.030 348.618 L 251.400 348.016 250.128 348.091 C 249.428 348.132,248.944 348.309,249.051 348.483 M245.847 349.675 C 245.940 349.827,245.698 350.136,245.308 350.363 C 244.919 350.590,244.780 350.780,245.000 350.785 C 245.220 350.790,245.918 350.454,246.550 350.037 L 247.700 349.278 246.688 349.339 C 246.132 349.373,245.753 349.524,245.847 349.675 M235.700 354.099 C 234.985 354.328,234.400 354.666,234.400 354.849 C 234.400 355.190,236.291 354.511,236.980 353.924 C 237.421 353.548,237.413 353.549,235.700 354.099 " stroke="none" fill="#3c6414" fill-rule="evenodd"></path><path id="path7" d="M230.162 92.893 C 229.620 93.529,229.592 93.638,230.067 93.272 C 230.629 92.838,230.762 92.871,230.920 93.479 C 231.042 93.948,231.123 93.816,231.154 93.100 C 231.210 91.769,231.134 91.754,230.162 92.893 M231.196 98.282 C 231.088 100.087,231.143 101.420,231.319 101.243 C 231.494 101.067,231.582 99.590,231.515 97.961 L 231.393 95.000 231.196 98.282 M166.137 115.000 C 166.139 116.760,166.209 117.430,166.293 116.489 C 166.378 115.549,166.377 114.109,166.291 113.289 C 166.205 112.470,166.136 113.240,166.137 115.000 M231.314 122.200 C 231.317 123.300,231.395 123.703,231.487 123.095 C 231.579 122.486,231.577 121.586,231.482 121.095 C 231.387 120.603,231.311 121.100,231.314 122.200 M231.314 131.800 C 231.317 132.900,231.395 133.303,231.487 132.695 C 231.579 132.086,231.577 131.186,231.482 130.695 C 231.387 130.203,231.311 130.700,231.314 131.800 M166.148 140.000 C 166.148 142.310,166.214 143.255,166.295 142.100 C 166.376 140.945,166.376 139.055,166.295 137.900 C 166.214 136.745,166.148 137.690,166.148 140.000 M230.924 146.200 C 230.926 147.520,231.001 148.012,231.090 147.293 C 231.179 146.574,231.177 145.494,231.086 144.893 C 230.995 144.292,230.922 144.880,230.924 146.200 M231.390 178.800 C 231.390 195.410,231.439 202.205,231.500 193.900 C 231.560 185.595,231.560 172.005,231.500 163.700 C 231.439 155.395,231.390 162.190,231.390 178.800 M165.766 230.800 C 165.766 234.870,165.825 236.535,165.898 234.500 C 165.971 232.465,165.971 229.135,165.898 227.100 C 165.825 225.065,165.766 226.730,165.766 230.800 M231.757 230.800 C 231.757 233.770,231.820 234.985,231.897 233.500 C 231.974 232.015,231.974 229.585,231.897 228.100 C 231.820 226.615,231.757 227.830,231.757 230.800 M231.755 249.800 C 231.756 252.660,231.820 253.778,231.897 252.283 C 231.974 250.789,231.974 248.449,231.896 247.083 C 231.818 245.718,231.755 246.940,231.755 249.800 M165.755 255.800 C 165.756 258.660,165.820 259.778,165.897 258.283 C 165.974 256.789,165.974 254.449,165.896 253.083 C 165.818 251.718,165.755 252.940,165.755 255.800 M231.373 274.600 C 231.373 280.100,231.430 282.405,231.499 279.723 C 231.568 277.041,231.568 272.541,231.499 269.723 C 231.430 266.905,231.374 269.100,231.373 274.600 M165.731 289.800 C 165.733 291.340,165.805 291.921,165.892 291.091 C 165.979 290.261,165.977 289.001,165.889 288.291 C 165.800 287.581,165.729 288.260,165.731 289.800 M231.751 351.200 C 231.751 353.730,231.816 354.765,231.896 353.500 C 231.975 352.235,231.975 350.165,231.896 348.900 C 231.816 347.635,231.751 348.670,231.751 351.200 " stroke="none" fill="#80c02c" fill-rule="evenodd"></path><path id="path8" d="M231.314 93.400 C 231.317 94.500,231.395 94.903,231.487 94.295 C 231.579 93.686,231.577 92.786,231.482 92.295 C 231.387 91.803,231.311 92.300,231.314 93.400 M190.900 99.876 C 191.285 99.976,191.915 99.976,192.300 99.876 C 192.685 99.775,192.370 99.693,191.600 99.693 C 190.830 99.693,190.515 99.775,190.900 99.876 M205.300 99.876 C 205.685 99.976,206.315 99.976,206.700 99.876 C 207.085 99.775,206.770 99.693,206.000 99.693 C 205.230 99.693,204.915 99.775,205.300 99.876 M230.972 101.730 C 230.860 102.022,230.822 103.957,230.887 106.030 L 231.006 109.800 231.203 105.499 C 231.398 101.238,231.365 100.704,230.972 101.730 M231.357 115.200 C 231.357 118.170,231.420 119.385,231.497 117.900 C 231.574 116.415,231.574 113.985,231.497 112.500 C 231.420 111.015,231.357 112.230,231.357 115.200 M231.358 139.000 C 231.358 142.080,231.421 143.287,231.497 141.682 C 231.573 140.078,231.573 137.558,231.496 136.082 C 231.419 134.607,231.357 135.920,231.358 139.000 M165.784 168.000 C 165.784 177.570,165.836 181.485,165.900 176.700 C 165.963 171.915,165.963 164.085,165.900 159.300 C 165.836 154.515,165.784 158.430,165.784 168.000 M165.422 223.700 C 165.271 240.695,165.295 258.830,165.474 264.000 C 165.711 270.848,165.819 262.460,165.870 233.100 C 165.909 210.935,165.886 192.800,165.819 192.800 C 165.752 192.800,165.573 206.705,165.422 223.700 M231.770 217.200 C 231.770 221.930,231.828 223.865,231.898 221.500 C 231.969 219.135,231.969 215.265,231.898 212.900 C 231.828 210.535,231.770 212.470,231.770 217.200 M231.755 259.800 C 231.756 262.660,231.820 263.778,231.897 262.283 C 231.974 260.789,231.974 258.449,231.896 257.083 C 231.818 255.718,231.755 256.940,231.755 259.800 M165.760 281.400 C 165.761 284.700,165.822 285.997,165.898 284.282 C 165.973 282.567,165.972 279.867,165.897 278.282 C 165.821 276.697,165.759 278.100,165.760 281.400 M231.740 288.400 C 231.740 290.270,231.809 291.035,231.893 290.100 C 231.977 289.165,231.977 287.635,231.893 286.700 C 231.809 285.765,231.740 286.530,231.740 288.400 M165.366 296.000 C 165.366 300.070,165.425 301.735,165.498 299.700 C 165.571 297.665,165.571 294.335,165.498 292.300 C 165.425 290.265,165.366 291.930,165.366 296.000 M231.709 307.600 C 231.709 308.590,231.787 308.995,231.882 308.500 C 231.978 308.005,231.978 307.195,231.882 306.700 C 231.787 306.205,231.709 306.610,231.709 307.600 M165.693 310.400 C 165.693 311.170,165.775 311.485,165.876 311.100 C 165.976 310.715,165.976 310.085,165.876 309.700 C 165.775 309.315,165.693 309.630,165.693 310.400 M165.386 333.200 C 165.386 344.970,165.437 349.785,165.500 343.900 C 165.562 338.015,165.562 328.385,165.500 322.500 C 165.437 316.615,165.386 321.430,165.386 333.200 " stroke="none" fill="#74ac24" fill-rule="evenodd"></path></g></svg>