<svg xmlns="http://www.w3.org/2000/svg" xmlns:xlink="http://www.w3.org/1999/xlink" width="952.223" height="160.029" viewBox="0 0 952.223 160.029">
  <defs>
    <filter id="LEKSYON" x="314.296" y="11.414" width="327.527" height="131.048" filterUnits="userSpaceOnUse">
      <feOffset dy="3" input="SourceAlpha"/>
      <feGaussianBlur stdDeviation="6" result="blur"/>
      <feFlood flood-opacity="0.502"/>
      <feComposite operator="in" in2="blur"/>
      <feComposite in="SourceGraphic"/>
    </filter>
  </defs>
  <g id="Leksyon-2" data-name="Leksyon" transform="matrix(1, -0.017, 0.017, 1, -0.001, 16.553)">
    <path id="Path_655" data-name="Path 655" d="M937.549,94.355s-262.272-4.92-493.385-11.126S13.086,69.53,13.086,69.53L0,0Z" transform="translate(12.314 49.143)" fill="#5d4215"/>
    <path id="Path_654" data-name="Path 654" d="M71.6.512,48.789,13.77.042,5.1Z" transform="translate(877.438 79.916)" fill="#6a5024"/>
    <path id="base" d="M946.619,35.668S711.7,18.944,475.042,10.033,0,.024,0,.024L12.482,57.731l50.449,6.535-50.17,2.721L25.9,119.75s297.994.489,417.686,3.011c214.887,4.527,474.571,20.069,506.28,20.738L948.4,94.782l-48.315-7.734L947.969,80.5Z" transform="translate(0 0)" fill="#95713f"/>
    <path id="Path_647" data-name="Path 647" d="M941.362,30.383l-14.3,37.474L831.745,79.7l96.109,14.617,1.087,36.119s-184.674-9.243-363.859-15.641-352.891-9.953-352.891-9.953c-.743.824-.29-9.66-.29-9.66l-28.274,9.058s-38.377.241-76.355.909-75.555,1.766-75.555,1.766L22.035,67.257,119.82,60.5,29.973,48.957S23.656,37.7,16.168,26,.019,2.156.019,2.156,213.046-1.33,448.383,5.726,941.362,30.383,941.362,30.383Z" transform="translate(6.658 4.892)" fill="#9f6924"/>
    <path id="Path_648" data-name="Path 648" d="M841.912,47.769s8.859-18.32-87.728-21.348c-27.531-.863-90.3-7.863-90.3-7.863-78.6-5.334-155.51-9.715-155.51-9.715s36.372,4.788,70.507,9.91,66.027,10.58,66.027,10.58-96.366-11.9-186.209-15.1S285.53,16.547,285.53,16.547s36.722-5.067,74.677-7.368,77.144-1.833,77.144-1.833S352.764,5.134,280.9,4.05,149.91,3.01,149.91,3.01C-2.042-7.394.163,19.972.163,19.972s2.785,16.2,72.223,17.913S139.462,52.71,139.462,52.71s-4.256,11.334-66.329,10.027S8.652,73.05,8.652,73.05-2.728,88.085,32.174,91.179s116.084-5.75,116.084-5.75,143.419-3,262.242-.685S534.1,88.467,623.552,94.7s89.76,13.813,144.738,14.971,74.551-4.639,75.174-10.337-68.187-17.083-68.187-17.083-28.138-3.573-27.956-12.758,27.216-11.845,27.216-11.845,33.176.295,50.021-2.174S841.912,47.769,841.912,47.769Z" transform="translate(61.663 11.753)" fill="#b57d32"/>
    <path id="Path_650" data-name="Path 650" d="M419.677,14.695s-100.044.913-207.778-2.088S.009,1.028.009,1.028l222.381.624Z" transform="translate(291.629 59.035)" fill="#f7c285"/>
    <path id="Path_649" data-name="Path 649" d="M435.589,18.114s-93.954-5.442-202.843-8.89S.036,4.321.036,4.321L232.518,1.664Z" transform="translate(283.695 55.783)" fill="#946a3b"/>
    <path id="Path_675" data-name="Path 675" d="M26.81.2c14.913.318,27.117,4.346,27.259,9s-11.832,8.166-26.744,7.848S.208,12.7.066,8.049,11.9-.117,26.81.2Z" transform="translate(91.682 24.854)" fill="#d1974d"/>
    <path id="Path_651" data-name="Path 651" d="M904.627,27.82s-63.248,2.036-120.573-2.54S673.74,6.254,589.859,5.778c-25.836-.147-115.6-4.231-264.151-2.014S.122,14.742.122,14.742" transform="translate(32.435 81.051)" fill="none" stroke="#cc8f27" stroke-width="5"/>
    <path id="Path_652" data-name="Path 652" d="M912.528,27.921S794.889,36.888,705.4,26.608c-44.654-8.123-69.982-14.066-246.577-14.881-65.163-.3-143.8-5.185-218.4-7.185-61.66-1.652-86.529,14.433-130.53,13.716C63.581,17.5,0,0,0,0" transform="translate(23.045 31.462)" fill="none" stroke="#cc8f27" stroke-width="5"/>
    <g id="turnilyo" transform="translate(862.202 67.88)">
      <path id="Path_653" data-name="Path 653" d="M14.76,25.585c8.5-.7,15.779-4.437,16.668-10.61S27.233-.664,18.735.037.906,10.674.016,16.847C-.488,20.348,11.081,25.888,14.76,25.585Z" transform="translate(30.592 32.464) rotate(-166)" opacity="0.29"/>
      <path id="Path_676" data-name="Path 676" d="M16.363.12c9.156.2,16.708,4.612,16.869,9.866s-7.131,9.355-16.287,9.16S.237,14.534.076,9.28,7.208-.075,16.363.12Z" transform="translate(4.242 0.329)" fill="#9f988a"/>
      <path id="Path_677" data-name="Path 677" d="M13.558.1C21.144.261,27.4,3.921,27.535,8.275s-5.909,7.751-13.5,7.59S.2,12.043.063,7.689,5.972-.062,13.558.1Z" transform="translate(5.202 1.941)" fill="#bab4c4"/>
      <path id="Path_678" data-name="Path 678" d="M9.351.069C14.582.18,18.9,2.7,18.99,5.707s-4.075,5.346-9.307,5.234S.135,8.305.044,5.3,4.119-.043,9.351.069Z" transform="translate(9.019 4.68)" fill="#b4abb7"/>
      <path id="Path_679" data-name="Path 679" d="M6.078.045c3.4.072,6.206,1.713,6.266,3.665s-2.649,3.475-6.049,3.4S.088,5.4.028,3.447,2.677-.028,6.078.045Z" transform="translate(11.868 6.325)" fill="#cccbcc"/>
    </g>
    <g id="turnilyo-2" data-name="turnilyo" transform="translate(63.562 48.337)">
      <path id="Path_653-2" data-name="Path 653" d="M14.76,25.585c8.5-.7,15.779-4.437,16.668-10.61S27.233-.664,18.735.037.906,10.674.016,16.847C-.488,20.348,11.081,25.888,14.76,25.585Z" transform="translate(30.592 32.464) rotate(-166)" opacity="0.29"/>
      <path id="Path_680" data-name="Path 680" d="M16.363.12c9.156.2,16.708,4.612,16.869,9.866s-7.131,9.355-16.287,9.16S.237,14.534.076,9.28,7.208-.075,16.363.12Z" transform="translate(4.242 0.329)" fill="#9f988a"/>
      <path id="Path_681" data-name="Path 681" d="M13.558.1C21.144.261,27.4,3.921,27.535,8.275s-5.909,7.751-13.5,7.59S.2,12.043.063,7.689,5.972-.062,13.558.1Z" transform="translate(5.202 1.941)" fill="#bab4c4"/>
      <path id="Path_682" data-name="Path 682" d="M9.351.069C14.582.18,18.9,2.7,18.99,5.707s-4.075,5.346-9.307,5.234S.135,8.305.044,5.3,4.119-.043,9.351.069Z" transform="translate(9.019 4.68)" fill="#b4abb7"/>
      <path id="Path_683" data-name="Path 683" d="M6.078.045c3.4.072,6.206,1.713,6.266,3.665s-2.649,3.475-6.049,3.4S.088,5.4.028,3.447,2.677-.028,6.078.045Z" transform="translate(11.868 6.325)" fill="#cccbcc"/>
    </g>
    <g transform="matrix(1, 0.02, -0.02, 1, 0.29, -16.55)" filter="url(#LEKSYON)">
      <text id="LEKSYON-3" data-name="LEKSYON" transform="translate(477.59 100.93) rotate(1)" fill="#fff" stroke="#fff" stroke-width="2" font-size="65" font-family="SegoeUI-Bold, Segoe UI" font-weight="700"><tspan x="-142.457" y="0">LEKSYON</tspan></text>
    </g>
  </g>
</svg>
