<svg xmlns="http://www.w3.org/2000/svg" xmlns:xlink="http://www.w3.org/1999/xlink" width="856.654" height="160.055" viewBox="0 0 861.995 159.462">
  <defs>
    <filter id="Mga_kulay_at_hugis" x="201.374" y="21.69" width="453" height="109" filterUnits="userSpaceOnUse">
      <feOffset dy="3" input="SourceAlpha"/>
      <feGaussianBlur stdDeviation="7.5" result="blur"/>
      <feFlood flood-opacity="0.502"/>
      <feComposite operator="in" in2="blur"/>
      <feComposite in="SourceGraphic"/>
    </filter>
  </defs>
  <g id="Mga_kulay" data-name="Mga kulay" transform="translate(-0.001 29.919) rotate(-2)">
    <path id="Path_655" data-name="Path 655" d="M846.872,85.229S609.965,80.786,401.205,75.18,11.821,62.805,11.821,62.805L0,0Z" transform="translate(11.123 44.392)" fill="#6a5024"/>
    <path id="Path_654" data-name="Path 654" d="M64.675.512l-20.6,11.976L.042,4.66Z" transform="translate(792.57 72.14)" fill="#6a5024"/>
    <path id="base" d="M855.064,32.221S642.864,17.114,429.1,9.065,0,.024,0,.024L11.274,52.15l45.57,5.9L11.526,60.511l11.866,47.66s269.173.442,377.288,2.72c194.1,4.09,428.672,18.128,457.314,18.732l-1.324-44-43.642-6.986,43.254-5.913Z" transform="translate(0 0)" fill="#95713f"/>
    <path id="Path_647" data-name="Path 647" d="M850.318,27.57,837.4,61.419l-86.1,10.7,86.814,13.2.982,32.626S672.286,109.6,510.431,103.817s-318.76-8.991-318.76-8.991c-.671.744-.262-8.725-.262-8.725l-25.54,8.182S131.2,94.5,96.9,95.1s-68.248,1.6-68.248,1.6L19.906,60.877l88.327-6.1L27.076,44.347S21.37,34.18,14.606,23.611.019,2.073.019,2.073s192.424-3.149,405,3.225S850.318,27.57,850.318,27.57Z" transform="translate(6.012 4.296)" fill="#b68546"/>
    <path id="Path_648" data-name="Path 648" d="M760.5,43.212s8-16.548-79.243-19.284c-24.868-.78-81.569-7.1-81.569-7.1-71-4.818-140.47-8.775-140.47-8.775S492.072,12.375,522.906,17s59.641,9.557,59.641,9.557S495.5,15.808,414.348,12.92,257.93,15.009,257.93,15.009s33.171-4.577,67.454-6.655S395.067,6.7,395.067,6.7s-76.407-2-141.318-2.977-118.323-.94-118.323-.94C-1.829-6.616.163,18.1.163,18.1S2.678,32.738,65.4,34.284,125.99,47.675,125.99,47.675s-3.844,10.238-59.914,9.057S7.831,66.048,7.831,66.048s-10.28,13.58,21.247,16.376S133.934,77.23,133.934,77.23s129.548-2.711,236.879-.618,111.651,3.362,192.447,8.99S644.338,98.079,694,99.125s67.341-4.19,67.9-9.338-61.592-15.431-61.592-15.431-25.416-3.227-25.252-11.524,24.583-10.7,24.583-10.7,29.968.266,45.183-1.964S760.5,43.212,760.5,43.212Z" transform="translate(55.683 10.556)" fill="#cb9751"/>
    <path id="Path_650" data-name="Path 650" d="M379.088,13.373s-90.368.825-187.682-1.886S.009,1.028.009,1.028l200.873.564Z" transform="translate(263.423 53.228)" fill="#f7c285"/>
    <path id="Path_649" data-name="Path 649" d="M393.464,16.523S308.6,11.607,210.239,8.493.036,4.064.036,4.064l210-2.4Z" transform="translate(256.254 50.229)" fill="#946a3b"/>
    <path id="Path_711" data-name="Path 711" d="M24.223.2c13.47.287,24.494,3.926,24.623,8.128S38.159,15.7,24.688,15.416.194,11.49.066,7.288,10.753-.088,24.223.2Z" transform="translate(82.808 22.435)" fill="#b68546"/>
    <path id="Path_651" data-name="Path 651" d="M817.146,25.43s-57.131,1.839-108.912-2.295S608.589,5.95,532.821,5.52C509.484,5.387,428.4,1.7,294.218,3.7S.122,13.616.122,13.616" transform="translate(29.286 72.914)" fill="none" stroke="#d6a95c" stroke-width="5"/>
    <path id="Path_652" data-name="Path 652" d="M824.271,25.221s-106.261,8.1-187.093-1.186C596.842,16.7,573.965,11.329,414.449,10.593c-58.861-.272-129.888-4.684-197.281-6.49-55.7-1.493-78.16,13.037-117.905,12.389C57.431,15.811,0,0,0,0" transform="translate(20.817 28.421)" fill="none" stroke="#d6a95c" stroke-width="5"/>
    <g id="turnilyo" transform="translate(778.294 61.569)">
      <path id="Path_653" data-name="Path 653" d="M13,22.772c7.675-.633,14.253-4.007,15.056-9.584S24.269-.938,16.594-.3.488,9.3-.315,14.88C-.771,18.042,9.68,23.046,13,22.772Z" transform="translate(27.914 28.664) rotate(-166)" opacity="0.29"/>
      <path id="Path_712" data-name="Path 712" d="M14.788.12C23.058.3,29.88,4.286,30.025,9.032s-6.442,8.45-14.712,8.274S.221,13.139.076,8.394,6.518-.057,14.788.12Z" transform="translate(4.343 0.034)" fill="#9f988a"/>
      <path id="Path_713" data-name="Path 713" d="M12.253.1c6.852.146,12.5,3.452,12.625,7.384s-5.337,7-12.19,6.856S.183,10.887.063,6.955,5.4-.047,12.253.1Z" transform="translate(5.211 1.492)" fill="#bab4c4"/>
      <path id="Path_714" data-name="Path 714" d="M8.45.068c4.726.1,8.624,2.381,8.707,5.093S13.476,9.99,8.75,9.889.126,7.508.044,4.8,3.724-.032,8.45.068Z" transform="translate(8.661 3.969)" fill="#b4abb7"/>
      <path id="Path_715" data-name="Path 715" d="M5.493.044c3.072.065,5.606,1.547,5.66,3.31S8.76,6.493,5.688,6.428.082,4.88.028,3.118,2.421-.021,5.493.044Z" transform="translate(11.236 5.457)" fill="#cccbcc"/>
    </g>
    <g id="turnilyo-2" data-name="turnilyo" transform="translate(56.896 43.916)">
      <path id="Path_653-2" data-name="Path 653" d="M13,22.772c7.675-.633,14.253-4.007,15.056-9.584S24.269-.938,16.594-.3.488,9.3-.315,14.88C-.771,18.042,9.68,23.046,13,22.772Z" transform="translate(27.914 28.664) rotate(-166)" opacity="0.29"/>
      <path id="Path_716" data-name="Path 716" d="M14.788.12C23.058.3,29.88,4.286,30.025,9.032s-6.442,8.45-14.712,8.274S.221,13.139.076,8.394,6.518-.057,14.788.12Z" transform="translate(4.343 0.034)" fill="#9f988a"/>
      <path id="Path_717" data-name="Path 717" d="M12.253.1c6.852.146,12.5,3.452,12.625,7.384s-5.337,7-12.19,6.856S.183,10.887.063,6.955,5.4-.047,12.253.1Z" transform="translate(5.211 1.492)" fill="#bab4c4"/>
      <path id="Path_718" data-name="Path 718" d="M8.45.068c4.726.1,8.624,2.381,8.707,5.093S13.476,9.99,8.75,9.889.126,7.508.044,4.8,3.724-.032,8.45.068Z" transform="translate(8.661 3.969)" fill="#b4abb7"/>
      <path id="Path_719" data-name="Path 719" d="M5.493.044c3.072.065,5.606,1.547,5.66,3.31S8.76,6.493,5.688,6.428.082,4.88.028,3.118,2.421-.021,5.493.044Z" transform="translate(11.236 5.457)" fill="#cccbcc"/>
    </g>
    <g transform="matrix(1, 0.03, -0.03, 1, 1.05, -29.9)" filter="url(#Mga_kulay_at_hugis)">
      <text id="Mga_kulay_at_hugis-2" data-name="Mga kulay at hugis" transform="translate(427.87 92.19)" fill="#fff" stroke="#fff" stroke-width="2" font-size="45" font-family="SegoeUI-Bold, Segoe UI" font-weight="700"><tspan x="-201.237" y="0">Mga kulay at hugis</tspan></text>
    </g>
  </g>
</svg>
