<svg xmlns="http://www.w3.org/2000/svg" xmlns:xlink="http://www.w3.org/1999/xlink" width="860.403" height="130.746" viewBox="0 0 857.403 120.746">
  <defs>
    <filter id="Pagbuo_ng_bagong_Salita" x="143.494" y="1.029" width="583" height="109" filterUnits="userSpaceOnUse">
      <feOffset dy="3" input="SourceAlpha"/>
      <feGaussianBlur stdDeviation="7.5" result="blur"/>
      <feFlood flood-opacity="0.502"/>
      <feComposite operator="in" in2="blur"/>
      <feComposite in="SourceGraphic"/>
    </filter>
  </defs>
  <g id="Pagbuo_" data-name="Pagbuo " transform="translate(856.878 117.345) rotate(-180)">
    <path id="Path_655" data-name="Path 655" d="M846.5-3.36S609.325-1.35,400.351,2.11,10.595,10.478,10.595,10.478L-.327,73.082Z" transform="translate(10.295 -0.041)" fill="#6a5024"/>
    <path id="Path_654" data-name="Path 654" d="M64.754,12,43.949-.174-.032,7.192Z" transform="translate(792.124 41.492)" fill="#6a5024"/>
    <path id="base" d="M855.282,93.847S643,106.76,429.048,112.608-.525,117.239-.525,117.239L10.006,65.295l45.548-5.428L10.136,56.948,21.326,9.47s269.548,2.317,377.782,1.151C593.428,8.525,828.123-3.092,856.8-3.4l-.685,43.936-43.6,6.529,43.4,6.349Z" transform="translate(0 0)" fill="#95713f"/>
    <path id="Path_647" data-name="Path 647" d="M850.668,87.049,837.237,53.11,750.863,41.544l86.746-12.3.507-32.574S671.189,3.3,509.187,7.415s-319.079,5.712-319.079,5.712c-.684-.75-.136,8.712-.136,8.712l-25.694-8.433S129.56,12.833,95.2,11.878,26.83,9.585,26.83,9.585L18.6,45.273l88.539,7L26.015,61.856s-5.567,10.1-12.186,20.582S-.465,103.8-.465,103.8s192.743,5.118,405.527.93S850.668,87.049,850.668,87.049Z" transform="translate(5.888 7.166)" fill="#b68546"/>
    <path id="Path_648" data-name="Path 648" d="M760.73,53.787s8.255,16.609-79.074,18.448c-24.893.524-81.581,6.257-81.581,6.257-71.026,4.084-140.541,7.324-140.541,7.324s32.837-3.983,63.648-8.288,59.586-8.933,59.586-8.933-87.013,9.845-168.239,11.9S257.859,76.8,257.859,76.8s33.286,4.911,67.648,7.338,69.8,2.368,69.8,2.368-76.485,1.213-141.474,1.525-118.476-.274-118.476-.274C-1.952,95.738-.318,71.071-.318,71.071S1.989,56.48,64.777,55.579s60.479-12.753,60.479-12.753-4-10.265-60.13-9.66-58.465-9.9-58.465-9.9S-3.83,9.6,27.7,7.128,132.782,13.39,132.782,13.39,262.551,17.425,370,16.435s111.76-2.213,192.589-7.006S643.6-2.2,693.319-2.737s67.5,4.874,68.136,10.022S700,22.065,700,22.065s-25.4,2.963-25.12,11.251,24.774,10.938,24.774,10.938,30.006.042,45.277,2.425S760.73,53.787,760.73,53.787Z" transform="translate(55.302 18.142)" fill="#cb9751"/>
    <path id="Path_650" data-name="Path 650" d="M379.4-.284s-90.508-1.75-187.92-.04S-.037,8.161-.037,8.161l201.15,1.5Z" transform="translate(262.527 57.616)" fill="#f7c285"/>
    <path id="Path_649" data-name="Path 649" d="M393.773-1.563S308.858,2.477,210.4,4.579-.031,6.848-.031,6.848L210.3,11.4Z" transform="translate(255.369 58.817)" fill="#946a3b"/>
    <path id="Path_702" data-name="Path 702" d="M24.5-.1C37.993-.239,48.875,3.049,48.81,7.249S37.759,14.97,24.271,15.114-.1,11.97-.035,7.77,11.016.048,24.5-.1Z" transform="translate(82.065 80.649)" fill="#b68546"/>
    <path id="Path_651" data-name="Path 651" d="M818-2.262S760.766-4.684,708.972-1.087s-99.535,16.142-175.4,15.8C510.2,14.6,429.055,17.455,294.652,14.08S-.005,1.163-.005,1.163" transform="translate(27.671 29.981)" fill="none" stroke="#d6a95c" stroke-width="5"/>
    <path id="Path_652" data-name="Path 652" d="M824.989,1.466S718.46-7.712,637.649.733C597.363,7.647,574.531,12.775,414.8,11.875c-58.94-.332-130,3.347-197.466,4.46-55.753.92-78.46-13.821-118.253-13.582C57.2,3-.082,18.207-.082,18.207" transform="translate(19.991 70.885)" fill="none" stroke="#d6a95c" stroke-width="5"/>
    <g id="turnilyo" transform="translate(778.012 35.387)">
      <path id="Path_653" data-name="Path 653" d="M13.372.318c7.649.709,14.243,4.161,15.119,9.771S24.912,24.247,17.263,23.538,1.1,13.733.223,8.122C-.274,4.941,10.06.012,13.372.318Z" transform="translate(33.802 22.23) rotate(166)" opacity="0.29"/>
      <path id="Path_703" data-name="Path 703" d="M15.09-.059c8.283-.088,14.938,3.684,14.865,8.425S23.11,17.022,14.827,17.11-.111,13.427-.039,8.685,6.808.029,15.09-.059Z" transform="translate(4.3 11.299)" fill="#9f988a"/>
      <path id="Path_704" data-name="Path 704" d="M12.5-.049C19.366-.122,24.881,3,24.82,6.931S19.148,14.1,12.285,14.177-.092,11.125-.032,7.2,5.641.024,12.5-.049Z" transform="translate(5.15 12.779)" fill="#bab4c4"/>
      <path id="Path_705" data-name="Path 705" d="M8.623-.034c4.733-.05,8.536,2.1,8.495,4.814s-3.912,4.946-8.645,5S-.064,7.672-.022,4.963,3.89.017,8.623-.034Z" transform="translate(8.572 14.731)" fill="#b4abb7"/>
      <path id="Path_706" data-name="Path 706" d="M5.6-.022c3.076-.033,5.548,1.368,5.521,3.129S8.584,6.322,5.507,6.355-.041,4.987-.014,3.226,2.529.011,5.6-.022Z" transform="translate(11.132 16.686)" fill="#cccbcc"/>
    </g>
    <g id="turnilyo-2" data-name="turnilyo" transform="translate(55.849 45.625)">
      <path id="Path_653-2" data-name="Path 653" d="M13.372.318c7.649.709,14.243,4.161,15.119,9.771S24.912,24.247,17.263,23.538,1.1,13.733.223,8.122C-.274,4.941,10.06.012,13.372.318Z" transform="translate(33.802 22.23) rotate(166)" opacity="0.29"/>
      <path id="Path_707" data-name="Path 707" d="M15.09-.059c8.283-.088,14.938,3.684,14.865,8.425S23.11,17.022,14.827,17.11-.111,13.427-.039,8.685,6.808.029,15.09-.059Z" transform="translate(4.3 11.299)" fill="#9f988a"/>
      <path id="Path_708" data-name="Path 708" d="M12.5-.049C19.366-.122,24.881,3,24.82,6.931S19.148,14.1,12.285,14.177-.092,11.125-.032,7.2,5.641.024,12.5-.049Z" transform="translate(5.15 12.779)" fill="#bab4c4"/>
      <path id="Path_709" data-name="Path 709" d="M8.623-.034c4.733-.05,8.536,2.1,8.495,4.814s-3.912,4.946-8.645,5S-.064,7.672-.022,4.963,3.89.017,8.623-.034Z" transform="translate(8.572 14.731)" fill="#b4abb7"/>
      <path id="Path_710" data-name="Path 710" d="M5.6-.022c3.076-.033,5.548,1.368,5.521,3.129S8.584,6.322,5.507,6.355-.041,4.987-.014,3.226,2.529.011,5.6-.022Z" transform="translate(11.132 16.686)" fill="#cccbcc"/>
    </g>
    <g transform="matrix(-1, 0, 0, -1, 856.88, 117.34)" filter="url(#Pagbuo_ng_bagong_Salita)">
      <text id="Pagbuo_ng_bagong_Salita-2" data-name="Pagbuo ng bagong Salita" transform="translate(434.99 71.53)" fill="#fff" stroke="#fff" stroke-width="2" font-size="45" font-family="SegoeUI-Bold, Segoe UI" font-weight="700"><tspan x="-266.221" y="0">Pagbuo ng bagong Salita</tspan></text>
    </g>
  </g>
</svg>
