<svg xmlns="http://www.w3.org/2000/svg" xmlns:xlink="http://www.w3.org/1999/xlink" width="864.331" height="188.536" viewBox="0 0 864.331 188.536">
  <defs>
    <filter id="Pambansang_Sagisag" x="200.554" y="37.79" width="495" height="109" filterUnits="userSpaceOnUse">
      <feOffset dy="3" input="SourceAlpha"/>
      <feGaussianBlur stdDeviation="7.5" result="blur"/>
      <feFlood flood-opacity="0.502"/>
      <feComposite operator="in" in2="blur"/>
      <feComposite in="SourceGraphic"/>
    </filter>
  </defs>
  <g id="Pambansang" transform="matrix(0.999, -0.052, 0.052, 0.999, 0, 44.903)">
    <path id="Path_655" data-name="Path 655" d="M845.857,99.109s-236.169-8.25-444.319-17.217S13.248,63.242,13.248,63.242L0,0Z" transform="translate(12.122 44.721)" fill="#6a5024"/>
    <path id="Path_654" data-name="Path 654" d="M64.37.888,44.122,12.581.062,4.018Z" transform="translate(791.531 85.736)" fill="#6a5024"/>
    <path id="base" d="M852.781,46s-211.8-18.56-425-30.06S0,0,0,0L12.454,52.512,58,59.166,12.9,60.909l12.941,48.038s268.227,4.748,376.011,8.764c193.51,7.209,427.573,25.055,456.128,26.119l-2.349-44.2-43.65-7.711,42.962-5.245Z" transform="translate(0 0)" fill="#95713f"/>
    <path id="Path_647" data-name="Path 647" d="M847.884,39.729,835.8,73.506l-85.54,9.362,86.816,14.644,1.741,32.77S672.4,119.232,510.987,110.842,193.15,96.718,193.15,96.718c-.652.736-.466-8.764-.466-8.764L167.427,95.76s-34.537-.336-68.707-.278-67.967.51-67.967.51L21.2,59.888l87.869-4.712L27.959,43.407s-5.925-10.3-12.911-21.017S.008.534.008.534,191.676.449,403.645,10.248,847.884,39.729,847.884,39.729Z" transform="translate(6.151 5.932)" fill="#b68546"/>
    <path id="Path_648" data-name="Path 648" d="M758.494,54.709s7.587-16.486-79.413-20.627c-24.8-1.18-81.445-8.435-81.445-8.435C526.78,19.675,457.46,14.591,457.46,14.591S490.3,19.458,521.131,24.6s59.653,10.548,59.653,10.548S493.8,22.96,412.863,18.763s-155.813-.4-155.813-.4,32.947-4.064,67.06-5.6,69.4-.548,69.4-.548S317.324,8.98,252.619,6.959,134.7,4.123,134.7,4.123C-2.292-7.506.271,17.342.271,17.342S3.12,32.075,65.656,34.63s60.687,14.412,60.687,14.412-3.591,10.217-59.488,8.135S9.032,65.6,9.032,65.6-.893,79.068,30.588,82.379,134.95,78.842,134.95,78.842s129.023-.65,236.022,3.168,111.333,5.161,191.974,12.1,81.081,13.822,130.59,15.667,67-3.129,67.445-8.288-61.735-16.477-61.735-16.477-25.4-3.646-25.432-11.974,24.245-10.348,24.245-10.348,29.867.746,44.978-1.249S758.494,54.709,758.494,54.709Z" transform="translate(56.048 12.299)" fill="#cb9751"/>
    <path id="Path_650" data-name="Path 650" d="M378.021,18.456s-90.028-.617-187.059-4.9S0,0,0,0L200.173,3.778Z" transform="translate(263.766 58.658)" fill="#f7c285"/>
    <path id="Path_649" data-name="Path 649" d="M392.352,20.736s-84.68-6.292-182.763-10.992S.03,1.936.03,1.936l209.2.949Z" transform="translate(256.62 56.646)" fill="#946a3b"/>
    <path id="Path_666" data-name="Path 666" d="M24.028.353c13.432.5,24.5,4.329,24.725,8.554s-10.484,7.246-23.916,6.747S.335,11.325.112,7.1,10.6-.146,24.028.353Z" transform="translate(83.159 24.05)" fill="#b68546"/>
    <path id="Path_651" data-name="Path 651" d="M814.549,34.65s-56.885.932-108.579-4.045-99.693-18.846-175.2-20.49c-23.257-.506-104.138-5.507-237.8-5.642S.151,9.724.151,9.724" transform="translate(31.178 77.594)" fill="none" stroke="#d6a95c" stroke-width="5"/>
    <path id="Path_652" data-name="Path 652" d="M821.932,38.5s-105.694,6.432-186.456-4.183c-40.364-8.011-63.286-13.767-222.252-17.056-58.658-1.214-129.537-6.779-196.732-9.67C160.96,5.2,138.916,19.431,99.3,18.145,57.6,16.792,0,0,0,0" transform="translate(21.409 28.842)" fill="none" stroke="#d6a95c" stroke-width="5"/>
    <g id="turnilyo" transform="translate(777.116 74.422)">
      <path id="Path_653" data-name="Path 653" d="M13.361,22.676c7.708-.511,14.249-3.764,14.93-9.3S24.155-.724,16.447-.213.462,9.091-.219,14.623C-.605,17.76,10.024,22.9,13.361,22.676Z" transform="translate(28.145 28.816) rotate(-166)" opacity="0.29"/>
      <path id="Path_667" data-name="Path 667" d="M14.61.209C22.858.515,29.749,4.63,30,9.4s-6.23,8.388-14.478,8.081S.384,13.06.132,8.29,6.362-.1,14.61.209Z" transform="translate(4.317 0.06)" fill="#9f988a"/>
      <path id="Path_668" data-name="Path 668" d="M12.105.173C18.94.427,24.649,3.836,24.858,7.788s-5.162,6.95-12,6.7S.319,10.821.109,6.869,5.271-.081,12.105.173Z" transform="translate(5.194 1.512)" fill="#bab4c4"/>
      <path id="Path_669" data-name="Path 669" d="M8.348.119c4.713.175,8.651,2.526,8.8,5.252s-3.56,4.793-8.273,4.618S.22,7.463.075,4.737,3.635-.056,8.348.119Z" transform="translate(8.654 4.017)" fill="#b4abb7"/>
      <path id="Path_670" data-name="Path 670" d="M5.427.077C8.49.191,11.05,1.72,11.143,3.491s-2.314,3.115-5.377,3S.143,4.851.049,3.079,2.363-.036,5.427.077Z" transform="translate(11.228 5.524)" fill="#cccbcc"/>
    </g>
    <g id="turnilyo-2" data-name="turnilyo" transform="translate(57.868 45.162)">
      <path id="Path_653-2" data-name="Path 653" d="M13.361,22.676c7.708-.511,14.249-3.764,14.93-9.3S24.155-.724,16.447-.213.462,9.091-.219,14.623C-.605,17.76,10.024,22.9,13.361,22.676Z" transform="translate(28.145 28.816) rotate(-166)" opacity="0.29"/>
      <path id="Path_671" data-name="Path 671" d="M14.61.209C22.858.515,29.749,4.63,30,9.4s-6.23,8.388-14.478,8.081S.384,13.06.132,8.29,6.362-.1,14.61.209Z" transform="translate(4.317 0.06)" fill="#9f988a"/>
      <path id="Path_672" data-name="Path 672" d="M12.105.173C18.94.427,24.649,3.836,24.858,7.788s-5.162,6.95-12,6.7S.319,10.821.109,6.869,5.271-.081,12.105.173Z" transform="translate(5.194 1.512)" fill="#bab4c4"/>
      <path id="Path_673" data-name="Path 673" d="M8.348.119c4.713.175,8.651,2.526,8.8,5.252s-3.56,4.793-8.273,4.618S.22,7.463.075,4.737,3.635-.056,8.348.119Z" transform="translate(8.654 4.017)" fill="#b4abb7"/>
      <path id="Path_674" data-name="Path 674" d="M5.427.077C8.49.191,11.05,1.72,11.143,3.491s-2.314,3.115-5.377,3S.143,4.851.049,3.079,2.363-.036,5.427.077Z" transform="translate(11.228 5.524)" fill="#cccbcc"/>
    </g>
    <g transform="matrix(1, 0.05, -0.05, 1, 2.35, -44.84)" filter="url(#Pambansang_Sagisag)">
      <text id="Pambansang_Sagisag-2" data-name="Pambansang Sagisag" transform="translate(448.05 108.29)" fill="#fff" stroke="#fff" stroke-width="2" font-size="45" font-family="SegoeUI-Bold, Segoe UI" font-weight="700"><tspan x="-222.166" y="0">Pambansang Sagisag</tspan></text>
    </g>
  </g>
</svg>
