<svg xmlns="http://www.w3.org/2000/svg" xmlns:xlink="http://www.w3.org/1999/xlink" width="856.655" height="115.494" viewBox="0 0 856.655 115.494">
  <defs>
    <filter id="Parte_ng_Katawan" x="232.928" y="0" width="423" height="109" filterUnits="userSpaceOnUse">
      <feOffset dy="3" input="SourceAlpha"/>
      <feGaussianBlur stdDeviation="7.5" result="blur"/>
      <feFlood flood-opacity="0.502"/>
      <feComposite operator="in" in2="blur"/>
      <feComposite in="SourceGraphic"/>
    </filter>
  </defs>
  <g id="Parte_ng_katawan-2" data-name="Parte ng katawan" transform="translate(857.139 116.223) rotate(180)">
    <path id="Path_655" data-name="Path 655" d="M845.047,5.64S607.854,2.592,398.917,1.595,9.291,1.651,9.291,1.651l-9,62.392Z" transform="translate(9.337 0.037)" fill="#6a5024"/>
    <path id="Path_654" data-name="Path 654" d="M64.984,12.793,43.8.174.03,6.6Z" transform="translate(791.227 49.795)" fill="#6a5024"/>
    <path id="base" d="M855.85,102.271s-211.955,8.389-425.8,9.675S.481,107.414.481,107.414l8.94-51.737,45.4-4.458L9.295,47.33,19.032.076s269.707,8.068,377.941,9.21c194.319,2.05,428.734-4.564,457.409-4.262l.664,43.936-43.415,5.6,43.61,7.277Z" transform="translate(0.003 0.654)" fill="#95713f"/>
    <path id="Path_647" data-name="Path 647" d="M851.317,95.163,836.84,60.926,750.083,47.513l86.4-10.45-.493-32.574S669.209,7.559,507.28,8.217,188.272,7.125,188.272,7.125c-.707-.765.131,8.712.131,8.712L162.442,6.852s-34.747-1.313-69.151-3S24.832.1,24.832.1L17.689,35.622l88.783,8.889L25.621,52.369S20.362,62.349,14.063,72.7.42,93.761.42,93.761s192.963,9.231,405.688,9.581S851.317,95.163,851.317,95.163Z" transform="translate(5.822 8.158)" fill="#b68546"/>
    <path id="Path_648" data-name="Path 648" d="M761.052,62.661s8.767,16.791-78.534,16.767c-24.885-.007-81.416,4.519-81.416,4.519-70.924,2.57-140.362,4.329-140.362,4.329s32.726-3.283,63.414-6.933,59.332-7.665,59.332-7.665S496.747,81.67,415.557,81.99s-156.834-7.032-156.834-7.032,33.448,5.623,67.9,8.783,69.9,3.858,69.9,3.858-76.473-.418-141.474-1.492-118.523-2.8-118.523-2.8C-.593,88.357.286,63.716.286,63.716S2.145,49.17,64.926,49.608s60.108-11.467,60.108-11.467S120.719,27.788,64.587,27.2,5.8,16.043,5.8,16.043-5.115,2.147,26.351.35,131.658,8.855,131.658,8.855s129.936,6.805,237.394,8.107,111.729.17,192.437-2.9,80.68-9.905,130.4-9.381S759.553,11,760.35,16.159s-61.022,13.474-61.022,13.474-25.322,2.422-24.782,10.719,25.117,11.47,25.117,11.47,30.017.682,45.366,3.392S761.052,62.661,761.052,62.661Z" transform="translate(54.866 17.501)" fill="#cb9751"/>
    <path id="Path_650" data-name="Path 650" d="M379.324,4.808S288.733,1.127,191.341.76.023,5.161.023,5.161l201.261,5.787Z" transform="translate(261.983 57.038)" fill="#f7c285"/>
    <path id="Path_649" data-name="Path 649" d="M393.681,1.563S308.862,3.792,210.442,3.8.007,1.576.007,1.576l210.538,9.038Z" transform="translate(254.841 60.36)" fill="#946a3b"/>
    <path id="Path_729" data-name="Path 729" d="M24.339.1C37.827.242,48.814,3.764,48.878,7.964s-10.818,7.488-24.306,7.344S.1,11.643.033,7.443,10.851-.045,24.339.1Z" transform="translate(82.148 73.557)" fill="#b68546"/>
    <path id="Path_651" data-name="Path 651" d="M818.172,14.024s-57.332-3.644-109.032-1.15S610.067,26.9,534.162,24.933c-23.379-.605-104.462.518-239.012-5.726S0,0,0,0" transform="translate(26.041 22.546)" fill="none" stroke="#d6a95c" stroke-width="5"/>
    <path id="Path_652" data-name="Path 652" d="M824.888,14.6S718.042,3.149,637.464,9.873c-40.087,6.057-62.769,10.7-222.579,6.392-58.97-1.589-129.944.574-197.393.249C161.748,16.244,138.581,1.013,98.783.4,56.9-.238.062,13.748.062,13.748" transform="translate(19.999 66.599)" fill="none" stroke="#d6a95c" stroke-width="5"/>
    <g id="turnilyo" transform="translate(777.165 42.909)">
      <path id="Path_653" data-name="Path 653" d="M13.064.408c7.578.857,14.189,4.473,15.21,10.17S25.129,24.847,17.552,23.99,1.309,13.766.288,8.069C-.291,4.839,9.783.036,13.064.408Z" transform="translate(33.902 22.731) rotate(166)" opacity="0.29"/>
      <path id="Path_730" data-name="Path 730" d="M14.9.06c8.283.088,15.056,4,15.129,8.745s-6.583,8.513-14.865,8.425S.111,13.226.038,8.485,6.621-.029,14.9.06Z" transform="translate(4.436 11.486)" fill="#9f988a"/>
      <path id="Path_731" data-name="Path 731" d="M12.349.05C19.212.123,24.824,3.367,24.884,7.3s-5.454,7.054-12.317,6.981S.092,10.958.032,7.03,5.486-.024,12.349.05Z" transform="translate(5.3 12.95)" fill="#bab4c4"/>
      <path id="Path_732" data-name="Path 732" d="M8.516.034c4.733.05,8.6,2.288,8.645,5S13.4,9.9,8.667,9.845s-8.6-2.288-8.645-5S3.783-.016,8.516.034Z" transform="translate(8.734 14.923)" fill="#b4abb7"/>
      <path id="Path_733" data-name="Path 733" d="M5.536.022c3.076.033,5.592,1.487,5.619,3.248S8.71,6.432,5.634,6.4.041,4.912.014,3.151,2.459-.011,5.536.022Z" transform="translate(11.316 16.893)" fill="#cccbcc"/>
    </g>
    <g id="turnilyo-2" data-name="turnilyo" transform="translate(55.08 37.744)">
      <path id="Path_653-2" data-name="Path 653" d="M13.064.408c7.578.857,14.189,4.473,15.21,10.17S25.129,24.847,17.552,23.99,1.309,13.766.288,8.069C-.291,4.839,9.783.036,13.064.408Z" transform="translate(33.902 22.731) rotate(166)" opacity="0.29"/>
      <path id="Path_734" data-name="Path 734" d="M14.9.06c8.283.088,15.056,4,15.129,8.745s-6.583,8.513-14.865,8.425S.111,13.226.038,8.485,6.621-.029,14.9.06Z" transform="translate(4.436 11.486)" fill="#9f988a"/>
      <path id="Path_735" data-name="Path 735" d="M12.349.05C19.212.123,24.824,3.367,24.884,7.3s-5.454,7.054-12.317,6.981S.092,10.958.032,7.03,5.486-.024,12.349.05Z" transform="translate(5.3 12.95)" fill="#bab4c4"/>
      <path id="Path_736" data-name="Path 736" d="M8.516.034c4.733.05,8.6,2.288,8.645,5S13.4,9.9,8.667,9.845s-8.6-2.288-8.645-5S3.783-.016,8.516.034Z" transform="translate(8.734 14.923)" fill="#b4abb7"/>
      <path id="Path_737" data-name="Path 737" d="M5.536.022c3.076.033,5.592,1.487,5.619,3.248S8.71,6.432,5.634,6.4.041,4.912.014,3.151,2.459-.011,5.536.022Z" transform="translate(11.316 16.893)" fill="#cccbcc"/>
    </g>
    <g transform="matrix(-1, 0, 0, -1, 857.14, 116.22)" filter="url(#Parte_ng_Katawan)">
      <text id="Parte_ng_Katawan-3" data-name="Parte ng Katawan" transform="translate(444.43 70.5)" fill="#fff" stroke="#fff" stroke-width="2" font-size="45" font-family="SegoeUI-Bold, Segoe UI" font-weight="700"><tspan x="-186.998" y="0">Parte ng Katawan</tspan></text>
    </g>
  </g>
</svg>
