<svg xmlns="http://www.w3.org/2000/svg" xmlns:xlink="http://www.w3.org/1999/xlink" width="858.348" height="126.966" viewBox="0 0 858.348 126.966">
  <defs>
    <filter id="Iba_t_Ibang_Prutas" x="214.939" y="1.697" width="427" height="109" filterUnits="userSpaceOnUse">
      <feOffset dy="3" input="SourceAlpha"/>
      <feGaussianBlur stdDeviation="7.5" result="blur"/>
      <feFlood flood-opacity="0.502"/>
      <feComposite operator="in" in2="blur"/>
      <feComposite in="SourceGraphic"/>
    </filter>
  </defs>
  <g id="Prutas" transform="matrix(1, -0.017, 0.017, 1, 0.039, 16.285)">
    <path id="Path_655" data-name="Path 655" d="M844.759,58.4S607.567,61.451,398.63,62.448,9,62.392,9,62.392L0,0Z" transform="translate(9.125 47.348)" fill="#6a5024"/>
    <path id="Path_654" data-name="Path 654" d="M64.928-.258,43.743,12.362-.027,5.931Z" transform="translate(790.783 49.098)" fill="#6a5024"/>
    <path id="base" d="M855.353,8.5S643.4.115,429.556-1.172-.015,3.36-.015,3.36L8.925,55.1l45.4,4.458L8.8,63.444,18.536,110.7s269.707-8.068,377.94-9.21c194.319-2.05,428.734,4.564,457.408,4.262l.664-43.935-43.415-5.6,43.61-7.277Z" transform="translate(0 0)" fill="#95713f"/>
    <path id="Path_647" data-name="Path 647" d="M850.861,6.59,836.383,40.827,749.626,54.24l86.4,10.45-.493,32.574s-166.778-3.07-328.706-3.728-319.008,1.093-319.008,1.093c-.707.765.131-8.712.131-8.712L161.986,94.9s-34.747,1.313-69.151,3-68.459,3.752-68.459,3.752L17.234,66.131l88.783-8.889L25.165,49.384S19.907,39.4,13.608,29.056-.036,7.992-.036,7.992,192.927-1.239,405.652-1.589,850.861,6.59,850.861,6.59Z" transform="translate(5.778 1.517)" fill="#b68546"/>
    <path id="Path_648" data-name="Path 648" d="M760.664,23.787S769.432,7,682.13,7.02C657.246,7.028,600.714,2.5,600.714,2.5,529.791-.069,460.353-1.827,460.353-1.827s32.726,3.283,63.414,6.933S583.1,12.771,583.1,12.771,496.359,4.779,415.169,4.458s-156.834,7.032-156.834,7.032,33.448-5.623,67.895-8.783,69.9-3.858,69.9-3.858S319.658-.731,254.657.342s-118.523,2.8-118.523,2.8C-.98-1.908-.1,22.732-.1,22.732s1.859,14.546,64.64,14.108,60.108,11.467,60.108,11.467S120.332,58.661,64.2,59.253,5.412,70.405,5.412,70.405-5.5,84.3,25.963,86.1,131.27,77.593,131.27,77.593s129.936-6.805,237.393-8.107,111.729-.17,192.437,2.9,80.68,9.905,130.4,9.381,67.669-6.316,68.466-11.478-61.022-13.474-61.022-13.474S673.619,54.394,674.158,46.1s25.118-11.47,25.118-11.47,30.017-.682,45.366-3.392S760.664,23.787,760.664,23.787Z" transform="translate(54.754 7.479)" fill="#cb9751"/>
    <path id="Path_650" data-name="Path 650" d="M379.278,5.342S288.687,9.023,191.3,9.39-.022,4.989-.022,4.989L201.239-.8Z" transform="translate(261.529 44.24)" fill="#f7c285"/>
    <path id="Path_649" data-name="Path 649" d="M393.637,8.215S308.818,5.986,210.4,5.983-.037,8.2-.037,8.2L210.5-.836Z" transform="translate(254.386 41.29)" fill="#946a3b"/>
    <path id="Path_720" data-name="Path 720" d="M24.5-.1C37.993-.239,48.875,3.049,48.81,7.249S37.759,14.97,24.271,15.114-.1,11.97-.035,7.77,11.016.048,24.5-.1Z" transform="translate(81.717 22.659)" fill="#b68546"/>
    <path id="Path_651" data-name="Path 651" d="M818.068,8.95s-57.332,3.644-109.032,1.15S609.964-3.924,534.059-1.959C510.68-1.353,429.6-2.477,295.047,3.767S-.1,22.974-.1,22.974" transform="translate(25.645 65.908)" fill="none" stroke="#d6a95c" stroke-width="5"/>
    <path id="Path_652" data-name="Path 652" d="M824.816,1.3S717.97,12.757,637.392,6.033C597.306-.024,574.624-4.666,414.813-.358,355.843,1.231,284.869-.933,217.42-.607c-55.743.269-78.91,15.5-118.708,16.109C56.825,16.144-.01,2.158-.01,2.158" transform="translate(19.571 28.923)" fill="none" stroke="#d6a95c" stroke-width="5"/>
    <g id="turnilyo" transform="translate(776.793 39.856)">
      <path id="Path_653" data-name="Path 653" d="M12.272,23.1c7.578-.857,14.189-4.473,15.21-10.17S24.337-1.335,16.759-.478.517,9.746-.5,15.443C-1.084,18.673,8.991,23.476,12.272,23.1Z" transform="translate(27.317 28.554) rotate(-166)" opacity="0.29"/>
      <path id="Path_721" data-name="Path 721" d="M15.09-.059c8.283-.088,14.938,3.684,14.865,8.425S23.11,17.022,14.827,17.11-.111,13.426-.039,8.685,6.808.029,15.09-.059Z" transform="translate(4.384 0.007)" fill="#9f988a"/>
      <path id="Path_722" data-name="Path 722" d="M12.5-.049C19.366-.122,24.881,3,24.82,6.931S19.148,14.1,12.285,14.177-.092,11.125-.032,7.2,5.641.024,12.5-.049Z" transform="translate(5.235 1.487)" fill="#bab4c4"/>
      <path id="Path_723" data-name="Path 723" d="M8.623-.034c4.733-.05,8.536,2.1,8.495,4.814s-3.912,4.946-8.645,5S-.064,7.672-.022,4.963,3.89.017,8.623-.034Z" transform="translate(8.649 3.929)" fill="#b4abb7"/>
      <path id="Path_724" data-name="Path 724" d="M5.6-.022c3.076-.033,5.548,1.368,5.521,3.129S8.584,6.322,5.507,6.355-.041,4.987-.014,3.226,2.529.011,5.6-.022Z" transform="translate(11.216 5.393)" fill="#cccbcc"/>
    </g>
    <g id="turnilyo-2" data-name="turnilyo" transform="translate(54.709 45.021)">
      <path id="Path_653-2" data-name="Path 653" d="M12.272,23.1c7.578-.857,14.189-4.473,15.21-10.17S24.337-1.335,16.759-.478.517,9.746-.5,15.443C-1.084,18.673,8.991,23.476,12.272,23.1Z" transform="translate(27.317 28.554) rotate(-166)" opacity="0.29"/>
      <path id="Path_725" data-name="Path 725" d="M15.09-.059c8.283-.088,14.938,3.684,14.865,8.425S23.11,17.022,14.827,17.11-.111,13.426-.039,8.685,6.808.029,15.09-.059Z" transform="translate(4.384 0.007)" fill="#9f988a"/>
      <path id="Path_726" data-name="Path 726" d="M12.5-.049C19.366-.122,24.881,3,24.82,6.931S19.148,14.1,12.285,14.177-.092,11.125-.032,7.2,5.641.024,12.5-.049Z" transform="translate(5.235 1.487)" fill="#bab4c4"/>
      <path id="Path_727" data-name="Path 727" d="M8.623-.034c4.733-.05,8.536,2.1,8.495,4.814s-3.912,4.946-8.645,5S-.064,7.672-.022,4.963,3.89.017,8.623-.034Z" transform="translate(8.649 3.929)" fill="#b4abb7"/>
      <path id="Path_728" data-name="Path 728" d="M5.6-.022c3.076-.033,5.548,1.368,5.521,3.129S8.584,6.322,5.507,6.355-.041,4.987-.014,3.226,2.529.011,5.6-.022Z" transform="translate(11.216 5.393)" fill="#cccbcc"/>
    </g>
    <g transform="matrix(1, 0.02, -0.02, 1, 0.25, -16.28)" filter="url(#Iba_t_Ibang_Prutas)">
      <text id="Iba_t_Ibang_Prutas-2" data-name="Iba&apos;t Ibang Prutas" transform="translate(428.44 72.2)" fill="#fff" stroke="#fff" stroke-width="2" font-size="45" font-family="SegoeUI-Bold, Segoe UI" font-weight="700"><tspan x="-188.459" y="0">Iba&apos;t Ibang Prutas</tspan></text>
    </g>
  </g>
</svg>
