<svg xmlns="http://www.w3.org/2000/svg" viewBox="0 0 1303 331"><defs><style>.cls-1{fill:#5485e5;}.cls-2{fill:#ee4d4d;}.cls-3{fill:#45c5b0;}.cls-4{fill:#7d8995;}.cls-5{fill:#7db545;}.cls-6{fill:#9065e5;}.cls-7{fill:#3f3f3f;}.cls-8{fill:#fff;}.cls-9{fill:#424242;}.cls-10{fill:#d64545;}.cls-11{fill:#9e3333;}.cls-12{fill:#f9f9f9;}.cls-13{fill:#ffa766;}.cls-14{fill:#af5b22;}.cls-15{fill:#3c3770;}.cls-16{fill:none;stroke:#fff;stroke-miterlimit:10;}.cls-17{fill:#2d2d2d;}.cls-18{fill:#ffd385;}.cls-19{fill:#75592c;}.cls-20{fill:#caffeb;}.cls-21{fill:#ffc44d;}.cls-22{fill:#f4f4f4;}.cls-23{fill:#45b0e5;}</style></defs><title>subject_footer</title><g id="Layer_1" data-name="Layer 1"><circle class="cls-1" cx="96.5" cy="121.5" r="96.5"/><circle class="cls-2" cx="315.5" cy="226.5" r="104.5"/><circle class="cls-3" cx="514" cy="82" r="82"/><circle class="cls-4" cx="738.5" cy="218.5" r="104.5"/><circle class="cls-5" cx="992.5" cy="114.5" r="104.5"/><circle class="cls-6" cx="1186" cy="242" r="89"/><rect class="cls-7" x="53" y="67" width="84" height="110.25" rx="9.57"/><rect class="cls-8" x="56" y="67" width="84" height="110.25" rx="9.57"/><rect class="cls-9" x="83" y="81" width="50" height="6"/><rect class="cls-9" x="83" y="95" width="50" height="6"/><rect class="cls-9" x="83" y="107" width="50" height="6"/><rect class="cls-9" x="83" y="119" width="50" height="6"/><rect class="cls-9" x="83" y="131" width="50" height="6"/><rect class="cls-9" x="83" y="143" width="50" height="6"/><rect class="cls-9" x="83" y="155" width="50" height="6"/><rect class="cls-9" x="64" y="81" width="9" height="6"/><rect class="cls-9" x="64" y="96" width="9" height="6"/><rect class="cls-9" x="64" y="107" width="9" height="6"/><rect class="cls-9" x="64" y="119" width="9" height="6"/><rect class="cls-9" x="64" y="131" width="9" height="6"/><rect class="cls-9" x="64" y="143" width="9" height="6"/><rect class="cls-9" x="64" y="155" width="9" height="6"/><rect class="cls-1" x="95" y="307" width="9" height="2" transform="translate(-78.93 372.15) rotate(-135)"/><rect class="cls-1" x="95" y="307" width="9" height="2" transform="translate(-219.65 -63.43) rotate(-45)"/><rect class="cls-1" x="95" y="322" width="9" height="2" transform="translate(-89.54 397.75) rotate(-135)"/><rect class="cls-1" x="95" y="322" width="9" height="2" transform="translate(-230.25 -59.04) rotate(-45)"/><rect class="cls-8" x="259" y="174" width="113" height="69" rx="12.56"/><polygon class="cls-10" points="306 200 306 218 329 209 306 200"/><rect class="cls-11" x="269" y="261" width="99" height="8" rx="4"/><circle class="cls-12" cx="290" cy="265" r="10"/><rect class="cls-13" x="474" y="54" width="80" height="72" rx="12"/><rect class="cls-14" x="467" y="32" width="95" height="37" rx="12"/><path class="cls-15" d="M525.5,314h0a4.51,4.51,0,0,1-4.5-4.5v-51c0-2.48,1.52-3.5,4-3.5h1c2.48,0,4,1,4,3.5v51A4.51,4.51,0,0,1,525.5,314Z" transform="translate(-31 -224)"/><path class="cls-15" d="M566.5,314h0a4.51,4.51,0,0,1-4.5-4.5v-51c0-2.48,1.52-3.5,4-3.5h1c2.48,0,4,1,4,3.5v51A4.51,4.51,0,0,1,566.5,314Z" transform="translate(-31 -224)"/><rect class="cls-16" x="487.5" y="76.5" width="13" height="8" rx="4"/><rect class="cls-16" x="529.5" y="76.5" width="13" height="8" rx="4"/><rect class="cls-8" x="535" y="82" width="1" height="6" rx="0.5"/><rect class="cls-15" x="473" y="106" width="82" height="6" rx="3"/><rect class="cls-8" x="682.02" y="191.14" width="112.96" height="76.86" rx="8.79"/><rect class="cls-3" x="671" y="178.87" width="135" height="24" rx="12"/><rect class="cls-17" x="682" y="210" width="113" height="3"/><rect class="cls-17" x="682" y="219" width="113" height="3"/><rect class="cls-17" x="682" y="228" width="113" height="3"/><rect class="cls-17" x="682" y="237" width="113" height="3"/><rect class="cls-17" x="682" y="246" width="113" height="3"/><rect class="cls-17" x="682" y="255" width="113" height="3"/><rect class="cls-18" x="957" y="320" width="133" height="40" rx="12.54" transform="translate(93.57 711.88) rotate(-51.92)"/><rect class="cls-19" x="1029.88" y="300.44" width="16.66" height="3.99" transform="translate(376.58 -800.01) rotate(38.08)"/><rect class="cls-19" x="1020.18" y="311.58" width="13.06" height="3.71" transform="translate(380.92 -790.57) rotate(38.08)"/><rect class="cls-19" x="1011.18" y="323.58" width="13.06" height="3.71" transform="translate(386.4 -782.47) rotate(38.08)"/><rect class="cls-19" x="1029.57" y="346.1" width="11.4" height="3.95" transform="translate(404.11 -788.48) rotate(38.08)"/><rect class="cls-19" x="1000.88" y="336.44" width="16.66" height="3.99" transform="translate(392.61 -774.46) rotate(38.08)"/><rect class="cls-19" x="994.59" y="344.41" width="10.26" height="4.05" transform="translate(395.53 -766.89) rotate(38.08)"/><rect class="cls-19" x="986.88" y="353.54" width="6.66" height="3.78" transform="translate(399.05 -759.12) rotate(38.08)"/><rect class="cls-19" x="1008.88" y="379.54" width="6.66" height="3.78" transform="translate(419.78 -767.15) rotate(38.08)"/><rect class="cls-19" x="1016.88" y="369.54" width="6.66" height="3.78" transform="translate(415.31 -774.21) rotate(38.08)"/><rect class="cls-19" x="977.88" y="366.44" width="16.66" height="3.99" transform="translate(406.22 -753.88) rotate(38.08)"/><path class="cls-20" d="M1217.5,471h0a9.52,9.52,0,0,1-9.5-9.5v-36c0-5.23,4.77-4.5,10-4.5h0c5.23,0,9-.73,9,4.5v36A9.52,9.52,0,0,1,1217.5,471Z" transform="translate(-31 -224)"/><path class="cls-20" d="M1248,485a30,30,0,0,1-60,0c0-16.57,30-30,30-30S1248,468.43,1248,485Z" transform="translate(-31 -224)"/><path class="cls-21" d="M1243,491c0,9.39-13.4,21-25,21s-26-12.61-26-22,13.4-7,25-7S1243,481.61,1243,491Z" transform="translate(-31 -224)"/><circle class="cls-22" cx="1200" cy="265" r="2"/><circle class="cls-22" cx="1208" cy="255" r="2"/><circle class="cls-22" cx="1217" cy="251" r="2"/><circle class="cls-22" cx="1213" cy="244" r="2"/><circle class="cls-22" cx="1221" cy="241" r="2"/><circle class="cls-22" cx="1216" cy="235" r="2"/><circle class="cls-22" cx="1203.5" cy="270.5" r="1.5"/><circle class="cls-22" cx="1197" cy="275" r="2"/><circle class="cls-22" cx="1197" cy="282" r="2"/><circle class="cls-22" cx="1207.5" cy="265.5" r="1.5"/><circle class="cls-8" cx="286" cy="43" r="33"/><circle class="cls-23" cx="531" cy="230" r="33"/><circle class="cls-4" cx="795" cy="54" r="33"/><circle class="cls-8" cx="1014" cy="272" r="33"/><circle class="cls-3" cx="1270" cy="126" r="33"/></g></svg>