<svg id="svg" version="1.1" xmlns="http://www.w3.org/2000/svg" xmlns:xlink="http://www.w3.org/1999/xlink" width="400" height="400" viewBox="0, 0, 400,400"><g id="svgg"><path id="path0" d="M166.049 164.400 C 165.992 204.330,165.913 263.460,165.873 295.800 L 165.800 354.600 166.911 356.709 C 169.603 361.817,176.617 366.377,184.953 368.439 C 186.258 368.761,186.971 369.167,187.100 369.661 C 187.206 370.067,187.317 370.400,187.347 370.401 C 187.376 370.401,188.930 370.671,190.800 371.000 C 196.602 372.022,208.887 371.449,211.487 370.036 C 211.879 369.822,213.507 369.347,215.104 368.980 C 216.701 368.613,218.098 368.166,218.208 367.987 C 218.319 367.808,219.352 367.351,220.505 366.973 C 221.657 366.594,222.744 366.041,222.920 365.742 C 223.096 365.444,223.427 365.200,223.657 365.200 C 224.867 365.200,230.131 360.328,230.998 358.404 C 231.396 357.522,231.874 356.800,232.061 356.800 C 232.247 356.800,232.400 356.530,232.400 356.200 C 232.400 355.870,232.259 355.600,232.087 355.600 C 231.914 355.600,231.769 346.015,231.763 334.300 C 231.758 322.585,231.712 309.979,231.661 306.288 C 231.610 302.596,231.682 299.390,231.822 299.164 C 231.962 298.938,231.865 293.589,231.608 287.277 C 231.272 279.047,231.247 270.878,231.521 258.400 C 231.753 247.866,231.767 231.530,231.558 217.000 C 231.368 203.800,231.138 170.500,231.047 143.000 C 230.955 115.500,230.863 92.957,230.840 92.905 C 230.818 92.853,229.855 93.414,228.700 94.152 C 226.061 95.838,223.208 97.071,220.167 97.839 C 218.865 98.167,217.170 98.594,216.400 98.788 C 201.933 102.423,173.749 99.109,167.429 93.029 L 166.151 91.800 166.049 164.400 " stroke="none" fill="#32d1db" fill-rule="evenodd"></path><path id="path1" d="M19.400 32.078 C 17.533 32.737,16.438 33.975,15.788 36.165 C 15.266 37.922,15.159 53.993,14.941 163.388 C 14.803 232.255,14.541 288.792,14.357 289.027 C 14.165 289.272,14.316 289.964,14.711 290.648 C 15.920 292.743,17.391 294.790,17.690 294.795 C 17.849 294.798,19.159 295.340,20.600 296.000 C 22.041 296.660,23.317 297.200,23.436 297.200 C 23.554 297.200,24.635 297.650,25.837 298.200 C 27.040 298.750,28.120 299.200,28.237 299.200 C 28.355 299.200,29.385 299.623,30.526 300.140 C 31.667 300.656,33.095 301.200,33.700 301.347 C 34.305 301.495,34.800 301.792,34.800 302.008 C 34.800 302.223,35.047 302.400,35.350 302.400 C 35.904 302.400,41.345 304.517,44.596 305.998 C 45.564 306.439,46.484 306.800,46.639 306.800 C 46.795 306.800,48.020 307.317,49.361 307.949 C 50.703 308.581,52.385 309.225,53.100 309.381 C 53.815 309.536,54.400 309.800,54.400 309.968 C 54.400 310.135,55.165 310.512,56.100 310.806 C 57.035 311.099,58.250 311.570,58.800 311.852 C 59.991 312.462,64.279 314.198,66.800 315.091 C 67.790 315.441,68.690 315.853,68.800 316.006 C 68.910 316.159,69.720 316.510,70.600 316.787 C 71.480 317.063,72.560 317.511,73.000 317.783 C 73.440 318.055,74.790 318.601,76.000 318.998 C 77.210 319.394,78.290 319.845,78.400 320.000 C 78.510 320.155,79.590 320.606,80.800 321.002 C 82.010 321.399,83.360 321.945,83.800 322.217 C 84.240 322.489,85.320 322.934,86.200 323.208 C 87.080 323.481,87.980 323.836,88.200 323.996 C 88.420 324.156,89.500 324.619,90.600 325.023 C 91.700 325.428,92.690 325.860,92.800 325.983 C 92.910 326.106,93.990 326.549,95.200 326.969 C 96.410 327.388,98.027 328.061,98.794 328.465 C 99.561 328.869,100.337 329.200,100.520 329.200 C 100.702 329.200,101.835 329.650,103.037 330.200 C 104.240 330.750,105.320 331.200,105.437 331.200 C 105.555 331.200,106.635 331.650,107.837 332.200 C 109.040 332.750,110.120 333.200,110.237 333.200 C 110.355 333.200,111.435 333.650,112.637 334.200 C 113.840 334.750,115.048 335.200,115.323 335.200 C 115.597 335.200,116.177 335.436,116.611 335.725 C 117.045 336.014,119.380 337.031,121.800 337.985 C 124.220 338.939,126.380 339.849,126.600 340.008 C 126.820 340.166,127.713 340.526,128.584 340.807 C 129.456 341.088,130.986 341.722,131.984 342.216 C 132.983 342.711,134.385 343.238,135.100 343.389 C 135.815 343.540,136.400 343.810,136.400 343.988 C 136.400 344.167,136.895 344.433,137.500 344.580 C 138.105 344.727,139.320 345.181,140.200 345.588 C 142.597 346.699,146.757 348.382,148.900 349.109 C 149.945 349.463,150.803 349.943,150.806 350.176 C 150.809 350.409,150.975 350.342,151.175 350.027 C 151.644 349.286,153.422 349.788,159.200 352.291 C 161.510 353.291,163.850 354.240,164.400 354.398 L 165.400 354.687 165.428 333.643 C 165.443 322.070,165.482 310.980,165.515 309.000 C 165.548 307.020,165.540 302.070,165.497 298.000 C 165.454 293.930,165.423 283.580,165.429 275.000 C 165.435 266.420,165.431 252.650,165.420 244.400 C 165.409 236.150,165.526 206.900,165.679 179.400 C 165.833 151.900,165.968 120.861,165.979 110.425 L 166.000 91.450 167.285 92.625 L 168.571 93.800 167.185 92.134 C 166.423 91.217,165.649 90.452,165.465 90.434 C 165.281 90.415,163.031 89.515,160.465 88.434 C 157.899 87.353,154.000 85.743,151.800 84.856 C 147.223 83.011,141.661 80.737,135.600 78.231 C 133.290 77.275,129.060 75.544,126.200 74.382 C 123.340 73.221,118.930 71.415,116.400 70.369 C 113.870 69.324,110.000 67.743,107.800 66.856 C 103.223 65.011,97.661 62.737,91.600 60.231 C 89.290 59.275,85.060 57.544,82.200 56.382 C 79.340 55.221,74.930 53.415,72.400 52.369 C 69.870 51.324,66.000 49.743,63.800 48.856 C 59.223 47.011,53.661 44.737,47.600 42.231 C 45.290 41.275,41.060 39.544,38.200 38.382 C 35.340 37.220,30.750 35.331,28.000 34.184 C 22.249 31.785,21.057 31.493,19.400 32.078 M373.000 33.254 C 371.460 33.913,369.300 34.788,368.200 35.197 C 367.100 35.607,363.770 36.958,360.800 38.201 C 357.830 39.443,354.320 40.873,353.000 41.379 C 351.680 41.886,347.270 43.690,343.200 45.390 C 339.130 47.089,334.844 48.827,333.675 49.252 C 332.506 49.677,331.246 50.191,330.875 50.394 C 329.864 50.948,326.461 52.383,324.200 53.210 C 323.100 53.613,319.770 54.958,316.800 56.201 C 313.830 57.443,310.320 58.873,309.000 59.379 C 307.680 59.886,303.270 61.690,299.200 63.390 C 295.130 65.089,290.844 66.827,289.675 67.252 C 288.506 67.677,287.246 68.190,286.875 68.392 C 286.039 68.847,280.809 71.024,274.400 73.585 C 265.408 77.179,254.934 81.468,253.400 82.186 C 252.740 82.495,250.490 83.400,248.400 84.198 C 246.310 84.996,244.060 85.894,243.400 86.194 C 241.280 87.157,237.477 88.726,234.600 89.826 C 233.060 90.414,231.530 91.170,231.200 91.504 C 230.870 91.839,230.802 92.001,231.049 91.864 C 231.378 91.682,231.508 99.130,231.537 119.908 C 231.558 135.469,231.666 185.010,231.776 230.000 C 231.885 274.990,231.981 321.658,231.988 333.708 L 232.000 355.615 233.100 355.352 C 233.705 355.208,234.397 354.936,234.637 354.748 C 234.877 354.561,235.192 354.525,235.337 354.670 C 235.482 354.815,235.600 354.723,235.600 354.467 C 235.600 354.210,235.864 354.000,236.186 354.000 C 236.509 354.000,237.454 353.704,238.286 353.342 C 239.119 352.980,240.340 352.450,241.000 352.163 C 243.440 351.103,251.839 347.642,253.000 347.217 C 253.660 346.976,254.740 346.531,255.400 346.228 C 257.818 345.119,259.007 344.662,259.300 344.730 C 259.465 344.769,259.600 344.643,259.600 344.452 C 259.600 344.261,260.455 343.869,261.500 343.582 C 262.545 343.295,264.030 342.741,264.800 342.352 C 266.263 341.612,271.970 339.242,275.400 337.950 C 276.500 337.535,278.120 336.851,279.000 336.430 C 282.146 334.925,283.372 334.459,283.684 334.652 C 283.858 334.759,284.000 334.676,284.000 334.467 C 284.000 334.258,284.495 333.966,285.100 333.817 C 285.705 333.669,287.325 333.020,288.701 332.374 C 290.077 331.728,291.432 331.200,291.712 331.200 C 291.993 331.200,292.577 330.963,293.011 330.673 C 293.445 330.383,294.700 329.824,295.800 329.430 C 297.884 328.684,300.900 327.410,302.095 326.771 C 302.477 326.567,302.949 326.400,303.144 326.400 C 303.339 326.400,304.376 326.003,305.449 325.518 C 306.522 325.033,307.535 324.673,307.700 324.718 C 307.865 324.763,308.000 324.627,308.000 324.415 C 308.000 324.204,308.765 323.829,309.700 323.583 C 310.635 323.337,312.300 322.712,313.400 322.195 C 315.817 321.057,316.901 320.652,317.300 320.736 C 317.465 320.771,317.600 320.620,317.600 320.400 C 317.600 320.180,317.864 320.000,318.186 320.000 C 318.509 320.000,319.454 319.704,320.286 319.342 C 321.119 318.980,322.340 318.450,323.000 318.163 C 325.440 317.103,333.839 313.642,335.000 313.217 C 335.660 312.976,336.740 312.528,337.400 312.222 C 340.361 310.847,341.389 310.470,341.684 310.652 C 341.858 310.759,342.000 310.657,342.000 310.424 C 342.000 310.191,342.135 310.031,342.300 310.070 C 342.465 310.108,343.050 309.947,343.600 309.712 C 344.150 309.477,346.310 308.556,348.400 307.665 C 350.490 306.774,353.490 305.495,355.067 304.823 C 356.644 304.150,358.057 303.600,358.207 303.600 C 358.516 303.600,360.640 302.710,363.000 301.592 C 363.880 301.175,364.866 300.781,365.190 300.717 C 365.515 300.653,366.023 300.375,366.319 300.100 C 366.615 299.825,367.145 299.600,367.497 299.600 C 368.050 299.600,370.623 298.566,375.000 296.584 C 375.660 296.285,376.830 295.779,377.600 295.460 C 379.846 294.529,384.301 289.528,383.102 289.283 C 382.607 289.182,382.490 272.091,382.244 163.323 L 381.959 37.479 381.079 35.643 C 379.335 32.000,377.322 31.405,373.000 33.254 M368.966 90.300 C 368.816 109.605,368.535 125.602,368.341 125.848 C 368.147 126.094,367.136 126.604,366.094 126.981 C 365.052 127.358,363.660 127.916,363.000 128.220 C 362.340 128.525,360.090 129.426,358.000 130.222 C 355.910 131.019,353.840 131.824,353.400 132.012 C 351.597 132.783,347.273 134.498,345.400 135.185 C 344.300 135.589,342.050 136.494,340.400 137.196 C 338.750 137.898,336.376 138.808,335.125 139.217 C 333.873 139.627,332.523 140.147,332.125 140.373 C 331.726 140.599,329.690 141.420,327.600 142.197 C 325.510 142.974,323.260 143.867,322.600 144.181 C 321.438 144.735,320.532 145.091,312.400 148.195 C 310.310 148.993,308.060 149.889,307.400 150.187 C 306.740 150.485,304.490 151.385,302.400 152.187 C 300.310 152.989,298.033 153.905,297.340 154.223 C 296.646 154.540,295.951 154.800,295.795 154.800 C 295.474 154.800,288.833 157.386,287.000 158.225 C 286.340 158.527,284.090 159.429,282.000 160.229 C 279.910 161.029,277.660 161.921,277.000 162.211 C 276.340 162.501,275.080 163.005,274.200 163.330 C 272.484 163.964,267.462 165.951,264.200 167.287 C 263.100 167.738,261.048 168.517,259.639 169.018 C 258.230 169.520,256.700 170.116,256.239 170.344 C 254.799 171.054,250.158 172.800,249.710 172.800 C 249.411 172.800,249.231 162.281,249.112 137.900 L 248.941 103.000 249.937 102.132 C 250.903 101.290,253.058 100.340,257.600 98.753 C 258.810 98.330,260.563 97.628,261.496 97.192 C 262.428 96.756,263.423 96.400,263.707 96.400 C 263.990 96.400,264.577 96.156,265.011 95.858 C 265.445 95.559,266.790 94.996,268.000 94.605 C 269.210 94.214,270.380 93.758,270.600 93.591 C 270.820 93.424,271.810 93.006,272.800 92.662 C 274.919 91.925,279.396 90.190,283.600 88.475 C 285.250 87.802,288.310 86.603,290.400 85.809 C 292.490 85.015,295.213 83.924,296.450 83.383 C 297.688 82.842,298.830 82.400,298.990 82.400 C 299.149 82.400,299.846 82.139,300.540 81.820 C 302.012 81.142,307.222 79.101,313.000 76.938 C 313.880 76.608,315.140 76.091,315.800 75.789 C 317.066 75.209,320.320 73.917,323.000 72.928 C 323.880 72.604,325.140 72.095,325.800 71.796 C 326.460 71.498,327.896 70.960,328.990 70.601 C 330.085 70.242,331.165 69.817,331.390 69.657 C 331.616 69.496,332.790 69.031,334.000 68.623 C 335.210 68.215,336.380 67.748,336.600 67.584 C 336.820 67.421,337.810 67.006,338.800 66.662 C 339.790 66.318,341.950 65.505,343.600 64.857 C 345.250 64.208,347.590 63.294,348.800 62.826 C 350.010 62.358,351.360 61.808,351.800 61.603 C 352.240 61.399,354.310 60.587,356.400 59.799 C 358.490 59.011,361.190 57.936,362.400 57.411 C 363.610 56.886,365.097 56.333,365.704 56.184 C 366.311 56.034,366.906 55.751,367.027 55.556 C 367.148 55.360,367.695 55.200,368.243 55.200 L 369.238 55.200 368.966 90.300 M176.000 97.182 C 176.330 97.405,176.945 97.591,177.367 97.594 C 178.390 97.602,178.071 97.373,176.600 97.044 C 175.724 96.848,175.562 96.885,176.000 97.182 M186.600 99.202 C 188.217 99.558,191.074 99.727,190.767 99.449 C 190.675 99.366,189.340 99.198,187.800 99.074 C 185.648 98.902,185.370 98.931,186.600 99.202 M208.400 99.200 C 206.751 99.456,206.717 99.483,208.000 99.517 C 208.770 99.537,210.120 99.405,211.000 99.223 C 213.066 98.796,211.112 98.778,208.400 99.200 M193.907 99.890 C 194.626 99.979,195.706 99.977,196.307 99.886 C 196.908 99.795,196.320 99.722,195.000 99.724 C 193.680 99.726,193.188 99.801,193.907 99.890 M201.507 99.890 C 202.226 99.979,203.306 99.977,203.907 99.886 C 204.508 99.795,203.920 99.722,202.600 99.724 C 201.280 99.726,200.788 99.801,201.507 99.890 M368.800 138.813 C 368.800 144.178,368.725 144.852,368.100 145.072 C 367.715 145.207,366.680 145.634,365.800 146.020 C 364.920 146.406,362.490 147.380,360.400 148.184 C 358.310 148.988,355.880 149.973,355.000 150.371 C 354.120 150.770,352.950 151.221,352.400 151.374 C 351.455 151.637,348.126 152.986,345.340 154.235 C 344.646 154.546,343.951 154.800,343.795 154.800 C 343.474 154.800,336.833 157.386,335.000 158.225 C 334.340 158.527,332.090 159.427,330.000 160.225 C 327.910 161.023,325.660 161.923,325.000 162.225 C 324.340 162.527,322.090 163.427,320.000 164.225 C 317.910 165.023,315.660 165.923,315.000 166.225 C 314.340 166.527,312.090 167.427,310.000 168.225 C 307.910 169.023,305.660 169.923,305.000 170.225 C 304.340 170.527,302.090 171.427,300.000 172.225 C 297.910 173.023,295.660 173.923,295.000 174.225 C 294.340 174.527,292.090 175.427,290.000 176.225 C 287.910 177.023,285.660 177.923,285.000 178.225 C 284.340 178.527,282.090 179.427,280.000 180.225 C 277.910 181.023,275.660 181.923,275.000 182.225 C 274.340 182.527,272.090 183.427,270.000 184.225 C 267.910 185.023,265.660 185.923,265.000 186.225 C 264.340 186.527,262.090 187.422,260.000 188.215 C 257.910 189.008,255.879 189.829,255.488 190.039 C 253.508 191.103,249.536 192.292,249.403 191.860 C 249.325 191.607,249.179 189.012,249.077 186.094 L 248.893 180.788 249.946 180.042 C 250.526 179.631,251.810 179.019,252.800 178.681 C 253.790 178.344,255.140 177.783,255.800 177.436 C 256.460 177.089,257.146 176.804,257.324 176.802 C 257.676 176.800,268.169 172.747,270.336 171.777 C 271.071 171.448,273.321 170.549,275.336 169.780 C 277.351 169.011,279.601 168.111,280.336 167.780 C 281.071 167.449,283.321 166.550,285.336 165.782 C 287.351 165.014,289.770 164.029,290.711 163.593 C 291.652 163.157,292.599 162.800,292.815 162.800 C 293.032 162.800,293.972 162.449,294.904 162.020 C 295.837 161.591,297.590 160.854,298.800 160.382 C 304.316 158.231,305.072 157.929,306.200 157.428 C 306.860 157.134,308.120 156.670,309.000 156.395 C 309.880 156.120,310.799 155.738,311.043 155.546 C 311.287 155.354,312.457 154.857,313.643 154.442 C 316.185 153.553,319.869 152.130,321.000 151.600 C 321.440 151.394,322.745 150.860,323.900 150.413 C 325.055 149.966,326.945 149.234,328.100 148.787 C 329.255 148.340,330.560 147.806,331.000 147.600 C 331.440 147.394,332.700 146.877,333.800 146.451 C 334.900 146.025,336.790 145.293,338.000 144.825 C 339.210 144.358,340.560 143.806,341.000 143.600 C 341.440 143.394,342.745 142.860,343.900 142.413 C 345.055 141.966,346.945 141.234,348.100 140.787 C 349.255 140.340,350.560 139.806,351.000 139.600 C 351.898 139.179,356.287 137.471,363.336 134.800 C 364.622 134.313,366.152 133.665,366.736 133.360 C 368.779 132.294,368.800 132.350,368.800 138.813 " stroke="none" fill="#188679" fill-rule="evenodd"></path><path id="path2" d="M28.624 13.600 C 28.471 15.360,28.250 16.800,28.133 16.800 C 28.016 16.800,27.302 16.506,26.546 16.148 C 24.797 15.318,24.883 15.159,24.730 19.518 L 24.600 23.229 28.400 24.734 C 30.490 25.563,34.450 27.109,37.200 28.171 C 39.950 29.234,44.129 30.890,46.488 31.851 C 48.846 32.813,50.922 33.600,51.102 33.600 C 51.400 33.600,57.514 35.965,59.400 36.810 C 59.840 37.007,61.910 37.814,64.000 38.604 C 68.196 40.189,73.321 42.166,81.800 45.470 C 84.880 46.670,88.840 48.208,90.600 48.887 C 92.360 49.566,94.555 50.454,95.478 50.861 C 96.401 51.267,97.327 51.600,97.536 51.600 C 97.745 51.600,99.150 52.111,100.658 52.736 C 102.166 53.362,105.650 54.740,108.400 55.800 C 118.629 59.742,124.667 62.085,127.000 63.016 C 128.320 63.542,131.830 64.892,134.800 66.015 C 137.770 67.139,142.270 68.872,144.800 69.867 C 147.330 70.862,151.020 72.300,153.000 73.062 C 154.980 73.824,156.960 74.617,157.400 74.824 C 157.840 75.030,159.190 75.546,160.400 75.969 C 161.610 76.392,164.940 77.663,167.800 78.793 C 179.349 83.356,183.626 84.907,183.903 84.631 C 184.866 83.667,178.531 77.553,174.388 75.449 C 172.748 74.616,171.315 73.799,171.203 73.634 C 170.960 73.275,167.207 71.513,165.100 70.769 C 164.275 70.478,163.600 70.105,163.600 69.940 C 163.600 69.776,162.610 69.329,161.400 68.947 C 160.190 68.566,159.200 68.114,159.200 67.942 C 159.200 67.771,158.298 67.363,157.196 67.036 C 156.094 66.709,154.699 66.175,154.096 65.850 C 152.312 64.889,147.877 62.900,146.819 62.586 C 146.279 62.425,145.614 62.071,145.341 61.798 C 145.068 61.525,144.024 61.059,143.022 60.763 C 142.020 60.467,141.200 60.099,141.200 59.944 C 141.200 59.789,140.525 59.450,139.700 59.190 C 138.293 58.747,135.648 57.577,131.021 55.352 C 129.933 54.828,128.718 54.400,128.321 54.400 C 127.925 54.400,127.600 54.232,127.600 54.027 C 127.600 53.822,127.195 53.527,126.700 53.372 C 126.205 53.217,124.450 52.472,122.800 51.716 C 121.150 50.961,119.260 50.107,118.600 49.820 C 114.068 47.845,110.306 46.178,108.525 45.357 C 107.383 44.831,106.258 44.400,106.025 44.400 C 105.791 44.400,105.600 44.257,105.600 44.083 C 105.600 43.908,104.610 43.429,103.400 43.018 C 102.190 42.607,101.200 42.139,101.200 41.978 C 101.200 41.818,100.705 41.569,100.100 41.424 C 99.495 41.280,98.100 40.735,97.000 40.212 C 93.648 38.621,90.677 37.326,89.100 36.769 C 88.275 36.478,87.600 36.105,87.600 35.940 C 87.600 35.776,86.610 35.329,85.400 34.947 C 84.190 34.566,83.200 34.114,83.200 33.942 C 83.200 33.771,82.298 33.363,81.196 33.036 C 80.094 32.709,78.699 32.175,78.096 31.850 C 76.312 30.889,71.877 28.900,70.819 28.586 C 70.279 28.425,69.614 28.071,69.341 27.798 C 69.068 27.525,68.024 27.059,67.022 26.763 C 66.020 26.467,65.200 26.099,65.200 25.944 C 65.200 25.789,64.525 25.450,63.700 25.190 C 62.293 24.747,59.648 23.577,55.021 21.352 C 53.933 20.828,52.718 20.400,52.321 20.400 C 51.925 20.400,51.600 20.232,51.600 20.027 C 51.600 19.822,51.195 19.527,50.700 19.372 C 50.205 19.217,48.450 18.472,46.800 17.716 C 45.150 16.961,43.260 16.107,42.600 15.820 C 38.068 13.845,34.306 12.178,32.525 11.357 C 29.118 9.786,28.948 9.883,28.624 13.600 M364.981 11.380 C 363.891 11.919,361.650 12.934,360.000 13.635 C 358.350 14.336,356.010 15.351,354.800 15.890 C 349.705 18.161,345.617 20.009,342.600 21.406 C 339.977 22.621,337.647 23.569,337.337 23.548 C 337.201 23.539,336.979 23.701,336.845 23.907 C 336.710 24.113,335.655 24.593,334.500 24.973 C 333.345 25.353,332.400 25.830,332.400 26.032 C 332.400 26.234,332.065 26.400,331.656 26.400 C 331.247 26.400,329.852 26.921,328.556 27.558 C 324.128 29.735,320.121 31.474,319.445 31.512 C 319.249 31.523,318.979 31.701,318.845 31.907 C 318.710 32.113,317.655 32.593,316.500 32.973 C 315.345 33.353,314.400 33.810,314.400 33.989 C 314.400 34.167,313.905 34.435,313.300 34.584 C 312.695 34.732,310.850 35.489,309.200 36.265 C 302.410 39.458,298.569 41.142,297.411 41.433 C 296.855 41.573,296.400 41.811,296.400 41.963 C 296.400 42.115,295.725 42.473,294.900 42.759 C 294.075 43.045,291.960 43.970,290.200 44.814 C 288.440 45.658,285.650 46.924,284.000 47.629 C 280.622 49.071,277.467 50.469,270.897 53.436 C 267.495 54.972,264.773 56.218,262.000 57.508 C 260.570 58.174,258.725 58.930,257.900 59.190 C 257.075 59.450,256.400 59.828,256.400 60.031 C 256.400 60.234,256.065 60.400,255.656 60.400 C 255.247 60.400,253.852 60.921,252.556 61.558 C 248.114 63.742,243.529 65.733,243.245 65.603 C 243.159 65.564,242.979 65.701,242.845 65.907 C 242.710 66.113,241.655 66.593,240.500 66.973 C 239.345 67.353,238.400 67.810,238.400 67.989 C 238.400 68.167,237.905 68.434,237.300 68.581 C 236.695 68.729,235.120 69.363,233.800 69.990 C 228.175 72.662,225.997 73.600,225.417 73.600 C 225.078 73.600,224.800 73.751,224.800 73.935 C 224.800 74.119,223.810 74.607,222.600 75.018 C 221.390 75.429,220.400 75.873,220.400 76.004 C 220.400 76.135,219.500 76.566,218.400 76.961 C 217.300 77.357,216.400 77.842,216.400 78.040 C 216.400 78.238,216.091 78.400,215.714 78.400 C 214.862 78.400,208.400 81.527,208.400 81.939 C 208.400 82.104,207.810 82.453,207.089 82.713 C 206.368 82.974,205.423 83.462,204.989 83.798 C 204.555 84.134,203.345 84.964,202.300 85.642 C 201.255 86.321,200.400 87.069,200.400 87.306 C 200.400 87.543,200.132 88.033,199.805 88.395 C 199.048 89.231,198.544 91.600,199.123 91.600 C 199.356 91.600,199.655 91.256,199.789 90.835 C 199.952 90.320,201.043 89.710,203.116 88.972 C 206.168 87.885,210.969 86.085,216.000 84.140 C 217.430 83.587,219.770 82.690,221.200 82.146 C 222.630 81.603,224.160 80.998,224.600 80.803 C 225.040 80.608,227.020 79.824,229.000 79.062 C 233.464 77.344,240.919 74.459,246.200 72.406 C 248.400 71.551,251.820 70.228,253.800 69.467 C 255.780 68.706,259.740 67.171,262.600 66.056 C 267.612 64.101,277.256 60.374,281.400 58.790 C 283.486 57.993,291.855 54.732,299.400 51.777 C 301.820 50.830,306.680 48.954,310.200 47.610 C 313.720 46.266,317.230 44.916,318.000 44.611 C 318.770 44.307,322.010 43.045,325.200 41.807 C 328.390 40.569,332.620 38.909,334.600 38.119 C 338.283 36.648,341.158 35.559,345.400 34.025 C 346.720 33.548,348.340 32.924,349.000 32.639 C 349.660 32.353,351.730 31.527,353.600 30.802 C 355.470 30.077,358.890 28.723,361.200 27.794 C 363.510 26.864,366.300 25.802,367.400 25.435 C 368.500 25.067,370.210 24.369,371.200 23.883 L 373.000 23.000 372.865 19.400 C 372.706 15.147,372.806 15.316,370.982 16.182 C 369.176 17.039,369.252 17.140,368.942 13.467 C 368.639 9.885,368.331 9.722,364.981 11.380 " stroke="none" fill="#b9a3a5" fill-rule="evenodd"></path><path id="path3" d="M12.323 25.500 C 11.618 26.321,11.090 27.200,11.301 27.200 C 11.383 27.200,11.849 26.660,12.337 26.000 C 13.301 24.696,13.292 24.372,12.323 25.500 M365.000 57.063 C 360.482 58.991,359.971 59.200,359.765 59.200 C 359.467 59.200,352.302 61.987,351.000 62.610 C 350.340 62.925,347.190 64.189,344.000 65.419 C 337.056 68.095,332.651 69.852,330.940 70.628 C 330.246 70.943,329.567 71.200,329.431 71.200 C 329.153 71.200,322.248 73.824,321.000 74.403 C 320.560 74.607,318.310 75.514,316.000 76.417 C 313.690 77.320,311.260 78.296,310.600 78.585 C 309.940 78.874,308.950 79.241,308.400 79.400 C 307.850 79.559,306.860 79.926,306.200 80.215 C 305.540 80.504,303.110 81.483,300.800 82.390 C 298.490 83.297,296.033 84.301,295.340 84.620 C 294.646 84.939,293.967 85.200,293.831 85.200 C 293.537 85.200,287.056 87.717,285.136 88.577 C 284.401 88.906,281.190 90.181,278.000 91.411 C 268.795 94.960,267.077 95.637,265.800 96.218 C 264.164 96.962,257.277 99.600,256.969 99.600 C 256.833 99.600,256.154 99.853,255.460 100.161 C 254.767 100.470,253.165 101.180,251.900 101.739 L 249.600 102.756 249.600 137.527 L 249.600 172.298 253.900 170.591 C 256.265 169.652,259.910 168.222,262.000 167.413 C 264.090 166.605,267.510 165.245,269.600 164.392 C 271.690 163.539,275.110 162.192,277.200 161.398 C 279.290 160.604,281.540 159.708,282.200 159.408 C 282.860 159.107,284.120 158.596,285.000 158.272 C 287.986 157.171,290.994 155.962,292.696 155.180 C 293.628 154.751,294.577 154.400,294.805 154.400 C 295.200 154.400,300.080 152.501,302.600 151.367 C 303.260 151.069,305.510 150.174,307.600 149.378 C 309.690 148.581,311.760 147.775,312.200 147.587 C 313.174 147.169,333.191 139.279,338.200 137.338 C 340.180 136.571,343.510 135.245,345.600 134.392 C 347.690 133.539,351.110 132.192,353.200 131.398 C 355.290 130.604,357.540 129.708,358.200 129.408 C 358.860 129.107,360.120 128.593,361.000 128.264 C 361.880 127.936,363.770 127.223,365.200 126.679 L 367.800 125.690 368.007 114.345 C 368.120 108.105,368.259 92.491,368.315 79.647 C 368.372 66.803,368.514 56.138,368.633 55.947 C 368.953 55.429,368.505 55.567,365.000 57.063 M171.613 73.480 C 171.621 73.656,173.021 74.484,174.726 75.321 C 178.673 77.258,184.400 82.599,184.400 84.344 C 184.400 84.575,184.851 85.428,185.401 86.240 C 185.952 87.051,186.598 88.367,186.837 89.165 C 187.454 91.227,188.638 91.688,193.859 91.901 L 198.318 92.084 198.580 90.893 C 198.865 89.593,198.507 87.600,197.988 87.600 C 197.809 87.600,197.450 86.957,197.191 86.172 C 196.932 85.387,196.468 84.647,196.160 84.529 C 195.852 84.411,195.600 84.085,195.600 83.804 C 195.600 83.523,194.835 82.635,193.900 81.830 C 192.965 81.025,191.916 80.105,191.570 79.787 C 191.223 79.468,190.368 79.008,189.670 78.764 C 188.971 78.521,188.400 78.159,188.400 77.961 C 188.400 77.762,188.212 77.600,187.983 77.600 C 187.754 77.600,186.449 77.078,185.083 76.439 C 183.717 75.801,181.430 75.055,180.000 74.782 C 178.570 74.509,177.220 74.155,177.000 73.995 C 176.410 73.566,171.598 73.106,171.613 73.480 M367.800 133.529 C 367.580 133.733,366.140 134.385,364.600 134.978 C 363.060 135.571,361.260 136.293,360.600 136.583 C 359.940 136.874,358.950 137.242,358.400 137.402 C 357.850 137.563,356.450 138.123,355.288 138.647 C 354.127 139.171,353.043 139.600,352.881 139.600 C 352.557 139.600,347.598 141.608,344.904 142.831 C 343.972 143.254,343.068 143.600,342.897 143.600 C 342.624 143.600,338.054 145.403,335.800 146.400 C 335.360 146.595,333.110 147.490,330.800 148.390 C 328.490 149.289,326.240 150.189,325.800 150.390 C 325.360 150.590,323.110 151.490,320.800 152.390 C 318.490 153.289,316.240 154.195,315.800 154.402 C 315.360 154.609,314.280 155.038,313.400 155.355 C 309.326 156.823,306.098 158.073,305.000 158.607 C 304.340 158.928,302.090 159.831,300.000 160.613 C 297.910 161.396,295.660 162.295,295.000 162.611 C 293.853 163.160,288.107 165.460,283.000 167.414 C 281.680 167.920,279.250 168.900,277.600 169.594 C 275.950 170.287,273.700 171.184,272.600 171.587 C 271.500 171.990,269.250 172.884,267.600 173.574 C 265.950 174.264,262.890 175.461,260.800 176.235 C 258.710 177.008,256.370 177.922,255.600 178.266 C 254.830 178.609,253.210 179.277,252.000 179.748 L 249.800 180.606 249.699 186.403 C 249.644 189.591,249.734 191.996,249.899 191.747 C 250.065 191.498,251.010 191.011,252.000 190.664 C 254.001 189.963,258.352 188.232,260.200 187.401 C 260.860 187.104,262.120 186.596,263.000 186.272 C 265.680 185.283,268.934 183.991,270.200 183.411 C 270.860 183.109,272.120 182.596,273.000 182.272 C 275.680 181.283,278.934 179.991,280.200 179.411 C 280.860 179.109,282.120 178.596,283.000 178.272 C 285.680 177.283,288.934 175.991,290.200 175.411 C 290.860 175.109,292.120 174.596,293.000 174.272 C 295.680 173.283,298.934 171.991,300.200 171.411 C 300.860 171.109,302.120 170.596,303.000 170.272 C 305.680 169.283,308.934 167.991,310.200 167.411 C 310.860 167.109,312.120 166.596,313.000 166.272 C 315.680 165.283,318.934 163.991,320.200 163.411 C 320.860 163.109,322.120 162.596,323.000 162.272 C 325.680 161.283,328.934 159.991,330.200 159.411 C 330.860 159.109,332.120 158.596,333.000 158.272 C 335.986 157.171,338.994 155.962,340.696 155.180 C 341.628 154.751,342.579 154.400,342.808 154.400 C 343.218 154.400,346.593 153.044,349.878 151.559 C 350.801 151.141,351.676 150.800,351.822 150.800 C 352.134 150.800,358.849 148.178,360.600 147.372 C 361.260 147.069,363.060 146.344,364.600 145.762 C 368.599 144.251,368.441 144.561,368.312 138.453 C 368.238 134.947,368.065 133.283,367.800 133.529 M11.468 285.106 C 11.594 285.605,11.855 286.110,12.048 286.230 C 12.596 286.568,12.462 285.836,11.820 284.976 C 11.260 284.227,11.248 284.232,11.468 285.106 M151.430 349.903 C 150.766 350.567,151.201 383.600,151.874 383.600 C 152.773 383.600,157.347 382.326,157.600 382.004 C 157.710 381.865,158.880 381.517,160.200 381.231 C 161.520 380.946,163.320 380.391,164.200 379.999 C 168.474 378.094,171.845 378.255,172.588 380.400 C 172.702 380.730,173.201 381.481,173.698 382.070 C 174.194 382.658,175.050 383.723,175.600 384.437 C 176.150 385.151,177.005 386.163,177.500 386.686 C 177.995 387.209,178.400 387.795,178.400 387.989 C 178.400 388.183,178.821 388.673,179.336 389.078 C 179.850 389.483,180.345 390.011,180.436 390.251 C 180.622 390.748,182.662 393.391,183.670 394.441 C 184.038 394.825,184.539 395.513,184.784 395.970 C 186.578 399.323,187.200 394.752,187.200 378.199 C 187.200 369.404,187.385 369.871,183.400 368.603 C 174.734 365.846,168.645 361.687,166.455 357.028 C 165.882 355.809,165.249 355.171,164.134 354.690 C 154.237 350.423,151.821 349.512,151.430 349.903 " stroke="none" fill="#0c544c" fill-rule="evenodd"></path><path id="path4" d="M20.800 22.791 C 20.800 24.143,21.617 24.823,24.407 25.793 C 25.393 26.136,27.910 27.120,30.000 27.981 C 34.815 29.963,41.385 32.599,45.000 34.000 C 48.081 35.194,54.127 37.612,60.000 40.000 C 65.873 42.388,71.919 44.806,75.000 46.000 C 80.723 48.218,86.236 50.442,87.400 51.002 C 88.060 51.320,105.896 58.494,127.035 66.943 C 162.216 81.004,165.608 82.440,167.101 83.903 C 171.120 87.842,173.702 88.985,182.291 90.625 C 187.029 91.529,190.189 91.737,187.700 90.980 C 187.205 90.830,186.800 90.390,186.800 90.002 C 186.800 88.451,184.435 84.099,183.888 84.645 C 183.626 84.907,179.182 83.290,167.800 78.793 C 164.940 77.663,161.610 76.392,160.400 75.969 C 159.190 75.546,157.840 75.030,157.400 74.824 C 156.960 74.617,154.980 73.824,153.000 73.062 C 151.020 72.300,147.330 70.862,144.800 69.867 C 142.270 68.872,137.770 67.139,134.800 66.015 C 131.830 64.892,128.320 63.542,127.000 63.016 C 124.667 62.085,118.629 59.742,108.400 55.800 C 105.650 54.740,102.166 53.362,100.658 52.736 C 99.150 52.111,97.745 51.600,97.536 51.600 C 97.327 51.600,96.401 51.267,95.478 50.861 C 94.555 50.454,92.360 49.566,90.600 48.887 C 88.840 48.208,84.880 46.670,81.800 45.470 C 73.321 42.166,68.196 40.189,64.000 38.604 C 61.910 37.814,59.840 37.007,59.400 36.810 C 57.514 35.965,51.400 33.600,51.102 33.600 C 50.922 33.600,48.846 32.811,46.488 31.848 C 44.129 30.884,39.770 29.161,36.800 28.019 C 26.375 24.012,24.996 23.438,24.556 22.921 C 24.312 22.634,23.817 22.400,23.456 22.400 C 23.095 22.400,22.800 22.220,22.800 22.000 C 22.800 21.780,22.350 21.600,21.800 21.600 C 20.957 21.600,20.800 21.787,20.800 22.791 M374.000 22.397 C 371.494 23.754,368.594 25.074,366.980 25.593 C 366.111 25.873,363.510 26.863,361.200 27.793 C 358.890 28.723,355.470 30.077,353.600 30.802 C 351.730 31.527,349.660 32.353,349.000 32.639 C 348.340 32.924,346.720 33.548,345.400 34.025 C 341.158 35.559,338.283 36.648,334.600 38.119 C 332.620 38.909,328.390 40.569,325.200 41.807 C 322.010 43.045,318.770 44.307,318.000 44.611 C 317.230 44.916,313.720 46.266,310.200 47.610 C 306.680 48.954,301.820 50.830,299.400 51.777 C 291.855 54.732,283.486 57.993,281.400 58.790 C 277.256 60.374,267.612 64.101,262.600 66.056 C 259.740 67.171,255.780 68.706,253.800 69.467 C 251.820 70.228,248.400 71.551,246.200 72.406 C 240.919 74.459,233.464 77.344,229.000 79.062 C 227.020 79.824,225.040 80.610,224.600 80.808 C 224.160 81.006,222.090 81.818,220.000 82.612 C 217.910 83.406,215.120 84.471,213.800 84.980 C 208.779 86.915,206.100 87.917,203.116 88.976 C 201.040 89.712,199.952 90.320,199.789 90.835 C 199.512 91.708,198.963 91.838,198.665 91.100 C 198.553 90.823,198.449 90.940,198.432 91.362 C 198.359 93.114,216.835 91.056,223.418 88.579 C 226.152 87.550,227.943 86.318,230.880 83.447 C 231.694 82.651,232.499 82.000,232.669 82.000 C 232.839 82.000,235.188 81.100,237.889 80.000 C 242.520 78.114,246.299 76.595,257.900 71.959 C 260.595 70.881,265.095 69.081,267.900 67.959 C 280.255 63.013,290.786 58.803,297.900 55.966 C 300.705 54.847,304.890 53.146,307.200 52.186 C 309.510 51.226,312.120 50.182,313.000 49.866 C 313.880 49.550,316.670 48.447,319.200 47.416 C 330.950 42.624,338.332 39.654,342.600 38.000 C 345.681 36.806,351.727 34.388,357.600 32.000 C 364.382 29.242,369.738 27.108,372.719 25.976 C 376.292 24.618,376.800 24.217,376.800 22.751 C 376.800 21.370,376.066 21.278,374.000 22.397 M174.176 75.413 C 174.604 75.736,175.133 76.000,175.353 76.000 C 175.573 76.000,175.404 75.736,174.976 75.413 C 174.549 75.090,174.020 74.825,173.800 74.825 C 173.580 74.825,173.749 75.090,174.176 75.413 M178.683 78.146 C 179.829 79.184,181.609 80.971,182.639 82.117 C 183.669 83.262,184.140 83.660,183.686 83.000 C 182.815 81.733,178.754 77.732,177.400 76.806 C 176.960 76.505,177.538 77.108,178.683 78.146 M170.800 362.111 C 170.800 362.187,171.385 362.678,172.100 363.201 C 172.904 363.790,173.184 363.887,172.833 363.455 C 172.300 362.799,170.800 361.807,170.800 362.111 M178.400 366.631 C 178.400 366.901,180.478 367.656,180.676 367.457 C 180.767 367.367,180.292 367.101,179.620 366.867 C 178.949 366.633,178.400 366.527,178.400 366.631 M184.000 368.534 C 184.000 368.637,184.581 368.924,185.291 369.172 C 186.001 369.419,186.406 369.457,186.191 369.256 C 185.735 368.829,184.000 368.258,184.000 368.534 " stroke="none" fill="#7b7b7b" fill-rule="evenodd"></path><path id="path5" d="M14.861 24.427 C 13.742 24.875,11.741 26.395,12.246 26.413 C 12.441 26.420,12.274 26.672,11.876 26.974 C 11.417 27.322,11.308 27.619,11.577 27.786 C 11.871 27.968,11.850 28.319,11.507 28.924 C 10.957 29.897,10.757 48.874,11.300 48.538 C 11.465 48.436,11.600 48.813,11.600 49.376 C 11.600 49.939,11.458 50.400,11.284 50.400 C 10.957 50.400,10.953 60.729,11.279 64.119 C 11.381 65.174,11.319 66.127,11.141 66.236 C 10.679 66.522,10.859 70.091,11.370 70.777 C 11.686 71.200,11.677 71.280,11.336 71.075 C 10.737 70.717,10.707 95.938,11.305 96.700 C 11.559 97.023,11.560 97.200,11.308 97.200 C 11.062 97.200,10.913 102.810,10.904 112.400 C 10.895 121.016,11.043 127.600,11.244 127.600 C 11.440 127.600,11.600 128.061,11.600 128.624 C 11.600 129.187,11.452 129.555,11.270 129.443 C 11.089 129.331,10.935 141.471,10.929 156.420 C 10.923 171.369,11.072 183.600,11.259 183.600 C 11.447 183.600,11.600 184.061,11.600 184.624 C 11.600 185.187,11.440 185.548,11.244 185.427 C 10.867 185.194,10.753 246.315,11.129 246.978 C 11.247 247.185,11.297 248.085,11.240 248.978 C 10.972 253.189,11.003 262.722,11.284 262.548 C 11.458 262.441,11.600 262.813,11.600 263.376 C 11.600 263.939,11.465 264.400,11.300 264.400 C 10.715 264.400,10.945 283.595,11.534 283.959 C 11.828 284.141,12.040 284.359,12.006 284.445 C 11.972 284.530,12.136 285.107,12.372 285.726 C 12.607 286.345,12.800 287.020,12.800 287.226 C 12.800 287.432,12.991 287.600,13.224 287.600 C 13.457 287.600,13.558 287.744,13.450 287.919 C 13.158 288.392,13.850 289.340,14.289 289.069 C 14.524 288.923,14.766 241.535,14.929 163.506 C 15.212 27.565,15.071 35.343,17.293 33.332 C 19.702 31.152,20.921 31.249,28.000 34.192 C 30.750 35.335,35.340 37.220,38.200 38.382 C 41.060 39.544,45.290 41.275,47.600 42.231 C 53.661 44.737,59.223 47.011,63.800 48.856 C 66.000 49.743,69.870 51.324,72.400 52.369 C 74.930 53.415,79.340 55.221,82.200 56.382 C 85.060 57.544,89.290 59.275,91.600 60.231 C 97.661 62.737,103.223 65.011,107.800 66.856 C 110.000 67.743,113.870 69.324,116.400 70.369 C 118.930 71.415,123.340 73.221,126.200 74.382 C 129.060 75.544,133.290 77.275,135.600 78.231 C 141.661 80.737,147.223 83.011,151.800 84.856 C 154.000 85.743,157.899 87.353,160.465 88.434 C 163.031 89.515,165.212 90.400,165.312 90.400 C 165.413 90.400,166.296 91.165,167.275 92.100 C 169.574 94.295,172.005 95.701,175.000 96.569 C 176.320 96.951,177.850 97.418,178.400 97.607 C 181.257 98.587,192.027 99.683,198.800 99.683 C 213.750 99.683,224.107 97.269,230.000 92.413 C 230.990 91.597,233.060 90.440,234.600 89.843 C 237.570 88.690,241.413 87.097,243.400 86.194 C 244.060 85.894,246.310 84.996,248.400 84.198 C 250.490 83.400,252.740 82.495,253.400 82.186 C 254.934 81.468,265.408 77.179,274.400 73.585 C 280.809 71.024,286.039 68.847,286.875 68.392 C 287.246 68.190,288.506 67.677,289.675 67.252 C 290.844 66.827,295.130 65.089,299.200 63.390 C 303.270 61.690,307.680 59.886,309.000 59.379 C 310.320 58.873,313.830 57.443,316.800 56.201 C 319.770 54.958,323.100 53.613,324.200 53.210 C 326.461 52.383,329.864 50.948,330.875 50.394 C 331.246 50.191,332.506 49.677,333.675 49.252 C 334.844 48.827,339.130 47.091,343.200 45.394 C 347.270 43.697,351.860 41.815,353.400 41.213 C 354.940 40.610,358.270 39.258,360.800 38.209 C 363.330 37.159,366.660 35.801,368.200 35.191 C 369.740 34.582,372.218 33.595,373.707 33.000 C 377.517 31.476,379.701 32.303,381.220 35.846 C 381.932 37.507,381.970 42.248,382.244 163.386 C 382.461 259.334,382.641 289.200,382.999 289.200 C 384.265 289.200,387.053 281.513,386.594 279.287 C 386.425 278.469,386.308 277.260,386.333 276.600 C 386.625 268.988,386.629 263.270,386.345 260.824 C 386.091 258.630,386.126 257.770,386.477 257.552 C 386.847 257.324,386.845 257.018,386.472 256.199 C 386.207 255.616,386.070 255.011,386.167 254.853 C 386.591 254.167,386.802 237.812,386.379 238.400 C 386.042 238.869,386.007 238.791,386.219 238.042 C 386.596 236.714,386.629 196.527,386.255 194.800 C 386.021 193.721,386.055 193.538,386.402 194.000 C 386.839 194.583,386.698 193.684,386.102 192.100 C 385.999 191.825,386.095 191.600,386.316 191.600 C 386.727 191.600,386.581 176.217,386.163 175.540 C 386.047 175.353,386.098 174.975,386.276 174.700 C 386.677 174.081,386.747 138.786,386.347 139.033 C 386.189 139.131,386.128 138.623,386.212 137.905 C 386.643 134.226,386.721 121.201,386.311 121.455 C 386.013 121.639,385.970 121.420,386.176 120.763 C 386.626 119.329,386.694 102.819,386.248 103.094 C 386.044 103.220,386.008 103.111,386.168 102.852 C 386.559 102.218,386.752 68.705,386.400 62.400 C 386.240 59.536,386.278 57.090,386.488 56.674 C 386.729 56.198,386.693 55.753,386.383 55.380 C 386.099 55.038,386.022 54.369,386.189 53.705 C 386.565 52.211,386.822 39.557,386.487 39.024 C 386.072 38.364,386.113 34.400,386.535 34.400 C 386.850 34.400,386.684 31.358,386.208 28.400 C 386.014 27.198,385.506 26.411,385.090 26.668 C 384.824 26.833,384.759 26.684,384.918 26.270 C 385.057 25.907,385.043 25.629,384.886 25.652 C 384.124 25.766,383.575 25.563,383.774 25.242 C 384.040 24.812,382.881 24.303,382.364 24.622 C 382.164 24.746,382.000 24.680,382.000 24.476 C 382.000 23.974,376.724 23.967,376.119 24.468 C 375.854 24.688,374.324 25.366,372.719 25.976 C 369.738 27.108,364.382 29.242,357.600 32.000 C 351.727 34.388,345.681 36.806,342.600 38.000 C 338.332 39.654,330.950 42.624,319.200 47.416 C 316.670 48.447,313.880 49.550,313.000 49.866 C 312.120 50.182,309.510 51.226,307.200 52.186 C 304.890 53.146,300.660 54.866,297.800 56.008 C 294.940 57.149,290.395 58.964,287.700 60.041 C 285.005 61.119,280.595 62.881,277.900 63.959 C 275.205 65.036,270.705 66.836,267.900 67.959 C 265.095 69.081,260.595 70.881,257.900 71.959 C 245.330 76.983,242.669 78.052,237.989 79.959 C 235.233 81.081,232.839 82.000,232.669 82.000 C 232.499 82.000,231.694 82.651,230.880 83.447 C 225.017 89.179,218.539 91.087,201.778 92.019 C 192.143 92.555,191.590 92.520,183.200 90.856 C 173.609 88.954,171.187 87.908,167.101 83.903 C 165.608 82.440,162.216 81.004,127.035 66.943 C 105.896 58.494,88.060 51.320,87.400 51.002 C 86.236 50.442,80.723 48.218,75.000 46.000 C 71.919 44.806,65.873 42.388,60.000 40.000 C 54.127 37.612,48.081 35.194,45.000 34.000 C 41.501 32.644,35.087 30.070,29.600 27.819 C 27.290 26.872,24.950 25.962,24.400 25.797 C 23.850 25.633,22.860 25.213,22.200 24.863 C 20.688 24.062,16.631 23.782,17.040 24.507 C 17.253 24.886,17.193 24.884,16.779 24.500 C 16.159 23.925,16.118 23.923,14.861 24.427 M367.027 55.556 C 366.906 55.751,366.311 56.034,365.704 56.184 C 365.097 56.333,363.610 56.886,362.400 57.411 C 360.529 58.223,354.783 60.452,352.243 61.351 C 351.826 61.498,351.581 61.714,351.697 61.831 C 351.913 62.046,355.790 60.616,363.915 57.325 C 366.398 56.319,368.473 55.565,368.527 55.648 C 368.719 55.948,368.195 125.537,368.000 125.696 C 367.890 125.785,366.903 126.191,365.806 126.598 C 364.710 127.005,364.007 127.402,364.244 127.481 C 364.886 127.695,368.392 126.100,368.576 125.511 C 368.664 125.230,368.849 109.295,368.987 90.100 L 369.240 55.200 368.243 55.200 C 367.696 55.200,367.148 55.360,367.027 55.556 M348.200 63.036 C 346.880 63.595,344.858 64.390,343.708 64.802 C 341.246 65.684,339.570 66.603,341.200 66.177 C 342.397 65.865,349.947 62.875,350.800 62.376 C 352.000 61.673,350.542 62.043,348.200 63.036 M337.543 67.160 C 336.741 67.561,335.121 68.222,333.943 68.630 C 332.035 69.290,329.846 70.400,330.451 70.400 C 330.916 70.400,333.461 69.478,335.600 68.536 C 339.561 66.790,340.208 66.451,339.600 66.442 C 339.270 66.436,338.344 66.760,337.543 67.160 M328.000 70.881 C 327.450 71.116,326.460 71.540,325.800 71.824 C 325.140 72.107,323.880 72.604,323.000 72.928 C 320.320 73.917,317.066 75.209,315.800 75.789 C 315.140 76.091,313.880 76.608,313.000 76.938 C 307.222 79.101,302.012 81.142,300.540 81.820 C 299.846 82.139,299.149 82.400,298.990 82.400 C 298.830 82.400,297.688 82.842,296.450 83.383 C 295.213 83.924,292.490 85.016,290.400 85.811 C 285.627 87.625,282.309 88.935,280.000 89.916 C 279.010 90.336,277.334 90.996,276.276 91.383 C 275.217 91.769,274.424 92.158,274.513 92.247 C 274.727 92.460,277.325 91.546,282.000 89.612 C 284.090 88.748,287.510 87.390,289.600 86.593 C 291.690 85.797,296.280 84.003,299.800 82.607 C 303.320 81.210,311.060 78.157,317.000 75.821 C 322.940 73.484,328.340 71.320,329.000 71.012 C 330.391 70.362,329.491 70.244,328.000 70.881 M271.483 93.189 C 270.649 93.606,269.029 94.255,267.883 94.631 C 266.120 95.210,263.788 96.400,264.417 96.400 C 264.992 96.400,274.000 92.788,274.000 92.557 C 274.000 92.203,272.911 92.476,271.483 93.189 M261.476 97.193 C 260.638 97.611,259.288 98.155,258.476 98.400 C 257.664 98.646,256.190 99.190,255.200 99.610 C 254.210 100.030,252.697 100.652,251.839 100.992 C 250.980 101.332,250.368 101.701,250.479 101.813 C 250.590 101.924,251.923 101.497,253.441 100.864 C 254.958 100.232,257.955 99.044,260.100 98.226 C 262.245 97.408,264.000 96.662,264.000 96.569 C 264.000 96.203,262.927 96.468,261.476 97.193 M249.329 102.500 C 248.781 103.241,249.159 172.800,249.710 172.800 C 250.693 172.800,257.330 169.996,257.037 169.704 C 256.903 169.570,255.403 170.127,250.096 172.284 C 249.692 172.448,249.612 165.476,249.696 137.244 C 249.753 117.860,249.777 102.000,249.749 102.000 C 249.721 102.000,249.532 102.225,249.329 102.500 M358.423 129.508 C 355.906 130.521,354.039 131.413,354.274 131.491 C 354.509 131.570,355.672 131.204,356.858 130.680 C 358.045 130.155,359.955 129.413,361.103 129.032 C 362.251 128.651,363.293 128.173,363.419 127.969 C 363.771 127.399,363.330 127.535,358.423 129.508 M350.600 132.559 C 347.814 133.623,340.351 136.621,338.600 137.379 C 337.940 137.665,336.516 138.227,335.436 138.628 C 334.356 139.029,333.659 139.420,333.887 139.496 C 334.115 139.572,335.179 139.286,336.251 138.860 C 337.323 138.434,340.090 137.338,342.400 136.423 C 344.710 135.509,347.590 134.332,348.800 133.808 C 350.010 133.284,351.497 132.733,352.104 132.584 C 352.711 132.434,353.306 132.151,353.427 131.956 C 353.749 131.436,353.273 131.537,350.600 132.559 M366.736 133.360 C 366.152 133.665,364.622 134.313,363.336 134.800 C 356.287 137.471,351.898 139.179,351.000 139.600 C 350.560 139.806,349.255 140.340,348.100 140.787 C 346.945 141.234,345.055 141.966,343.900 142.413 C 342.745 142.860,341.440 143.394,341.000 143.600 C 340.560 143.806,339.210 144.358,338.000 144.825 C 336.790 145.293,334.900 146.025,333.800 146.451 C 332.700 146.877,331.440 147.394,331.000 147.600 C 330.560 147.806,329.255 148.340,328.100 148.787 C 326.945 149.234,325.055 149.966,323.900 150.413 C 322.745 150.860,321.440 151.394,321.000 151.600 C 319.869 152.130,316.185 153.553,313.643 154.442 C 312.457 154.857,311.287 155.354,311.043 155.545 C 310.799 155.737,309.610 156.210,308.400 156.596 C 307.190 156.982,306.029 157.456,305.820 157.649 C 304.847 158.547,304.321 158.748,335.800 146.195 C 347.020 141.721,358.796 137.048,361.968 135.812 C 365.141 134.575,367.891 133.468,368.079 133.351 C 368.268 133.234,368.372 135.692,368.311 138.812 L 368.200 144.485 364.400 146.072 C 362.310 146.945,360.150 147.806,359.600 147.986 C 359.050 148.165,355.000 149.750,350.600 151.508 C 346.200 153.265,341.110 155.290,339.289 156.007 C 337.467 156.724,336.064 157.397,336.169 157.503 C 336.275 157.608,337.970 157.043,339.936 156.247 C 341.903 155.451,343.639 154.800,343.795 154.800 C 343.951 154.800,344.646 154.546,345.340 154.235 C 348.126 152.986,351.455 151.637,352.400 151.374 C 352.950 151.221,354.120 150.770,355.000 150.371 C 355.880 149.973,358.310 148.988,360.400 148.184 C 362.490 147.380,364.920 146.406,365.800 146.020 C 366.680 145.634,367.715 145.207,368.100 145.072 C 368.725 144.852,368.800 144.178,368.800 138.813 C 368.800 132.350,368.779 132.294,366.736 133.360 M328.239 141.402 C 324.153 143.076,323.081 143.600,323.742 143.600 C 323.893 143.600,325.629 142.970,327.600 142.200 C 329.571 141.430,331.322 140.794,331.491 140.787 C 331.946 140.769,333.419 139.599,332.976 139.608 C 332.769 139.612,330.638 140.420,328.239 141.402 M318.239 145.402 C 314.153 147.076,313.081 147.600,313.742 147.600 C 313.893 147.600,315.629 146.970,317.600 146.200 C 319.571 145.430,321.322 144.794,321.491 144.787 C 321.946 144.769,323.419 143.599,322.976 143.608 C 322.769 143.612,320.638 144.420,318.239 145.402 M311.600 147.987 C 311.050 148.163,308.980 148.978,307.000 149.799 C 305.020 150.621,302.320 151.710,301.000 152.219 C 299.680 152.728,297.250 153.673,295.600 154.318 C 293.950 154.963,291.553 155.893,290.272 156.384 C 288.992 156.876,288.039 157.372,288.153 157.486 C 288.268 157.601,289.970 157.043,291.936 156.247 C 293.903 155.451,295.639 154.800,295.795 154.800 C 295.951 154.800,296.646 154.540,297.340 154.223 C 298.033 153.905,300.310 152.989,302.400 152.187 C 304.490 151.385,306.740 150.482,307.400 150.182 C 308.060 149.881,309.635 149.254,310.900 148.789 C 313.674 147.768,314.208 147.156,311.600 147.987 M282.423 159.508 C 279.906 160.521,278.039 161.413,278.274 161.491 C 278.509 161.570,279.672 161.204,280.858 160.680 C 282.045 160.155,283.955 159.413,285.103 159.032 C 286.251 158.651,287.293 158.173,287.419 157.969 C 287.771 157.399,287.330 157.535,282.423 159.508 M330.423 159.508 C 327.906 160.521,326.039 161.413,326.274 161.491 C 326.509 161.570,327.672 161.204,328.858 160.680 C 330.045 160.155,331.955 159.413,333.103 159.032 C 334.251 158.651,335.293 158.173,335.419 157.969 C 335.771 157.399,335.330 157.535,330.423 159.508 M302.200 159.037 C 300.880 159.597,298.990 160.337,298.000 160.681 C 296.037 161.363,294.693 162.298,296.400 161.795 C 297.653 161.425,304.897 158.437,305.148 158.186 C 305.576 157.757,304.449 158.083,302.200 159.037 M274.600 162.559 C 271.814 163.623,264.351 166.621,262.600 167.379 C 261.940 167.665,260.516 168.227,259.436 168.628 C 258.356 169.029,257.659 169.420,257.887 169.496 C 258.269 169.623,259.472 169.198,264.400 167.199 C 268.112 165.692,272.672 163.902,274.800 163.115 C 276.010 162.668,277.171 162.144,277.380 161.951 C 277.986 161.391,277.212 161.560,274.600 162.559 M320.423 163.508 C 317.906 164.521,316.039 165.413,316.274 165.491 C 316.509 165.570,317.672 165.204,318.858 164.680 C 320.045 164.155,321.955 163.413,323.103 163.032 C 324.251 162.651,325.293 162.173,325.419 161.969 C 325.771 161.399,325.330 161.535,320.423 163.508 M293.600 162.470 C 293.050 162.698,291.790 163.221,290.800 163.631 C 289.810 164.042,287.351 165.008,285.336 165.778 C 283.321 166.548,281.071 167.449,280.336 167.780 C 279.601 168.111,277.351 169.011,275.336 169.780 C 273.321 170.549,271.071 171.448,270.336 171.777 C 268.537 172.582,258.054 176.634,256.800 177.009 C 255.796 177.309,253.986 178.400,254.492 178.400 C 254.641 178.400,255.176 178.231,255.681 178.025 C 256.187 177.819,259.210 176.637,262.400 175.399 C 265.590 174.161,269.910 172.452,272.000 171.602 C 281.971 167.543,288.922 164.803,292.389 163.564 C 293.593 163.134,294.754 162.606,294.969 162.391 C 295.468 161.892,294.912 161.924,293.600 162.470 M310.423 167.508 C 307.906 168.521,306.039 169.413,306.274 169.491 C 306.509 169.570,307.672 169.204,308.858 168.680 C 310.045 168.155,311.955 167.413,313.103 167.032 C 314.251 166.651,315.293 166.173,315.419 165.969 C 315.771 165.399,315.330 165.535,310.423 167.508 M300.423 171.508 C 297.906 172.521,296.039 173.413,296.274 173.491 C 296.509 173.570,297.672 173.204,298.858 172.680 C 300.045 172.155,301.955 171.413,303.103 171.032 C 304.251 170.651,305.293 170.173,305.419 169.969 C 305.771 169.399,305.330 169.535,300.423 171.508 M290.423 175.508 C 287.906 176.521,286.039 177.413,286.274 177.491 C 286.509 177.570,287.672 177.204,288.858 176.680 C 290.045 176.155,291.955 175.413,293.103 175.032 C 294.251 174.651,295.293 174.173,295.419 173.969 C 295.771 173.399,295.330 173.535,290.423 175.508 M280.423 179.508 C 277.906 180.521,276.039 181.413,276.274 181.491 C 276.509 181.570,277.672 181.204,278.858 180.680 C 280.045 180.155,281.955 179.413,283.103 179.032 C 284.251 178.651,285.293 178.173,285.419 177.969 C 285.771 177.399,285.330 177.535,280.423 179.508 M251.459 179.201 C 248.802 180.528,248.876 180.311,249.078 186.110 C 249.179 189.019,249.325 191.607,249.403 191.860 C 249.557 192.362,254.672 190.703,255.400 189.915 C 255.682 189.610,255.564 189.571,255.000 189.783 C 254.560 189.948,253.739 190.222,253.177 190.392 C 252.614 190.561,251.574 191.000,250.866 191.366 L 249.578 192.032 249.689 186.316 L 249.800 180.600 252.000 179.523 C 253.210 178.931,253.930 178.443,253.600 178.439 C 253.270 178.435,252.306 178.778,251.459 179.201 M270.423 183.508 C 267.906 184.521,266.039 185.413,266.274 185.491 C 266.509 185.570,267.672 185.204,268.858 184.680 C 270.045 184.155,271.955 183.413,273.103 183.032 C 274.251 182.651,275.293 182.173,275.419 181.969 C 275.771 181.399,275.330 181.535,270.423 183.508 M260.423 187.508 C 257.906 188.521,256.039 189.413,256.274 189.491 C 256.509 189.570,257.672 189.204,258.858 188.680 C 260.045 188.155,261.955 187.413,263.103 187.032 C 264.251 186.651,265.293 186.173,265.419 185.969 C 265.771 185.399,265.330 185.535,260.423 187.508 M379.722 294.224 C 378.905 294.970,378.826 295.139,379.433 294.846 C 380.263 294.445,381.502 293.200,381.071 293.200 C 380.947 293.200,380.340 293.661,379.722 294.224 " stroke="none" fill="#14645c" fill-rule="evenodd"></path><path id="path6" d="M17.944 23.957 C 18.441 24.272,20.000 24.117,20.000 23.753 C 20.000 23.669,19.415 23.603,18.700 23.606 C 17.816 23.610,17.574 23.723,17.944 23.957 M377.944 23.957 C 378.441 24.272,380.000 24.117,380.000 23.753 C 380.000 23.669,379.415 23.603,378.700 23.606 C 377.816 23.610,377.574 23.723,377.944 23.957 M383.904 25.073 C 383.685 25.477,385.107 26.882,385.334 26.485 C 385.424 26.328,385.179 25.873,384.789 25.473 C 384.400 25.073,384.001 24.893,383.904 25.073 M386.188 36.575 C 386.203 37.771,386.348 38.881,386.508 39.041 C 386.669 39.202,386.800 38.223,386.800 36.867 C 386.800 35.510,386.656 34.400,386.480 34.400 C 386.303 34.400,386.172 35.379,386.188 36.575 M10.909 44.000 C 10.909 44.990,10.987 45.395,11.082 44.900 C 11.178 44.405,11.178 43.595,11.082 43.100 C 10.987 42.605,10.909 43.010,10.909 44.000 M386.520 45.600 C 386.520 46.810,386.595 47.305,386.687 46.700 C 386.778 46.095,386.778 45.105,386.687 44.500 C 386.595 43.895,386.520 44.390,386.520 45.600 M11.067 48.667 C 10.652 49.082,10.753 50.400,11.200 50.400 C 11.420 50.400,11.600 49.950,11.600 49.400 C 11.600 48.353,11.508 48.226,11.067 48.667 M386.275 52.699 C 386.143 53.973,386.207 55.167,386.419 55.379 C 386.660 55.620,386.800 54.779,386.800 53.080 C 386.800 49.792,386.590 49.640,386.275 52.699 M368.531 58.600 C 368.533 60.140,368.605 60.721,368.692 59.891 C 368.779 59.061,368.777 57.801,368.689 57.091 C 368.600 56.381,368.529 57.060,368.531 58.600 M386.321 56.900 C 386.230 57.175,386.270 59.380,386.410 61.800 L 386.664 66.200 386.732 61.300 C 386.796 56.679,386.707 55.727,386.321 56.900 M10.800 63.557 C 10.800 65.147,10.950 66.355,11.133 66.241 C 11.467 66.035,11.337 61.203,10.987 60.854 C 10.884 60.751,10.800 61.967,10.800 63.557 M340.200 66.614 C 339.200 67.096,339.166 67.151,340.000 66.948 C 341.133 66.671,342.407 66.021,341.800 66.030 C 341.580 66.033,340.860 66.296,340.200 66.614 M330.200 70.614 C 329.195 71.098,329.163 71.153,330.000 70.951 C 330.550 70.819,331.171 70.550,331.380 70.355 C 331.898 69.871,331.614 69.933,330.200 70.614 M386.548 79.200 C 386.548 81.510,386.614 82.455,386.695 81.300 C 386.776 80.145,386.776 78.255,386.695 77.100 C 386.614 75.945,386.548 76.890,386.548 79.200 M386.528 89.600 C 386.528 91.030,386.601 91.615,386.689 90.900 C 386.778 90.185,386.778 89.015,386.689 88.300 C 386.601 87.585,386.528 88.170,386.528 89.600 M284.400 88.600 C 283.850 88.914,283.580 89.172,283.800 89.172 C 284.020 89.172,284.650 88.914,285.200 88.600 C 285.750 88.286,286.020 88.028,285.800 88.028 C 285.580 88.028,284.950 88.286,284.400 88.600 M188.925 91.700 C 189.567 92.289,190.398 92.390,194.144 92.334 L 198.600 92.268 193.949 92.024 C 191.391 91.889,189.043 91.604,188.730 91.390 C 188.418 91.175,188.506 91.315,188.925 91.700 M274.200 92.614 C 273.200 93.096,273.166 93.151,274.000 92.948 C 275.133 92.671,276.407 92.021,275.800 92.030 C 275.580 92.033,274.860 92.296,274.200 92.614 M386.534 97.200 C 386.534 98.850,386.605 99.525,386.691 98.700 C 386.778 97.875,386.778 96.525,386.691 95.700 C 386.605 94.875,386.534 95.550,386.534 97.200 M264.200 96.614 C 263.195 97.098,263.163 97.153,264.000 96.951 C 264.550 96.819,265.171 96.550,265.380 96.355 C 265.898 95.871,265.614 95.933,264.200 96.614 M386.352 101.913 C 386.221 102.707,386.279 103.081,386.501 102.859 C 386.703 102.657,386.801 102.067,386.719 101.546 C 386.593 100.745,386.537 100.802,386.352 101.913 M368.170 112.200 C 368.171 117.040,368.229 118.965,368.299 116.478 C 368.369 113.991,368.369 110.031,368.298 107.678 C 368.228 105.325,368.170 107.360,368.170 112.200 M386.520 111.600 C 386.520 112.810,386.595 113.305,386.687 112.700 C 386.778 112.095,386.778 111.105,386.687 110.500 C 386.595 109.895,386.520 110.390,386.520 111.600 M386.348 117.300 C 386.320 117.795,386.246 118.966,386.184 119.902 C 386.122 120.838,386.206 121.520,386.371 121.418 C 386.673 121.232,386.853 116.400,386.558 116.400 C 386.471 116.400,386.377 116.805,386.348 117.300 M386.531 129.000 C 386.533 130.540,386.605 131.121,386.692 130.291 C 386.779 129.461,386.777 128.201,386.689 127.491 C 386.600 126.781,386.529 127.460,386.531 129.000 M10.879 129.300 C 10.900 130.564,10.989 130.795,11.226 130.200 C 11.672 129.077,11.672 127.600,11.225 127.600 C 11.019 127.600,10.863 128.365,10.879 129.300 M386.429 134.800 C 386.357 136.230,386.255 137.817,386.202 138.327 C 386.145 138.884,386.252 139.108,386.471 138.889 C 386.672 138.688,386.774 137.101,386.698 135.362 L 386.561 132.200 386.429 134.800 M312.900 147.212 C 311.561 147.751,311.811 148.024,313.200 147.540 C 313.860 147.310,314.400 147.049,314.400 146.961 C 314.400 146.724,313.913 146.805,312.900 147.212 M386.520 151.200 C 386.520 152.410,386.595 152.905,386.687 152.300 C 386.778 151.695,386.778 150.705,386.687 150.100 C 386.595 149.495,386.520 149.990,386.520 151.200 M386.520 162.000 C 386.520 163.210,386.595 163.705,386.687 163.100 C 386.778 162.495,386.778 161.505,386.687 160.900 C 386.595 160.295,386.520 160.790,386.520 162.000 M284.400 166.600 C 283.850 166.914,283.580 167.172,283.800 167.172 C 284.020 167.172,284.650 166.914,285.200 166.600 C 285.750 166.286,286.020 166.028,285.800 166.028 C 285.580 166.028,284.950 166.286,284.400 166.600 M274.400 170.600 C 273.850 170.914,273.580 171.172,273.800 171.172 C 274.020 171.172,274.650 170.914,275.200 170.600 C 275.750 170.286,276.020 170.028,275.800 170.028 C 275.580 170.028,274.950 170.286,274.400 170.600 M386.294 176.852 C 386.404 178.693,386.563 180.275,386.647 180.367 C 386.970 180.719,386.769 174.571,386.441 174.052 C 386.237 173.731,386.176 174.888,386.294 176.852 M264.400 174.600 C 263.850 174.914,263.580 175.172,263.800 175.172 C 264.020 175.172,264.650 174.914,265.200 174.600 C 265.750 174.286,266.020 174.028,265.800 174.028 C 265.580 174.028,264.950 174.286,264.400 174.600 M254.200 178.614 C 253.195 179.098,253.163 179.153,254.000 178.951 C 254.550 178.819,255.171 178.550,255.380 178.355 C 255.898 177.871,255.614 177.933,254.200 178.614 M386.528 184.000 C 386.528 185.430,386.601 186.015,386.689 185.300 C 386.778 184.585,386.778 183.415,386.689 182.700 C 386.601 181.985,386.528 182.570,386.528 184.000 M10.800 184.376 C 10.800 184.803,10.980 185.264,11.200 185.400 C 11.427 185.540,11.600 185.204,11.600 184.624 C 11.600 184.061,11.420 183.600,11.200 183.600 C 10.980 183.600,10.800 183.949,10.800 184.376 M386.218 193.838 C 386.387 196.888,386.720 197.013,386.720 194.027 C 386.720 192.692,386.579 191.600,386.407 191.600 C 386.234 191.600,386.149 192.607,386.218 193.838 M386.520 201.200 C 386.520 202.410,386.595 202.905,386.687 202.300 C 386.778 201.695,386.778 200.705,386.687 200.100 C 386.595 199.495,386.520 199.990,386.520 201.200 M386.534 216.000 C 386.534 217.650,386.605 218.325,386.691 217.500 C 386.778 216.675,386.778 215.325,386.691 214.500 C 386.605 213.675,386.534 214.350,386.534 216.000 M386.501 224.600 C 386.505 225.480,386.587 225.793,386.683 225.295 C 386.779 224.798,386.775 224.078,386.675 223.695 C 386.575 223.313,386.496 223.720,386.501 224.600 M386.484 233.667 C 386.438 235.794,386.296 237.864,386.170 238.267 C 385.957 238.944,385.974 238.947,386.384 238.309 C 386.659 237.883,386.779 236.122,386.698 233.709 L 386.567 229.800 386.484 233.667 M10.800 249.600 C 10.800 251.213,10.891 252.442,11.002 252.331 C 11.323 252.010,11.394 247.260,11.082 246.948 C 10.927 246.793,10.800 247.987,10.800 249.600 M386.321 251.300 C 386.248 253.555,386.321 255.670,386.482 256.000 C 386.644 256.330,386.781 254.485,386.788 251.900 C 386.803 246.112,386.501 245.724,386.321 251.300 M386.262 260.100 C 386.597 263.448,386.800 263.511,386.800 260.267 C 386.800 258.783,386.625 257.600,386.406 257.600 C 386.163 257.600,386.108 258.557,386.262 260.100 M10.897 262.300 C 10.886 263.455,11.040 264.400,11.238 264.400 C 11.652 264.400,11.640 263.151,11.211 261.400 C 10.967 260.405,10.914 260.559,10.897 262.300 M386.514 267.400 C 386.517 268.500,386.595 268.903,386.687 268.295 C 386.779 267.686,386.777 266.786,386.682 266.295 C 386.587 265.803,386.511 266.300,386.514 267.400 M10.914 269.000 C 10.917 270.100,10.995 270.503,11.087 269.895 C 11.179 269.286,11.177 268.386,11.082 267.895 C 10.987 267.403,10.911 267.900,10.914 269.000 M386.232 275.328 C 386.089 276.278,386.147 277.493,386.361 278.028 C 386.672 278.807,386.754 278.463,386.775 276.300 C 386.804 273.197,386.605 272.841,386.232 275.328 " stroke="none" fill="#145c54" fill-rule="evenodd"></path><path id="path7" d="M230.162 92.893 C 229.633 93.513,229.602 93.630,230.061 93.276 C 230.598 92.863,230.761 92.864,230.930 93.283 C 231.044 93.567,231.151 93.395,231.168 92.900 C 231.208 91.781,231.111 91.781,230.162 92.893 M231.196 98.282 C 231.088 100.087,231.143 101.420,231.319 101.243 C 231.494 101.067,231.582 99.590,231.515 97.961 L 231.393 95.000 231.196 98.282 M230.893 111.600 C 230.893 112.370,230.975 112.685,231.076 112.300 C 231.176 111.915,231.176 111.285,231.076 110.900 C 230.975 110.515,230.893 110.830,230.893 111.600 M230.909 114.800 C 230.909 115.790,230.987 116.195,231.082 115.700 C 231.178 115.205,231.178 114.395,231.082 113.900 C 230.987 113.405,230.909 113.810,230.909 114.800 M166.114 122.200 C 166.117 123.300,166.195 123.703,166.287 123.095 C 166.379 122.486,166.377 121.586,166.282 121.095 C 166.187 120.603,166.111 121.100,166.114 122.200 M166.114 131.800 C 166.117 132.900,166.195 133.303,166.287 132.695 C 166.379 132.086,166.377 131.186,166.282 130.695 C 166.187 130.203,166.111 130.700,166.114 131.800 M230.924 139.800 C 230.926 141.120,231.001 141.612,231.090 140.893 C 231.179 140.174,231.177 139.094,231.086 138.493 C 230.995 137.892,230.922 138.480,230.924 139.800 M230.937 145.400 C 230.939 147.160,231.009 147.830,231.093 146.889 C 231.178 145.949,231.177 144.509,231.091 143.689 C 231.005 142.870,230.936 143.640,230.937 145.400 M231.389 176.800 C 231.389 192.310,231.439 198.655,231.500 190.900 C 231.561 183.145,231.561 170.455,231.500 162.700 C 231.439 154.945,231.389 161.290,231.389 176.800 M165.767 230.000 C 165.767 234.290,165.826 236.045,165.898 233.900 C 165.970 231.755,165.970 228.245,165.898 226.100 C 165.826 223.955,165.767 225.710,165.767 230.000 M231.754 230.400 C 231.754 233.150,231.818 234.275,231.896 232.900 C 231.974 231.525,231.974 229.275,231.896 227.900 C 231.818 226.525,231.754 227.650,231.754 230.400 M231.754 250.000 C 231.754 252.750,231.818 253.875,231.896 252.500 C 231.974 251.125,231.974 248.875,231.896 247.500 C 231.818 246.125,231.754 247.250,231.754 250.000 M165.755 256.200 C 165.756 259.060,165.820 260.178,165.897 258.683 C 165.974 257.189,165.974 254.849,165.896 253.483 C 165.818 252.118,165.755 253.340,165.755 256.200 M231.369 274.600 C 231.370 279.220,231.428 281.055,231.499 278.678 C 231.570 276.301,231.569 272.521,231.498 270.278 C 231.427 268.035,231.369 269.980,231.369 274.600 M165.734 289.600 C 165.734 291.250,165.805 291.925,165.891 291.100 C 165.978 290.275,165.978 288.925,165.891 288.100 C 165.805 287.275,165.734 287.950,165.734 289.600 M165.693 305.600 C 165.693 306.370,165.775 306.685,165.876 306.300 C 165.976 305.915,165.976 305.285,165.876 304.900 C 165.775 304.515,165.693 304.830,165.693 305.600 M231.748 351.600 C 231.748 353.910,231.814 354.855,231.895 353.700 C 231.976 352.545,231.976 350.655,231.895 349.500 C 231.814 348.345,231.748 349.290,231.748 351.600 " stroke="none" fill="#2cc0b4" fill-rule="evenodd"></path><path id="path8" d="M231.314 93.400 C 231.317 94.500,231.395 94.903,231.487 94.295 C 231.579 93.686,231.577 92.786,231.482 92.295 C 231.387 91.803,231.311 92.300,231.314 93.400 M190.900 99.876 C 191.285 99.976,191.915 99.976,192.300 99.876 C 192.685 99.775,192.370 99.693,191.600 99.693 C 190.830 99.693,190.515 99.775,190.900 99.876 M205.300 99.876 C 205.685 99.976,206.315 99.976,206.700 99.876 C 207.085 99.775,206.770 99.693,206.000 99.693 C 205.230 99.693,204.915 99.775,205.300 99.876 M231.129 101.405 C 230.862 101.671,231.214 144.137,231.484 144.400 C 231.598 144.510,231.625 134.835,231.545 122.900 C 231.465 110.965,231.385 101.200,231.367 101.200 C 231.348 101.200,231.241 101.292,231.129 101.405 M166.148 116.400 C 166.148 118.710,166.214 119.655,166.295 118.500 C 166.376 117.345,166.376 115.455,166.295 114.300 C 166.214 113.145,166.148 114.090,166.148 116.400 M166.081 138.200 C 166.030 140.840,165.896 143.450,165.783 144.000 L 165.577 145.000 166.000 144.033 C 166.247 143.470,166.371 141.049,166.298 138.233 L 166.173 133.400 166.081 138.200 M165.782 168.800 C 165.782 177.270,165.835 180.735,165.899 176.500 C 165.964 172.265,165.964 165.335,165.899 161.100 C 165.835 156.865,165.782 160.330,165.782 168.800 M165.781 208.200 C 165.780 216.120,165.834 219.417,165.899 215.526 C 165.965 211.635,165.965 205.155,165.900 201.126 C 165.834 197.097,165.781 200.280,165.781 208.200 M231.769 217.600 C 231.769 222.110,231.827 223.955,231.898 221.700 C 231.970 219.445,231.970 215.755,231.898 213.500 C 231.827 211.245,231.769 213.090,231.769 217.600 M165.381 244.200 C 165.381 252.340,165.434 255.613,165.500 251.474 C 165.565 247.334,165.565 240.674,165.499 236.674 C 165.434 232.673,165.381 236.060,165.381 244.200 M231.754 259.600 C 231.754 262.350,231.818 263.475,231.896 262.100 C 231.974 260.725,231.974 258.475,231.896 257.100 C 231.818 255.725,231.754 256.850,231.754 259.600 M165.759 266.800 C 165.759 269.990,165.821 271.295,165.897 269.700 C 165.973 268.105,165.973 265.495,165.897 263.900 C 165.821 262.305,165.759 263.610,165.759 266.800 M165.757 281.600 C 165.757 284.570,165.820 285.785,165.897 284.300 C 165.974 282.815,165.974 280.385,165.897 278.900 C 165.820 277.415,165.757 278.630,165.757 281.600 M231.740 288.400 C 231.740 290.270,231.809 291.035,231.893 290.100 C 231.977 289.165,231.977 287.635,231.893 286.700 C 231.809 285.765,231.740 286.530,231.740 288.400 M165.359 296.400 C 165.359 299.590,165.421 300.895,165.497 299.300 C 165.573 297.705,165.573 295.095,165.497 293.500 C 165.421 291.905,165.359 293.210,165.359 296.400 M231.720 301.600 C 231.720 302.810,231.795 303.305,231.887 302.700 C 231.978 302.095,231.978 301.105,231.887 300.500 C 231.795 299.895,231.720 300.390,231.720 301.600 M165.552 303.513 C 165.421 304.307,165.479 304.681,165.701 304.459 C 165.903 304.257,166.001 303.667,165.919 303.146 C 165.793 302.345,165.737 302.402,165.552 303.513 M231.701 307.400 C 231.705 308.280,231.787 308.593,231.883 308.095 C 231.979 307.598,231.975 306.878,231.875 306.495 C 231.775 306.113,231.696 306.520,231.701 307.400 M165.386 333.600 C 165.386 345.150,165.437 349.875,165.500 344.100 C 165.562 338.325,165.562 328.875,165.500 323.100 C 165.437 317.325,165.386 322.050,165.386 333.600 M231.724 324.600 C 231.726 325.920,231.801 326.412,231.890 325.693 C 231.979 324.974,231.977 323.894,231.886 323.293 C 231.795 322.692,231.722 323.280,231.724 324.600 " stroke="none" fill="#3caca4" fill-rule="evenodd"></path></g></svg>